<?xml version="1.0" encoding="UTF-8" standalone="no"?>
<svg xmlns="http://www.w3.org/2000/svg" version="1.1" width="48" height="48" viewBox="0 0 48 48">
  <g style="fill:none;stroke:#000000;stroke-width:2;stroke-linecap:butt;stroke-linejoin:miter;stroke-opacity:1">
    <path d="M25.64,12.68v-2.54c0-1.62,1.5-2.81,3.05-2.42l9.79,2.5c1.37.35,2.32,1.6,2.32,3.03v16.84c0,1.62-1.5,2.81-3.05,2.42l-5.79-1.48"/>
    <path d="M16.42,16.46v-2.44c0-1.62,1.5-2.81,3.05-2.42l9.79,2.5c1.37.35,2.32,1.6,2.32,3.03v16.84c0,1.62-1.5,2.81-3.05,2.42l-5.82-1.49"/>
    <path d="M9.52,37.77c-1.37-.35-2.32-1.6-2.32-3.03v-16.84c0-1.62,1.5-2.81,3.05-2.42l9.79,2.5c1.35.35,2.32,1.6,2.32,3.03v16.84c0,1.62-1.5,2.81-3.05,2.42l-9.79-2.5Z"/>
  </g>
</svg>
