<svg version="1.1" id="Layer_1" xmlns="http://www.w3.org/2000/svg" xmlns:xlink="http://www.w3.org/1999/xlink" x="0px" y="0px"
	 width="100%" viewBox="0 0 720 896" enable-background="new 0 0 720 896" xml:space="preserve">
<path fill="#FFFFFF" opacity="1.000000" stroke="none" 
	d="
M1.000000,229.000000 
	C1.000000,153.027893 1.000000,77.055801 1.000000,1.041850 
	C240.883987,1.041850 480.767975,1.041850 721.000000,1.041850 
	C721.000000,76.688957 721.000000,152.378448 720.645447,228.418182 
	C718.361755,219.159180 713.138184,211.680511 703.292603,210.349701 
	C692.023132,208.826431 680.486694,209.277985 668.686890,208.748657 
	C652.507446,206.618088 636.550171,205.420731 620.947571,202.395020 
	C601.963989,198.713715 583.126953,194.036514 564.495850,188.826935 
	C523.020813,177.229797 483.736633,160.158371 445.968109,139.566757 
	C420.872070,125.884254 396.764496,110.655106 373.790405,93.596222 
	C370.339386,91.033737 365.317352,90.586945 360.632416,89.091187 
	C359.191254,89.090286 358.139740,89.159660 356.720886,89.161728 
	C354.461761,89.974121 352.570038,90.853836 350.494659,91.766830 
	C350.311035,91.800117 350.009705,92.020386 349.675629,92.042252 
	C348.195190,93.020332 347.048828,93.976555 345.638031,95.077606 
	C344.605347,95.866684 343.837097,96.510925 342.757233,97.148010 
	C341.892456,97.706825 341.339294,98.272804 340.530151,98.934654 
	C339.867676,99.394096 339.461182,99.757660 338.742401,100.111649 
	C337.861450,100.662453 337.292816,101.222847 336.473755,101.879944 
	C335.822357,102.332069 335.421356,102.687492 334.684692,103.049332 
	C333.191040,104.007248 332.033020,104.958748 330.612457,106.007729 
	C329.929199,106.473869 329.508484,106.842529 328.743439,107.192505 
	C326.451019,108.648560 324.502960,110.123291 322.281464,111.709763 
	C321.364380,112.273979 320.720703,112.726471 319.770935,113.175568 
	C318.882751,113.708168 318.300659,114.244171 317.437561,114.915039 
	C316.126099,115.749825 315.095642,116.449768 313.730316,117.142059 
	C312.209625,118.049751 311.023773,118.965088 309.635010,119.931747 
	C309.432068,119.983086 309.093933,120.229927 308.789246,120.221802 
	C307.898132,120.737564 307.311768,121.261444 306.421143,121.931343 
	C303.794647,123.521729 301.472351,124.966087 298.836090,126.414490 
	C297.534180,127.144478 296.546265,127.870415 295.254517,128.712524 
	C293.665894,129.634277 292.381134,130.439865 290.788391,131.209564 
	C289.862518,131.674622 289.244629,132.175583 288.343750,132.766968 
	C287.389160,133.272873 286.717529,133.688354 285.735718,134.074127 
	C284.794861,134.548431 284.164154,135.052444 283.210480,135.658325 
	C281.310181,136.663269 279.732819,137.566330 277.859375,138.420364 
	C276.983093,138.869705 276.402954,139.368057 275.619690,139.918762 
	C275.416565,139.971115 275.100739,140.247299 274.753296,140.250092 
	C272.510529,141.427811 270.615204,142.602722 268.380737,143.853638 
	C266.421387,144.839233 264.801117,145.748810 262.893799,146.565948 
	C262.020905,146.945297 261.435089,147.417068 260.643372,147.929520 
	C260.437439,147.970200 260.076324,148.184433 259.727417,148.163177 
	C257.868011,149.056351 256.357483,149.970795 254.639252,150.916550 
	C254.431549,150.947861 254.064865,151.152832 253.705017,151.147797 
	C251.182053,152.393478 249.018951,153.644211 246.520416,154.957413 
	C245.180054,155.541122 244.175125,156.062378 242.875946,156.490631 
	C241.966507,156.861267 241.351303,157.324905 240.409424,157.845428 
	C239.099167,158.395859 238.115601,158.889404 236.767242,159.330170 
	C232.798889,161.066101 229.195328,162.854797 225.327454,164.696701 
	C224.729309,164.881348 224.395493,165.012802 223.685791,165.117401 
	C218.436890,167.310867 213.563873,169.531174 208.411636,171.782593 
	C207.779099,171.933548 207.425766,172.053406 206.707642,172.135605 
	C204.474396,172.994675 202.605957,173.891388 200.450592,174.812729 
	C199.810623,174.980576 199.457581,175.123810 198.735352,175.248245 
	C195.775803,176.368393 193.185455,177.507355 190.277618,178.701050 
	C189.346771,178.947556 188.733398,179.139328 187.812851,179.271088 
	C187.018799,179.555466 186.531937,179.899857 185.719116,180.270172 
	C184.991699,180.458084 184.590256,180.620087 183.915070,180.663818 
	C182.998978,180.949875 182.356644,181.354187 181.428909,181.775452 
	C180.781311,181.906387 180.419083,182.020370 179.689285,182.089355 
	C177.390991,182.876755 175.460281,183.709167 173.268036,184.561401 
	C172.675247,184.689407 172.343994,184.797577 171.754364,184.764099 
	C169.345612,185.493942 167.195206,186.365433 164.722427,187.261566 
	C163.993546,187.423599 163.587067,187.561005 162.872665,187.572372 
	C161.632416,187.901566 160.700089,188.356812 159.475586,188.821838 
	C158.809875,188.937912 158.436325,189.044220 157.684662,189.092422 
	C155.052963,189.878387 152.799347,190.722443 150.284851,191.573502 
	C149.689255,191.671188 149.354523,191.761871 148.739197,191.714203 
	C145.665405,192.515030 142.872223,193.454178 139.752899,194.393356 
	C139.012299,194.517563 138.597809,194.641739 137.880508,194.614227 
	C136.616104,194.888260 135.654526,195.314026 134.359192,195.752182 
	C133.372620,195.897064 132.719772,196.029526 131.731628,196.087036 
	C130.605911,196.386566 129.815475,196.761078 128.661041,197.140289 
	C127.588051,197.294754 126.879036,197.444534 125.854431,197.464996 
	C124.559982,197.768372 123.581139,198.201080 122.333969,198.628876 
	C121.717018,198.699387 121.368401,198.774780 120.744736,198.706741 
	C118.653862,199.084625 116.838043,199.605911 114.702194,200.130783 
	C113.970306,200.239822 113.558441,200.345306 112.784897,200.350830 
	C111.314133,200.650787 110.205048,201.050705 108.770180,201.434082 
	C108.021721,201.509460 107.599045,201.601349 106.839066,201.549576 
	C105.210716,201.828796 103.919670,202.251678 102.247177,202.685852 
	C100.610588,202.888077 99.355446,203.078979 97.723740,203.169067 
	C95.915024,203.470337 94.482857,203.872421 92.686081,204.257904 
	C91.603188,204.354553 90.884903,204.467819 89.788017,204.440491 
	C87.482506,204.756317 85.555588,205.212738 83.299789,205.656647 
	C82.319084,205.724564 81.667252,205.804993 80.703171,205.739166 
	C77.601509,206.104431 74.812103,206.615982 71.631470,207.103653 
	C70.200432,207.170029 69.160629,207.260269 67.696625,207.239075 
	C64.874199,207.540848 62.475971,207.954025 59.694164,208.331787 
	C57.516216,208.493301 55.721844,208.690247 53.581497,208.762787 
	C52.507095,208.693314 51.778664,208.748245 50.690384,208.633575 
	C40.893753,208.999222 31.456974,209.534470 21.687529,210.032700 
	C20.917381,210.073074 20.479904,210.150482 19.665401,210.150131 
	C17.121483,211.010193 14.954587,211.947998 12.578271,212.909546 
	C12.368850,212.933273 12.045173,213.203293 11.712449,213.224854 
	C8.981224,216.177155 6.582723,219.107925 4.032852,222.263779 
	C3.835289,222.844025 3.789095,223.199188 3.466877,223.751801 
	C2.985295,224.993546 2.779736,226.037872 2.437862,227.411072 
	C2.317327,228.208939 2.333107,228.677933 2.005007,229.171326 
	C1.440751,229.130478 1.220375,229.065231 1.000000,229.000000 
z"/>
<path fill="#FFFFFF" opacity="1.000000" stroke="none" 
	d="
M721.000000,588.000000 
	C721.000000,690.967102 721.000000,793.934204 721.000000,896.950684 
	C481.109589,896.950684 241.219162,896.950684 1.000000,896.950684 
	C1.000000,793.642822 1.000000,690.285278 1.278428,586.695862 
	C3.801061,596.703979 12.288614,603.598572 23.053230,603.676453 
	C43.703167,603.825989 64.353920,603.862061 84.952881,604.364868 
	C84.601044,607.237000 84.041077,609.689148 84.038597,612.141846 
	C83.987648,662.433777 83.951271,712.725891 84.045265,763.017700 
	C84.062302,772.133850 84.694626,781.247925 84.990257,790.364746 
	C85.333817,800.959595 96.069130,809.100037 105.157631,809.068176 
	C149.787033,808.911865 194.417252,808.987793 239.512573,808.982727 
	C253.606461,808.947021 267.234955,808.910278 281.338623,808.923462 
	C301.232513,808.953552 320.651215,808.933777 340.533020,808.948059 
	C347.675446,808.935303 354.354828,808.888428 361.495911,808.911621 
	C368.634033,808.948547 375.310425,808.915466 382.450958,808.933044 
	C402.313812,808.928101 421.712555,808.872498 441.568848,808.882812 
	C455.684204,808.964600 469.342010,808.980530 483.468414,809.006226 
	C528.549072,809.010498 573.161499,809.077942 617.772461,808.853577 
	C621.145508,808.836670 624.773804,807.221741 627.824158,805.524292 
	C635.888306,801.036682 637.949280,793.198730 637.958679,784.735474 
	C638.025757,724.476013 637.992676,664.216309 638.451721,603.856628 
	C641.559082,603.741333 644.206177,603.725342 646.853271,603.710999 
	C665.539734,603.609802 684.226257,603.508972 703.214355,603.526367 
	C704.221008,603.241943 704.925964,602.839111 705.985474,602.424805 
	C708.237427,601.512939 710.634155,601.063416 711.934448,599.623718 
	C715.219299,595.986633 718.010803,591.904053 721.000000,588.000000 
z"/>
<path fill="#4D3C4C" opacity="1.000000" stroke="none" 
	d="
M702.912720,603.407959 
	C684.226257,603.508972 665.539734,603.609802 646.853271,603.710999 
	C644.206177,603.725342 641.559082,603.741333 637.994263,603.748535 
	C547.196045,603.730408 457.315430,603.722107 367.434845,603.698608 
	C365.279694,603.697998 363.124603,603.527588 360.993164,603.003723 
	C360.998230,560.805359 360.979584,519.039734 361.411041,477.120758 
	C363.691467,476.929291 365.521851,476.857269 367.352203,476.857788 
	C455.446686,476.883087 543.541199,476.917480 631.635681,476.928772 
	C633.782654,476.929047 635.929688,476.680115 638.476562,476.658844 
	C651.483826,478.104858 658.340271,484.885498 659.551392,497.494568 
	C660.439209,506.737061 660.476868,516.103271 661.975220,525.236877 
	C665.851807,548.868164 675.020691,561.836304 699.668335,561.428894 
	C700.165344,561.420654 700.663635,561.484619 701.161072,561.518860 
	C709.123535,562.067566 714.847717,565.989563 718.559021,572.999451 
	C719.288574,574.377502 720.182068,575.668701 721.000000,577.000000 
	C721.000000,580.361267 721.000000,583.722595 721.000000,587.541931 
	C718.010803,591.904053 715.219299,595.986633 711.934448,599.623718 
	C710.634155,601.063416 708.237427,601.512939 705.664917,602.301331 
	C704.297485,602.595581 703.605103,603.001770 702.912720,603.407959 
z"/>
<path fill="#675F6C" opacity="1.000000" stroke="none" 
	d="
M360.960968,477.274048 
	C360.979584,519.039734 360.998230,560.805359 361.004547,603.144653 
	C360.992249,603.718323 361.000214,604.001099 360.543396,603.885132 
	C269.050903,603.749573 178.015259,603.729370 86.979614,603.720032 
	C86.321198,603.719971 85.662766,603.866882 85.004333,603.945190 
	C64.353920,603.862061 43.703167,603.825989 23.053230,603.676453 
	C12.288614,603.598572 3.801061,596.703979 1.278428,586.231995 
	C1.000000,583.958313 1.000000,581.916687 1.277807,579.206909 
	C3.032697,571.044556 8.025847,566.374756 14.629842,562.709412 
	C16.326818,562.222778 17.664761,561.737244 19.462059,561.328369 
	C22.413816,561.344299 24.911606,561.367798 27.397711,561.208679 
	C40.662308,560.359558 51.559059,555.227539 56.367668,542.179260 
	C59.490513,533.705444 61.334190,524.660522 62.837219,515.717834 
	C64.314270,506.929657 64.637024,497.947418 65.483322,488.970520 
	C65.500328,488.890717 65.425697,488.745575 65.727448,488.576111 
	C69.945595,481.990662 75.508987,477.966248 83.449707,476.826721 
	C167.944077,476.937042 251.978683,476.948242 336.013275,476.944122 
	C337.334839,476.944061 338.656433,476.756775 340.434998,476.775726 
	C347.615387,476.762024 354.338715,476.629517 361.035583,476.691101 
	C361.009094,476.885193 360.960968,477.274048 360.960968,477.274048 
z"/>
<path fill="#FEFEFE" opacity="1.000000" stroke="none" 
	d="
M721.000000,576.531372 
	C720.182068,575.668701 719.288574,574.377502 718.559021,572.999451 
	C714.847717,565.989563 709.123535,562.067566 701.161072,561.518860 
	C700.663635,561.484619 700.165344,561.420654 699.668335,561.428894 
	C675.020691,561.836304 665.851807,548.868164 661.975220,525.236877 
	C660.476868,516.103271 660.439209,506.737061 659.551392,497.494568 
	C658.340271,484.885498 651.483826,478.104858 638.499512,476.405884 
	C638.068848,475.707245 638.015198,475.372955 637.963928,474.611969 
	C637.646179,471.729523 637.034424,469.272034 637.049316,466.818329 
	C637.318237,422.529297 637.662842,378.240753 638.449951,333.843536 
	C649.518616,333.570374 660.128540,333.405762 671.069580,333.367371 
	C672.958557,332.683411 674.516418,331.873199 676.277710,330.996460 
	C676.481201,330.929901 676.865967,330.742126 677.175415,330.785217 
	C678.060425,330.285889 678.635925,329.743469 679.483887,329.037201 
	C680.879395,327.629242 682.002441,326.385162 683.446777,325.050354 
	C684.414917,323.590912 685.061707,322.222198 685.824097,320.526672 
	C686.428772,318.917633 686.917786,317.635376 687.721069,316.213745 
	C688.641907,314.355438 689.248413,312.636475 689.941528,310.647705 
	C690.113098,310.010010 690.198059,309.642059 690.606079,309.140625 
	C692.895020,303.972290 694.860901,298.937439 696.920776,293.631470 
	C697.087769,292.984924 697.160767,292.609467 697.550415,292.092834 
	C699.831177,286.924316 701.795227,281.897003 703.868347,276.601685 
	C704.049072,275.954895 704.120728,275.576080 704.500000,275.045349 
	C705.789978,272.217468 706.772339,269.541504 707.895752,266.618896 
	C708.118286,266.003204 708.199768,265.634155 708.552734,265.122162 
	C709.054749,264.247681 709.285278,263.516144 709.622314,262.448090 
	C710.207703,260.798462 710.686523,259.485382 711.460815,258.013306 
	C712.023254,256.836700 712.290161,255.819077 712.715698,254.465088 
	C713.711304,251.785400 714.548218,249.442078 715.654175,246.953720 
	C716.252747,245.868271 716.582214,244.927856 717.168457,243.813797 
	C717.576050,243.075912 717.726807,242.511703 717.952576,241.551910 
	C718.347412,239.425293 718.506104,237.640533 719.057373,235.986649 
	C719.320862,235.196396 720.329102,234.654434 721.000000,234.000000 
	C721.000000,348.020905 721.000000,462.041779 721.000000,576.531372 
z"/>
<path fill="#FFFFFF" opacity="1.000000" stroke="none" 
	d="
M19.002705,561.251770 
	C17.664761,561.737244 16.326818,562.222778 14.429720,562.320251 
	C9.580376,561.288147 5.290188,560.644104 1.000000,560.000000 
	C1.000000,459.979095 1.000000,359.958221 1.443764,259.468628 
	C3.808730,259.094208 5.729932,259.188446 8.414210,259.320099 
	C6.475663,268.766907 5.286843,277.668121 15.315104,282.087372 
	C15.996267,288.227966 13.344469,294.894135 21.281752,298.056000 
	C23.383633,298.893280 24.059284,301.526093 21.434614,303.251831 
	C18.823895,304.968353 18.720909,307.081757 20.725700,309.002441 
	C22.604050,310.801971 24.921822,312.180969 27.162663,313.555145 
	C30.517302,315.612274 33.442669,317.531860 32.178429,322.464996 
	C31.701765,324.324921 32.523220,327.198914 33.817287,328.681854 
	C36.134087,331.336823 39.163776,333.420776 42.081631,335.479553 
	C43.638844,336.578369 45.589676,337.818146 47.355022,337.806488 
	C56.808056,337.744141 66.262489,337.392120 75.708115,336.958649 
	C79.484848,336.785370 81.074593,337.981659 81.064217,342.033295 
	C80.958435,383.346222 81.012436,424.659515 80.984154,465.972687 
	C80.980492,471.319672 74.858391,475.252045 69.681915,473.472046 
	C67.373665,472.678345 64.378349,472.286316 64.244690,475.550476 
	C64.065552,479.925415 64.980499,484.345093 65.425697,488.745575 
	C65.425697,488.745575 65.500328,488.890717 65.000061,488.952301 
	C62.549961,489.013885 60.600124,489.013885 58.729286,489.013885 
	C58.122387,491.457794 58.146503,493.690277 57.100620,495.162720 
	C52.929504,501.034729 53.847824,507.285614 54.689335,513.795898 
	C55.523918,520.252625 55.728298,526.805908 55.863098,533.323975 
	C55.887573,534.507324 54.220612,536.773315 53.376427,536.753540 
	C48.612457,536.641602 48.346222,539.470032 47.861046,543.163269 
	C46.651348,552.371704 42.559879,554.011230 35.651001,548.494202 
	C35.433022,548.320129 35.022369,548.387329 34.147064,548.263672 
	C33.488979,549.512817 32.900089,551.041504 31.945087,552.290222 
	C31.365543,553.048157 30.137072,553.926575 29.341560,553.807312 
	C21.252520,552.594910 21.500263,553.648193 19.002705,561.251770 
z"/>
<path fill="#4D3C4C" opacity="1.000000" stroke="none" 
	d="
M716.911743,243.987457 
	C716.582214,244.927856 716.252747,245.868271 715.271362,246.948090 
	C707.823669,251.683731 700.243530,252.111481 692.278381,252.102097 
	C581.862732,251.972107 471.446869,252.020828 361.021027,251.555679 
	C361.015564,237.383392 361.020142,223.681274 361.490692,209.981400 
	C462.449921,209.985413 562.943176,209.993210 663.436462,209.942352 
	C665.313232,209.941391 667.189697,209.243988 669.066284,208.871506 
	C680.486694,209.277985 692.023132,208.826431 703.292603,210.349701 
	C713.138184,211.680511 718.361755,219.159180 720.645447,228.884216 
	C721.000000,230.388885 721.000000,231.777786 721.000000,233.583344 
	C720.329102,234.654434 719.320862,235.196396 719.057373,235.986649 
	C718.506104,237.640533 718.347412,239.425293 717.690247,241.618134 
	C717.205872,242.715790 717.058838,243.351639 716.911743,243.987457 
z"/>
<path fill="#FFFFFF" opacity="1.000000" stroke="none" 
	d="
M65.727448,488.576111 
	C64.980499,484.345093 64.065552,479.925415 64.244690,475.550476 
	C64.378349,472.286316 67.373665,472.678345 69.681915,473.472046 
	C74.858391,475.252045 80.980492,471.319672 80.984154,465.972687 
	C81.012436,424.659515 80.958435,383.346222 81.064217,342.033295 
	C81.074593,337.981659 79.484848,336.785370 75.708115,336.958649 
	C66.262489,337.392120 56.808056,337.744141 47.355022,337.806488 
	C45.589676,337.818146 43.638844,336.578369 42.081631,335.479553 
	C39.163776,333.420776 36.134087,331.336823 33.817287,328.681854 
	C32.523220,327.198914 31.701765,324.324921 32.178429,322.464996 
	C33.442669,317.531860 30.517302,315.612274 27.162663,313.555145 
	C24.921822,312.180969 22.604050,310.801971 20.725700,309.002441 
	C18.720909,307.081757 18.823895,304.968353 21.434614,303.251831 
	C24.059284,301.526093 23.383633,298.893280 21.281752,298.056000 
	C13.344469,294.894135 15.996267,288.227966 15.315104,282.087372 
	C5.286843,277.668121 6.475663,268.766907 8.414210,259.320099 
	C5.729932,259.188446 3.808730,259.094208 1.443764,259.000000 
	C1.000000,250.645767 1.000000,242.291534 1.328966,233.372192 
	C1.885650,232.826523 2.113367,232.845963 2.284089,233.213348 
	C2.335243,234.014206 2.443393,234.467133 2.452888,235.270233 
	C2.805391,236.913330 3.256546,238.206223 3.693599,239.818130 
	C3.860885,240.742538 4.042271,241.347931 4.254441,242.316818 
	C5.487631,245.168564 6.690037,247.656845 7.931549,250.443253 
	C8.106007,251.117386 8.241359,251.493378 8.334805,252.215851 
	C9.120843,254.134766 9.948786,255.707184 10.808246,257.562622 
	C10.975284,258.198181 11.110805,258.550781 11.230061,259.272339 
	C12.423573,262.163635 13.633348,264.685913 14.885503,267.497498 
	C15.061158,268.151825 15.194436,268.516815 15.284520,269.230347 
	C16.068647,271.164093 16.895967,272.749329 17.758656,274.610474 
	C17.916367,275.235352 18.038713,275.584290 18.145323,276.308533 
	C20.318819,281.576996 22.508051,286.470154 24.733932,291.635925 
	C24.889584,292.254303 25.008585,292.600067 25.093163,293.298462 
	C25.898178,295.252716 26.737619,296.854340 27.624012,298.773926 
	C27.912666,299.681641 28.154371,300.271301 28.373158,301.227509 
	C29.529226,304.113556 30.708216,306.633057 31.919580,309.451416 
	C32.094906,310.121948 32.237854,310.493683 32.352219,311.211487 
	C33.142979,313.128723 33.962318,314.699890 34.812420,316.556305 
	C34.990585,317.191986 35.137989,317.542419 35.235039,318.185822 
	C35.575619,319.160797 35.966545,319.842773 36.472603,320.830505 
	C37.407913,322.416382 38.228092,323.696594 39.062115,325.304871 
	C40.032730,326.443268 40.989510,327.253571 41.971195,328.031006 
	C41.996101,327.998138 41.936253,328.055908 42.005180,328.358490 
	C42.757160,329.026184 43.440216,329.391266 44.319138,329.992462 
	C45.262184,330.547333 46.009361,330.866119 46.901817,331.512390 
	C49.751842,332.376404 52.456589,332.912964 55.613388,333.519104 
	C65.712006,333.690796 75.358574,333.792938 84.956131,334.317535 
	C84.604950,337.190796 84.042435,339.641205 84.039330,342.092377 
	C83.985573,384.526154 84.017334,426.960083 83.957443,469.393860 
	C83.953987,471.838409 83.326820,474.282074 82.989922,476.726166 
	C75.508987,477.966248 69.945595,481.990662 65.727448,488.576111 
z"/>
<path fill="#FFFFFF" opacity="1.000000" stroke="none" 
	d="
M1.000000,560.468262 
	C5.290188,560.644104 9.580376,561.288147 14.070686,562.321411 
	C8.025847,566.374756 3.032697,571.044556 1.277807,578.769409 
	C1.000000,572.978821 1.000000,566.957703 1.000000,560.468262 
z"/>
<path fill="#827982" opacity="1.000000" stroke="none" 
	d="
M2.341083,232.865402 
	C2.113367,232.845963 1.885650,232.826523 1.328966,232.903534 
	C1.000000,231.933334 1.000000,230.866684 1.000000,229.400009 
	C1.220375,229.065231 1.440751,229.130478 2.218810,229.375748 
	C2.631356,230.658981 2.486219,231.762192 2.341083,232.865402 
z"/>
<path fill="#665E6B" opacity="1.000000" stroke="none" 
	d="
M2.284089,233.213348 
	C2.486219,231.762192 2.631356,230.658981 2.562690,229.351349 
	C2.333107,228.677933 2.317327,228.208939 2.747920,227.269623 
	C3.377163,225.717636 3.560033,224.636002 3.742902,223.554352 
	C3.789095,223.199188 3.835289,222.844025 4.356608,222.207581 
	C7.236213,219.018631 9.640693,216.110962 12.045173,213.203293 
	C12.045173,213.203293 12.368850,212.933273 12.972536,212.933624 
	C15.731624,212.031952 17.887026,211.129913 20.042427,210.227875 
	C20.479904,210.150482 20.917381,210.073074 21.992466,210.311829 
	C28.111696,210.738937 33.609161,211.149826 39.069687,210.861420 
	C43.088230,210.649170 47.058472,209.522415 51.050236,208.803192 
	C51.778664,208.748245 52.507095,208.693314 53.871246,209.076218 
	C56.143528,209.672028 57.780060,209.967941 59.416653,209.968262 
	C159.950485,209.987411 260.484314,209.982346 361.012268,209.986267 
	C361.006409,209.992996 361.024689,209.979156 361.024719,209.979156 
	C361.020142,223.681274 361.015564,237.383392 361.010559,251.547760 
	C361.010101,252.010025 361.021484,252.023987 360.550781,252.016464 
	C252.428497,252.008499 144.776932,251.993637 37.125389,252.031113 
	C26.994356,252.034637 16.716970,253.102768 8.011545,246.155167 
	C7.791625,245.979645 7.365552,246.062424 6.883463,245.721909 
	C5.895419,244.263840 5.059534,243.108597 4.223653,241.953339 
	C4.042271,241.347931 3.860885,240.742538 3.794073,239.436920 
	C3.456278,237.464493 3.003908,236.192261 2.551540,234.920044 
	C2.443393,234.467133 2.335243,234.014206 2.284089,233.213348 
z"/>
<path fill="#352A34" opacity="1.000000" stroke="none" 
	d="
M668.686890,208.748657 
	C667.189697,209.243988 665.313232,209.941391 663.436462,209.942352 
	C562.943176,209.993210 462.449921,209.985413 361.490662,209.981400 
	C361.024689,209.979156 361.006409,209.992996 361.008606,209.519791 
	C361.014526,169.084869 361.018280,129.123169 361.022064,89.161453 
	C365.317352,90.586945 370.339386,91.033737 373.790405,93.596222 
	C396.764496,110.655106 420.872070,125.884254 445.968109,139.566757 
	C483.736633,160.158371 523.020813,177.229797 564.495850,188.826935 
	C583.126953,194.036514 601.963989,198.713715 620.947571,202.395020 
	C636.550171,205.420731 652.507446,206.618088 668.686890,208.748657 
z"/>
<path fill="#4E3D4D" opacity="1.000000" stroke="none" 
	d="
M360.632416,89.091187 
	C361.018280,129.123169 361.014526,169.084869 361.014465,209.513062 
	C260.484314,209.982346 159.950485,209.987411 59.416653,209.968262 
	C57.780060,209.967941 56.143528,209.672028 54.217216,209.200623 
	C55.721844,208.690247 57.516216,208.493301 59.985565,208.568634 
	C63.147305,208.344101 65.634064,207.847305 68.120827,207.350510 
	C69.160629,207.260269 70.200432,207.170029 71.908539,207.351700 
	C75.389702,207.044235 78.202560,206.464828 81.015427,205.885437 
	C81.667252,205.804993 82.319084,205.724564 83.700562,205.790314 
	C86.342346,205.484695 88.254478,205.032898 90.166618,204.581085 
	C90.884903,204.467819 91.603188,204.354553 92.936691,204.485992 
	C95.068031,204.243774 96.584167,203.756836 98.100296,203.269882 
	C99.355446,203.078979 100.610588,202.888077 102.599129,202.812622 
	C104.613800,202.516449 105.895088,202.104843 107.176369,201.693237 
	C107.599045,201.601349 108.021721,201.509460 109.009048,201.631165 
	C110.764664,201.380112 111.955627,200.915451 113.146584,200.450775 
	C113.558441,200.345306 113.970306,200.239822 114.944199,200.355621 
	C117.344078,200.001328 119.181931,199.425751 121.019783,198.850159 
	C121.368401,198.774780 121.717018,198.699387 122.667816,198.759491 
	C124.236679,198.461426 125.203354,198.027878 126.170029,197.594330 
	C126.879036,197.444534 127.588051,197.294754 128.854889,197.373810 
	C130.297455,197.122421 131.182190,196.642212 132.066925,196.162003 
	C132.719772,196.029526 133.372620,195.897064 134.680786,195.863297 
	C136.285187,195.563309 137.234253,195.164612 138.183319,194.765930 
	C138.597809,194.641739 139.012299,194.517563 140.019073,194.603409 
	C143.414185,193.826462 146.216995,192.839493 149.019806,191.852539 
	C149.354523,191.761871 149.689255,191.671188 150.680634,191.708130 
	C153.579117,190.940674 155.820938,190.045593 158.062759,189.150513 
	C158.436325,189.044220 158.809875,188.937912 159.798172,188.920502 
	C161.335464,188.572403 162.258011,188.135406 163.180573,187.698410 
	C163.587067,187.561005 163.993546,187.423599 164.946411,187.482391 
	C167.666107,186.754303 169.839417,185.830032 172.012726,184.905746 
	C172.343994,184.797577 172.675247,184.689407 173.650299,184.687683 
	C176.214996,183.907547 178.135941,183.020950 180.056870,182.134369 
	C180.419083,182.020370 180.781311,181.906387 181.717255,181.874420 
	C182.923599,181.565002 183.556198,181.173538 184.188797,180.782089 
	C184.590256,180.620087 184.991699,180.458084 185.880524,180.473145 
	C186.951950,180.210526 187.535995,179.770813 188.120041,179.331100 
	C188.733398,179.139328 189.346771,178.947556 190.663101,178.791351 
	C193.945557,177.640305 196.525055,176.453674 199.104538,175.267059 
	C199.457581,175.123810 199.810623,174.980576 200.833099,174.899506 
	C203.359161,174.032196 205.215805,173.102722 207.072449,172.173248 
	C207.425766,172.053406 207.779099,171.933548 208.801224,171.845871 
	C214.333908,169.633453 219.197784,167.388855 224.061676,165.144241 
	C224.395493,165.012802 224.729309,164.881348 225.709839,164.786438 
	C229.948380,163.009644 233.540207,161.196304 237.132034,159.382965 
	C238.115601,158.889404 239.099167,158.395859 240.709412,157.918930 
	C241.947449,157.484909 242.558823,157.034271 243.170197,156.583633 
	C244.175125,156.062378 245.180054,155.541122 246.893433,154.990051 
	C249.756195,153.691116 251.910522,152.421967 254.064865,151.152832 
	C254.064865,151.152832 254.431549,150.947861 255.000809,150.961929 
	C257.072144,150.045471 258.574249,149.114944 260.076324,148.184433 
	C260.076324,148.184433 260.437439,147.970200 260.932861,147.986816 
	C262.012451,147.555099 262.596680,147.106735 263.180878,146.658386 
	C264.801117,145.748810 266.421387,144.839233 268.744110,143.909180 
	C271.331299,142.674881 273.216034,141.461090 275.100739,140.247299 
	C275.100739,140.247299 275.416565,139.971115 275.929077,139.979431 
	C277.012909,139.481628 277.584198,138.975510 278.155487,138.469391 
	C279.732819,137.566330 281.310181,136.663269 283.545105,135.770142 
	C284.817139,135.221344 285.431519,134.662582 286.045898,134.103821 
	C286.717529,133.688354 287.389160,133.272873 288.669464,132.859406 
	C289.884216,132.322739 290.490265,131.784103 291.096344,131.245453 
	C292.381134,130.439865 293.665894,129.634277 295.586670,128.818542 
	C297.198486,128.009079 298.174255,127.209763 299.150055,126.410446 
	C301.472351,124.966087 303.794647,123.521729 306.749390,121.997139 
	C307.952545,121.354584 308.523254,120.792259 309.093933,120.229927 
	C309.093933,120.229927 309.432068,119.983086 309.984070,119.965034 
	C311.712463,119.014549 312.888824,118.082123 314.065186,117.149696 
	C315.095642,116.449768 316.126099,115.749825 317.769470,114.977936 
	C318.947266,114.330307 319.512146,113.754631 320.077026,113.178955 
	C320.720703,112.726471 321.364380,112.273979 322.640106,111.805740 
	C325.210693,110.263718 327.149261,108.737450 329.087799,107.211182 
	C329.508484,106.842529 329.929199,106.473869 330.963928,106.034073 
	C332.725464,104.989594 333.872925,104.016258 335.020355,103.042915 
	C335.421356,102.687492 335.822357,102.332069 336.806091,101.936661 
	C337.944122,101.304855 338.499420,100.713043 339.054718,100.121231 
	C339.461182,99.757660 339.867676,99.394096 340.857452,98.972809 
	C341.983459,98.328461 342.526154,97.741821 343.068848,97.155167 
	C343.837097,96.510925 344.605347,95.866684 345.989563,95.093613 
	C347.740265,93.983322 348.875000,93.001862 350.009705,92.020393 
	C350.009705,92.020386 350.311035,91.800117 350.875977,91.836388 
	C353.323364,90.991447 355.205780,90.110245 357.088226,89.229034 
	C358.139740,89.159660 359.191254,89.090286 360.632416,89.091187 
z"/>
<path fill="#827982" opacity="1.000000" stroke="none" 
	d="
M50.690384,208.633575 
	C47.058472,209.522415 43.088230,210.649170 39.069687,210.861420 
	C33.609161,211.149826 28.111696,210.738937 22.325134,210.348846 
	C31.456974,209.534470 40.893753,208.999222 50.690384,208.633575 
z"/>
<path fill="#827982" opacity="1.000000" stroke="none" 
	d="
M223.685791,165.117401 
	C219.197784,167.388855 214.333908,169.633453 209.080444,171.814758 
	C213.563873,169.531174 218.436890,167.310867 223.685791,165.117401 
z"/>
<path fill="#827982" opacity="1.000000" stroke="none" 
	d="
M11.712449,213.224854 
	C9.640693,216.110962 7.236213,219.018631 4.507977,221.982498 
	C6.582723,219.107925 8.981224,216.177155 11.712449,213.224854 
z"/>
<path fill="#827982" opacity="1.000000" stroke="none" 
	d="
M236.767242,159.330170 
	C233.540207,161.196304 229.948380,163.009644 225.974152,164.733246 
	C229.195328,162.854797 232.798889,161.066101 236.767242,159.330170 
z"/>
<path fill="#827982" opacity="1.000000" stroke="none" 
	d="
M80.703171,205.739166 
	C78.202560,206.464828 75.389702,207.044235 72.299767,207.375580 
	C74.812103,206.615982 77.601509,206.104431 80.703171,205.739166 
z"/>
<path fill="#827982" opacity="1.000000" stroke="none" 
	d="
M148.739197,191.714203 
	C146.216995,192.839493 143.414185,193.826462 140.345215,194.603378 
	C142.872223,193.454178 145.665405,192.515030 148.739197,191.714203 
z"/>
<path fill="#827982" opacity="1.000000" stroke="none" 
	d="
M67.696625,207.239075 
	C65.634064,207.847305 63.147305,208.344101 60.369141,208.604065 
	C62.475971,207.954025 64.874199,207.540848 67.696625,207.239075 
z"/>
<path fill="#827982" opacity="1.000000" stroke="none" 
	d="
M328.743439,107.192505 
	C327.149261,108.737450 325.210693,110.263718 322.913513,111.694000 
	C324.502960,110.123291 326.451019,108.648560 328.743439,107.192505 
z"/>
<path fill="#827982" opacity="1.000000" stroke="none" 
	d="
M198.735352,175.248230 
	C196.525055,176.453674 193.945557,177.640305 190.980591,178.736633 
	C193.185455,177.507355 195.775803,176.368393 198.735352,175.248230 
z"/>
<path fill="#827982" opacity="1.000000" stroke="none" 
	d="
M19.665401,210.150131 
	C17.887026,211.129913 15.731624,212.031952 13.181957,212.909897 
	C14.954587,211.947998 17.121483,211.010193 19.665401,210.150131 
z"/>
<path fill="#827982" opacity="1.000000" stroke="none" 
	d="
M157.684662,189.092422 
	C155.820938,190.045593 153.579117,190.940674 150.941513,191.701111 
	C152.799347,190.722443 155.052963,189.878387 157.684662,189.092422 
z"/>
<path fill="#827982" opacity="1.000000" stroke="none" 
	d="
M171.754364,184.764099 
	C169.839417,185.830032 167.666107,186.754303 165.268799,187.457748 
	C167.195206,186.365433 169.345612,185.493942 171.754364,184.764099 
z"/>
<path fill="#827982" opacity="1.000000" stroke="none" 
	d="
M253.705017,151.147781 
	C251.910522,152.421967 249.756195,153.691116 247.228851,154.927612 
	C249.018951,153.644211 251.182053,152.393478 253.705017,151.147781 
z"/>
<path fill="#827982" opacity="1.000000" stroke="none" 
	d="
M89.788017,204.440491 
	C88.254478,205.032898 86.342346,205.484695 84.029442,205.802826 
	C85.555588,205.212738 87.482506,204.756317 89.788017,204.440491 
z"/>
<path fill="#827982" opacity="1.000000" stroke="none" 
	d="
M274.753296,140.250092 
	C273.216034,141.461090 271.331299,142.674881 269.083252,143.833160 
	C270.615204,142.602722 272.510529,141.427811 274.753296,140.250092 
z"/>
<path fill="#827982" opacity="1.000000" stroke="none" 
	d="
M120.744736,198.706741 
	C119.181931,199.425751 117.344078,200.001328 115.264221,200.352051 
	C116.838043,199.605911 118.653862,199.084625 120.744736,198.706741 
z"/>
<path fill="#827982" opacity="1.000000" stroke="none" 
	d="
M206.707642,172.135590 
	C205.215805,173.102722 203.359161,174.032196 201.120026,174.874893 
	C202.605957,173.891388 204.474396,172.994675 206.707642,172.135590 
z"/>
<path fill="#827982" opacity="1.000000" stroke="none" 
	d="
M179.689285,182.089355 
	C178.135941,183.020950 176.214996,183.907547 173.911819,184.667847 
	C175.460281,183.709167 177.390991,182.876755 179.689285,182.089355 
z"/>
<path fill="#827982" opacity="1.000000" stroke="none" 
	d="
M356.720886,89.161720 
	C355.205780,90.110245 353.323364,90.991447 351.059601,91.803101 
	C352.570038,90.853836 354.461761,89.974121 356.720886,89.161720 
z"/>
<path fill="#827982" opacity="1.000000" stroke="none" 
	d="
M97.723740,203.169067 
	C96.584167,203.756836 95.068031,204.243774 93.301300,204.502625 
	C94.482857,203.872421 95.915024,203.470337 97.723740,203.169067 
z"/>
<path fill="#827982" opacity="1.000000" stroke="none" 
	d="
M259.727417,148.163177 
	C258.574249,149.114944 257.072144,150.045471 255.208511,150.930618 
	C256.357483,149.970795 257.868011,149.056351 259.727417,148.163177 
z"/>
<path fill="#827982" opacity="1.000000" stroke="none" 
	d="
M112.784897,200.350830 
	C111.955627,200.915451 110.764664,201.380112 109.334839,201.647705 
	C110.205048,201.050705 111.314133,200.650787 112.784897,200.350830 
z"/>
<path fill="#827982" opacity="1.000000" stroke="none" 
	d="
M106.839066,201.549576 
	C105.895088,202.104843 104.613800,202.516449 102.980568,202.801315 
	C103.919670,202.251678 105.210716,201.828796 106.839066,201.549576 
z"/>
<path fill="#827982" opacity="1.000000" stroke="none" 
	d="
M349.675629,92.042252 
	C348.875000,93.001862 347.740265,93.983322 346.253998,94.948776 
	C347.048828,93.976555 348.195190,93.020332 349.675629,92.042252 
z"/>
<path fill="#827982" opacity="1.000000" stroke="none" 
	d="
M334.684692,103.049332 
	C333.872925,104.016258 332.725464,104.989594 331.226501,105.936592 
	C332.033020,104.958748 333.191040,104.007248 334.684692,103.049332 
z"/>
<path fill="#827982" opacity="1.000000" stroke="none" 
	d="
M313.730316,117.142059 
	C312.888824,118.082123 311.712463,119.014549 310.187012,119.913696 
	C311.023773,118.965088 312.209625,118.049751 313.730316,117.142059 
z"/>
<path fill="#827982" opacity="1.000000" stroke="none" 
	d="
M298.836090,126.414490 
	C298.174255,127.209763 297.198486,128.009079 295.890503,128.702362 
	C296.546265,127.870415 297.534180,127.144478 298.836090,126.414490 
z"/>
<path fill="#827982" opacity="1.000000" stroke="none" 
	d="
M3.466878,223.751801 
	C3.560033,224.636002 3.377163,225.717636 2.884235,226.940735 
	C2.779736,226.037872 2.985295,224.993546 3.466878,223.751801 
z"/>
<path fill="#827982" opacity="1.000000" stroke="none" 
	d="
M162.872665,187.572372 
	C162.258011,188.135406 161.335464,188.572403 160.090332,188.910721 
	C160.700089,188.356812 161.632416,187.901566 162.872665,187.572372 
z"/>
<path fill="#827982" opacity="1.000000" stroke="none" 
	d="
M137.880508,194.614227 
	C137.234253,195.164612 136.285187,195.563309 135.014526,195.850891 
	C135.654526,195.314026 136.616104,194.888260 137.880508,194.614227 
z"/>
<path fill="#827982" opacity="1.000000" stroke="none" 
	d="
M125.854431,197.464996 
	C125.203354,198.027878 124.236679,198.461426 122.936142,198.764374 
	C123.581139,198.201080 124.559982,197.768372 125.854431,197.464996 
z"/>
<path fill="#827982" opacity="1.000000" stroke="none" 
	d="
M131.731628,196.087036 
	C131.182190,196.642212 130.297455,197.122421 129.218872,197.369125 
	C129.815475,196.761078 130.605911,196.386566 131.731628,196.087036 
z"/>
<path fill="#827982" opacity="1.000000" stroke="none" 
	d="
M187.812851,179.271088 
	C187.535995,179.770813 186.951950,180.210526 186.206482,180.447250 
	C186.531937,179.899857 187.018799,179.555466 187.812851,179.271088 
z"/>
<path fill="#827982" opacity="1.000000" stroke="none" 
	d="
M342.757233,97.148010 
	C342.526154,97.741821 341.983459,98.328461 341.113434,98.876938 
	C341.339294,98.272804 341.892456,97.706825 342.757233,97.148010 
z"/>
<path fill="#827982" opacity="1.000000" stroke="none" 
	d="
M338.742401,100.111649 
	C338.499420,100.713043 337.944122,101.304855 337.056519,101.839951 
	C337.292816,101.222847 337.861450,100.662453 338.742401,100.111649 
z"/>
<path fill="#827982" opacity="1.000000" stroke="none" 
	d="
M242.875946,156.490631 
	C242.558823,157.034271 241.947449,157.484909 241.036102,157.862045 
	C241.351303,157.324905 241.966507,156.861267 242.875946,156.490631 
z"/>
<path fill="#827982" opacity="1.000000" stroke="none" 
	d="
M319.770935,113.175560 
	C319.512146,113.754631 318.947266,114.330307 318.050476,114.843079 
	C318.300659,114.244171 318.882751,113.708168 319.770935,113.175560 
z"/>
<path fill="#827982" opacity="1.000000" stroke="none" 
	d="
M262.893799,146.565948 
	C262.596680,147.106735 262.012451,147.555099 261.138794,147.946136 
	C261.435089,147.417068 262.020905,146.945297 262.893799,146.565948 
z"/>
<path fill="#827982" opacity="1.000000" stroke="none" 
	d="
M285.735718,134.074127 
	C285.431519,134.662582 284.817139,135.221344 283.868103,135.668274 
	C284.164154,135.052444 284.794861,134.548431 285.735718,134.074127 
z"/>
<path fill="#827982" opacity="1.000000" stroke="none" 
	d="
M308.789246,120.221802 
	C308.523254,120.792259 307.952545,121.354584 307.053619,121.851120 
	C307.311768,121.261444 307.898132,120.737564 308.789246,120.221802 
z"/>
<path fill="#827982" opacity="1.000000" stroke="none" 
	d="
M183.915070,180.663818 
	C183.556198,181.173538 182.923599,181.565002 182.002655,181.857483 
	C182.356644,181.354187 182.998978,180.949875 183.915070,180.663818 
z"/>
<path fill="#827982" opacity="1.000000" stroke="none" 
	d="
M290.788391,131.209564 
	C290.490265,131.784103 289.884216,132.322739 288.952454,132.768951 
	C289.244629,132.175583 289.862518,131.674622 290.788391,131.209564 
z"/>
<path fill="#827982" opacity="1.000000" stroke="none" 
	d="
M277.859375,138.420380 
	C277.584198,138.975510 277.012909,139.481628 276.132202,139.927078 
	C276.402954,139.368057 276.983093,138.869705 277.859375,138.420380 
z"/>
<path fill="#FFECEE" opacity="1.000000" stroke="none" 
	d="
M360.980865,603.577393 
	C363.124603,603.527588 365.279694,603.697998 367.434845,603.698608 
	C457.315430,603.722107 547.196045,603.730408 637.534058,603.848633 
	C637.992676,664.216309 638.025757,724.476013 637.958679,784.735474 
	C637.949280,793.198730 635.888306,801.036682 627.824158,805.524292 
	C624.773804,807.221741 621.145508,808.836670 617.772461,808.853577 
	C573.161499,809.077942 528.549072,809.010498 483.583923,808.549927 
	C483.245178,772.293518 483.284210,736.503113 483.261169,700.712769 
	C483.252441,687.162903 474.293457,678.254150 460.770233,678.246460 
	C429.141296,678.228455 397.512329,678.234009 365.883392,678.254456 
	C364.234894,678.255493 362.586548,678.483521 361.003021,678.451050 
	C361.067932,678.296204 361.009735,677.965515 361.006989,677.499023 
	C361.002899,652.688782 361.001556,628.344910 361.000214,604.001099 
	C361.000214,604.001099 360.992249,603.718323 360.980865,603.577393 
z"/>
<path fill="#F9F9F9" opacity="1.000000" stroke="none" 
	d="
M360.543396,603.885132 
	C361.001556,628.344910 361.002899,652.688782 360.550537,677.619263 
	C327.285370,678.231201 294.473969,678.246277 261.662537,678.286804 
	C247.832214,678.303894 238.873047,687.197937 238.839798,701.071777 
	C238.781128,725.555664 238.793762,750.039978 238.825638,774.523987 
	C238.840591,786.009949 238.969757,797.495789 239.047180,808.981689 
	C194.417252,808.987793 149.787033,808.911865 105.157631,809.068176 
	C96.069130,809.100037 85.333817,800.959595 84.990257,790.364746 
	C84.694626,781.247925 84.062302,772.133850 84.045265,763.017700 
	C83.951271,712.725891 83.987648,662.433777 84.038597,612.141846 
	C84.041077,609.689148 84.601044,607.237000 84.952881,604.364868 
	C85.662766,603.866882 86.321198,603.719971 86.979614,603.720032 
	C178.015259,603.729370 269.050903,603.749573 360.543396,603.885132 
z"/>
<path fill="#68606D" opacity="1.000000" stroke="none" 
	d="
M239.512573,808.982727 
	C238.969757,797.495789 238.840591,786.009949 238.825638,774.523987 
	C238.793762,750.039978 238.781128,725.555664 238.839798,701.071777 
	C238.873047,687.197937 247.832214,678.303894 261.662537,678.286804 
	C294.473969,678.246277 327.285370,678.231201 360.553284,678.085693 
	C361.009735,677.965515 361.067932,678.296204 361.040680,678.875366 
	C361.020355,722.583557 361.027283,765.712524 361.034210,808.841553 
	C354.354828,808.888428 347.675446,808.935303 340.479797,808.488770 
	C339.963531,779.068970 339.963531,750.142639 339.963531,721.129150 
	C319.946167,721.129150 300.722076,721.129150 280.863464,721.129150 
	C280.863464,750.638855 280.863464,779.756226 280.863464,808.873596 
	C267.234955,808.910278 253.606461,808.947021 239.512573,808.982727 
z"/>
<path fill="#4D3D4D" opacity="1.000000" stroke="none" 
	d="
M361.495911,808.911621 
	C361.027283,765.712524 361.020355,722.583557 360.975769,679.030151 
	C362.586548,678.483521 364.234894,678.255493 365.883392,678.254456 
	C397.512329,678.234009 429.141296,678.228455 460.770233,678.246460 
	C474.293457,678.254150 483.252441,687.162903 483.261169,700.712769 
	C483.284210,736.503113 483.245178,772.293518 483.115326,808.540161 
	C469.342010,808.980530 455.684204,808.964600 441.573792,808.427734 
	C441.121185,778.843567 441.121185,749.780396 441.121185,720.291016 
	C438.512207,720.291016 436.708069,720.291321 434.903900,720.290955 
	C419.412506,720.288330 403.917694,720.467041 388.431732,720.176086 
	C383.567352,720.084717 381.879517,721.121216 381.932190,726.432373 
	C382.204681,753.913208 382.015228,781.398560 381.986847,808.882385 
	C375.310425,808.915466 368.634033,808.948547 361.495911,808.911621 
z"/>
<path fill="#87BDEA" opacity="1.000000" stroke="none" 
	d="
M382.450958,808.933044 
	C382.015228,781.398560 382.204681,753.913208 381.932190,726.432373 
	C381.879517,721.121216 383.567352,720.084717 388.431732,720.176086 
	C403.917694,720.467041 419.412506,720.288330 434.903900,720.290955 
	C436.708069,720.291321 438.512207,720.291016 441.121185,720.291016 
	C441.121185,749.780396 441.121185,778.843567 441.116241,808.361816 
	C421.712555,808.872498 402.313812,808.928101 382.450958,808.933044 
z"/>
<path fill="#B1D3EF" opacity="1.000000" stroke="none" 
	d="
M281.338623,808.923462 
	C280.863464,779.756226 280.863464,750.638855 280.863464,721.129150 
	C300.722076,721.129150 319.946167,721.129150 339.963531,721.129150 
	C339.963531,750.142639 339.963531,779.068970 340.016724,808.454590 
	C320.651215,808.933777 301.232513,808.953552 281.338623,808.923462 
z"/>
<path fill="#675F6C" opacity="1.000000" stroke="none" 
	d="
M703.214355,603.526367 
	C703.605103,603.001770 704.297485,602.595581 705.310425,602.312805 
	C704.925964,602.839111 704.221008,603.241943 703.214355,603.526367 
z"/>
<path fill="#F5C6CE" opacity="1.000000" stroke="none" 
	d="
M637.961548,475.038696 
	C638.015198,475.372955 638.068848,475.707245 638.099609,476.294495 
	C635.929688,476.680115 633.782654,476.929047 631.635681,476.928772 
	C543.541199,476.917480 455.446686,476.883087 367.352203,476.857788 
	C365.521851,476.857269 363.691467,476.929291 361.411041,477.120758 
	C360.960968,477.274048 361.009094,476.885193 360.993713,476.260742 
	C361.004456,428.388153 361.030579,381.139984 361.514709,333.802795 
	C368.648468,333.793976 375.324188,333.874237 382.000610,334.425964 
	C382.002472,379.520813 382.087860,424.144501 381.887787,468.766937 
	C381.865295,473.783752 383.072296,475.158447 388.204437,475.148102 
	C471.456543,474.980072 554.709106,475.034515 637.961548,475.038696 
z"/>
<path fill="#F9F9F8" opacity="1.000000" stroke="none" 
	d="
M83.449707,476.826721 
	C83.326820,474.282074 83.953987,471.838409 83.957443,469.393860 
	C84.017334,426.960083 83.985573,384.526154 84.039330,342.092377 
	C84.042435,339.641205 84.604950,337.190796 85.412125,334.199524 
	C169.624329,333.645660 253.331528,333.631317 337.038727,333.630249 
	C338.028076,333.630249 339.017456,333.801331 340.004700,334.367920 
	C339.994385,382.114532 339.986206,429.385712 339.977997,476.656921 
	C338.656433,476.756775 337.334839,476.944061 336.013275,476.944122 
	C251.978683,476.948242 167.944077,476.937042 83.449707,476.826721 
M267.504517,445.912689 
	C281.613098,444.248413 288.840302,436.165680 288.878296,421.962158 
	C288.901917,413.134064 288.978546,404.304169 288.824890,395.478668 
	C288.773376,392.519714 288.395782,389.487976 287.628601,386.634308 
	C285.111694,377.272461 276.320465,371.437286 265.874786,371.919281 
	C256.815247,372.337341 247.969147,379.360138 247.148972,388.289032 
	C246.148270,399.183105 246.253571,410.191040 246.149460,421.152252 
	C246.009689,435.868042 252.170502,443.157227 267.504517,445.912689 
M202.831787,385.054871 
	C202.408936,384.339844 201.920029,383.655304 201.573242,382.905121 
	C197.125580,373.283630 185.086624,370.370026 177.454193,372.648499 
	C168.159103,375.423279 162.060791,383.266388 162.016006,393.460388 
	C161.969894,403.959900 161.894073,414.461761 162.057175,424.959076 
	C162.232727,436.256317 171.973663,445.751953 183.249405,445.900757 
	C194.157730,446.044647 203.787643,436.558441 204.009323,425.205994 
	C204.178497,416.542694 204.172607,407.871918 204.025833,399.208221 
	C203.950226,394.745056 203.397202,390.290009 202.831787,385.054871 
z"/>
<path fill="#FDECEE" opacity="1.000000" stroke="none" 
	d="
M340.434998,476.775726 
	C339.986206,429.385712 339.994385,382.114532 340.461182,334.253174 
	C347.668579,333.580475 354.417419,333.497925 361.129883,333.532410 
	C361.093506,333.649445 361.056702,333.891815 361.056702,333.891815 
	C361.030579,381.139984 361.004456,428.388153 361.020203,476.066650 
	C354.338715,476.629517 347.615387,476.762024 340.434998,476.775726 
z"/>
<path fill="#FFFFFF" opacity="1.000000" stroke="none" 
	d="
M19.462061,561.328369 
	C21.500263,553.648193 21.252520,552.594910 29.341560,553.807312 
	C30.137072,553.926575 31.365543,553.048157 31.945087,552.290222 
	C32.900089,551.041504 33.488979,549.512817 34.147064,548.263672 
	C35.022369,548.387329 35.433022,548.320129 35.651001,548.494202 
	C42.559879,554.011230 46.651348,552.371704 47.861046,543.163269 
	C48.346222,539.470032 48.612457,536.641602 53.376427,536.753540 
	C54.220612,536.773315 55.887573,534.507324 55.863098,533.323975 
	C55.728298,526.805908 55.523918,520.252625 54.689335,513.795898 
	C53.847824,507.285614 52.929504,501.034729 57.100620,495.162720 
	C58.146503,493.690277 58.122387,491.457794 58.729286,489.013885 
	C60.600124,489.013885 62.549961,489.013885 64.983055,489.032104 
	C64.637024,497.947418 64.314270,506.929657 62.837219,515.717834 
	C61.334190,524.660522 59.490513,533.705444 56.367668,542.179260 
	C51.559059,555.227539 40.662308,560.359558 27.397711,561.208679 
	C24.911606,561.367798 22.413816,561.344299 19.462061,561.328369 
z"/>
<path fill="#FFECED" opacity="1.000000" stroke="none" 
	d="
M637.963867,474.611969 
	C554.709106,475.034515 471.456543,474.980072 388.204437,475.148102 
	C383.072296,475.158447 381.865295,473.783752 381.887787,468.766937 
	C382.087860,424.144501 382.002472,379.520813 382.458282,334.317627 
	C467.117920,333.724182 551.320557,333.709869 635.523193,333.707611 
	C636.345886,333.707581 637.168579,333.867065 637.991211,333.952087 
	C637.662842,378.240753 637.318237,422.529297 637.049316,466.818329 
	C637.034424,469.272034 637.646179,471.729523 637.963867,474.611969 
M474.720245,386.148926 
	C474.132568,384.959778 473.634064,383.715912 472.942963,382.590302 
	C467.897308,374.371948 459.293335,370.380554 450.488800,372.123993 
	C441.726746,373.859039 434.552155,380.241760 433.946960,389.679871 
	C433.100403,402.882782 433.293396,416.240631 434.266968,429.441803 
	C434.946777,438.659912 445.044647,445.902679 454.645172,445.858185 
	C464.278381,445.813538 474.187317,438.565674 474.753723,429.186890 
	C475.601044,415.157135 474.898834,401.033844 474.720245,386.148926 
M552.344666,440.928619 
	C557.737915,436.260162 560.082703,430.315918 560.017456,423.235046 
	C559.923767,413.069977 560.117920,402.901306 559.948059,392.738190 
	C559.747131,380.714600 550.802429,371.942749 538.989319,371.886780 
	C527.156189,371.830719 518.175354,380.570496 517.976990,392.591003 
	C517.814758,402.421051 518.134644,412.261963 517.842346,422.086151 
	C517.563599,431.455353 520.863525,438.786285 529.160217,443.286102 
	C536.963806,447.518494 544.575928,446.133362 552.344666,440.928619 
z"/>
<path fill="#332932" opacity="1.000000" stroke="none" 
	d="
M638.450012,333.843536 
	C637.168579,333.867065 636.345886,333.707581 635.523193,333.707611 
	C551.320557,333.709869 467.117920,333.724182 382.457611,333.846130 
	C375.324188,333.874237 368.648468,333.793976 361.514709,333.802795 
	C361.056702,333.891815 361.093506,333.649445 361.089630,333.104980 
	C361.064331,305.714996 361.042908,278.869476 361.021484,252.023987 
	C361.021484,252.023987 361.010101,252.010025 361.020569,252.017944 
	C471.446869,252.020828 581.862732,251.972107 692.278381,252.102097 
	C700.243530,252.111481 707.823669,251.683731 715.002319,247.093140 
	C714.548218,249.442078 713.711304,251.785400 712.417786,254.610016 
	C711.695923,256.118286 711.430664,257.145294 711.165405,258.172272 
	C710.686523,259.485382 710.207703,260.798462 709.307007,262.531616 
	C708.683899,263.722839 708.482605,264.493988 708.281250,265.265137 
	C708.199768,265.634155 708.118286,266.003204 707.563477,266.711304 
	C706.124268,269.766022 705.158325,272.481628 704.192383,275.197235 
	C704.120728,275.576080 704.049072,275.954895 703.529419,276.683350 
	C701.132141,282.099976 699.182922,287.166992 697.233765,292.234039 
	C697.160767,292.609467 697.087769,292.984924 696.584961,293.721802 
	C694.197815,299.146881 692.240417,304.210480 690.283020,309.274109 
	C690.198059,309.642059 690.113098,310.010010 689.607300,310.747742 
	C688.593262,312.862732 688.000000,314.607941 687.406738,316.353119 
	C686.917786,317.635376 686.428772,318.917633 685.507690,320.620728 
	C684.425537,322.408081 683.775452,323.774567 683.125427,325.141083 
	C682.002441,326.385162 680.879395,327.629242 679.165405,328.974670 
	C678.004883,329.631409 677.435425,330.186737 676.865967,330.742126 
	C676.865967,330.742126 676.481201,330.929901 675.933716,330.971985 
	C673.836914,331.756439 672.287659,332.498779 670.738403,333.241150 
	C660.128540,333.405762 649.518616,333.570374 638.450012,333.843536 
z"/>
<path fill="#827982" opacity="1.000000" stroke="none" 
	d="
M697.550415,292.092834 
	C699.182922,287.166992 701.132141,282.099976 703.420288,276.951324 
	C701.795227,281.897003 699.831177,286.924316 697.550415,292.092834 
z"/>
<path fill="#827982" opacity="1.000000" stroke="none" 
	d="
M690.606079,309.140625 
	C692.240417,304.210480 694.197815,299.146881 696.490967,293.992920 
	C694.860901,298.937439 692.895020,303.972290 690.606079,309.140625 
z"/>
<path fill="#827982" opacity="1.000000" stroke="none" 
	d="
M704.500000,275.045349 
	C705.158325,272.481628 706.124268,269.766022 707.422485,266.957947 
	C706.772339,269.541504 705.789978,272.217468 704.500000,275.045349 
z"/>
<path fill="#827982" opacity="1.000000" stroke="none" 
	d="
M671.069580,333.367371 
	C672.287659,332.498779 673.836914,331.756439 675.730225,331.038544 
	C674.516418,331.873199 672.958557,332.683411 671.069580,333.367371 
z"/>
<path fill="#827982" opacity="1.000000" stroke="none" 
	d="
M687.721069,316.213745 
	C688.000000,314.607941 688.593262,312.862732 689.520630,311.017517 
	C689.248413,312.636475 688.641907,314.355438 687.721069,316.213745 
z"/>
<path fill="#827982" opacity="1.000000" stroke="none" 
	d="
M683.446777,325.050354 
	C683.775452,323.774567 684.425537,322.408081 685.391968,320.947510 
	C685.061707,322.222198 684.414917,323.590912 683.446777,325.050354 
z"/>
<path fill="#827982" opacity="1.000000" stroke="none" 
	d="
M711.460815,258.013306 
	C711.430664,257.145294 711.695923,256.118286 712.259155,254.946381 
	C712.290161,255.819077 712.023254,256.836700 711.460815,258.013306 
z"/>
<path fill="#827982" opacity="1.000000" stroke="none" 
	d="
M708.552734,265.122162 
	C708.482605,264.493988 708.683899,263.722839 709.200439,262.868164 
	C709.285278,263.516144 709.054749,264.247681 708.552734,265.122162 
z"/>
<path fill="#827982" opacity="1.000000" stroke="none" 
	d="
M717.168518,243.813812 
	C717.058838,243.351639 717.205872,242.715790 717.615295,242.013733 
	C717.726807,242.511703 717.576050,243.075912 717.168518,243.813812 
z"/>
<path fill="#827982" opacity="1.000000" stroke="none" 
	d="
M677.175415,330.785217 
	C677.435425,330.186737 678.004883,329.631409 678.892883,329.138550 
	C678.635925,329.743469 678.060425,330.285889 677.175415,330.785217 
z"/>
<path fill="#4F3E4E" opacity="1.000000" stroke="none" 
	d="
M360.550781,252.016464 
	C361.042908,278.869476 361.064331,305.714996 361.125977,332.987915 
	C354.417419,333.497925 347.668579,333.580475 340.463287,333.777771 
	C339.017456,333.801331 338.028076,333.630249 337.038727,333.630249 
	C253.331528,333.631317 169.624329,333.645660 85.461128,333.777039 
	C75.358574,333.792938 65.712006,333.690796 55.449593,333.206360 
	C52.141335,332.277649 49.448933,331.731293 46.756531,331.184906 
	C46.009361,330.866119 45.262184,330.547333 44.259727,329.684509 
	C43.315044,328.778961 42.625645,328.417450 41.936249,328.055908 
	C41.936253,328.055908 41.996101,327.998138 41.963638,327.692261 
	C40.970211,326.583160 40.009243,325.779968 39.048275,324.976776 
	C38.228092,323.696594 37.407913,322.416382 36.639107,320.520020 
	C36.222115,319.233521 35.753754,318.563202 35.285389,317.892853 
	C35.137989,317.542419 34.990585,317.191986 34.885803,316.195557 
	C34.079216,313.988159 33.230007,312.426758 32.380798,310.865387 
	C32.237854,310.493683 32.094906,310.121948 31.966599,309.073792 
	C30.786188,305.885193 29.591133,303.373108 28.396078,300.860992 
	C28.154371,300.271301 27.912666,299.681641 27.728794,298.403931 
	C26.900280,296.125854 26.013933,294.535858 25.127586,292.945831 
	C25.008585,292.600067 24.889584,292.254303 24.803774,291.244690 
	C22.611662,285.698303 20.386360,280.815796 18.161060,275.933258 
	C18.038713,275.584290 17.916367,275.235352 17.839237,274.247498 
	C17.032204,272.033020 16.179956,270.457397 15.327711,268.881805 
	C15.194436,268.516815 15.061158,268.151825 14.933214,267.116669 
	C13.707810,263.932129 12.477072,261.417725 11.246329,258.903351 
	C11.110805,258.550781 10.975284,258.198181 10.877682,257.201599 
	C10.069303,254.994858 9.223005,253.432114 8.376710,251.869370 
	C8.241359,251.493378 8.106007,251.117386 7.984557,250.089081 
	C7.677514,248.299438 7.356568,247.162079 7.035622,246.024734 
	C7.365552,246.062424 7.791625,245.979645 8.011545,246.155167 
	C16.716970,253.102768 26.994356,252.034637 37.125389,252.031113 
	C144.776932,251.993637 252.428497,252.008499 360.550781,252.016464 
z"/>
<path fill="#827982" opacity="1.000000" stroke="none" 
	d="
M18.145325,276.308533 
	C20.386360,280.815796 22.611662,285.698303 24.767124,290.972107 
	C22.508051,286.470154 20.318819,281.576996 18.145325,276.308533 
z"/>
<path fill="#827982" opacity="1.000000" stroke="none" 
	d="
M46.901817,331.512390 
	C49.448933,331.731293 52.141335,332.277649 54.997536,333.136780 
	C52.456589,332.912964 49.751842,332.376404 46.901817,331.512390 
z"/>
<path fill="#827982" opacity="1.000000" stroke="none" 
	d="
M28.373158,301.227509 
	C29.591133,303.373108 30.786188,305.885193 31.934223,308.774963 
	C30.708216,306.633057 29.529226,304.113556 28.373158,301.227509 
z"/>
<path fill="#827982" opacity="1.000000" stroke="none" 
	d="
M6.883463,245.721909 
	C7.356568,247.162079 7.677514,248.299438 7.945452,249.790955 
	C6.690037,247.656845 5.487631,245.168564 4.254436,242.316818 
	C5.059534,243.108597 5.895419,244.263840 6.883463,245.721909 
z"/>
<path fill="#827982" opacity="1.000000" stroke="none" 
	d="
M11.230064,259.272339 
	C12.477072,261.417725 13.707810,263.932129 14.890837,266.827332 
	C13.633348,264.685913 12.423573,262.163635 11.230064,259.272339 
z"/>
<path fill="#827982" opacity="1.000000" stroke="none" 
	d="
M32.352219,311.211487 
	C33.230007,312.426758 34.079216,313.988159 34.855042,315.910278 
	C33.962318,314.699890 33.142979,313.128723 32.352219,311.211487 
z"/>
<path fill="#827982" opacity="1.000000" stroke="none" 
	d="
M25.093163,293.298462 
	C26.013933,294.535858 26.900280,296.125854 27.681843,298.085907 
	C26.737619,296.854340 25.898178,295.252716 25.093163,293.298462 
z"/>
<path fill="#827982" opacity="1.000000" stroke="none" 
	d="
M15.284517,269.230347 
	C16.179956,270.457397 17.032204,272.033020 17.803871,273.971558 
	C16.895967,272.749329 16.068647,271.164093 15.284517,269.230347 
z"/>
<path fill="#827982" opacity="1.000000" stroke="none" 
	d="
M8.334805,252.215851 
	C9.223005,253.432114 10.069303,254.994858 10.846165,256.918579 
	C9.948786,255.707184 9.120843,254.134766 8.334805,252.215851 
z"/>
<path fill="#827982" opacity="1.000000" stroke="none" 
	d="
M2.452888,235.270233 
	C3.003908,236.192261 3.456278,237.464493 3.808174,239.117920 
	C3.256546,238.206223 2.805391,236.913330 2.452888,235.270233 
z"/>
<path fill="#827982" opacity="1.000000" stroke="none" 
	d="
M39.062115,325.304871 
	C40.009243,325.779968 40.970211,326.583160 41.938736,327.725098 
	C40.989510,327.253571 40.032730,326.443268 39.062115,325.304871 
z"/>
<path fill="#827982" opacity="1.000000" stroke="none" 
	d="
M35.235039,318.185822 
	C35.753754,318.563202 36.222115,319.233521 36.523975,320.214325 
	C35.966545,319.842773 35.575619,319.160797 35.235039,318.185822 
z"/>
<path fill="#827982" opacity="1.000000" stroke="none" 
	d="
M42.005177,328.358490 
	C42.625645,328.417450 43.315044,328.778961 44.063858,329.448425 
	C43.440216,329.391266 42.757160,329.026184 42.005177,328.358490 
z"/>
<path fill="#F0C66E" opacity="1.000000" stroke="none" 
	d="
M267.083038,445.908508 
	C252.170502,443.157227 246.009689,435.868042 246.149460,421.152252 
	C246.253571,410.191040 246.148270,399.183105 247.148972,388.289032 
	C247.969147,379.360138 256.815247,372.337341 265.874786,371.919281 
	C276.320465,371.437286 285.111694,377.272461 287.628601,386.634308 
	C288.395782,389.487976 288.773376,392.519714 288.824890,395.478668 
	C288.978546,404.304169 288.901917,413.134064 288.878296,421.962158 
	C288.840302,436.165680 281.613098,444.248413 267.083038,445.908508 
z"/>
<path fill="#EFC66D" opacity="1.000000" stroke="none" 
	d="
M202.945847,385.443085 
	C203.397202,390.290009 203.950226,394.745056 204.025833,399.208221 
	C204.172607,407.871918 204.178497,416.542694 204.009323,425.205994 
	C203.787643,436.558441 194.157730,446.044647 183.249405,445.900757 
	C171.973663,445.751953 162.232727,436.256317 162.057175,424.959076 
	C161.894073,414.461761 161.969894,403.959900 162.016006,393.460388 
	C162.060791,383.266388 168.159103,375.423279 177.454193,372.648499 
	C185.086624,370.370026 197.125580,373.283630 201.573242,382.905121 
	C201.920029,383.655304 202.408936,384.339844 202.945847,385.443085 
z"/>
<path fill="#FE895E" opacity="1.000000" stroke="none" 
	d="
M474.787994,386.549622 
	C474.898834,401.033844 475.601044,415.157135 474.753723,429.186890 
	C474.187317,438.565674 464.278381,445.813538 454.645172,445.858185 
	C445.044647,445.902679 434.946777,438.659912 434.266968,429.441803 
	C433.293396,416.240631 433.100403,402.882782 433.946960,389.679871 
	C434.552155,380.241760 441.726746,373.859039 450.488800,372.123993 
	C459.293335,370.380554 467.897308,374.371948 472.942963,382.590302 
	C473.634064,383.715912 474.132568,384.959778 474.787994,386.549622 
z"/>
<path fill="#FD885D" opacity="1.000000" stroke="none" 
	d="
M552.054688,441.152496 
	C544.575928,446.133362 536.963806,447.518494 529.160217,443.286102 
	C520.863525,438.786285 517.563599,431.455353 517.842346,422.086151 
	C518.134644,412.261963 517.814758,402.421051 517.976990,392.591003 
	C518.175354,380.570496 527.156189,371.830719 538.989319,371.886780 
	C550.802429,371.942749 559.747131,380.714600 559.948059,392.738190 
	C560.117920,402.901306 559.923767,413.069977 560.017456,423.235046 
	C560.082703,430.315918 557.737915,436.260162 552.054688,441.152496 
z"/>
</svg>