<svg version="1.1" id="Layer_1" xmlns="http://www.w3.org/2000/svg" xmlns:xlink="http://www.w3.org/1999/xlink" x="0px" y="0px"
	 width="100%" viewBox="0 0 720 896" enable-background="new 0 0 720 896" xml:space="preserve">
<path fill="#000000" opacity="1.000000" stroke="none" 
	d="
M412.555847,0.999999 
	C408.066101,16.698561 403.089600,32.383938 398.223816,48.103580 
	C396.730530,52.927826 394.862091,57.517517 391.457123,61.314819 
	C389.907440,63.043079 389.706787,65.007111 390.601746,66.870598 
	C391.554321,68.853981 393.582916,68.681808 395.453125,68.326210 
	C409.064941,65.738045 422.932129,66.209381 436.646545,64.874290 
	C452.089996,63.370865 466.943176,59.182602 481.710175,54.652733 
	C482.664093,54.360104 483.610901,53.990391 484.589020,53.844509 
	C485.756134,53.670464 486.980957,53.726276 487.710297,54.880817 
	C488.442017,56.039097 488.109711,57.318138 487.265076,58.107018 
	C482.076782,62.952801 479.057739,69.797333 472.427887,73.378799 
	C464.877106,77.457794 458.781250,83.771873 451.024109,87.673790 
	C447.819733,89.285614 448.181854,91.825890 451.570496,92.905304 
	C475.203583,100.433434 499.181488,103.893860 523.783569,98.270897 
	C527.493530,97.422974 531.044250,95.891647 534.688965,94.740868 
	C537.467346,93.863625 540.106689,92.362007 542.980591,95.164986 
	C544.283569,96.435760 546.488647,94.974991 548.141846,94.298485 
	C551.844788,92.783165 555.510681,91.208290 559.444946,90.342262 
	C561.573120,89.873802 563.454163,90.157372 564.931763,91.794235 
	C566.580627,93.620872 565.834106,95.506218 564.828674,97.334045 
	C558.592346,108.671455 551.887207,119.786919 541.966003,128.244858 
	C538.715271,131.016144 535.529968,134.535675 530.950806,135.680573 
	C529.857483,135.953934 528.857178,136.701935 527.884827,137.339523 
	C520.316284,142.302475 520.341248,144.127548 527.781189,149.139877 
	C543.369080,159.641449 557.927734,171.554977 573.224426,182.441986 
	C583.477051,189.738998 594.336304,196.238373 607.271667,197.861008 
	C609.129456,198.094055 611.170410,198.224716 611.227600,200.707855 
	C611.277222,202.865265 609.744690,203.876312 607.815979,204.434814 
	C594.308838,208.345932 580.554260,210.877548 566.527893,208.899796 
	C560.586304,208.062012 554.690735,205.932816 548.568481,202.672272 
	C549.505493,207.269699 552.430054,210.094498 554.502197,213.257050 
	C560.517700,222.437943 566.351379,231.800873 573.132019,240.402145 
	C582.394836,252.151962 590.525146,265.192230 603.477417,273.404816 
	C609.632812,277.307709 615.246704,281.996155 621.659607,285.472168 
	C623.066406,286.234680 624.332397,286.951599 623.804688,288.862305 
	C623.277893,290.769592 621.979736,291.534088 620.052368,291.363312 
	C618.890808,291.260376 617.623352,291.458374 616.579712,291.059723 
	C608.264404,287.883331 599.325012,288.389343 590.765747,286.586243 
	C579.850891,284.286865 569.612671,280.557037 560.212524,274.548309 
	C559.528687,274.111176 558.832764,273.581299 557.561157,274.077423 
	C557.511230,279.140106 558.718689,284.157654 560.460388,288.854553 
	C563.620728,297.377350 565.154846,306.478394 569.748291,314.499237 
	C572.696106,319.646515 572.578552,325.790314 575.661072,331.180969 
	C580.061035,338.875580 583.645325,347.099365 587.883911,354.940765 
	C588.995605,356.997437 590.313049,358.904816 590.374451,361.374359 
	C590.417908,363.121857 590.956116,364.324982 592.999512,365.033051 
	C595.738770,365.982239 597.140076,368.726227 598.668518,371.035248 
	C600.015320,373.069977 599.293030,375.400665 598.051697,377.139801 
	C596.696594,379.038269 594.431030,378.552399 592.528015,377.856110 
	C585.890991,375.427826 580.341492,371.140472 574.670410,367.099854 
	C568.025391,362.365356 561.857788,357.040955 555.898499,351.470520 
	C555.337097,350.945679 554.480713,350.736359 553.151855,350.079224 
	C551.152222,355.006622 551.833801,359.909637 552.431030,364.398987 
	C553.164917,369.914825 552.504089,375.337952 552.470520,380.752991 
	C552.405212,391.288300 552.593323,401.637238 555.649231,411.867706 
	C556.522705,414.791748 558.853699,419.407257 554.562683,421.181793 
	C550.124817,423.016968 549.845642,417.732544 547.988220,415.327057 
	C546.989441,414.033661 546.182495,412.592163 544.856445,410.551971 
	C541.850342,415.896240 541.389099,421.418060 539.670593,426.437500 
	C532.674927,446.870117 519.160645,461.399323 500.356232,471.307587 
	C495.947845,473.630371 491.129608,475.249176 486.040558,475.316559 
	C481.699951,475.373993 480.142822,477.705780 480.137787,481.648376 
	C480.131592,486.481171 480.146759,491.314301 480.094574,496.146637 
	C480.072968,498.146484 480.165405,500.529358 477.911804,501.287109 
	C475.532990,502.086914 474.996216,499.569733 474.083832,498.154968 
	C471.573639,494.262421 468.128998,491.057068 466.295135,486.631744 
	C464.871033,483.195190 460.819794,483.740723 458.023590,483.051849 
	C455.818542,482.508667 454.490875,485.804291 453.746246,487.906982 
	C451.752899,493.535706 450.105225,499.286926 448.323456,504.990417 
	C447.976807,506.100067 447.805084,507.298340 447.274475,508.309784 
	C445.928284,510.876038 445.664978,514.961243 442.263702,515.157227 
	C438.981689,515.346252 439.767731,511.021820 438.148499,509.069427 
	C437.546844,508.343903 437.566956,507.123444 436.093781,506.727051 
	C432.860901,508.681549 434.028809,512.351318 433.620850,515.130432 
	C430.924927,533.496948 429.436066,552.001465 429.249664,570.555420 
	C429.169159,578.566711 429.243317,586.510498 431.917114,594.566101 
	C435.311554,604.793030 443.557617,611.005249 449.141510,619.335815 
	C450.901489,621.961609 453.624237,620.519653 455.936981,619.424500 
	C461.647064,616.720398 467.329987,613.899780 473.802643,613.524353 
	C480.396179,613.141907 485.344299,616.155334 488.078491,622.139771 
	C491.895782,630.494873 498.024261,634.320190 506.361359,633.818054 
	C508.516998,633.688232 510.120575,632.821350 511.761444,631.606323 
	C520.864868,624.865356 531.741699,627.486511 537.065491,637.653076 
	C542.226257,647.508179 542.143066,647.297363 552.483093,643.214417 
	C557.228394,641.340698 561.430420,637.546509 567.476685,639.409058 
	C572.094482,640.831543 574.140930,643.439819 574.350037,647.919434 
	C574.443054,649.910889 574.538269,651.953003 574.213989,653.902527 
	C573.566101,657.797607 574.532043,660.039551 578.964355,659.941284 
	C582.488220,659.863098 584.426392,663.181274 587.748169,664.160400 
	C602.981689,668.651123 617.148010,676.451172 627.218994,688.225891 
	C646.020508,710.208130 658.535767,735.878601 662.961060,764.900330 
	C663.557617,768.812683 664.154968,773.022339 663.777161,776.778625 
	C662.594666,788.537476 668.527405,798.208374 671.678345,808.710266 
	C673.054321,813.296326 673.982544,818.050354 674.695374,822.791077 
	C675.254700,826.511169 676.516052,827.961243 680.570068,827.089111 
	C684.604431,826.221130 688.830139,826.199585 692.979980,825.931213 
	C694.812866,825.812744 696.915527,825.770020 697.093506,828.375183 
	C697.272217,830.990295 695.337402,831.074890 693.390381,831.244263 
	C690.244446,831.518005 687.156311,831.988281 683.947754,831.470093 
	C681.939087,831.145691 679.668945,830.721130 677.556641,832.322144 
	C677.994324,834.865295 680.007690,834.623840 681.698792,834.659302 
	C685.529785,834.739929 689.363525,834.707947 693.196045,834.696960 
	C695.753235,834.689697 697.219910,835.637085 697.314514,838.482300 
	C697.411865,841.409363 696.190979,842.943481 693.328613,842.998657 
	C689.036133,843.081543 684.740967,843.020203 679.731079,843.020203 
	C681.157410,850.321167 682.406860,856.917358 683.742065,863.496155 
	C685.162598,870.495667 686.771912,877.458984 688.062073,884.481567 
	C688.427307,886.469543 690.247253,889.711243 686.627869,890.198364 
	C683.727966,890.588501 680.296997,890.332520 679.026306,886.279724 
	C676.935486,879.611267 675.534241,872.790527 673.873047,866.022217 
	C671.991882,858.357056 672.848938,849.641968 665.963501,843.405579 
	C666.029968,845.908447 666.633789,848.299622 665.941895,850.619141 
	C665.572510,851.857483 664.724731,852.657227 663.352478,852.418213 
	C662.178223,852.213684 661.710815,851.239868 661.808655,850.181335 
	C662.450134,843.241333 657.499939,838.079773 656.442200,831.505066 
	C652.195801,834.741577 650.088562,834.166626 649.086487,829.503052 
	C647.969116,824.302673 647.297058,819.006470 646.436707,813.751038 
	C646.215393,812.399109 646.255188,811.110107 647.613831,809.810425 
	C650.568420,812.624451 655.080505,813.691284 655.798523,820.123535 
	C656.507568,808.863342 649.219421,801.190613 649.428467,791.684204 
	C649.435242,791.374390 650.129761,791.079712 651.391174,790.062012 
	C654.546692,803.164734 660.033691,814.906921 664.460388,827.076599 
	C662.704956,815.745117 658.859436,805.015259 655.321960,794.199097 
	C654.859375,792.784729 654.044983,791.330139 654.104248,789.924133 
	C654.831116,772.683105 651.483887,755.851135 645.186829,740.225098 
	C637.973450,722.325378 631.245728,703.815125 617.661194,689.096436 
	C614.606201,685.786255 610.508850,685.045227 607.043457,683.209045 
	C597.589905,678.200195 588.280457,672.512817 577.236389,670.975342 
	C573.455444,670.449036 572.347351,671.577637 572.055725,674.795532 
	C571.124695,685.070496 570.175415,695.343933 569.281067,705.622131 
	C567.522461,725.833801 564.323975,745.908447 563.521912,766.210571 
	C563.496399,766.856262 563.518677,767.503723 563.736023,768.548889 
	C564.946594,765.094727 566.949951,763.845886 570.256836,766.257324 
	C572.010864,758.882446 569.611023,751.605469 571.974548,744.795227 
	C575.541321,745.089783 575.494812,747.415161 575.505737,749.573547 
	C575.546265,757.551453 575.521851,765.529663 576.028320,773.530090 
	C577.723022,764.839783 575.427795,755.687073 579.211487,747.180298 
	C581.756958,752.602173 581.777954,758.262268 582.386841,764.829529 
	C584.301086,759.729492 586.927246,756.115417 591.191711,753.388123 
	C589.719116,759.764954 588.903687,766.389343 586.616943,772.459473 
	C583.343689,781.148315 580.273071,789.906189 579.622498,799.100098 
	C578.336121,817.278870 576.372620,835.479370 580.021973,853.704651 
	C581.834839,862.758057 583.700439,871.860046 584.136963,881.154968 
	C584.399048,886.735596 581.639282,890.130493 576.112488,890.190552 
	C574.273560,890.210510 573.355774,890.680359 572.016296,892.021057 
	C567.541687,896.499634 556.960754,892.747620 555.292908,886.620605 
	C552.760254,877.316528 554.429382,867.742920 552.962036,858.364380 
	C551.060486,846.211487 551.581421,833.842102 550.236206,821.598877 
	C549.664246,816.393311 550.851562,810.744568 551.072510,805.438721 
	C551.394531,797.707886 551.670654,789.882202 551.974915,782.127686 
	C552.495789,768.849548 553.860657,755.598999 555.067688,742.354736 
	C556.636353,725.141846 557.650574,707.836426 561.017456,690.859863 
	C563.093262,680.393188 563.577209,669.752380 565.460388,659.285461 
	C565.809753,657.343445 565.800293,655.280518 565.604431,653.308350 
	C565.188049,649.115051 561.308716,646.524414 558.242920,649.059692 
	C552.606140,653.721069 545.787964,652.173523 539.676392,653.989441 
	C538.795166,654.251343 537.843933,653.921631 537.486877,653.169556 
	C535.390015,648.752869 530.290344,647.254700 528.087036,642.593018 
	C524.945862,635.947327 519.918091,635.255310 514.508606,640.402161 
	C510.170624,644.529480 506.172668,645.153259 501.116608,642.010254 
	C498.954224,640.666016 496.336853,639.565491 493.718750,641.791565 
	C490.145996,644.829285 488.673370,642.447205 487.984131,639.187988 
	C487.125397,635.127014 484.911530,632.113770 481.622650,629.267212 
	C481.047638,630.253052 480.505157,630.775146 480.442139,631.349854 
	C477.718719,656.196838 472.394684,680.543640 465.413849,704.478638 
	C461.565186,717.674438 455.956268,730.293518 449.512848,742.520813 
	C443.461670,754.003723 437.725067,765.659180 430.476959,776.450134 
	C426.080627,782.995361 419.272186,787.229919 413.892761,792.893860 
	C401.622040,805.813416 390.434814,819.660645 378.613342,832.958862 
	C370.961090,841.567078 362.892944,849.657776 354.188049,857.201782 
	C349.172974,861.548035 344.954865,866.883911 341.660187,872.637207 
	C338.882385,877.487793 340.522034,883.388916 339.480133,888.775330 
	C338.771545,892.438599 337.317078,893.559570 333.899445,893.340393 
	C331.657990,893.196533 330.612213,892.457642 330.614960,890.047058 
	C330.622620,883.360901 330.902069,876.714050 332.677490,870.227539 
	C334.220551,864.590027 338.793915,861.139648 342.674591,857.385376 
	C352.174805,848.194458 351.108093,849.416260 343.397583,839.292480 
	C334.379974,827.452576 323.691101,816.889282 313.454254,806.002258 
	C301.261719,793.035461 289.526306,779.625305 276.482697,767.500000 
	C268.280304,759.875122 260.774536,751.859619 255.961044,741.607666 
	C254.312454,738.096375 249.694244,736.741760 248.867920,732.769653 
	C247.679916,727.059021 245.330139,721.673706 244.170517,716.040527 
	C242.891739,709.828491 241.767776,703.542908 239.216599,697.809204 
	C234.258514,686.665894 235.186615,674.641724 233.366608,663.056458 
	C232.144913,655.279785 230.225693,647.240051 232.768997,639.327637 
	C234.289673,634.596619 234.452042,628.984680 240.297470,626.644531 
	C230.563324,619.989136 222.328049,623.944275 220.992538,635.479187 
	C220.289124,641.554688 219.907806,641.867004 213.910583,640.725891 
	C211.541458,648.173035 215.047836,656.675293 210.072418,664.459778 
	C205.066345,658.377686 210.547028,649.464233 204.359955,644.412231 
	C202.197510,645.194092 204.333878,647.226746 202.287201,648.025757 
	C197.797974,647.054016 193.346313,645.832336 189.849976,641.502930 
	C184.385727,634.736816 180.194260,635.532410 176.577652,643.305420 
	C174.684189,647.374878 172.828110,651.409363 169.797379,654.884644 
	C167.537476,657.476013 167.421783,660.834167 167.838684,664.304871 
	C168.434799,669.267578 168.896835,674.311768 167.552094,679.821960 
	C164.000275,677.624634 164.412872,674.387634 164.071152,671.956848 
	C163.154480,665.435913 161.386978,658.797119 164.201447,652.252197 
	C164.676834,651.146790 164.961014,649.598633 163.767227,649.079468 
	C159.695877,647.308594 155.684479,644.759338 151.008408,645.630737 
	C148.120407,646.168884 147.098328,648.683716 147.498047,651.422485 
	C149.687607,666.424683 149.710617,681.489685 149.912781,696.623230 
	C150.125046,712.515747 149.699814,728.441406 150.644897,744.306152 
	C151.057892,751.239319 151.504593,758.222473 152.352722,765.129272 
	C153.587860,775.187500 151.479111,784.954834 150.622864,794.852722 
	C150.155487,800.255371 150.731644,805.808716 151.357269,811.234131 
	C153.209030,827.292847 151.299850,843.085144 148.365479,858.812073 
	C147.629410,862.756958 147.502304,865.680786 150.231750,869.658386 
	C154.188980,875.425232 155.605545,882.819763 155.332245,890.173706 
	C155.242340,892.592407 153.896362,893.378723 151.767822,893.284180 
	C149.570862,893.186523 146.887726,894.114685 146.143311,890.723877 
	C145.487808,887.738098 144.757736,884.768616 143.539047,881.755798 
	C141.948608,884.137207 140.719345,886.371216 138.754120,888.169434 
	C135.103577,891.509705 124.482368,891.693909 120.696190,888.538940 
	C119.132072,887.235413 118.739235,886.077026 119.351372,884.266541 
	C124.974487,867.635803 126.099083,850.188354 128.668839,832.999023 
	C130.506073,820.709534 132.546066,808.450439 134.581314,795.638123 
	C133.247864,797.687195 132.572739,799.502686 132.131714,801.497742 
	C129.192276,814.794617 126.569435,828.140259 124.261154,841.572144 
	C121.841599,855.651428 118.305969,869.538940 115.252632,883.509094 
	C114.864769,885.283813 114.700539,887.596741 112.044006,886.836365 
	C109.619133,886.142212 109.642120,884.060303 110.107277,881.899597 
	C112.621094,870.223022 115.075691,858.533752 116.624924,846.530090 
	C116.236320,847.924683 115.761932,849.301758 115.472824,850.716675 
	C113.308754,861.307373 110.416313,871.751587 109.078857,882.509155 
	C108.791801,884.818054 107.920609,887.166870 105.236977,886.768555 
	C102.102081,886.303345 103.618469,883.643799 103.891487,881.892761 
	C106.021248,868.232910 109.453018,854.834351 112.156670,841.297302 
	C115.051712,826.802002 118.293205,812.390198 121.425606,797.951660 
	C121.885971,795.829651 121.081001,794.456543 119.828682,793.024719 
	C119.016716,792.096375 118.533119,790.940918 119.510864,789.880249 
	C120.714462,788.574402 121.942741,789.338501 123.054192,790.149902 
	C125.522491,791.951904 126.533951,793.689087 125.468216,797.274109 
	C123.889046,802.586121 123.870728,808.343323 122.917336,813.864319 
	C121.280060,823.345703 119.433884,832.791016 117.493919,843.227783 
	C120.299797,839.587891 119.837791,836.013062 120.557655,832.852112 
	C122.919861,822.479980 124.815102,812.002380 127.081696,801.607117 
	C127.784943,798.381836 126.960388,795.083679 128.185120,791.850952 
	C128.861771,790.064819 126.616272,789.237122 125.325089,788.230530 
	C121.242805,785.048157 116.569008,782.542236 112.228760,777.599854 
	C120.059570,777.226562 123.608948,783.386292 130.197403,784.927124 
	C126.280312,778.928955 123.225845,773.253906 119.242676,768.330200 
	C104.327469,749.893188 105.172203,728.939087 108.863594,707.426758 
	C109.097824,706.061707 109.556915,704.610229 111.201103,704.663208 
	C113.295387,704.730652 113.313759,706.534180 113.226303,708.010071 
	C112.754028,715.981079 112.303833,723.956116 111.622375,731.910583 
	C111.291122,735.777222 111.580811,739.463989 113.203522,743.109985 
	C114.440720,734.499084 114.001915,725.640198 116.903854,716.932190 
	C121.240501,719.156616 120.030167,722.477478 119.915848,725.457153 
	C119.548965,735.019653 118.231514,744.617371 121.079468,754.093750 
	C122.893356,739.871033 119.814758,725.229980 124.656029,711.216492 
	C127.875443,727.438904 124.626755,743.994263 128.473663,760.217346 
	C128.584869,759.083862 128.784546,757.950439 128.784241,756.816956 
	C128.783875,755.488098 128.543976,754.160095 128.527298,752.830261 
	C128.506302,751.157837 128.439987,749.058899 130.608978,748.930725 
	C132.668335,748.809021 132.336685,750.826721 132.585190,752.290100 
	C133.492706,757.633911 134.383179,762.996643 136.699326,768.130066 
	C140.366974,766.352905 141.670456,763.562439 141.476120,759.945862 
	C140.306564,738.180603 139.148758,716.412048 139.814865,694.604797 
	C140.001892,688.482056 140.621521,682.370911 141.104996,676.259338 
	C141.461151,671.757141 137.456329,668.003967 133.215088,669.524353 
	C116.309616,675.584961 99.523651,681.980896 86.251106,694.796326 
	C80.903542,699.959717 77.205238,706.224365 73.413033,712.638550 
	C67.989479,721.812073 65.167778,731.784851 61.795567,741.621521 
	C57.118069,755.265564 55.346081,769.408936 55.381504,783.897644 
	C57.161007,784.616943 57.711929,781.323486 59.915649,782.979797 
	C56.656002,787.325745 62.852356,791.360779 60.455360,796.016541 
	C59.929691,797.037476 59.803238,798.256104 59.386215,799.342651 
	C58.719410,801.080017 57.517956,802.284485 55.566547,801.546204 
	C53.480530,800.756897 54.427368,799.175049 54.929276,797.767578 
	C55.256874,796.848999 55.476456,795.891785 55.861511,794.541199 
	C52.857315,794.445435 51.802185,795.924377 50.780563,798.225647 
	C39.966549,822.583862 33.452766,848.156799 28.978334,874.322937 
	C28.208071,878.827454 27.372042,883.320740 26.477930,888.313049 
	C24.083643,886.600525 24.731661,884.634583 24.725300,883.001953 
	C24.668253,868.361023 24.710716,853.719727 24.687082,839.078552 
	C24.681698,835.743835 26.769028,832.639893 24.907040,828.991821 
	C23.834873,826.891113 25.870070,825.298584 28.341742,825.529846 
	C30.969379,825.775574 31.995533,824.157837 32.456055,822.092529 
	C34.898094,811.140625 38.892567,800.776245 43.979874,790.800537 
	C44.492161,789.795959 44.914078,788.560669 44.840042,787.468872 
	C43.069443,761.357971 50.500301,737.024719 60.451267,713.558838 
	C68.024124,695.700745 80.288200,681.153931 97.844391,671.678284 
	C107.723167,666.346436 118.468971,663.743469 129.190063,661.069580 
	C132.059921,660.353821 133.112152,658.693054 133.517075,656.348022 
	C134.652023,649.774963 138.215332,644.674988 142.998871,640.339355 
	C146.452347,637.209229 150.805542,636.850098 155.109573,637.549988 
	C161.953934,638.663147 167.903656,640.225830 172.592178,631.911682 
	C176.233765,625.454163 182.149673,625.791138 188.439819,630.212402 
	C188.982574,630.593933 189.407913,631.176819 189.987640,631.466309 
	C201.015701,636.973328 196.991623,638.326660 206.462479,630.097229 
	C211.650208,625.589478 216.126633,620.497681 221.196396,615.989929 
	C226.339096,611.417236 232.280350,612.540222 237.961731,615.435852 
	C239.291199,616.113403 240.488083,617.048218 241.759186,617.843628 
	C251.948975,624.219849 256.973358,623.243042 264.211884,613.401733 
	C268.765045,607.211365 271.187500,599.701538 275.652863,593.585022 
	C281.172638,586.024292 279.964905,577.619934 280.643372,569.375549 
	C281.901672,554.085693 280.431519,538.852722 279.523224,523.612061 
	C279.424927,521.962219 279.092804,520.290039 278.605835,518.709290 
	C278.053528,516.916321 278.605927,514.198242 276.081696,513.759399 
	C273.270721,513.270691 272.634247,515.877258 271.860382,517.852051 
	C269.861755,522.952393 265.974823,525.757324 260.874725,527.157227 
	C260.040863,527.386108 259.230316,527.375671 258.404633,526.583069 
	C257.953766,523.808899 260.057983,521.774109 261.032104,519.403625 
	C264.565277,510.805969 262.309326,497.356934 256.355713,491.821960 
	C254.284836,489.896667 252.909195,489.390442 250.068771,491.347687 
	C242.907074,496.282593 234.514740,498.745789 226.290314,501.413239 
	C225.263885,501.746155 224.255646,501.579071 223.576752,500.696869 
	C222.584244,499.407227 223.107697,498.147552 223.945938,497.033325 
	C225.833664,494.523987 228.301651,492.474670 229.329651,489.306763 
	C233.021240,477.930908 230.586578,477.035645 221.691956,476.359070 
	C211.920288,475.615784 202.837051,472.814606 194.440598,467.579193 
	C184.793869,461.564209 178.817017,452.713287 174.869064,442.477448 
	C170.263062,430.535553 166.014435,418.436829 166.493622,405.265533 
	C166.571594,403.121887 166.321838,400.603699 164.679016,398.811401 
	C162.692230,398.447021 161.855927,399.910187 160.855408,400.924866 
	C156.202454,405.643799 151.592377,410.405365 147.001755,415.185120 
	C145.611511,416.632660 144.113388,418.766571 142.064835,417.249573 
	C139.779419,415.557159 141.825043,413.706268 142.964203,412.150787 
	C152.510834,399.115082 157.436035,384.769318 156.016129,368.401001 
	C155.529037,362.785706 155.943863,357.092987 155.927246,351.435699 
	C155.919083,348.654053 156.530945,345.813751 154.998489,342.416687 
	C149.328705,345.845917 145.118027,350.686035 140.177658,354.601898 
	C130.987503,361.886292 121.801826,369.319153 110.148102,372.571564 
	C108.303421,373.086426 106.602013,373.164062 104.789490,372.492676 
	C101.727959,371.358612 100.880470,369.655090 103.799614,367.609955 
	C111.849480,361.970337 115.341438,353.512787 118.933678,344.861633 
	C121.658485,338.299561 125.772964,332.328888 128.834427,325.888458 
	C132.467346,318.245850 135.820297,310.460907 138.067795,302.248108 
	C138.675171,300.028564 139.622391,297.841797 140.762222,295.838318 
	C146.576996,285.617493 148.628967,274.090363 152.936523,263.236572 
	C149.695114,261.487061 147.082581,263.104706 146.491882,264.834717 
	C144.435440,270.857574 139.069717,268.962189 135.092285,270.321899 
	C134.660675,270.469421 133.964523,270.040070 133.632736,270.253693 
	C126.631134,274.760590 118.678276,274.070923 110.912796,274.599823 
	C101.320183,275.253143 91.798279,274.949524 82.385948,272.989075 
	C79.637253,272.416565 79.682121,268.992035 77.014404,267.394653 
	C80.507271,263.811951 85.014297,264.392517 88.687111,263.176880 
	C98.147301,260.045715 107.867500,257.789886 116.237740,251.894730 
	C120.918404,248.598145 125.144638,244.648209 128.369431,240.240036 
	C138.003876,227.070114 148.710831,214.778778 158.895691,202.076965 
	C165.412201,193.950058 173.565643,187.161240 181.561707,180.380463 
	C183.819885,178.465500 186.255417,176.698303 187.850037,173.658798 
	C185.444016,172.543839 183.240234,173.177399 181.103302,173.904877 
	C172.288406,176.905731 163.550201,176.374237 154.782013,173.637680 
	C146.217926,170.964813 138.717682,166.400299 132.282791,160.323181 
	C128.888062,157.117188 128.072845,152.069611 124.927139,148.899643 
	C127.031898,146.545349 128.572739,147.445450 129.845825,147.925659 
	C148.794708,155.073013 168.234482,152.941864 187.499023,150.364334 
	C194.319214,149.451828 201.031494,147.153946 208.022308,146.719971 
	C211.232712,146.520691 211.382919,144.696289 210.585663,142.218338 
	C208.161514,134.683807 207.766434,126.958443 207.762299,119.070900 
	C207.756622,108.250778 210.958542,98.507607 215.901367,89.125748 
	C223.902527,73.938927 235.743027,61.742283 247.118027,49.209965 
	C250.031036,46.000557 252.041336,41.543789 256.966705,40.448101 
	C262.873413,46.585960 256.491669,51.345688 254.931808,56.174789 
	C250.743256,69.141891 243.697098,81.203392 243.016434,95.259636 
	C242.699463,101.805122 244.586166,108.019661 245.386246,114.582794 
	C248.569473,111.353592 251.104309,107.845642 251.658905,103.943466 
	C253.228607,92.899063 260.683868,85.684158 267.409576,77.939682 
	C271.856293,72.819435 276.288635,67.662094 281.067505,62.859791 
	C293.329071,50.538082 295.653015,34.562492 297.950623,18.496180 
	C298.273804,16.236105 297.692535,12.560539 301.080261,12.617535 
	C304.885345,12.681550 305.164154,16.006727 305.209167,19.282249 
	C305.396515,32.915466 305.376312,46.585415 302.768219,59.971138 
	C301.395477,67.016441 298.847504,74.000465 293.640930,79.650520 
	C295.556091,81.678368 297.363800,82.202560 299.254059,80.906578 
	C303.509155,77.989227 308.491913,76.296181 312.389069,72.753212 
	C315.953339,69.512871 320.726074,68.246788 324.716125,65.450058 
	C331.322510,60.819485 337.569824,55.370678 345.399933,52.614651 
	C347.825256,51.760990 349.441681,49.725567 351.390778,48.181973 
	C361.683441,40.030666 372.671936,32.593716 382.037964,23.488317 
	C389.577301,16.158726 399.137054,10.885677 404.913849,1.329290 
	C407.370575,1.000000 409.741119,1.000000 412.555847,0.999999 
M406.061462,698.992188 
	C399.557770,698.683899 393.450714,700.804993 387.709595,703.199341 
	C378.804901,706.913025 370.233856,711.688416 364.111328,719.445496 
	C360.710907,723.753845 356.731506,726.510864 351.515106,727.719421 
	C349.238129,728.246948 347.252441,728.041199 346.027466,725.330200 
	C347.068359,724.126160 348.118225,722.911621 349.301849,721.542419 
	C346.347656,717.407898 341.828522,715.283936 338.370117,711.981262 
	C337.183777,710.848328 335.250000,710.195435 336.577362,708.091248 
	C337.811768,706.134399 339.832031,706.229492 341.456024,707.185913 
	C345.073181,709.315918 349.231171,709.971924 353.033081,711.624756 
	C355.723114,712.794250 359.277802,715.694153 362.489105,712.593506 
	C375.186707,700.333435 390.643219,693.196594 407.763916,691.255981 
	C424.108856,689.403442 440.202515,685.578064 456.698578,685.104492 
	C459.341187,685.028564 461.394379,684.281189 461.863678,681.484131 
	C463.512390,671.657471 466.948578,662.184937 467.677673,652.183044 
	C467.909485,649.003052 467.016846,645.881653 464.340210,644.237305 
	C454.966400,638.478638 448.386505,629.651306 440.107269,622.749634 
	C428.007294,612.662964 422.080719,599.578003 419.687012,584.476074 
	C418.692139,578.199585 417.796387,571.907471 416.738556,564.840637 
	C412.743988,568.643433 409.549866,571.729248 406.935822,576.029846 
	C410.992798,576.367493 410.742004,571.658813 415.014679,571.957825 
	C411.494507,580.950012 404.039551,587.982178 403.733765,597.921082 
	C406.960663,597.834473 407.539276,593.349365 411.444641,593.467896 
	C411.088898,599.936584 403.404449,601.642395 402.958557,607.588074 
	C406.498718,606.894836 407.609650,602.741272 411.147797,601.582092 
	C412.826477,606.947388 406.422516,608.387451 406.452332,612.947937 
	C410.253845,613.985474 410.067200,615.971802 407.388153,618.428162 
	C406.419983,619.315918 405.229065,620.206909 405.264587,621.680542 
	C405.377716,626.369873 402.574738,629.792114 400.288757,633.437073 
	C397.882538,637.273682 395.935150,641.297546 394.983673,645.754395 
	C393.112091,654.521118 391.334351,663.309265 389.338959,672.047668 
	C388.346527,676.393860 384.369415,678.083740 381.143646,681.729065 
	C385.523621,647.913818 394.991577,616.243835 397.520996,582.309631 
	C389.889954,584.929504 384.754089,588.406921 380.111816,593.296448 
	C382.336273,594.136353 383.780396,593.118286 385.300568,592.548767 
	C388.742828,591.259399 392.016510,592.941101 392.712921,595.584045 
	C393.597260,598.940125 389.806824,597.735291 387.836945,598.475037 
	C383.060059,600.268860 377.741577,600.533020 373.401489,603.501648 
	C371.334106,604.915649 368.514221,605.530151 367.383362,609.245911 
	C375.144806,610.558350 380.526093,604.332581 387.887207,603.447021 
	C385.938568,607.837219 382.561432,609.390137 379.416748,611.007812 
	C374.399353,613.588806 369.002716,615.490051 364.171722,618.360840 
	C358.645813,621.644531 355.619537,621.773804 350.886719,617.689575 
	C349.254761,616.281250 347.396881,615.356506 345.299042,614.474854 
	C340.978149,612.659058 335.443970,610.991638 333.736847,605.934937 
	C332.769440,603.069397 331.213196,601.619995 329.077637,600.005432 
	C322.452118,594.996338 318.283264,587.940186 314.905701,580.667542 
	C312.406403,575.286011 308.771057,571.436523 304.327759,567.884216 
	C306.372498,586.056030 310.394196,603.711548 312.810852,621.635681 
	C313.989136,630.375061 314.132568,639.166382 315.125244,647.900696 
	C315.283783,649.295471 315.531433,651.251709 313.537354,651.596130 
	C311.676300,651.917603 311.135468,650.263184 310.634949,648.783752 
	C309.874603,646.536438 309.726074,644.236877 309.711639,641.887756 
	C309.674927,635.913269 309.278778,629.969604 308.024231,623.966980 
	C306.936890,624.674683 307.664398,626.215820 305.877563,626.468384 
	C300.754486,616.848999 301.303406,605.568787 298.263397,594.720215 
	C296.461395,596.921021 298.860321,598.648743 296.946869,600.379517 
	C291.851440,595.413818 293.674438,588.043640 290.622253,581.593628 
	C286.851257,593.849792 282.920593,605.083740 275.378510,614.610535 
	C275.094330,614.969482 275.102295,615.559814 275.003967,616.007324 
	C275.003967,616.007324 275.038025,615.976562 274.469757,616.331665 
	C269.199554,623.154907 259.399780,625.296814 255.421600,634.374756 
	C260.208618,633.435181 262.631134,628.756104 267.850861,628.986267 
	C266.138489,634.037170 260.963104,634.570618 258.294098,637.979797 
	C259.719574,638.584839 261.478363,636.492249 262.768433,638.710022 
	C260.068817,642.424744 261.030365,648.032410 255.519241,650.801758 
	C251.105774,653.019653 248.416824,658.213135 242.917267,659.971497 
	C242.430771,656.236755 245.961823,655.408264 246.493271,652.911804 
	C240.714218,654.994507 240.528259,659.683960 241.655701,664.103638 
	C243.351349,670.750610 244.059982,677.523560 245.142441,684.242004 
	C245.700012,687.702759 246.991898,688.347351 250.425613,688.127075 
	C261.558807,687.412842 272.658905,688.332397 283.766907,689.440857 
	C293.765411,690.438477 303.306335,693.393311 312.984894,695.633301 
	C320.168518,697.295837 326.778625,700.999146 330.683563,708.119324 
	C304.053436,698.948792 276.478119,695.763611 248.807190,693.267029 
	C247.849976,694.812073 247.963196,696.378235 248.555298,697.722961 
	C254.524063,711.278503 256.079559,726.208374 264.516876,739.276001 
	C271.937958,750.769653 280.595673,760.940247 289.982513,770.328735 
	C302.864227,783.212585 315.152100,796.762329 329.127258,808.563721 
	C335.623016,814.049133 341.724884,820.000977 347.950226,825.691040 
	C349.077942,825.084229 349.036346,824.163208 349.017090,823.386658 
	C348.852051,816.736450 348.903503,810.110596 349.841217,803.494507 
	C350.544403,798.533081 348.194427,795.040894 344.255920,792.076660 
	C341.638184,790.106445 338.219360,788.654663 336.921967,784.714966 
	C341.808228,783.521301 344.234406,788.414246 348.555664,788.899658 
	C347.108063,785.575806 344.795258,783.735596 342.354645,781.990784 
	C337.444489,778.480408 332.004181,775.956421 326.548584,773.466248 
	C325.143860,772.825195 323.495819,772.300781 324.170532,770.357422 
	C324.789917,768.573364 326.572876,768.629456 328.016266,768.997559 
	C330.096954,769.528259 332.133453,770.296509 334.115814,771.135803 
	C339.402283,773.374146 344.338135,776.300293 349.292999,780.312378 
	C351.624237,774.481934 350.850372,769.408691 351.600098,764.572815 
	C351.799316,763.287842 351.593292,761.595581 353.485382,761.633301 
	C355.307983,761.669678 355.331635,763.284302 355.313843,764.615723 
	C355.260712,768.593323 355.971710,772.434631 357.011688,776.779419 
	C362.526489,774.662842 366.908630,771.379150 371.314545,768.250549 
	C374.160492,766.229675 378.331665,764.130249 380.377502,765.113281 
	C385.509460,767.579346 389.309265,764.834839 392.787018,763.023682 
	C402.913116,757.750305 413.699982,757.855835 424.443115,758.193054 
	C428.369873,758.316284 430.149811,757.301941 431.800812,754.146057 
	C441.182404,736.213013 451.733002,718.820740 456.902557,698.973999 
	C457.423340,696.974548 459.602905,694.912720 457.895569,692.971741 
	C456.344482,691.208374 453.796417,692.191650 451.696228,692.478638 
	C440.165100,694.054810 428.676636,695.939453 417.003601,696.315247 
	C413.560059,696.426086 409.978424,696.631470 406.990631,699.000244 
	C406.990631,699.000244 406.932739,699.040710 406.061462,698.992188 
M467.570801,254.828018 
	C460.873474,238.093399 452.882416,222.001816 443.846100,205.263916 
	C442.348175,211.019470 444.614960,214.703781 445.823364,218.784622 
	C451.768219,238.860413 457.100220,259.108337 458.346497,280.159821 
	C458.516937,283.038666 459.583099,285.212677 462.298096,286.580048 
	C467.297699,289.097931 470.994812,293.257263 474.922211,297.085022 
	C476.258911,298.387848 478.013702,299.787109 476.772766,302.772552 
	C470.605560,301.512421 467.521606,294.483826 460.429871,293.371796 
	C461.062805,299.849121 461.541870,305.682373 458.906647,311.893066 
	C455.746979,306.920349 452.031036,302.980133 450.527130,298.325226 
	C446.917816,287.153625 439.204773,284.422852 428.951508,286.438202 
	C420.021545,288.193451 409.624481,286.409454 403.578766,296.253113 
	C401.008911,294.289368 398.746124,294.642365 395.730377,295.579651 
	C391.906769,296.768036 388.907837,298.554169 386.078278,301.170471 
	C384.624573,302.514557 382.574066,302.803528 381.183319,301.054779 
	C379.798676,299.313721 381.190918,298.015625 382.498047,296.865265 
	C386.134216,293.665222 389.954590,290.795502 394.358093,288.640686 
	C398.147369,286.786438 398.422333,283.427734 394.774445,281.581818 
	C391.131836,279.738525 389.131134,276.602722 387.945892,273.392822 
	C383.162659,260.439301 374.387634,249.820511 367.792236,237.941116 
	C354.538605,214.069138 340.542358,190.609116 326.817932,166.999222 
	C323.717377,161.665344 320.475128,156.413849 316.949524,150.544067 
	C315.378021,154.209915 316.046387,157.060883 316.081329,159.802551 
	C316.352386,181.071579 315.695618,202.411865 320.457642,223.375275 
	C320.746002,224.644714 321.458740,226.044174 320.559906,227.242188 
	C318.475189,230.020889 319.428680,232.920273 319.896484,235.866577 
	C321.720886,247.356750 323.587494,258.804382 328.201233,269.640778 
	C329.646423,273.035126 330.047699,276.873993 330.926819,280.509369 
	C325.665497,278.389740 321.656708,275.480286 319.798615,270.301392 
	C318.563538,266.858948 317.235046,263.446228 315.832275,260.068390 
	C310.436279,247.074921 304.673340,234.209030 300.788116,220.656174 
	C297.039276,207.579224 293.584015,194.416458 290.162140,181.249176 
	C289.639954,179.239716 288.446045,177.020218 289.564453,174.805695 
	C291.895508,175.112885 291.480652,177.206818 293.258972,178.677689 
	C290.475342,170.546722 291.603058,162.284714 287.573883,155.083618 
	C284.863861,155.948212 283.769684,158.122940 282.535919,160.010330 
	C275.631866,170.572052 268.745544,181.155609 263.703400,192.785172 
	C258.941528,203.768219 254.006516,214.730515 251.236038,226.409439 
	C247.031677,244.132812 241.827698,261.620605 239.651871,279.842407 
	C239.118271,284.311096 239.746857,288.703339 238.943726,293.100494 
	C237.677277,300.034515 235.718048,306.851685 235.422302,313.961548 
	C235.249863,318.106995 234.812881,322.241852 234.469727,326.379425 
	C234.383881,327.414398 234.043060,328.426208 232.945084,328.734772 
	C231.534836,329.131165 230.762024,328.136414 230.244049,327.056030 
	C228.372803,323.153046 226.321518,319.308746 224.843063,315.258026 
	C224.211227,313.526947 222.159973,313.137146 222.099350,310.963776 
	C221.785919,299.727570 218.930023,288.840454 217.404419,277.727448 
	C215.402908,281.515167 216.423737,285.557434 216.023041,289.444824 
	C214.010544,308.968689 215.727951,328.150879 220.443665,347.226074 
	C222.035309,353.664368 224.656219,360.329651 222.408554,367.304626 
	C222.012283,368.534332 222.313248,370.180054 220.695007,370.603271 
	C218.893372,371.074463 218.003647,369.668579 217.198090,368.383942 
	C214.747452,364.475769 212.324738,360.550140 209.815384,356.509277 
	C208.953918,357.719177 209.291199,358.758301 209.599304,359.611328 
	C215.428528,375.748871 217.440201,392.871582 222.820511,409.190948 
	C228.887527,427.593170 236.879532,444.887360 246.982834,461.305634 
	C247.694962,462.462891 248.276627,464.131500 250.336456,463.745422 
	C251.565231,460.941071 249.582306,457.505798 252.626389,453.806549 
	C253.812958,461.058228 258.815155,465.890717 258.746521,472.619629 
	C258.732880,473.955322 259.309479,474.857239 260.264221,475.584686 
	C264.896820,479.114899 269.221558,483.207977 274.261139,486.013641 
	C286.604645,492.885742 299.631317,498.310944 313.042786,502.841156 
	C341.888580,512.584778 370.784241,513.436584 399.563477,503.047974 
	C411.710785,498.663086 423.512451,493.346680 434.488525,486.316223 
	C437.456909,484.414886 439.912689,481.928833 442.818420,480.117889 
	C457.311615,471.085236 468.213135,458.863251 475.993042,443.760803 
	C484.930054,426.412109 487.480927,407.210632 491.761078,388.531189 
	C492.389771,385.787415 493.567902,383.222290 493.878784,380.369202 
	C495.040680,369.706024 496.747589,359.090820 497.563690,348.405212 
	C498.160126,340.596069 497.680420,332.704681 497.680420,324.154327 
	C492.127289,330.931732 493.041534,340.051880 487.896973,346.235840 
	C485.831970,344.977875 485.910767,343.923828 485.782623,342.949127 
	C484.615967,334.073975 485.184906,325.087311 483.880951,316.201447 
	C482.701752,308.165680 482.855865,299.866943 481.025879,292.009338 
	C478.089020,279.399231 472.653473,267.554016 467.570801,254.828018 
M369.967834,819.436768 
	C371.272980,818.406982 372.750214,817.533203 373.851532,816.318542 
	C377.428619,812.373474 383.943542,813.667603 386.968231,808.565857 
	C390.486450,802.631653 396.810516,799.477905 401.771729,795.001892 
	C409.995453,787.582458 416.927185,779.177673 423.528809,770.431274 
	C424.915588,768.593933 426.281433,766.289429 425.601959,763.069214 
	C416.984467,763.678894 408.716003,765.152710 400.503265,767.194519 
	C386.754913,770.612427 373.125854,774.275330 361.047150,782.108093 
	C358.782745,783.576477 356.956055,785.083496 357.570557,788.206909 
	C361.747223,787.713867 363.214478,782.681152 368.259552,783.907654 
	C365.799347,788.814941 360.109924,790.622253 358.131836,796.322388 
	C359.385895,795.601318 359.915833,795.265869 360.473022,794.984436 
	C361.117584,794.658752 361.747925,794.601379 362.780396,796.055969 
	C352.842957,805.988586 358.222778,818.833008 356.084137,830.588379 
	C356.514923,830.739563 356.945740,830.890808 357.376526,831.041992 
	C361.396454,827.332214 365.416382,823.622375 369.967834,819.436768 
M378.799988,178.628021 
	C378.661285,178.535706 378.533447,178.409424 378.380829,178.360672 
	C378.230621,178.312698 377.953583,178.276749 377.905975,178.349380 
	C376.892365,179.896103 378.064148,181.215500 378.505157,182.520355 
	C380.578308,188.654449 382.932709,194.713699 384.953125,200.840500 
	C388.215149,210.732376 390.391022,220.978317 393.176392,231.032959 
	C394.985870,237.564896 397.441193,243.937271 398.931152,250.533813 
	C401.123688,260.240875 402.697144,270.087189 404.568695,279.867645 
	C405.176178,283.042206 406.802826,284.348724 410.241638,283.354004 
	C418.109955,281.077972 426.163086,279.970215 434.383240,279.971313 
	C438.944153,279.971924 439.817017,278.468445 437.608032,274.415680 
	C433.329742,266.566376 428.896790,258.800659 424.455078,251.041992 
	C423.759186,249.826447 423.306091,248.178772 421.481201,248.068405 
	C417.647552,249.949768 415.863007,254.919388 410.069794,255.577148 
	C412.061768,250.114929 417.626495,248.862549 419.733643,244.360031 
	C415.244232,245.224686 413.586243,250.687042 408.504639,250.350143 
	C408.696411,245.475433 414.046997,245.005630 415.317841,241.231339 
	C411.197205,241.407196 409.804443,246.610153 405.556152,245.617783 
	C405.614075,239.883224 414.620575,239.703049 413.348755,232.714325 
	C408.960266,234.097946 407.404755,239.650955 402.348389,238.279160 
	C402.180206,235.364365 404.437469,234.423782 405.856476,232.933945 
	C407.214630,231.508087 408.987793,230.339325 409.121460,227.860718 
	C405.351349,228.622513 403.800507,232.988403 399.824097,232.369858 
	C399.177429,227.057877 406.690033,226.407974 405.961792,221.428711 
	C404.126251,219.874832 402.035706,222.927170 400.567047,220.145386 
	C402.882111,217.831375 402.027283,215.469299 400.391449,212.893219 
	C393.254944,201.654800 386.245026,190.335983 378.799988,178.628021 
M219.667801,428.734009 
	C216.145096,420.114014 212.600906,411.510406 209.331207,402.780914 
	C205.118515,391.533905 200.563843,380.316620 187.216537,376.477509 
	C182.804474,375.208496 179.277649,376.016541 177.178192,380.051117 
	C175.393188,383.481415 174.458023,387.210876 174.315918,391.084229 
	C173.528610,412.544891 179.033951,432.552338 188.478119,451.613434 
	C190.612061,455.920349 194.185776,458.910431 198.303543,461.286224 
	C206.715408,466.139435 215.903152,468.151825 225.481445,468.703003 
	C229.319946,468.923828 233.725784,469.524902 235.888626,465.657532 
	C237.905197,462.051666 234.062271,459.317566 232.787567,456.220642 
	C231.525146,453.153564 229.567841,452.847809 226.959061,455.007324 
	C222.326004,458.842407 217.158524,458.673523 211.919830,456.458923 
	C209.010147,455.228882 206.181808,453.797943 203.355820,452.379822 
	C191.652023,446.506470 189.033737,439.756805 193.719986,427.453217 
	C195.522247,422.721405 193.262283,417.810791 195.878906,412.343079 
	C190.455536,414.880005 191.280624,420.147919 188.032837,422.539948 
	C182.890518,418.154724 184.570892,410.658905 192.923203,399.958893 
	C191.876312,397.976807 190.379852,396.127686 187.997955,396.707611 
	C185.845688,397.231659 185.891785,399.727539 185.151794,401.558105 
	C183.639511,405.299225 185.163498,409.668701 182.910095,413.909943 
	C176.953949,407.683167 178.337738,400.808075 179.663544,394.618195 
	C181.322647,386.872192 185.396667,385.779999 192.040054,390.170654 
	C193.420685,391.083099 194.675705,392.195068 195.940674,393.271423 
	C204.303543,400.387268 208.405609,410.408142 213.786301,419.550812 
	C215.805283,422.981384 217.336227,426.306030 216.334442,430.763641 
	C215.198639,435.817719 217.193787,437.752228 222.435577,438.210205 
	C223.264771,434.807343 221.085052,432.250671 219.667801,428.734009 
M520.359680,407.419434 
	C516.946289,407.230927 515.940063,408.736267 516.657104,412.958618 
	C517.633911,418.710571 517.131226,419.242188 511.509705,419.477936 
	C508.084167,419.621582 504.571198,419.920471 502.679962,423.753326 
	C503.881226,424.670563 504.849731,424.135742 505.777893,424.084442 
	C515.131836,423.567688 518.971130,428.765656 516.128601,437.579620 
	C513.607422,445.397186 506.706024,448.440247 500.723236,452.497650 
	C495.911255,455.760986 490.785217,457.121857 485.270020,453.975128 
	C481.890320,452.046814 479.912964,454.358002 478.210052,456.662292 
	C476.732758,458.661285 473.547852,460.398529 475.342499,463.407715 
	C476.991394,466.172516 479.808319,468.334778 483.292053,467.417236 
	C487.764740,466.239166 492.422394,465.452698 496.547333,463.202698 
	C511.621307,454.980530 524.691772,444.676544 530.988403,427.965942 
	C537.501648,410.680328 542.996277,393.289001 532.703674,375.340790 
	C530.970703,372.318878 528.960388,370.807739 525.546082,371.300507 
	C522.386902,371.756470 519.441589,372.649750 516.813171,374.655365 
	C510.394196,379.553314 500.775543,397.882080 499.867859,407.613129 
	C501.126953,405.234558 502.215637,403.191101 503.292450,401.141357 
	C506.918823,394.238739 511.517609,388.254730 518.639404,384.573212 
	C524.238159,381.679108 528.286804,382.905670 531.438782,388.558716 
	C535.069580,395.070526 533.987061,401.465973 528.753845,404.420807 
	C526.238159,394.755554 526.238159,394.755554 523.586426,394.281036 
	C521.925415,400.624664 528.911011,406.070251 526.010193,412.629242 
	C522.629639,412.372589 522.385742,409.455505 520.359680,407.419434 
M300.722626,566.714600 
	C300.880890,560.036804 297.405243,554.877502 293.135040,549.810974 
	C290.216919,562.847168 292.165741,575.462830 296.428345,589.019470 
	C297.936829,582.572754 295.261017,577.020508 297.402252,571.646667 
	C302.195282,585.419189 301.798431,600.229431 306.721405,613.919128 
	C306.707062,611.791443 306.587646,609.663147 306.297974,607.558289 
	C304.464874,594.238586 302.594147,580.924072 300.722626,566.714600 
M200.184036,428.799469 
	C197.988251,431.251404 197.166763,434.291046 196.632904,437.410767 
	C196.314316,439.272552 196.462845,441.239899 198.400833,442.163483 
	C200.132263,442.988647 201.044510,441.291138 202.099503,440.336243 
	C203.326141,439.225922 204.397675,437.936798 205.668182,436.884155 
	C207.861435,435.067078 210.702042,433.231750 209.540466,430.068146 
	C208.310059,426.716980 204.631943,428.405334 202.064026,427.773834 
	C201.683167,427.680145 201.169586,428.126038 200.184036,428.799469 
M497.350739,414.774445 
	C497.457581,414.149750 497.564423,413.525024 497.671265,412.900330 
	C493.712891,420.652924 489.384277,428.220825 487.110687,437.647034 
	C494.760620,433.063477 497.213348,428.475830 496.124542,421.692383 
	C495.758392,419.411011 496.588501,417.456757 497.350739,414.774445 
M562.221191,849.993530 
	C562.148987,853.107300 564.302124,855.278503 565.416809,857.906799 
	C565.594360,851.930664 565.034363,846.117249 562.210754,840.492249 
	C562.210754,843.370178 562.210754,846.248047 562.221191,849.993530 
z"/>
<path fill="#000000" opacity="1.000000" stroke="none" 
	d="
M540.338867,788.640320 
	C541.607971,795.081482 542.051270,801.188354 542.286011,807.341492 
	C543.002380,826.121277 544.062317,844.887695 545.992859,863.582703 
	C546.689697,870.331482 545.365662,877.037720 546.801880,883.997131 
	C544.153076,883.368896 543.961426,881.371704 543.580566,880.020447 
	C540.973572,870.770935 538.622253,861.591553 538.369263,851.742310 
	C538.089111,840.837036 535.985840,829.959778 534.397461,819.111145 
	C531.722900,800.843445 528.776428,782.615601 526.086304,764.350098 
	C525.719238,761.858459 524.836487,759.149292 526.195190,756.906799 
	C528.486694,755.864929 528.802063,758.432922 530.527893,758.488586 
	C531.665588,755.764099 530.545105,752.509827 534.224731,750.069763 
	C536.749756,748.395386 536.288696,743.068481 535.981445,739.181396 
	C534.684509,722.773071 531.903320,706.487244 531.772461,689.987854 
	C531.728210,684.404968 531.183777,678.584534 537.273254,674.995117 
	C539.063354,673.939941 538.286438,671.422974 538.203186,669.396973 
	C538.077515,666.340698 536.482239,662.962341 539.436401,659.903992 
	C542.561768,662.621216 542.149658,666.387695 543.246277,669.967407 
	C548.912720,668.282043 549.455200,672.007751 548.966919,675.878906 
	C547.938354,684.033264 548.644104,692.434692 545.372314,700.306641 
	C544.658508,702.023987 545.080627,704.248840 545.118103,706.237427 
	C545.432678,722.923279 543.859375,739.441040 541.051819,755.879578 
	C540.077576,761.583984 540.118958,767.458496 539.503540,773.173767 
	C538.940369,778.403381 539.299500,783.253601 540.338867,788.640320 
M537.740173,679.035278 
	C536.688416,680.599060 536.433289,682.373413 536.552979,684.181702 
	C537.468323,698.014526 538.418396,711.844971 539.357666,725.676208 
	C540.006409,720.847168 540.224426,716.021545 539.961853,711.222168 
	C539.381897,700.621521 539.960510,689.945007 537.740173,679.035278 
z"/>
<path fill="#000000" opacity="1.000000" stroke="none" 
	d="
M171.151276,849.455994 
	C170.400574,832.230347 170.914246,815.277527 168.610641,798.716675 
	C166.220703,781.535339 167.033707,764.515747 167.228134,747.417114 
	C167.383148,733.786316 168.313690,720.165588 168.587189,706.534180 
	C168.713470,700.239807 168.092682,693.930481 167.811996,687.627930 
	C167.746689,686.161560 167.344803,684.600220 169.251938,683.353088 
	C172.130020,683.972046 171.632416,686.506592 172.019943,688.664734 
	C172.648682,692.166138 170.448883,696.934387 176.379364,698.224731 
	C177.620361,698.494690 177.226929,700.559387 177.321289,701.873413 
	C177.558243,705.173462 177.836945,708.470520 178.160217,712.540588 
	C181.896790,699.633606 177.779037,687.497070 177.295486,675.228333 
	C181.100647,675.422974 181.083786,677.619446 181.547272,679.208984 
	C184.746017,690.179993 185.218674,701.451416 184.352097,712.718384 
	C182.070694,742.380920 179.421844,772.015015 177.079849,801.673096 
	C176.563461,808.212280 176.835632,814.737000 182.833908,819.321716 
	C183.549179,819.868469 183.861572,821.008423 184.231934,821.925476 
	C184.845016,823.443665 185.853165,825.167236 183.818771,826.321777 
	C181.686996,827.531494 180.934296,825.667908 180.009628,824.298584 
	C179.757217,823.924866 179.340317,823.662170 178.452667,822.846680 
	C176.349609,836.302856 177.516800,849.453918 175.986237,862.580139 
	C174.114487,858.317078 171.683456,854.475159 171.151276,849.455994 
M172.971680,765.405334 
	C172.971680,768.158508 172.971680,770.911743 172.971680,773.664917 
	C173.773788,757.720642 176.737030,741.825439 174.510666,725.847107 
	C174.012894,725.839539 173.515121,725.831970 173.017349,725.824402 
	C173.017349,738.694580 173.017349,751.564819 172.971680,765.405334 
z"/>
<path fill="#000000" opacity="1.000000" stroke="none" 
	d="
M319.033386,842.985168 
	C320.480957,845.805054 323.546570,847.478271 322.355408,851.452087 
	C307.928467,839.630127 296.820312,824.632568 284.044189,811.205994 
	C289.869080,823.094055 299.831360,832.474487 305.646973,845.309143 
	C300.466278,845.589417 299.304016,842.194153 297.514984,839.960510 
	C288.236877,828.376709 280.254486,815.870544 271.944122,803.598572 
	C269.704376,800.291199 267.373260,797.045471 265.073517,793.778931 
	C263.833862,792.018127 262.751129,790.233948 260.138245,790.056091 
	C258.090637,789.916626 257.279633,787.865540 256.393829,786.325684 
	C253.006836,780.437805 249.775284,774.460754 246.424316,768.551758 
	C245.638016,767.165283 245.227997,765.459351 243.258774,764.391541 
	C243.508743,770.228088 248.176712,774.769653 247.281876,781.245239 
	C243.678970,779.427429 242.512146,776.468811 241.289749,773.709351 
	C233.726181,756.635254 227.848175,738.931213 221.868805,721.267334 
	C220.107681,716.064819 218.364792,710.855652 216.670380,705.631104 
	C216.083664,703.822021 214.619720,701.357788 217.368134,700.537720 
	C219.767578,699.821838 220.514069,702.442078 221.205490,704.285828 
	C224.886810,714.102661 228.514938,723.939331 232.189392,733.758728 
	C232.535278,734.683044 233.075348,735.534668 233.742844,736.848267 
	C236.281067,732.064392 238.159042,733.577515 239.844070,737.151367 
	C242.894333,743.620850 245.491150,750.321777 249.725754,756.186096 
	C251.351715,758.437866 250.605927,761.456360 251.813141,763.795227 
	C252.849838,765.803528 253.781281,767.974182 256.083191,769.166931 
	C258.289886,770.310486 259.869110,771.982117 258.265747,774.809143 
	C257.004425,777.033020 258.600098,778.744629 260.173615,779.218445 
	C267.914948,781.549866 271.195129,788.612305 275.951843,793.939697 
	C290.364166,810.081116 304.018829,826.892944 319.033386,842.985168 
M239.013657,754.043579 
	C239.452896,754.784912 239.043655,756.084900 240.981934,756.304688 
	C238.992538,751.825378 239.223969,746.890808 235.662659,741.875671 
	C235.874634,746.823303 237.827911,749.982300 239.013657,754.043579 
z"/>
<path fill="#000000" opacity="1.000000" stroke="none" 
	d="
M165.364365,827.747925 
	C166.096268,841.675171 168.660355,854.874390 171.266022,868.065979 
	C171.651566,870.017944 172.029083,871.992615 172.669495,873.868347 
	C173.748886,877.029724 178.329285,880.090820 172.659775,883.328430 
	C172.310364,883.528076 172.845123,885.183838 172.879105,886.165222 
	C172.959900,888.498596 172.456482,890.618469 169.777985,891.100830 
	C167.353668,891.537537 166.134949,889.964966 165.456284,887.870911 
	C163.445679,881.667175 162.493515,875.254700 162.549774,868.782593 
	C162.589081,864.263245 161.953400,859.934082 161.225845,855.501404 
	C158.992554,841.894897 158.380569,828.171814 159.630356,814.405396 
	C159.752548,813.059265 160.011230,811.444092 161.693344,811.466309 
	C164.035995,811.497131 164.646179,813.616211 164.810394,815.364319 
	C165.182129,819.322144 165.181061,823.314880 165.364365,827.747925 
z"/>
<path fill="#000000" opacity="1.000000" stroke="none" 
	d="
M457.566040,755.643677 
	C459.134521,752.110107 460.508362,748.910583 461.986237,745.759827 
	C462.412659,744.850769 463.210144,744.074280 464.351410,744.288391 
	C465.748810,744.550537 466.119873,745.705627 466.103760,746.927551 
	C466.090698,747.912964 465.984619,748.932922 465.704926,749.873657 
	C462.295502,761.341125 458.280396,772.592346 453.795013,783.686584 
	C449.439423,794.459717 445.486786,805.399658 440.959290,816.097961 
	C438.698578,821.440063 436.415619,826.929993 431.734955,831.885925 
	C430.751923,826.222656 432.703033,821.833862 434.315338,817.558472 
	C442.048889,797.050842 450.283813,776.731995 457.566040,755.643677 
z"/>
<path fill="#000000" opacity="1.000000" stroke="none" 
	d="
M486.763794,806.660461 
	C485.813477,810.702637 484.701843,813.816528 486.741516,818.086670 
	C488.239441,821.222595 486.171295,826.423584 484.887054,830.447144 
	C482.606049,837.593811 480.337677,844.937256 471.939301,849.481201 
	C473.666901,827.023865 481.402557,806.836670 489.779114,786.795166 
	C491.104340,793.678894 488.672791,799.929138 486.763794,806.660461 
z"/>
<path fill="#000000" opacity="1.000000" stroke="none" 
	d="
M491.541199,669.670349 
	C492.240356,665.150574 494.493835,661.463562 494.737213,657.241272 
	C494.815399,655.884644 495.322296,654.483276 496.977509,654.416138 
	C498.604370,654.350098 499.067322,655.830383 499.627777,657.006714 
	C500.239319,658.290222 499.890839,659.595398 499.582184,660.901184 
	C496.837860,672.511414 493.819244,684.048096 492.823334,696.025818 
	C492.565948,699.121338 490.579315,702.000122 490.404999,705.411560 
	C490.264618,708.159790 488.066406,707.520630 486.479340,706.285767 
	C484.149231,708.338989 484.895050,711.974609 482.088043,713.498413 
	C480.263092,712.799988 480.753906,711.351746 481.050812,710.165833 
	C482.606293,703.953064 484.040863,697.852661 486.794586,691.835083 
	C489.807159,685.251953 490.003510,677.380127 491.541199,669.670349 
z"/>
<path fill="#000000" opacity="1.000000" stroke="none" 
	d="
M183.680115,657.031982 
	C183.364853,655.175232 182.757385,653.650635 182.985260,652.263306 
	C183.502335,649.115051 185.482788,648.467834 187.985580,650.332153 
	C189.000946,651.088623 189.774719,652.312134 190.366867,653.471985 
	C196.257767,665.010254 202.088852,676.579041 207.932083,688.141663 
	C208.300385,688.870483 208.743423,689.602112 208.234283,690.561951 
	C206.672424,691.602722 205.928268,690.217163 205.088287,689.303528 
	C203.295334,687.353577 202.759109,683.733704 198.418610,685.609863 
	C196.932617,686.252197 195.780899,683.436951 194.952408,681.860291 
	C190.780518,673.921143 187.077698,665.762329 183.680115,657.031982 
z"/>
<path fill="#000000" opacity="1.000000" stroke="none" 
	d="
M361.694031,880.662598 
	C358.284668,876.599243 355.906342,876.710632 353.664398,880.853394 
	C352.148315,883.654846 351.285767,886.749451 351.495667,889.934753 
	C351.683777,892.789246 350.255341,893.289734 347.911194,893.311340 
	C345.223877,893.336060 343.845398,892.319275 344.091980,889.478821 
	C344.575989,883.902954 346.195282,878.660461 349.669708,874.290039 
	C353.884369,868.988525 362.794525,869.675842 366.369629,875.392822 
	C368.998596,879.596802 369.651672,884.397095 369.851410,889.217651 
	C369.938416,891.316772 369.107056,893.154480 366.441589,893.219604 
	C363.707245,893.286255 363.266754,891.450378 362.962830,889.325867 
	C362.566895,886.557922 363.248169,883.644958 361.694031,880.662598 
z"/>
<path fill="#000000" opacity="1.000000" stroke="none" 
	d="
M482.724670,795.113708 
	C478.725311,808.665100 474.627319,821.842041 472.250366,835.406372 
	C471.107758,841.926758 470.173065,848.469849 468.482025,854.879272 
	C468.027740,856.601074 467.946014,858.613953 465.192200,858.783875 
	C463.259827,856.581543 464.727997,853.977722 464.934937,851.784424 
	C466.749786,832.546936 471.733704,814.004333 477.809692,795.727234 
	C478.285614,794.295654 478.753693,792.770630 480.619263,792.649292 
	C482.036285,792.557129 482.758362,793.346375 482.724670,795.113708 
z"/>
<path fill="#000000" opacity="1.000000" stroke="none" 
	d="
M443.124756,775.263916 
	C447.385651,766.185181 450.348572,756.862061 455.930542,748.819275 
	C459.160095,750.561218 457.782349,752.251282 457.123291,753.856812 
	C450.502838,769.984253 443.899109,786.118652 437.232544,802.226990 
	C436.347198,804.366150 436.053802,807.218811 432.197174,807.345093 
	C433.749268,795.873962 439.425140,786.090942 443.124756,775.263916 
z"/>
<path fill="#000000" opacity="1.000000" stroke="none" 
	d="
M226.259781,687.810242 
	C229.582596,684.373962 227.534317,680.651917 227.371170,677.284668 
	C227.147202,672.662659 226.189270,668.073181 225.483261,663.479431 
	C225.252914,661.980652 224.853058,660.518921 227.652649,658.815613 
	C231.836502,674.865845 234.623917,690.696472 238.187653,707.659851 
	C233.248260,705.484985 233.809402,701.721252 232.253357,699.278687 
	C227.964432,699.679749 226.728867,697.437988 226.259781,687.810242 
z"/>
<path fill="#000000" opacity="1.000000" stroke="none" 
	d="
M471.321106,804.095337 
	C470.041626,809.905884 469.979248,815.602112 467.136902,821.223145 
	C464.663147,819.049683 464.800171,816.710510 465.081757,814.541687 
	C466.231689,805.682922 467.422852,796.826355 468.833984,788.006592 
	C469.265594,785.308838 468.521362,782.717102 468.829803,780.075867 
	C468.971375,778.863586 469.195099,777.608093 470.530212,777.341675 
	C472.145416,777.019226 472.978760,778.172363 473.316437,779.564819 
	C474.106476,782.822632 474.139099,786.177063 473.740479,789.449402 
	C473.160217,794.213440 472.175354,798.928162 471.321106,804.095337 
z"/>
<path fill="#000000" opacity="1.000000" stroke="none" 
	d="
M51.748329,833.625977 
	C53.449718,836.819763 50.397118,837.747864 49.263317,839.536438 
	C47.065914,843.002747 44.989452,846.601746 40.169891,849.882324 
	C41.191273,840.875122 42.283543,833.147034 47.004372,826.517578 
	C49.527637,822.974121 52.461357,819.493408 57.367294,819.027649 
	C55.659565,824.445862 51.795708,828.281738 48.635002,832.897827 
	C49.958572,833.156250 50.735966,833.308044 51.748329,833.625977 
z"/>
<path fill="#000000" opacity="1.000000" stroke="none" 
	d="
M392.509827,846.467712 
	C396.826385,839.009644 402.822693,833.426514 408.196136,826.500000 
	C409.206940,829.924988 409.206940,829.924988 408.788849,831.772278 
	C409.304932,831.600281 409.719116,831.513794 410.085876,831.331726 
	C412.563751,830.102295 413.575317,831.483276 412.615845,833.431030 
	C410.499298,837.727722 407.880310,841.782288 405.361938,845.871277 
	C404.840332,846.718201 403.806519,847.091309 402.491730,846.642639 
	C400.845428,843.885376 403.620148,841.916870 404.104431,839.160400 
	C400.867157,841.375977 398.972839,844.446411 396.678345,847.145386 
	C395.186859,848.899719 393.515625,850.676025 392.509827,846.467712 
z"/>
<path fill="#000000" opacity="1.000000" stroke="none" 
	d="
M584.726379,744.030640 
	C585.848755,733.708191 588.868652,724.143677 589.522583,714.196777 
	C589.600830,713.007263 589.540588,711.724487 591.153015,711.619629 
	C592.950684,711.502808 593.367188,712.835144 593.448486,714.234924 
	C593.679993,718.222168 593.315125,722.181946 592.572083,726.095093 
	C591.273743,732.932739 590.036743,739.787598 588.477722,746.567078 
	C587.952698,748.850098 587.494385,751.453857 584.816040,753.220215 
	C583.554993,750.150757 585.230103,747.258179 584.726379,744.030640 
z"/>
<path fill="#000000" opacity="1.000000" stroke="none" 
	d="
M38.487984,869.457397 
	C36.841011,871.785889 38.020977,875.386230 34.546719,876.167053 
	C32.850933,875.490051 32.836033,874.150513 33.150009,872.808411 
	C35.536022,862.609985 39.842171,853.388245 47.188816,845.772339 
	C48.424442,844.491455 50.044083,842.599182 51.818352,844.028076 
	C54.024620,845.804993 51.601799,847.295105 50.542381,848.488403 
	C45.151562,854.560974 42.011772,861.895447 38.487984,869.457397 
z"/>
<path fill="#000000" opacity="1.000000" stroke="none" 
	d="
M688.537476,816.520508 
	C684.384033,817.276489 680.596252,817.733337 676.959717,816.065369 
	C675.631104,815.455933 674.159485,814.625183 674.509399,812.768738 
	C674.827698,811.079956 676.210510,810.216858 677.752075,810.144104 
	C683.372192,809.878967 689.000061,809.768311 694.625732,809.631287 
	C697.374390,809.564270 697.262695,811.570374 697.267761,813.432922 
	C697.273010,815.356384 696.555237,816.643616 694.371765,816.584106 
	C692.553894,816.534607 690.735291,816.509338 688.537476,816.520508 
z"/>
<path fill="#000000" opacity="1.000000" stroke="none" 
	d="
M577.217590,709.335571 
	C579.571472,715.869568 579.081909,722.378357 579.150391,728.830078 
	C579.171631,730.828308 578.715698,732.635376 576.359131,732.807861 
	C574.029663,732.978394 572.843445,731.279236 573.057556,729.318359 
	C573.791626,722.597412 572.872070,715.705566 575.154297,709.139221 
	C575.854126,707.125671 576.411865,706.798218 577.217590,709.335571 
z"/>
<path fill="#000000" opacity="1.000000" stroke="none" 
	d="
M86.175072,770.496582 
	C84.494499,763.211426 85.318649,756.623657 88.978683,750.232788 
	C90.626945,759.322510 89.381165,768.695740 93.656242,777.939941 
	C87.879089,777.426758 87.626366,773.678894 86.175072,770.496582 
z"/>
<path fill="#000000" opacity="1.000000" stroke="none" 
	d="
M482.054932,687.352600 
	C480.289673,700.753418 476.866730,710.009155 473.169250,711.834961 
	C471.849030,711.090027 472.086426,709.927856 472.406586,708.786621 
	C474.380096,701.751709 476.291656,694.697571 478.409882,687.706238 
	C478.975037,685.840820 479.970154,683.079346 482.054932,687.352600 
z"/>
<path fill="#000000" opacity="1.000000" stroke="none" 
	d="
M101.967300,869.751831 
	C100.889282,874.199219 99.947014,878.242249 98.891518,882.255615 
	C98.596992,883.375488 98.006287,884.571838 96.535149,884.375305 
	C95.408752,884.224792 94.688461,883.225037 94.909615,882.209839 
	C96.564041,874.615173 96.911728,866.728943 99.923157,859.445190 
	C100.115494,858.979980 100.951515,858.780945 101.631760,858.371643 
	C105.044182,862.066528 101.943237,865.770630 101.967300,869.751831 
z"/>
<path fill="#000000" opacity="1.000000" stroke="none" 
	d="
M623.307373,798.745667 
	C624.172546,801.323120 624.991150,803.497314 625.724548,805.699890 
	C626.134399,806.930725 626.821106,808.421021 625.043884,809.092407 
	C623.467712,809.687927 622.461426,808.468567 621.952393,807.252014 
	C620.739441,804.352966 619.553345,801.416443 618.707642,798.396667 
	C617.637878,794.576721 616.899414,790.662842 616.053833,786.781738 
	C615.768555,785.472412 615.448425,783.878235 617.061768,783.358398 
	C618.974365,782.742065 619.693909,784.359924 620.083618,785.820862 
	C621.193787,789.981934 622.186401,794.174255 623.307373,798.745667 
z"/>
<path fill="#000000" opacity="1.000000" stroke="none" 
	d="
M631.280945,796.893677 
	C632.404419,800.850220 634.308044,804.340820 632.512390,808.292542 
	C628.429749,805.608398 623.549133,790.206055 625.180969,784.358093 
	C629.531128,787.523315 629.284851,792.590332 631.280945,796.893677 
z"/>
<path fill="#000000" opacity="1.000000" stroke="none" 
	d="
M614.918335,802.833557 
	C615.229126,804.536804 616.640930,806.246582 614.601257,807.088318 
	C612.831482,807.818604 611.940552,806.197632 611.195496,804.890564 
	C608.324829,799.854553 607.593811,794.223816 606.827820,788.622986 
	C606.647888,787.307129 606.791260,785.686340 608.535645,785.532654 
	C610.116333,785.393494 611.039612,786.699951 611.009033,788.117371 
	C610.897339,793.291931 614.133545,797.546021 614.918335,802.833557 
z"/>
<path fill="#000000" opacity="1.000000" stroke="none" 
	d="
M97.691292,769.209900 
	C98.356834,772.513550 98.356834,772.513550 97.447258,775.948547 
	C91.951767,772.038635 93.213440,766.091187 92.116776,761.152954 
	C91.504379,758.395264 92.279640,755.910278 95.735756,754.618469 
	C98.199539,759.250916 95.819305,764.361816 97.691292,769.209900 
z"/>
<path fill="#000000" opacity="1.000000" stroke="none" 
	d="
M100.055725,747.881836 
	C104.171623,751.738586 101.638496,756.888611 102.886452,761.404907 
	C103.799339,764.708679 103.065193,768.467590 103.065193,772.325195 
	C98.645454,770.595337 97.241890,757.034058 100.055725,747.881836 
z"/>
<path fill="#000000" opacity="1.000000" stroke="none" 
	d="
M597.590088,737.785156 
	C598.164673,733.363708 596.370972,728.951782 599.905029,724.160400 
	C601.728394,728.747253 603.242676,732.324341 602.239502,736.254028 
	C601.786743,738.027588 601.326172,739.733704 601.257751,741.565002 
	C601.194641,743.252258 601.013245,745.340088 598.810669,745.126099 
	C596.630615,744.914246 596.975220,742.699646 596.973572,741.108154 
	C596.972595,740.136169 597.343689,739.163818 597.590088,737.785156 
z"/>
<path fill="#000000" opacity="1.000000" stroke="none" 
	d="
M116.254501,806.293823 
	C115.366997,810.325439 114.943993,814.090820 112.855682,817.360352 
	C109.927559,816.393372 110.378311,814.218201 110.657166,812.338074 
	C111.093773,809.394287 111.728767,806.472839 112.430794,803.578552 
	C112.787605,802.107483 112.679512,799.714417 115.121429,800.309326 
	C117.046143,800.778198 117.086174,802.719910 116.730072,804.459167 
	C116.630638,804.944885 116.467049,805.417419 116.254501,806.293823 
z"/>
<path fill="#000000" opacity="1.000000" stroke="none" 
	d="
M381.626099,871.541138 
	C383.419861,871.486328 384.877563,871.675415 386.333984,871.665833 
	C388.053131,871.654419 390.422546,870.665161 390.807892,873.163879 
	C391.204956,875.738464 388.544006,876.613464 386.728394,877.345947 
	C384.559448,878.221008 382.592224,876.774841 380.970856,875.407288 
	C379.547058,874.206299 379.860260,872.823608 381.626099,871.541138 
z"/>
<path fill="#000000" opacity="1.000000" stroke="none" 
	d="
M646.167114,803.782654 
	C644.597595,800.049866 642.553406,796.806580 643.548767,792.772156 
	C647.610779,794.319031 650.567810,802.806580 648.903198,807.649353 
	C646.551147,807.579712 646.864380,805.528809 646.167114,803.782654 
z"/>
<path fill="#000000" opacity="1.000000" stroke="none" 
	d="
M220.763321,690.131042 
	C219.182816,689.989624 218.630554,689.104736 218.935547,688.065674 
	C220.259583,683.555054 221.170166,678.863708 224.550034,675.063599 
	C225.595932,680.526978 223.760056,685.382141 220.763321,690.131042 
z"/>
<path fill="#000000" opacity="1.000000" stroke="none" 
	d="
M189.263397,812.217285 
	C190.242310,814.924805 190.993698,817.261047 189.297531,819.560242 
	C185.329910,817.922485 184.188370,814.724976 185.759048,809.799377 
	C187.679504,809.154236 188.337555,810.602112 189.263397,812.217285 
z"/>
<path fill="#000000" opacity="1.000000" stroke="none" 
	d="
M696.439087,874.278442 
	C695.529907,874.709045 694.869873,875.057068 694.287170,874.956726 
	C692.391541,874.630127 689.886047,874.512573 689.814941,872.058838 
	C689.740845,869.503235 692.192078,869.839722 693.904053,869.854980 
	C696.685303,869.879700 697.796814,871.239624 696.439087,874.278442 
z"/>
<path fill="#000000" opacity="1.000000" stroke="none" 
	d="
M414.765686,841.372925 
	C413.875336,842.474304 413.053162,843.990906 412.063843,842.255859 
	C410.811920,840.060303 414.484070,834.183899 417.654999,833.390564 
	C417.917450,836.443176 415.765808,838.551086 414.765686,841.372925 
z"/>
<path fill="#000000" opacity="1.000000" stroke="none" 
	d="
M114.955360,788.962524 
	C113.496063,786.377075 109.822350,785.282104 109.788452,781.603943 
	C114.988747,781.421570 117.560242,784.647034 115.317085,788.831055 
	C115.002693,788.998657 114.955360,788.962524 114.955360,788.962524 
z"/>
<path fill="#000000" opacity="1.000000" stroke="none" 
	d="
M691.087646,858.539185 
	C689.331238,857.459839 688.926025,856.301025 690.528809,855.351379 
	C692.092896,854.424805 693.912720,854.028564 695.727356,854.712097 
	C697.028687,855.202271 697.328918,856.360291 697.005005,857.553345 
	C696.573181,859.143799 695.209656,859.306641 693.836060,859.178711 
	C693.027710,859.103516 692.234680,858.862915 691.087646,858.539185 
z"/>
<path fill="#000000" opacity="1.000000" stroke="none" 
	d="
M609.589478,704.744019 
	C609.767578,702.362610 610.548157,700.815125 612.885010,700.849548 
	C614.169739,700.868469 615.116699,701.547485 615.344299,702.883240 
	C615.606506,704.421997 614.643616,705.401672 613.525696,706.169312 
	C611.866516,707.308716 610.415771,707.322449 609.589478,704.744019 
z"/>
<path fill="#000000" opacity="1.000000" stroke="none" 
	d="
M27.633789,815.547119 
	C28.316326,816.054932 28.808699,816.360229 28.932240,816.775208 
	C29.493227,818.659729 29.280972,820.413452 27.280680,821.293518 
	C26.252689,821.745850 25.202227,821.105286 25.050526,820.042419 
	C24.772829,818.096802 23.728189,815.584839 27.633789,815.547119 
z"/>
<path fill="#000000" opacity="1.000000" stroke="none" 
	d="
M115.026802,789.016113 
	C115.716026,790.530945 116.518829,791.984436 117.014168,793.536072 
	C117.765854,795.890808 116.434227,796.437561 113.970055,796.170227 
	C114.493767,793.848206 111.182869,791.568970 114.644409,789.094238 
	C114.955360,788.962524 115.002693,788.998657 115.026802,789.016113 
z"/>
<path fill="#000000" opacity="1.000000" stroke="none" 
	d="
M366.829285,476.213989 
	C348.897064,476.037720 331.346375,476.631348 314.263367,472.264130 
	C302.190063,469.177673 290.203644,465.565735 279.263367,459.369110 
	C262.640350,449.953705 251.166367,436.377106 246.427780,417.589966 
	C245.145569,412.506348 246.495621,407.542572 248.513992,403.058319 
	C250.901169,397.754730 260.280609,395.506470 265.070221,399.741669 
	C271.720795,405.622437 279.593933,405.194031 287.152832,405.652618 
	C308.704956,406.959991 330.287048,405.820190 351.855072,405.345734 
	C368.788971,404.973206 385.764282,405.328064 402.634979,403.733124 
	C412.741638,402.777649 422.922668,403.513336 432.977722,401.854004 
	C436.742554,401.232697 439.622559,400.392822 441.502228,396.270813 
	C443.810211,391.209412 449.551453,391.912201 453.911072,391.971832 
	C459.190399,392.044128 463.250092,395.290771 465.118347,400.521790 
	C467.085052,406.028534 465.849121,410.936462 463.288696,416.232605 
	C456.148193,431.002747 446.909912,444.270966 434.348328,454.612030 
	C421.336426,465.323883 406.217010,472.147064 389.009369,473.537567 
	C381.752014,474.123993 374.542175,475.298553 366.829285,476.213989 
M425.031128,422.479065 
	C427.471710,410.758820 426.712921,409.560730 414.790771,410.273956 
	C397.845886,411.287598 380.911835,412.201630 363.929230,412.314514 
	C350.678650,412.402557 337.430786,412.918091 324.181946,413.252899 
	C315.565063,413.470642 306.964264,414.284637 298.322113,413.614594 
	C296.090118,413.441528 293.543518,413.588135 292.472687,416.384369 
	C289.205292,424.916534 292.941010,430.553680 301.976379,430.695190 
	C302.641968,430.705597 303.308563,430.642487 303.974304,430.649872 
	C314.799530,430.770142 325.625153,430.868256 336.449463,431.047150 
	C338.383087,431.079102 341.135895,430.873779 341.146088,433.510742 
	C341.156464,436.186249 338.337402,435.925964 336.448914,435.989014 
	C323.862579,436.408997 311.272766,436.942169 298.684143,436.940002 
	C294.879578,436.939331 293.385040,438.228058 293.296967,441.631012 
	C293.207001,445.105347 294.079712,448.781067 293.210144,452.013275 
	C292.166138,455.893921 293.384247,457.421326 296.662384,458.798676 
	C312.508759,465.456665 329.106323,468.060455 346.171112,468.910339 
	C357.298889,469.464539 368.298645,469.125305 379.339752,467.741547 
	C392.982819,466.031738 406.301880,463.423309 418.304291,456.254242 
	C419.550262,455.509949 421.152802,455.072418 421.367920,453.260162 
	C421.836792,449.310211 422.486389,445.370117 422.715424,441.406006 
	C423.057648,435.482330 421.517426,433.803314 415.579346,434.210968 
	C401.958771,435.145996 388.326416,435.254913 374.688568,435.250732 
	C372.831451,435.250153 370.024994,436.048950 369.720856,433.344452 
	C369.401154,430.500977 372.394653,430.774231 374.162323,430.587341 
	C383.595032,429.589966 393.059326,428.941193 402.551666,428.914673 
	C407.893677,428.899750 413.223297,428.636810 418.457336,427.601532 
	C421.088959,427.081024 424.377869,427.103363 425.031128,422.479065 
M268.248260,417.207703 
	C271.485474,418.726593 270.978851,421.772552 271.306122,424.529724 
	C271.778381,428.508240 276.769501,431.366241 281.674377,430.567810 
	C285.489716,429.946747 286.819641,427.359070 285.786560,422.566681 
	C284.072296,414.614288 284.071991,414.618805 275.909393,414.082794 
	C273.755127,413.941376 271.605316,413.726227 269.449951,413.610046 
	C266.743896,413.464111 263.234436,411.989227 262.004059,415.494446 
	C260.957916,418.474731 262.270966,421.534882 265.024658,424.040985 
	C266.591949,421.774780 264.491333,418.510651 268.248260,417.207703 
M450.670807,411.370270 
	C449.651489,409.976166 449.540466,407.278137 447.287628,407.580902 
	C442.922760,408.167450 438.055298,407.784332 434.439575,410.451447 
	C431.706024,412.467804 434.087524,416.038300 434.005646,418.909698 
	C433.977417,419.899323 434.111755,420.894135 434.073639,421.882812 
	C433.940460,425.336487 435.898682,426.066376 438.859009,425.754669 
	C446.667786,424.932465 449.907898,421.284821 450.670807,411.370270 
M286.711517,446.466583 
	C286.461334,444.671417 286.211884,442.876160 285.960693,441.081146 
	C285.691010,439.154236 285.042542,437.478516 282.791321,437.264801 
	C280.003265,437.000092 277.197357,436.644867 274.410675,436.725494 
	C271.773956,436.801788 270.582397,438.699310 272.274353,440.727997 
	C276.012054,445.209656 280.224335,449.276398 285.628387,451.503906 
	C287.164978,449.927887 286.684509,448.552887 286.711517,446.466583 
M432.271271,434.876801 
	C430.314880,439.042908 429.053009,443.381897 428.484314,449.003357 
	C432.481140,446.111328 435.382812,443.494324 437.816467,440.403992 
	C439.372162,438.428589 441.076050,435.908813 439.031921,433.683807 
	C437.219086,431.710632 434.730865,432.932129 432.271271,434.876801 
z"/>
<path fill="#000000" opacity="1.000000" stroke="none" 
	d="
M338.432465,339.050079 
	C335.651733,333.619202 332.244629,331.932892 326.325378,332.629120 
	C324.453705,332.849274 323.326569,331.461182 322.024719,330.434662 
	C316.801727,326.316437 313.710724,320.524750 309.972168,315.235779 
	C308.380646,312.984222 307.079834,310.886963 303.423584,310.938202 
	C300.107361,310.984650 297.880524,307.876862 295.874359,305.294495 
	C297.423004,303.192902 299.643433,305.884369 301.458282,303.575653 
	C297.708984,299.851868 292.286652,304.368195 287.836456,300.787750 
	C292.811401,297.409912 299.368134,299.819641 303.236786,294.506866 
	C294.022858,290.759064 284.304688,288.658600 273.932465,289.253113 
	C263.532440,289.849243 253.976349,293.698151 244.040009,297.195312 
	C243.262177,293.992340 245.117950,292.875793 246.688828,291.919495 
	C257.978119,285.047150 270.247620,282.169922 283.437469,283.074066 
	C297.939209,284.068024 310.599823,289.917572 322.941864,297.158112 
	C339.418365,306.824188 347.136078,321.814484 350.122833,339.821136 
	C351.685425,349.241699 350.573029,358.749207 349.737305,368.186005 
	C349.426636,371.694336 351.419464,374.169769 352.653961,377.014954 
	C353.711487,379.452209 355.040619,381.786713 355.915222,384.283783 
	C356.665588,386.426178 356.401337,388.586456 354.362122,390.128204 
	C352.448608,391.574982 350.249786,391.224426 348.775665,389.938049 
	C343.272583,385.135468 337.765320,380.257111 333.729767,374.083405 
	C331.900299,371.284576 333.013672,367.740723 334.303497,365.502075 
	C339.081848,357.208496 339.278961,348.442505 338.432465,339.050079 
z"/>
<path fill="#000000" opacity="1.000000" stroke="none" 
	d="
M426.077118,358.113434 
	C428.359039,356.666962 429.470398,357.575836 429.944427,359.568054 
	C430.172882,360.528107 430.029938,361.574829 430.244629,362.540192 
	C430.686829,364.528503 430.245605,367.544952 433.221161,367.474274 
	C436.314148,367.400879 435.598938,364.460602 435.769135,362.412048 
	C435.851654,361.419159 435.748138,360.410522 435.835571,359.418396 
	C435.956787,358.043182 436.244843,356.649048 438.019409,356.630066 
	C439.637482,356.612762 440.283478,357.855042 440.695984,359.170868 
	C441.415253,361.465118 440.554871,364.237122 442.699738,366.161926 
	C445.890625,365.999542 445.624847,363.396210 446.213837,361.471130 
	C446.653473,360.034393 446.842560,358.370636 448.830536,358.355682 
	C450.429138,358.343628 451.265381,359.549072 451.503845,360.893463 
	C452.297882,365.370178 455.179016,365.269104 458.602936,364.430725 
	C460.701141,363.916931 462.879211,363.734528 464.986237,363.250336 
	C467.950653,362.569061 470.407135,362.609863 470.456635,366.690186 
	C472.634552,366.463928 474.439087,366.216675 476.251953,366.107758 
	C477.606171,366.026398 479.135895,366.116821 479.477905,367.748810 
	C479.847656,369.513245 478.397919,369.891205 477.045319,370.230133 
	C473.057526,371.229431 469.356567,373.276245 465.075592,373.239532 
	C468.258148,374.301483 471.689575,372.926300 475.070831,374.723999 
	C472.145599,380.396240 463.483917,374.969055 461.874359,382.300720 
	C458.492096,381.818115 456.497101,377.486084 452.521576,378.755493 
	C452.313660,379.024353 452.076294,379.263763 451.917847,379.547241 
	C450.970978,381.241302 452.513947,384.704987 449.268158,384.575958 
	C446.536011,384.467255 446.887024,381.473724 446.410492,379.419739 
	C446.084045,378.012604 445.903778,376.410858 444.012177,375.596069 
	C441.139191,377.055389 441.967499,380.094513 441.460205,382.483063 
	C441.031342,384.502533 440.921570,386.759613 438.356659,386.906708 
	C435.557037,387.067230 435.712769,384.453461 435.100189,382.652191 
	C434.440277,380.711700 435.588776,378.210266 433.277588,376.713959 
	C430.682312,377.269836 431.253937,379.421692 431.112701,381.098816 
	C430.958130,382.934448 430.868835,384.763580 430.022217,386.437042 
	C429.545502,387.379303 428.794952,388.075317 427.653748,387.886139 
	C426.765289,387.738861 426.194977,387.050690 425.999634,386.208069 
	C425.737244,385.076477 425.623077,383.910645 425.441376,382.760162 
	C424.247772,375.202942 423.087585,374.315643 415.298340,375.401031 
	C413.291260,375.680695 410.930603,376.572205 410.422729,373.788300 
	C409.910065,370.978119 412.359833,370.281281 414.570343,369.884094 
	C424.421417,368.114136 424.423798,368.127350 426.077118,358.113434 
z"/>
<path fill="#000000" opacity="1.000000" stroke="none" 
	d="
M451.995056,342.942688 
	C440.299500,334.739166 421.939789,335.279053 410.968414,343.642548 
	C408.186218,345.763428 405.167694,347.912079 401.238495,347.590668 
	C395.679291,347.135895 396.832428,342.045013 394.640167,338.815460 
	C405.015839,333.254700 414.515564,326.738617 426.478851,326.180878 
	C437.551208,325.664642 448.372131,326.379059 458.108917,332.421326 
	C463.449615,335.735504 466.478607,341.104675 470.415344,346.049500 
	C468.449829,347.415344 466.886139,348.322296 465.534332,349.477234 
	C462.333466,352.212189 459.703766,354.256897 457.719971,348.107788 
	C457.068756,346.089264 454.144714,344.804047 451.995056,342.942688 
z"/>
<path fill="#000000" opacity="1.000000" stroke="none" 
	d="
M274.742523,327.728882 
	C287.765594,325.768127 298.687042,329.333832 308.578613,337.190643 
	C311.175293,339.253143 313.190521,341.457581 312.840973,344.484680 
	C312.439331,347.962738 309.023132,348.108734 306.207489,348.471466 
	C304.761322,348.657806 303.457977,349.802063 301.545410,348.977844 
	C300.853973,343.888367 296.691406,342.190613 292.355682,340.803192 
	C279.736877,336.765350 268.129211,339.243561 257.291138,346.419098 
	C256.876770,346.693420 256.245483,346.939545 256.130890,347.323029 
	C253.684952,355.508057 248.010071,350.632477 243.644196,350.239502 
	C241.495010,350.046051 240.656784,348.275818 242.360931,346.207001 
	C250.709305,336.072235 260.245544,328.007904 274.742523,327.728882 
z"/>
<path fill="#000000" opacity="1.000000" stroke="none" 
	d="
M249.035217,378.976715 
	C246.045898,380.271698 245.660919,384.298920 242.275909,385.502930 
	C239.320099,382.401703 243.653061,380.154053 243.099533,377.269257 
	C238.768295,378.909332 237.486603,384.546753 232.449966,385.706146 
	C231.366394,381.365082 235.898300,380.243195 236.347046,376.297668 
	C234.245773,377.387024 232.563599,378.211975 230.926102,379.117737 
	C227.390228,381.073517 226.138458,378.577972 225.975540,376.017700 
	C225.568954,369.627747 235.083328,364.037079 240.759659,366.953644 
	C242.559235,367.878296 244.598404,368.875824 246.776505,367.122925 
	C248.269455,365.921417 249.823532,364.885345 251.941544,366.990936 
	C253.235168,368.277008 254.793381,366.040649 256.234619,365.392700 
	C258.330719,364.450317 259.844116,361.855164 264.522675,363.392395 
	C257.798981,367.843231 252.100571,371.880615 249.101593,378.701660 
	C249.002975,379.010590 249.035217,378.976715 249.035217,378.976715 
z"/>
<path fill="#000000" opacity="1.000000" stroke="none" 
	d="
M473.772339,407.277039 
	C474.627472,408.602661 475.155121,409.778503 474.715607,410.896179 
	C472.048767,417.678650 473.944214,424.686951 473.695496,431.572906 
	C473.449097,438.394623 470.100830,445.173492 464.208771,447.322388 
	C460.494720,448.676941 458.800079,450.051453 459.610352,454.404999 
	C460.239105,457.783325 458.207825,460.665924 454.381683,461.020447 
	C450.436096,461.385986 448.865143,458.576355 447.993378,455.289673 
	C447.683044,454.119812 447.724396,452.501526 448.776550,452.090668 
	C454.902527,449.698730 457.424896,445.026062 457.258301,439.054688 
	C459.022369,438.103668 459.955902,438.871643 460.921967,439.521759 
	C466.155670,443.043732 467.508057,442.703491 468.154816,436.638214 
	C468.852844,430.092163 469.607300,423.503540 468.976471,416.857178 
	C468.727966,414.238708 468.876709,411.515472 469.314789,408.919312 
	C469.689148,406.700989 470.972778,405.124542 473.772339,407.277039 
z"/>
<path fill="#000000" opacity="1.000000" stroke="none" 
	d="
M453.496155,324.570343 
	C434.805481,314.721832 418.128510,318.906189 402.346130,330.515106 
	C401.534393,331.112213 400.760132,331.769196 399.647003,331.305939 
	C398.912781,325.880493 410.765839,317.941345 424.078918,314.640472 
	C437.843445,311.227753 454.213867,316.726654 458.465759,325.609619 
	C456.653046,326.708649 455.343109,325.203003 453.496155,324.570343 
z"/>
<path fill="#000000" opacity="1.000000" stroke="none" 
	d="
M238.160431,427.522583 
	C237.532791,423.278931 238.089813,418.918152 233.210709,417.184265 
	C232.959885,417.095154 232.823990,416.662384 232.650070,416.380096 
	C230.264145,412.507477 230.584198,395.198273 233.415482,390.838379 
	C236.876358,394.011719 235.315964,398.306488 236.315308,402.008698 
	C237.881180,402.803101 238.776001,399.558228 240.462418,401.101196 
	C241.842392,402.363800 241.657852,404.116028 241.730804,405.760315 
	C242.018005,412.233582 241.747681,418.725525 242.954987,425.164093 
	C243.448624,427.796631 243.826797,430.768402 241.288254,432.842010 
	C238.292892,432.112640 239.130508,429.536591 238.160431,427.522583 
z"/>
<path fill="#000000" opacity="1.000000" stroke="none" 
	d="
M286.106842,321.996826 
	C273.630157,319.012787 263.065460,323.777435 252.235855,329.336975 
	C253.594376,323.264801 262.591583,317.889069 273.128418,316.651642 
	C287.454376,314.969238 300.143188,318.669373 311.241150,328.938782 
	C307.116577,332.211029 304.624268,329.313141 302.260315,327.848877 
	C297.375031,324.822784 292.312164,322.554321 286.106842,321.996826 
z"/>
<path fill="#000000" opacity="1.000000" stroke="none" 
	d="
M327.615295,216.972214 
	C327.280640,221.034531 328.893494,225.019669 328.199951,229.220139 
	C322.433685,226.867325 318.163391,198.682220 322.184692,189.482437 
	C325.226868,192.161194 323.731232,195.678802 324.164673,198.653046 
	C324.548706,201.288162 323.244965,204.711563 328.054199,204.185959 
	C328.962585,204.086685 329.552795,205.020248 329.674255,205.834930 
	C330.345856,210.339340 330.925812,214.857407 331.537415,219.372589 
	C328.899475,219.951630 328.821167,217.888962 327.615295,216.972214 
z"/>
<path fill="#000000" opacity="1.000000" stroke="none" 
	d="
M248.989655,379.029846 
	C253.301224,375.687042 257.887878,372.606110 261.881561,368.888245 
	C266.382538,364.698059 270.746338,369.054077 275.224731,367.399567 
	C275.104156,371.144012 272.540619,371.577759 270.953766,372.808777 
	C267.538208,375.458435 263.678650,377.601074 260.553772,380.539307 
	C258.083008,382.862549 256.050659,383.553314 253.676758,381.455688 
	C251.444733,381.964294 251.177582,384.581696 248.808350,384.701996 
	C247.250351,383.038177 248.635620,381.347626 248.947998,379.338562 
	C249.035217,378.976715 249.002975,379.010590 248.989655,379.029846 
z"/>
<path fill="#000000" opacity="1.000000" stroke="none" 
	d="
M406.288055,305.162598 
	C400.076324,308.790955 395.205597,313.870941 388.337952,316.967010 
	C388.030731,312.505737 388.779449,309.559143 392.057007,307.281067 
	C396.574646,304.141022 401.211029,301.268097 406.298584,299.179504 
	C407.836639,298.548096 409.776520,296.921112 410.887665,299.625977 
	C411.824493,301.906464 410.729431,303.432678 408.423096,304.158051 
	C407.796600,304.355072 407.217926,304.704163 406.288055,305.162598 
z"/>
<path fill="#000000" opacity="1.000000" stroke="none" 
	d="
M253.275467,263.000793 
	C252.317413,267.682281 253.235519,272.522705 249.605270,276.364014 
	C246.896332,271.695557 248.664978,256.724915 252.214325,252.387512 
	C255.413025,255.567413 252.427795,259.308594 253.275467,263.000793 
z"/>
<path fill="#000000" opacity="1.000000" stroke="none" 
	d="
M347.523499,240.499176 
	C349.108429,239.604630 350.355743,238.685150 351.944733,239.547546 
	C352.865021,242.088394 350.778656,242.782150 349.473145,243.842407 
	C346.529114,246.233307 343.001129,247.973831 341.064758,251.469177 
	C340.371704,252.720261 339.532440,253.908066 337.983215,252.885651 
	C336.484741,251.896713 336.580536,250.415253 337.372467,248.911957 
	C338.256256,247.234207 339.643311,246.104858 341.175446,245.059647 
	C343.229919,243.658035 345.207611,242.143936 347.523499,240.499176 
z"/>
<path fill="#000000" opacity="1.000000" stroke="none" 
	d="
M333.012360,218.223267 
	C332.406250,211.904877 330.372650,205.958466 332.469757,200.229385 
	C333.724701,199.721191 334.547577,200.148499 334.622070,200.670105 
	C335.411743,206.198593 336.936249,211.711700 335.470490,217.341324 
	C335.191589,218.412552 335.172028,220.551071 333.012360,218.223267 
z"/>
<path fill="#000000" opacity="1.000000" stroke="none" 
	d="
M266.903931,260.043213 
	C269.478973,257.212616 271.426361,254.019531 276.595642,253.703918 
	C273.651306,258.263611 271.298615,261.957855 268.880981,265.609070 
	C268.388611,266.352631 267.476257,266.577637 266.641174,266.308044 
	C265.563751,265.960236 264.976807,264.976013 265.203766,263.966095 
	C265.486542,262.707916 266.177795,261.541504 266.903931,260.043213 
z"/>
<path fill="#000000" opacity="1.000000" stroke="none" 
	d="
M346.361298,265.330200 
	C345.613068,266.013977 345.149200,266.483215 344.640503,266.897339 
	C343.245758,268.032745 342.139984,271.026428 340.022064,269.127136 
	C337.456177,266.826141 340.341736,265.048584 341.772736,263.496613 
	C343.498047,261.625427 345.453766,259.903381 348.159851,259.657043 
	C349.743988,262.457733 347.812225,263.646698 346.361298,265.330200 
z"/>
<path fill="#000000" opacity="1.000000" stroke="none" 
	d="
M280.511871,266.386505 
	C282.415039,265.344666 281.325897,261.231689 284.751526,262.617676 
	C286.633240,263.378998 287.081360,265.801697 286.319580,267.325500 
	C285.167877,269.629364 282.453705,271.578827 280.221283,271.098541 
	C277.935394,270.606720 277.395081,268.070312 280.511871,266.386505 
z"/>
<path fill="#000000" opacity="1.000000" stroke="none" 
	d="
M341.864349,259.793579 
	C340.751099,260.573730 339.705994,261.226349 338.986664,260.179962 
	C337.423676,257.906281 339.357330,256.403961 340.684509,255.146881 
	C342.269928,253.645264 343.958069,251.302856 346.545197,252.559357 
	C348.223846,253.374619 347.752411,255.096115 346.414948,256.236633 
	C345.039398,257.409637 343.560974,258.462036 341.864349,259.793579 
z"/>
<path fill="#000000" opacity="1.000000" stroke="none" 
	d="
M364.849548,376.124084 
	C365.919464,377.827942 367.943939,379.324341 366.073700,380.978210 
	C364.449402,382.414673 363.168060,380.497314 361.939484,379.571869 
	C360.833496,378.738739 360.007629,377.590759 360.795959,376.225098 
	C361.788574,374.505524 363.231781,375.097168 364.849548,376.124084 
z"/>
<path fill="#000000" opacity="1.000000" stroke="none" 
	d="
M348.315063,237.373199 
	C346.565247,238.776733 345.293549,240.423401 342.735657,240.236496 
	C342.084015,236.211014 344.857849,234.806946 347.603088,234.316345 
	C349.902435,233.905396 349.714050,235.658401 348.315063,237.373199 
z"/>
<path fill="#000000" opacity="1.000000" stroke="none" 
	d="
M271.669312,245.144348 
	C272.354004,243.112305 273.318268,241.518555 275.290039,242.957748 
	C276.763763,244.033417 276.281982,245.842041 275.105591,246.893295 
	C273.307526,248.500107 272.120239,247.628342 271.669312,245.144348 
z"/>
<path fill="#000000" opacity="1.000000" stroke="none" 
	d="
M286.411987,295.864899 
	C288.255981,292.534576 291.200989,293.022736 295.120972,293.575531 
	C292.099304,295.829041 289.595337,296.646820 286.411987,295.864899 
z"/>
<path fill="#000000" opacity="1.000000" stroke="none" 
	d="
M447.939453,641.060852 
	C442.872498,640.935730 440.245972,636.192810 435.299133,634.973877 
	C437.189575,631.681580 435.837097,629.182129 434.121674,626.984375 
	C435.455475,624.898682 436.747559,625.723206 438.145691,626.367432 
	C442.802032,628.512512 445.900024,632.485657 449.461517,635.906921 
	C451.472961,637.839172 449.674316,639.117737 448.246765,640.716248 
	C448.009186,640.982544 447.939453,641.060852 447.939453,641.060852 
z"/>
<path fill="#000000" opacity="1.000000" stroke="none" 
	d="
M407.018677,698.978760 
	C413.666351,703.070618 413.977173,708.381470 407.794556,712.303955 
	C404.920441,714.127319 402.609314,713.051758 401.225281,710.369324 
	C399.175629,706.396790 401.433197,701.876099 405.750244,700.608826 
	C406.131622,700.496826 406.359772,699.862793 406.795929,699.255981 
	C406.932739,699.040710 406.990631,699.000244 407.018677,698.978760 
z"/>
<path fill="#000000" opacity="1.000000" stroke="none" 
	d="
M448.042786,640.942261 
	C454.515961,638.311768 457.353973,639.515198 459.591492,646.042358 
	C460.112396,647.561829 461.306396,648.436218 462.066650,649.691833 
	C462.796417,650.897217 463.338318,652.129517 462.175201,653.305725 
	C460.991699,654.502625 459.724121,653.929077 458.579437,653.153992 
	C457.898682,652.692993 456.892792,652.190918 456.747406,651.546265 
	C455.887878,647.735474 452.729004,646.352417 449.879486,644.559814 
	C448.917664,643.954712 448.108856,643.040588 447.966858,641.412109 
	C447.939453,641.060852 448.009186,640.982544 448.042786,640.942261 
z"/>
<path fill="#000000" opacity="1.000000" stroke="none" 
	d="
M384.267395,736.887268 
	C384.519379,734.973816 385.521301,733.810425 386.941895,734.851746 
	C389.257721,736.549194 389.679688,739.285217 389.498413,742.023499 
	C389.309052,744.883728 387.509186,746.432129 384.931274,747.290894 
	C382.375031,748.142639 380.828339,746.720276 379.481445,744.902588 
	C378.583069,743.690247 377.631409,742.309814 378.396942,740.792358 
	C379.861511,737.889282 382.279022,740.934448 384.060333,740.132690 
	C384.927643,739.154236 384.415222,738.173401 384.267395,736.887268 
z"/>
<path fill="#000000" opacity="1.000000" stroke="none" 
	d="
M315.830872,663.996277 
	C319.034454,666.896240 322.135742,669.527954 318.683228,673.854248 
	C318.175110,674.490967 317.526703,675.071594 316.830292,675.490356 
	C315.448151,676.321533 314.124329,675.859497 313.329468,674.648804 
	C311.208710,671.418335 311.121094,667.684998 311.829315,664.140747 
	C312.208923,662.240906 314.152466,662.827393 315.830872,663.996277 
z"/>
<path fill="#000000" opacity="1.000000" stroke="none" 
	d="
M281.724670,656.014771 
	C283.713806,656.700439 286.339233,656.538147 285.856384,659.087830 
	C285.425140,661.364929 283.011078,660.825745 281.263397,660.975647 
	C280.605560,661.032043 279.931488,661.034363 279.276306,660.960022 
	C277.518372,660.760742 275.056183,661.068176 274.925995,658.694946 
	C274.770996,655.869141 277.443146,656.218262 279.331268,655.958435 
	C279.981018,655.869019 280.654572,655.952576 281.724670,656.014771 
z"/>
<path fill="#000000" opacity="1.000000" stroke="none" 
	d="
M316.792053,591.312561 
	C318.681488,592.212524 318.985596,593.903931 319.510529,595.443115 
	C319.988464,596.844421 320.722321,598.638672 318.530090,599.027771 
	C316.690857,599.354187 316.039673,597.654541 315.863068,596.121399 
	C315.678070,594.515076 315.318756,592.817383 316.792053,591.312561 
z"/>
<path fill="#000000" opacity="1.000000" stroke="none" 
	d="
M274.989075,616.024780 
	C276.431335,615.549744 278.597809,615.046936 278.657867,616.915100 
	C278.761566,620.141479 275.706635,620.673279 273.057739,621.725525 
	C272.434143,619.349548 274.413696,618.234436 274.920929,616.284241 
	C275.038025,615.976562 275.003967,616.007324 274.989075,616.024780 
z"/>
<path fill="#000000" opacity="1.000000" stroke="none" 
	d="
M419.454651,656.769775 
	C420.054352,658.364136 420.482635,659.600098 419.045135,660.931396 
	C416.090851,659.305115 415.279022,656.788818 415.206146,653.547913 
	C417.830780,653.146057 418.591217,654.765869 419.454651,656.769775 
z"/>
<path fill="#000000" opacity="1.000000" stroke="none" 
	d="
M409.794098,668.617920 
	C407.565033,666.188965 409.593597,665.771240 411.120605,665.272461 
	C412.363159,664.866638 413.716003,665.292236 413.716888,666.665100 
	C413.718414,669.054443 411.785309,668.827637 409.794098,668.617920 
z"/>
</svg>