<svg version="1.1" id="Layer_1" xmlns="http://www.w3.org/2000/svg" xmlns:xlink="http://www.w3.org/1999/xlink" x="0px" y="0px"
	 width="100%" viewBox="0 0 720 896" enable-background="new 0 0 720 896" xml:space="preserve">
<path fill="#FECDEB" opacity="1.000000" stroke="none" 
	d="
M123.000000,1.000000 
	C287.691559,1.000000 452.383148,1.000000 617.596924,1.337343 
	C625.195984,6.481315 629.574890,12.293486 629.201721,21.721746 
	C628.704285,34.285854 629.675659,46.904152 629.735901,59.500511 
	C629.741821,60.730515 627.786011,61.969902 626.484009,63.021271 
	C624.818970,61.890076 623.410828,60.942547 621.972046,59.713749 
	C621.300232,59.267162 620.658997,59.101845 619.548157,58.935516 
	C613.928284,58.915039 608.776855,58.815403 603.628235,58.896191 
	C597.044373,58.999504 592.376648,62.860935 590.960388,69.243927 
	C584.251221,99.481400 577.576416,129.726517 570.839233,159.957748 
	C568.782166,169.188309 570.053589,172.566330 578.034119,178.289780 
	C578.719543,178.689835 579.370361,178.802536 580.389648,178.961594 
	C582.708557,179.242035 584.658997,179.476105 586.959839,179.761627 
	C587.874573,179.211426 588.438965,178.609772 589.315002,177.904694 
	C591.423035,176.202591 593.219360,174.603897 595.351318,172.944382 
	C596.045288,172.143478 596.403748,171.403412 596.768677,170.298370 
	C596.885925,168.966980 596.996704,168.000549 597.382446,166.989777 
	C597.763550,166.295074 597.869751,165.644745 598.017700,164.600708 
	C599.185486,162.475861 600.189026,159.362671 601.458618,159.250046 
	C607.315369,158.730591 613.247925,158.987091 619.148315,159.147552 
	C619.802246,159.165329 620.424622,160.344437 620.840515,161.151169 
	C621.043274,161.889450 621.467163,162.461502 621.962280,163.409409 
	C622.359192,165.522797 622.684937,167.260330 622.795410,169.171509 
	C623.044739,169.899551 623.509460,170.453949 624.083496,171.322678 
	C625.852051,173.676331 627.511292,175.715683 629.123108,178.236908 
	C629.052917,234.737015 629.042725,290.755280 628.964661,346.773438 
	C628.961243,349.210297 628.334961,351.646332 627.628235,354.074585 
	C626.521362,353.986450 625.785095,353.906464 624.990601,353.559906 
	C624.271301,353.468414 623.610046,353.643494 622.569214,353.878052 
	C615.651978,354.900024 612.066772,359.106476 609.739868,365.036987 
	C609.294067,365.707458 609.133484,366.349884 608.913330,367.348877 
	C608.155457,369.784393 607.457092,371.863312 606.429077,374.060364 
	C606.309021,376.139557 606.518616,378.100586 606.810181,380.420898 
	C608.120422,385.638428 611.347168,388.539978 616.078735,390.424164 
	C618.646667,392.537109 621.005310,393.086639 623.394836,390.074890 
	C624.690674,389.861328 625.631775,389.720306 626.980103,389.749481 
	C627.926758,391.698029 628.926086,393.473907 628.935669,395.255066 
	C629.046875,415.871338 629.092468,436.489319 628.877991,457.103912 
	C628.856750,459.142883 627.001953,461.162781 625.556213,463.215332 
	C621.638672,463.506195 618.166260,463.828705 614.686890,464.030365 
	C601.166199,464.813965 589.018311,469.617004 578.231323,477.475708 
	C556.540100,493.278320 547.218567,515.240112 547.257874,541.674805 
	C547.316895,581.294739 547.274719,620.914734 547.275940,660.534729 
	C547.276001,663.671936 547.279175,666.809204 546.875854,669.970337 
	C407.240265,670.000671 268.009674,669.986267 128.779205,670.105774 
	C124.211594,670.109680 122.862587,668.888428 122.890694,664.253723 
	C123.085625,632.111938 123.008667,599.968445 122.956093,567.825562 
	C122.952950,565.902222 122.408272,563.979736 122.107376,561.584839 
	C122.737457,515.413086 123.375763,469.713409 124.286583,423.698730 
	C124.702126,421.406433 125.018433,419.424255 124.962563,417.452637 
	C123.833687,377.615326 127.432480,337.699677 122.994629,297.917938 
	C122.996414,198.945297 122.998207,99.972649 123.000000,1.000000 
M448.004852,491.137695 
	C451.208038,490.404694 454.627350,490.158478 457.575043,488.849884 
	C467.477875,484.453735 477.212585,479.678894 487.691223,474.930145 
	C490.454559,472.938019 493.217865,470.945892 496.613037,468.899292 
	C497.118774,468.294678 497.624542,467.690063 498.701721,466.747375 
	C500.449707,465.214935 502.213684,463.700287 503.943298,462.147369 
	C529.373535,439.315308 538.625793,403.479004 519.687317,371.653748 
	C518.426514,369.535034 516.042847,368.084625 514.069275,365.528107 
	C513.376953,363.866333 513.110901,361.761261 511.920898,360.616913 
	C505.582977,354.521576 499.528534,347.945831 492.422394,342.871826 
	C475.173920,330.555939 455.866852,323.497772 434.660278,320.696686 
	C415.169464,318.122131 396.107178,318.397125 376.948212,322.757690 
	C351.738434,328.495453 330.094666,340.220001 312.912537,359.695953 
	C311.156250,361.686707 310.299194,364.470795 308.363068,367.121887 
	C307.172974,368.208160 305.681885,369.101135 304.840546,370.411377 
	C298.249939,380.674774 294.479004,391.969879 294.110809,404.130432 
	C293.357819,428.999084 304.260590,448.669281 322.506531,464.625519 
	C327.169220,468.703064 332.741486,471.740479 338.092133,475.892456 
	C348.528107,480.373413 358.724945,485.561096 369.449310,489.189758 
	C392.532684,497.000031 416.219025,497.418304 440.865173,492.929321 
	C442.212158,492.876007 443.559174,492.822723 445.540192,492.827301 
	C446.087555,492.275116 446.634949,491.722931 448.004852,491.137695 
M223.100006,90.367096 
	C219.425644,82.724396 215.893341,75.009117 212.036255,67.459770 
	C208.310944,60.168377 202.338593,57.367878 195.239685,59.127232 
	C189.149368,60.636623 185.190460,66.423187 185.184082,74.049431 
	C185.159027,104.034325 185.156570,134.019272 185.180679,164.004150 
	C185.187729,172.781601 191.026260,179.030014 199.082138,179.028595 
	C207.216400,179.027161 212.864746,172.943207 212.923111,164.021194 
	C212.973221,156.358688 212.917297,148.695557 212.954193,141.032913 
	C212.961609,139.492554 213.175659,137.953171 213.294418,136.413345 
	C213.736084,136.319244 214.177750,136.225143 214.619415,136.131042 
	C217.118683,141.280762 219.579391,146.449631 222.126663,151.575485 
	C225.514679,158.393188 232.396622,161.762848 239.048096,159.710129 
	C244.432541,158.048447 247.202591,153.741440 249.401535,148.898849 
	C251.446899,144.394501 253.657440,139.965134 255.795242,135.502747 
	C256.232941,135.660950 256.670624,135.819153 257.108337,135.977341 
	C257.108337,145.442413 257.052948,154.907898 257.124817,164.372406 
	C257.188934,172.821854 263.043182,178.972229 270.901367,179.019577 
	C278.721710,179.066696 284.846863,172.857941 284.861664,164.557770 
	C284.915741,134.239807 284.904114,103.921638 284.862762,73.603622 
	C284.853088,66.509460 280.658386,60.625580 274.797760,59.121151 
	C267.348358,57.208885 261.697601,59.853790 258.026733,67.336754 
	C252.900314,77.786774 247.999451,88.347198 242.940033,98.830444 
	C240.612534,103.653069 238.137726,108.404610 234.990921,114.656013 
	C230.644440,105.763046 227.043900,98.396263 223.100006,90.367096 
M387.024658,166.028580 
	C388.734741,175.366272 393.897736,179.778229 402.212433,179.007050 
	C409.541687,178.327271 414.052032,172.576508 414.079559,163.764404 
	C414.112396,153.267624 414.071289,142.770630 414.103027,132.273834 
	C414.108032,130.615738 414.327728,128.958282 414.448151,127.300537 
	C416.381256,128.143173 417.261566,129.089233 417.882050,130.182724 
	C425.753448,144.054810 433.541687,157.974228 441.452515,171.823685 
	C444.830688,177.737778 451.125977,180.381165 457.129364,178.697113 
	C463.190399,176.996933 466.964325,171.983871 466.973480,165.249695 
	C467.015381,134.425583 467.029602,103.601326 466.980804,72.777245 
	C466.967407,64.312752 461.534546,58.868793 453.428192,58.879395 
	C445.070312,58.890320 440.101929,63.985840 440.026337,72.854225 
	C439.936890,83.350395 440.004181,93.847832 439.972198,104.344627 
	C439.966919,106.081184 439.801239,107.817245 439.709656,109.553528 
	C439.306213,109.698219 438.902771,109.842903 438.499329,109.987587 
	C437.482544,108.658119 436.296448,107.425117 435.475342,105.984131 
	C427.988129,92.844452 420.608093,79.643593 413.095917,66.518280 
	C410.797211,62.501904 407.753754,59.290867 402.685577,58.913422 
	C392.719055,58.171188 387.039886,63.377960 387.020508,73.650215 
	C386.962952,104.141029 387.005920,134.632034 387.024658,166.028580 
M524.457275,151.170853 
	C514.417297,152.629379 508.862885,147.948257 508.822601,137.859146 
	C508.770721,124.866867 508.775391,111.874069 508.827179,98.881783 
	C508.856659,91.485870 512.510742,87.125114 519.376526,86.049332 
	C525.482056,85.092667 530.941772,88.654869 533.251282,94.927612 
	C534.104309,97.244476 534.924805,99.720772 536.397461,101.633881 
	C540.495911,106.958458 548.109741,108.219177 553.951782,104.896919 
	C559.420837,101.786781 561.946716,93.787109 559.531555,86.728661 
	C553.901184,70.273438 538.904419,58.836422 520.755188,58.627399 
	C498.493713,58.371017 480.307983,78.646523 480.943115,98.736595 
	C481.358734,111.882561 481.145142,125.053726 480.988342,138.210922 
	C480.844971,150.239075 485.232880,160.102203 493.857605,168.442139 
	C513.626526,187.558273 548.012085,180.039215 558.067993,154.453110 
	C562.068115,144.275131 561.355530,133.813400 560.656494,123.427048 
	C560.274231,117.748245 556.356689,113.368332 550.366577,112.812355 
	C543.458252,112.171158 536.384766,111.901367 529.514282,112.659691 
	C522.756958,113.405518 519.041931,118.864975 519.016785,125.771645 
	C518.991943,132.589569 522.803711,137.738510 529.474792,138.949783 
	C533.849609,139.744125 534.054810,142.097794 532.035522,144.829254 
	C530.238708,147.259705 527.528076,149.014603 524.457275,151.170853 
M309.214630,101.743355 
	C304.919403,121.702209 300.616394,141.659409 296.332703,161.620728 
	C294.560242,169.879974 298.520203,176.834976 306.048309,178.761719 
	C313.137329,180.576096 320.204315,176.247147 322.552460,168.651932 
	C325.549225,158.958694 325.549225,158.958694 335.889313,158.969788 
	C336.222382,158.970154 336.555450,158.971115 336.888519,158.971512 
	C346.457794,158.982651 346.457794,158.982651 348.869110,168.109955 
	C350.999115,176.172470 357.809204,180.549713 365.330505,178.690689 
	C373.259369,176.730942 377.131256,169.835190 375.257507,161.405151 
	C368.483521,130.928421 361.757599,100.440941 355.063843,69.946465 
	C353.532745,62.971294 348.895508,58.973045 341.808960,58.876961 
	C338.312317,58.829548 334.814453,58.855083 331.317200,58.867760 
	C322.216431,58.900745 317.982819,62.463120 316.071655,71.298973 
	C313.931549,81.193169 311.596985,91.045288 309.214630,101.743355 
M207.763458,313.343201 
	C205.009064,319.118469 206.766815,324.124329 210.794861,328.402252 
	C214.617844,332.462372 221.225723,333.251373 227.038757,330.371918 
	C256.376953,315.839264 285.661285,301.197937 314.965790,286.597229 
	C320.132446,284.023010 323.343445,279.991516 323.455841,274.120850 
	C323.573425,267.978943 320.201752,263.795441 314.909027,261.154388 
	C285.496674,246.477646 256.066772,231.835876 226.617035,217.234283 
	C222.350952,215.119125 217.903107,215.082733 213.678284,217.367065 
	C208.874680,219.964325 206.364532,224.222824 206.550064,229.617325 
	C206.759537,235.707413 210.427353,239.622650 215.706436,242.244232 
	C234.743393,251.697998 253.773392,261.165863 272.785919,270.668610 
	C274.441833,271.496277 275.950684,272.618225 278.377747,274.134430 
	C275.811249,275.531342 274.276581,276.427765 272.690247,277.220734 
	C253.964096,286.581573 235.169342,295.808685 216.556229,305.388824 
	C213.325638,307.051636 210.854218,310.189362 207.763458,313.343201 
M600.767456,301.910858 
	C582.590027,292.829956 564.412537,283.749023 545.012573,274.057373 
	C547.986633,272.394531 549.491394,271.470947 551.065247,270.685760 
	C570.252441,261.113129 589.515198,251.689026 608.614319,241.944138 
	C616.998230,237.666428 619.463440,230.150253 615.576965,222.846313 
	C611.886475,215.910675 604.250732,213.759216 596.188416,217.751724 
	C567.005920,232.203079 537.876709,246.762253 508.735474,261.296844 
	C503.563019,263.876678 500.396484,267.959900 500.374176,273.866882 
	C500.351807,279.784821 503.511169,283.881714 508.679840,286.469269 
	C526.223572,295.251892 543.782410,304.004211 561.340942,312.757294 
	C573.246216,318.692230 585.102173,324.730530 597.092896,330.487823 
	C604.192139,333.896515 612.077148,331.520172 615.408569,325.420898 
	C619.303467,318.289825 617.220398,311.117584 609.823425,306.650604 
	C607.123535,305.020203 604.252380,303.673401 600.767456,301.910858 
M249.500000,601.006714 
	C228.354034,601.009277 207.207855,600.967468 186.062393,601.071899 
	C183.487381,601.084595 180.645538,601.327209 178.395035,602.423462 
	C172.122879,605.478577 169.611099,611.556396 171.235992,618.331238 
	C172.573441,623.907715 178.030350,627.905762 184.795639,627.912903 
	C225.255920,627.955933 265.716309,627.962830 306.176605,627.906982 
	C314.632477,627.895325 319.615051,622.393188 320.176453,614.327148 
	C320.630707,607.800598 313.468231,600.681885 305.941681,600.872864 
	C287.471863,601.341492 268.981873,601.013916 249.500000,601.006714 
M194.508499,553.002380 
	C191.343674,553.004456 188.177765,552.954224 185.014206,553.018677 
	C176.408691,553.193970 171.022415,558.402466 171.009354,566.500244 
	C170.995987,574.779663 176.178345,580.007568 184.864243,580.078186 
	C198.855225,580.192017 212.848328,580.175720 226.839600,580.078308 
	C235.858475,580.015564 241.187973,574.788330 241.140472,566.371948 
	C241.094635,558.253601 235.740326,553.116333 226.987289,553.036804 
	C216.494156,552.941406 205.999573,553.006714 194.508499,553.002380 
M253.696930,383.057068 
	C255.086456,379.865906 256.458679,376.667053 257.869080,373.485138 
	C260.936462,366.565033 257.869293,357.807037 251.315247,354.820862 
	C244.206146,351.581787 235.933136,354.776764 232.616623,362.151245 
	C231.121155,365.476501 229.827286,368.894348 228.498764,372.292389 
	C226.178024,378.228333 228.047424,384.387115 233.225418,388.021576 
	C240.416672,393.069244 246.498444,391.772949 253.696930,383.057068 
M199.607819,390.882935 
	C204.367859,390.692474 208.855789,389.109314 211.031006,384.914673 
	C213.820007,379.536346 216.073975,373.736511 217.550568,367.864807 
	C218.862183,362.649261 213.841736,355.806732 208.730377,354.290253 
	C202.664627,352.490631 194.933990,354.995361 192.436951,359.815155 
	C190.760208,363.051636 189.316544,366.431458 188.039856,369.848450 
	C183.907700,380.907959 187.413269,387.656525 199.607819,390.882935 
M582.263367,390.008057 
	C590.949768,387.300659 592.562561,379.336884 594.962402,372.267822 
	C597.781128,363.964783 594.494568,357.154785 587.116089,354.353790 
	C580.114502,351.695831 573.517944,354.738464 569.734070,362.514435 
	C568.215881,365.634186 566.678589,368.794037 565.652039,372.091919 
	C564.099548,377.079865 564.346313,382.180756 568.058472,386.131592 
	C571.588379,389.888550 576.045593,392.084015 582.263367,390.008057 
z"/>
<path fill="#3CD2E0" opacity="1.000000" stroke="none" 
	d="
M618.000000,897.000000 
	C448.308411,897.000000 278.616852,897.000000 108.249512,896.692627 
	C106.146652,895.972717 104.742432,895.438538 103.289154,895.165283 
	C55.079567,886.100037 19.359018,843.242432 19.105001,794.100464 
	C19.055168,784.459717 19.086046,774.818542 19.236454,765.024292 
	C19.438442,764.731262 19.551735,764.569641 19.515274,764.456177 
	C19.428905,764.187500 19.271475,763.941589 19.255550,763.394043 
	C19.346685,762.275940 19.325027,761.450256 19.633011,760.406860 
	C20.276398,759.268860 20.719561,758.371033 20.884182,757.424805 
	C22.891907,745.885681 26.893604,735.075562 32.492023,724.804443 
	C41.281101,708.679749 54.449005,696.762146 69.519180,686.232117 
	C85.782730,677.598511 102.613785,672.046448 120.805466,672.038635 
	C261.396301,671.978333 401.987244,672.047852 542.578125,672.039124 
	C544.349426,672.039001 546.120667,671.540100 548.367004,671.269470 
	C568.508057,671.250977 588.174500,671.171448 607.839844,671.280518 
	C611.610962,671.301453 615.377930,672.064270 619.245483,672.834778 
	C626.581604,678.514832 630.118713,685.410889 629.088684,694.618591 
	C628.611877,698.880920 628.546997,703.300537 629.097534,707.544800 
	C630.495544,718.321350 627.923889,727.409546 619.161743,734.315979 
	C619.060303,734.395935 619.080017,734.629517 618.581787,734.895142 
	C617.455139,735.024841 616.789917,735.073608 616.124695,735.073486 
	C451.594635,735.039246 287.064575,734.968018 122.534676,735.110352 
	C117.045235,735.115051 111.147118,736.363708 106.143288,738.604309 
	C88.472656,746.516724 79.917854,764.155273 82.302322,786.317017 
	C81.532372,796.623108 82.778709,806.194519 88.186035,814.572693 
	C97.146805,828.456665 110.166695,834.181885 126.717720,834.162537 
	C286.459778,833.975891 446.202118,834.052429 605.944397,834.035461 
	C633.256287,834.032593 660.568115,833.943359 688.131042,834.066650 
	C688.756958,834.703125 689.131836,835.166992 689.056885,835.707764 
	C685.971558,835.532654 683.336792,835.071289 680.700500,835.062134 
	C661.720703,834.995972 642.740540,835.021484 623.760498,835.018005 
	C622.204956,835.017700 620.649414,835.018005 619.093872,835.018005 
	C628.072449,840.549133 629.449463,848.748657 629.051331,857.870239 
	C628.811890,863.354004 628.789307,868.867432 629.056824,874.348572 
	C629.492798,883.281555 627.512268,890.852295 618.833618,895.283569 
	C618.381470,895.514343 618.270081,896.412537 618.000000,897.000000 
z"/>
<path fill="#FCAFE1" opacity="1.000000" stroke="none" 
	d="
M627.998779,354.082733 
	C628.334961,351.646332 628.961243,349.210297 628.964661,346.773438 
	C629.042725,290.755280 629.052917,234.737015 629.522949,178.295776 
	C643.620361,181.728851 652.122681,174.036560 649.187073,160.292297 
	C645.007385,140.723724 640.782593,121.162651 636.312622,101.658989 
	C633.362305,88.785904 629.947571,76.019257 626.740845,63.204945 
	C627.786011,61.969902 629.741821,60.730515 629.735901,59.500511 
	C629.675659,46.904152 628.704285,34.285854 629.201721,21.721746 
	C629.574890,12.293486 625.195984,6.481315 618.059570,1.337343 
	C641.687561,1.000000 665.375122,1.000000 689.586853,1.338433 
	C698.389893,6.751585 701.245300,13.972230 701.228699,23.781050 
	C700.989624,165.216522 701.066589,306.652496 701.061218,448.088379 
	C701.061035,453.084503 700.994324,458.080658 700.594666,463.113464 
	C699.506592,463.235321 698.782410,463.320465 697.601807,463.268738 
	C678.077332,463.220551 659.009277,463.309235 639.499390,463.317444 
	C636.060303,463.339081 633.063049,463.441223 629.765381,463.456848 
	C628.309387,463.310699 627.153748,463.251099 625.998169,463.191498 
	C627.001953,461.162781 628.856750,459.142883 628.877991,457.103912 
	C629.092468,436.489319 629.046875,415.871338 628.935669,395.255066 
	C628.926086,393.473907 627.926758,391.698029 627.134521,389.459045 
	C629.749878,384.325134 633.145264,379.888977 635.375610,374.928955 
	C639.939514,364.779480 637.644653,358.978119 627.998779,354.082733 
z"/>
<path fill="#FEFEFF" opacity="1.000000" stroke="none" 
	d="
M700.958618,463.076782 
	C700.994324,458.080658 701.061035,453.084503 701.061218,448.088379 
	C701.066589,306.652496 700.989624,165.216522 701.228699,23.781050 
	C701.245300,13.972230 698.389893,6.751585 690.055542,1.338433 
	C700.328613,1.000000 710.657227,1.000000 720.961792,1.000000 
	C720.961792,299.666656 720.961792,598.333313 720.961792,897.000000 
	C710.928223,897.000000 700.932739,897.000000 690.543335,896.664246 
	C698.580139,891.371033 702.143250,884.134644 701.430847,874.288025 
	C700.880676,866.683899 701.838257,858.952209 701.038940,851.392212 
	C700.622009,847.448608 697.858948,843.753113 696.101196,839.627869 
	C695.387207,838.835327 694.727600,838.360352 693.920044,837.661377 
	C693.287476,837.228027 692.802917,837.018799 692.129395,836.521973 
	C691.293274,836.078125 690.646118,835.921814 689.892395,835.671631 
	C689.785828,835.577698 689.506714,835.630798 689.506714,835.630798 
	C689.131836,835.166992 688.756958,834.703125 687.830200,833.805298 
	C682.971802,833.251587 678.637817,832.776001 674.366089,833.105957 
	C669.479370,833.483521 667.713928,832.164673 667.854736,826.862244 
	C668.243042,812.242432 667.972473,797.605164 667.973450,782.507812 
	C667.990417,769.636780 667.997925,757.232666 668.001953,744.828613 
	C668.004700,736.449341 668.003296,736.462585 676.588257,735.980530 
	C677.380310,735.936096 678.155151,735.583984 679.391235,735.280884 
	C682.206238,734.847290 684.568054,734.507507 687.247070,734.287109 
	C688.893066,733.710144 690.221863,733.013733 691.687317,732.345215 
	C691.823975,732.373169 692.024536,732.179199 692.342590,732.189819 
	C693.106506,731.804565 693.552368,731.408569 694.000366,731.007568 
	C694.002441,731.002441 694.012817,731.001343 694.347778,730.976929 
	C695.725220,729.629700 696.767639,728.306946 698.046997,726.765259 
	C698.652954,725.567566 699.022034,724.588806 699.668213,723.424194 
	C700.320068,721.494019 700.694702,719.749695 701.154175,717.542358 
	C701.175171,705.794861 701.111450,694.510315 701.122559,682.739380 
	C701.260132,610.847900 701.325745,539.442749 701.367554,468.037567 
	C701.368530,466.384033 701.100952,464.730377 700.958618,463.076782 
z"/>
<path fill="#FEFFFF" opacity="1.000000" stroke="none" 
	d="
M19.079700,765.177551 
	C19.086046,774.818542 19.055168,784.459717 19.105001,794.100464 
	C19.359018,843.242432 55.079567,886.100037 103.289154,895.165283 
	C104.742432,895.438538 106.146652,895.972717 107.786865,896.692627 
	C72.347435,897.000000 36.694866,897.000000 1.046978,897.000000 
	C1.051659,598.333313 1.051659,299.666656 1.051659,1.000000 
	C35.423107,1.000000 69.742897,1.000000 104.449753,1.373684 
	C104.337914,2.122877 103.868690,2.775928 103.335739,2.832910 
	C92.708473,3.969115 83.124878,8.159468 73.794266,13.000794 
	C71.985863,13.939110 70.570244,15.634442 68.622879,17.027288 
	C56.509094,22.955042 48.032303,32.662189 39.920723,42.486267 
	C32.499153,51.474659 27.128380,61.977188 24.235647,73.285439 
	C21.765579,82.941406 19.262177,92.949501 19.224638,102.811172 
	C18.856398,199.555603 18.999271,296.302002 19.014906,393.047821 
	C19.015308,395.538574 19.220152,398.029297 19.282387,400.942383 
	C19.209539,423.864929 19.183958,446.365112 19.105801,469.339630 
	C19.042234,516.862244 19.031242,563.910461 19.011026,611.429871 
	C19.002941,659.319275 19.000175,706.737427 19.017855,754.155640 
	C19.018660,756.312012 19.203985,758.468262 19.303370,760.624573 
	C19.325027,761.450256 19.346685,762.275940 19.210306,763.766724 
	C19.061413,764.680420 19.070557,764.928955 19.079700,765.177551 
z"/>
<path fill="#E1DCE1" opacity="1.000000" stroke="none" 
	d="
M68.973442,16.980576 
	C70.570244,15.634442 71.985863,13.939110 73.794266,13.000794 
	C83.124878,8.159468 92.708473,3.969115 103.335739,2.832910 
	C103.868690,2.775928 104.337914,2.122877 104.918411,1.373684 
	C110.688042,1.000000 116.376083,1.000000 122.532059,1.000000 
	C122.998207,99.972649 122.996414,198.945297 122.994629,297.917938 
	C127.432480,337.699677 123.833687,377.615326 124.962563,417.452637 
	C125.018433,419.424255 124.702126,421.406433 124.019470,423.397583 
	C123.190453,422.093323 122.901062,420.775177 122.654053,419.040466 
	C122.734459,382.346344 122.778687,346.068726 122.783028,309.791138 
	C122.783165,308.604614 122.377029,307.418060 121.964035,305.157196 
	C114.653107,311.956512 108.149414,318.064789 101.579796,324.101349 
	C91.074898,333.753815 80.526230,343.358673 69.972137,352.563110 
	C69.635231,349.194122 69.065887,346.246948 69.051422,343.297058 
	C68.965942,325.866150 69.093819,308.433716 68.919029,291.004150 
	C68.892601,288.368256 67.658951,285.744415 67.365448,283.086670 
	C77.997795,285.137451 84.713707,278.808502 84.725342,266.728119 
	C84.774414,215.782928 84.764763,164.837631 84.718765,113.892418 
	C84.709076,103.162514 79.760597,98.034218 69.060989,96.805008 
	C69.017052,69.872559 68.995247,43.426567 68.973442,16.980576 
z"/>
<path fill="#22BFD5" opacity="1.000000" stroke="none" 
	d="
M689.056885,835.707764 
	C689.506714,835.630798 689.785828,835.577698 690.073792,835.970581 
	C691.013977,836.512146 691.666138,836.660828 692.318359,836.809570 
	C692.802917,837.018799 693.287476,837.228027 693.940674,838.001953 
	C694.791382,839.026184 695.473511,839.485840 696.155579,839.945496 
	C697.858948,843.753113 700.622009,847.448608 701.038940,851.392212 
	C701.838257,858.952209 700.880676,866.683899 701.430847,874.288025 
	C702.143250,884.134644 698.580139,891.371033 690.074646,896.664246 
	C666.312439,897.000000 642.624878,897.000000 618.468628,897.000000 
	C618.270081,896.412537 618.381470,895.514343 618.833618,895.283569 
	C627.512268,890.852295 629.492798,883.281555 629.056824,874.348572 
	C628.789307,868.867432 628.811890,863.354004 629.051331,857.870239 
	C629.449463,848.748657 628.072449,840.549133 619.093872,835.018005 
	C620.649414,835.018005 622.204956,835.017700 623.760498,835.018005 
	C642.740540,835.021484 661.720703,834.995972 680.700500,835.062134 
	C683.336792,835.071289 685.971558,835.532654 689.056885,835.707764 
z"/>
<path fill="#FB55B7" opacity="1.000000" stroke="none" 
	d="
M337.895874,475.255829 
	C332.741486,471.740479 327.169220,468.703064 322.506531,464.625519 
	C304.260590,448.669281 293.357819,428.999084 294.110809,404.130432 
	C294.479004,391.969879 298.249939,380.674774 304.840546,370.411377 
	C305.681885,369.101135 307.172974,368.208160 309.157715,367.061218 
	C375.886078,367.016876 441.819855,367.040009 507.753601,367.018951 
	C509.896271,367.018280 512.038818,366.565460 514.181396,366.323364 
	C516.042847,368.084625 518.426514,369.535034 519.687317,371.653748 
	C538.625793,403.479004 529.373535,439.315308 503.943298,462.147369 
	C502.213684,463.700287 500.449707,465.214935 498.086792,466.928406 
	C496.974976,467.724213 496.478088,468.339020 495.981201,468.953796 
	C493.217865,470.945892 490.454559,472.938019 487.203491,474.637146 
	C483.800812,461.927032 480.672089,449.497559 473.187561,438.930206 
	C460.850128,421.510986 443.745239,410.744507 422.882507,407.326172 
	C411.395813,405.444153 399.434296,406.463776 388.218231,410.825531 
	C386.338776,411.556458 384.677612,412.848663 382.539307,413.904907 
	C362.867065,421.808014 350.044708,435.940826 343.022491,455.304108 
	C340.692322,461.729370 339.570251,468.592773 337.895874,475.255829 
z"/>
<path fill="#985DBB" opacity="1.000000" stroke="none" 
	d="
M625.556213,463.215332 
	C627.153748,463.251099 628.309387,463.310699 629.668091,463.815399 
	C629.584473,466.028137 629.060669,467.794312 629.049866,469.563690 
	C628.984192,480.291443 629.035522,491.019958 628.660095,501.876892 
	C623.571777,502.334412 619.758301,504.248657 616.572937,507.822052 
	C613.363037,511.422913 609.680054,514.597900 606.385925,518.128784 
	C599.546753,525.459717 601.568115,535.906616 610.764282,539.916504 
	C613.440186,541.083252 614.132751,542.573792 614.109009,545.194946 
	C614.020081,555.025635 614.052673,564.857605 614.082520,574.689026 
	C614.113281,584.841858 618.901733,590.036255 628.990112,591.401611 
	C628.947632,596.686096 628.894409,601.498596 628.385010,606.297913 
	C619.633423,606.285645 611.334290,606.132996 603.043701,606.335022 
	C596.127625,606.503479 590.513489,612.188721 590.053833,619.004517 
	C589.583435,625.979675 594.253357,631.872498 601.349731,633.037781 
	C603.950745,633.464844 606.613281,633.715088 609.247070,633.710449 
	C619.835693,633.691895 630.424072,633.541992 640.864868,633.789917 
	C638.477478,634.424072 636.208557,635.083740 634.004517,634.911743 
	C630.024597,634.601196 628.840637,636.095215 628.932312,640.023315 
	C629.172424,650.316223 629.005554,660.618713 629.025085,671.107178 
	C629.049255,671.297058 629.061768,671.679565 628.680664,671.506104 
	C625.693054,671.854309 623.086609,672.376038 620.283203,672.763367 
	C619.779175,672.541504 619.466064,672.493469 619.146851,672.484802 
	C615.377930,672.064270 611.610962,671.301453 607.839844,671.280518 
	C588.174500,671.171448 568.508057,671.250977 548.247253,670.921753 
	C547.528687,670.367859 547.404846,670.157166 547.280945,669.946411 
	C547.279175,666.809204 547.276001,663.671936 547.275940,660.534729 
	C547.274719,620.914734 547.316895,581.294739 547.257874,541.674805 
	C547.218567,515.240112 556.540100,493.278320 578.231323,477.475708 
	C589.018311,469.617004 601.166199,464.813965 614.686890,464.030365 
	C618.166260,463.828705 621.638672,463.506195 625.556213,463.215332 
z"/>
<path fill="#FB57B7" opacity="1.000000" stroke="none" 
	d="
M223.271667,90.698288 
	C227.043900,98.396263 230.644440,105.763046 234.990921,114.656013 
	C238.137726,108.404610 240.612534,103.653069 242.940033,98.830444 
	C247.999451,88.347198 252.900314,77.786774 258.026733,67.336754 
	C261.697601,59.853790 267.348358,57.208885 274.797760,59.121151 
	C280.658386,60.625580 284.853088,66.509460 284.862762,73.603622 
	C284.904114,103.921638 284.915741,134.239807 284.861664,164.557770 
	C284.846863,172.857941 278.721710,179.066696 270.901367,179.019577 
	C263.043182,178.972229 257.188934,172.821854 257.124817,164.372406 
	C257.052948,154.907898 257.108337,145.442413 257.108337,135.977341 
	C256.670624,135.819153 256.232941,135.660950 255.795242,135.502747 
	C253.657440,139.965134 251.446899,144.394501 249.401535,148.898849 
	C247.202591,153.741440 244.432541,158.048447 239.048096,159.710129 
	C232.396622,161.762848 225.514679,158.393188 222.126663,151.575485 
	C219.579391,146.449631 217.118683,141.280762 214.619415,136.131042 
	C214.177750,136.225143 213.736084,136.319244 213.294418,136.413345 
	C213.175659,137.953171 212.961609,139.492554 212.954193,141.032913 
	C212.917297,148.695557 212.973221,156.358688 212.923111,164.021194 
	C212.864746,172.943207 207.216400,179.027161 199.082138,179.028595 
	C191.026260,179.030014 185.187729,172.781601 185.180679,164.004150 
	C185.156570,134.019272 185.159027,104.034325 185.184082,74.049431 
	C185.190460,66.423187 189.149368,60.636623 195.239685,59.127232 
	C202.338593,57.367878 208.310944,60.168377 212.036255,67.459770 
	C215.893341,75.009117 219.425644,82.724396 223.271667,90.698288 
z"/>
<path fill="#CA9BE4" opacity="1.000000" stroke="none" 
	d="
M122.611671,419.457001 
	C122.901062,420.775177 123.190453,422.093323 123.746948,423.712616 
	C123.375763,469.713409 122.737457,515.413086 121.766388,561.709106 
	C108.727821,568.375671 96.033852,574.470886 83.310135,580.503357 
	C78.575546,582.748047 73.771370,584.845947 69.002274,586.540955 
	C68.966164,539.569458 68.926727,493.067841 69.015366,446.322754 
	C69.462410,445.420258 69.781387,444.761169 70.474594,444.076324 
	C72.408066,443.478973 74.029175,443.035400 75.517029,442.316162 
	C91.227463,434.721710 106.916626,427.083282 122.611671,419.457001 
z"/>
<path fill="#FB57B7" opacity="1.000000" stroke="none" 
	d="
M387.017120,165.575775 
	C387.005920,134.632034 386.962952,104.141029 387.020508,73.650215 
	C387.039886,63.377960 392.719055,58.171188 402.685577,58.913422 
	C407.753754,59.290867 410.797211,62.501904 413.095917,66.518280 
	C420.608093,79.643593 427.988129,92.844452 435.475342,105.984131 
	C436.296448,107.425117 437.482544,108.658119 438.499329,109.987587 
	C438.902771,109.842903 439.306213,109.698219 439.709656,109.553528 
	C439.801239,107.817245 439.966919,106.081184 439.972198,104.344627 
	C440.004181,93.847832 439.936890,83.350395 440.026337,72.854225 
	C440.101929,63.985840 445.070312,58.890320 453.428192,58.879395 
	C461.534546,58.868793 466.967407,64.312752 466.980804,72.777245 
	C467.029602,103.601326 467.015381,134.425583 466.973480,165.249695 
	C466.964325,171.983871 463.190399,176.996933 457.129364,178.697113 
	C451.125977,180.381165 444.830688,177.737778 441.452515,171.823685 
	C433.541687,157.974228 425.753448,144.054810 417.882050,130.182724 
	C417.261566,129.089233 416.381256,128.143173 414.448151,127.300537 
	C414.327728,128.958282 414.108032,130.615738 414.103027,132.273834 
	C414.071289,142.770630 414.112396,153.267624 414.079559,163.764404 
	C414.052032,172.576508 409.541687,178.327271 402.212433,179.007050 
	C393.897736,179.778229 388.734741,175.366272 387.017120,165.575775 
z"/>
<path fill="#F2EEF2" opacity="1.000000" stroke="none" 
	d="
M514.125366,365.925751 
	C512.038818,366.565460 509.896271,367.018280 507.753601,367.018951 
	C441.819855,367.040009 375.886078,367.016876 309.488586,366.943665 
	C310.299194,364.470795 311.156250,361.686707 312.912537,359.695953 
	C330.094666,340.220001 351.738434,328.495453 376.948212,322.757690 
	C396.107178,318.397125 415.169464,318.122131 434.660278,320.696686 
	C455.866852,323.497772 475.173920,330.555939 492.422394,342.871826 
	C499.528534,347.945831 505.582977,354.521576 511.920898,360.616913 
	C513.110901,361.761261 513.376953,363.866333 514.125366,365.925751 
z"/>
<path fill="#FB57B7" opacity="1.000000" stroke="none" 
	d="
M524.838989,151.119263 
	C527.528076,149.014603 530.238708,147.259705 532.035522,144.829254 
	C534.054810,142.097794 533.849609,139.744125 529.474792,138.949783 
	C522.803711,137.738510 518.991943,132.589569 519.016785,125.771645 
	C519.041931,118.864975 522.756958,113.405518 529.514282,112.659691 
	C536.384766,111.901367 543.458252,112.171158 550.366577,112.812355 
	C556.356689,113.368332 560.274231,117.748245 560.656494,123.427048 
	C561.355530,133.813400 562.068115,144.275131 558.067993,154.453110 
	C548.012085,180.039215 513.626526,187.558273 493.857605,168.442139 
	C485.232880,160.102203 480.844971,150.239075 480.988342,138.210922 
	C481.145142,125.053726 481.358734,111.882561 480.943115,98.736595 
	C480.307983,78.646523 498.493713,58.371017 520.755188,58.627399 
	C538.904419,58.836422 553.901184,70.273438 559.531555,86.728661 
	C561.946716,93.787109 559.420837,101.786781 553.951782,104.896919 
	C548.109741,108.219177 540.495911,106.958458 536.397461,101.633881 
	C534.924805,99.720772 534.104309,97.244476 533.251282,94.927612 
	C530.941772,88.654869 525.482056,85.092667 519.376526,86.049332 
	C512.510742,87.125114 508.856659,91.485870 508.827179,98.881783 
	C508.775391,111.874069 508.770721,124.866867 508.822601,137.859146 
	C508.862885,147.948257 514.417297,152.629379 524.838989,151.119263 
z"/>
<path fill="#FB56B7" opacity="1.000000" stroke="none" 
	d="
M309.280823,101.329536 
	C311.596985,91.045288 313.931549,81.193169 316.071655,71.298973 
	C317.982819,62.463120 322.216431,58.900745 331.317200,58.867760 
	C334.814453,58.855083 338.312317,58.829548 341.808960,58.876961 
	C348.895508,58.973045 353.532745,62.971294 355.063843,69.946465 
	C361.757599,100.440941 368.483521,130.928421 375.257507,161.405151 
	C377.131256,169.835190 373.259369,176.730942 365.330505,178.690689 
	C357.809204,180.549713 350.999115,176.172470 348.869110,168.109955 
	C346.457794,158.982651 346.457794,158.982651 336.888519,158.971512 
	C336.555450,158.971115 336.222382,158.970154 335.889313,158.969788 
	C325.549225,158.958694 325.549225,158.958694 322.552460,168.651932 
	C320.204315,176.247147 313.137329,180.576096 306.048309,178.761719 
	C298.520203,176.834976 294.560242,169.879974 296.332703,161.620728 
	C300.616394,141.659409 304.919403,121.702209 309.280823,101.329536 
M337.014435,111.926224 
	C336.135193,111.930374 334.526855,111.768021 334.482391,111.962807 
	C333.022491,118.355133 331.712708,124.781746 330.263153,131.770050 
	C332.402161,131.880981 334.171539,131.906113 335.926727,132.076996 
	C340.150208,132.488235 341.731110,131.140854 340.381378,126.660088 
	C339.003540,122.085930 338.260956,117.320427 337.014435,111.926224 
z"/>
<path fill="#FB56B7" opacity="1.000000" stroke="none" 
	d="
M626.483948,63.021278 
	C629.947571,76.019257 633.362305,88.785904 636.312622,101.658989 
	C640.782593,121.162651 645.007385,140.723724 649.187073,160.292297 
	C652.122681,174.036560 643.620361,181.728851 629.570312,177.813904 
	C627.511292,175.715683 625.852051,173.676331 624.083191,171.024170 
	C623.652588,169.940201 623.331665,169.469040 623.010681,168.997879 
	C622.684937,167.260330 622.359192,165.522797 621.990479,163.111877 
	C621.652222,161.953979 621.356934,161.469452 621.061646,160.984940 
	C620.424622,160.344437 619.802246,159.165329 619.148315,159.147552 
	C613.247925,158.987091 607.315369,158.730591 601.458618,159.250046 
	C600.189026,159.362671 599.185486,162.475861 597.776611,164.775970 
	C597.364990,165.907974 597.236206,166.471054 597.107483,167.034119 
	C596.996704,168.000549 596.885925,168.966980 596.485840,170.437561 
	C595.802917,171.629547 595.409302,172.317383 595.015625,173.005219 
	C593.219360,174.603897 591.423035,176.202591 588.995972,177.920166 
	C587.779907,178.596100 587.194702,179.153137 586.609436,179.710175 
	C584.658997,179.476105 582.708557,179.242035 580.213257,178.726288 
	C579.112183,178.297211 578.555847,178.149811 577.999573,178.002426 
	C570.053589,172.566330 568.782166,169.188309 570.839233,159.957748 
	C577.576416,129.726517 584.251221,99.481400 590.960388,69.243927 
	C592.376648,62.860935 597.044373,58.999504 603.628235,58.896191 
	C608.776855,58.815403 613.928284,58.915039 619.708923,59.190578 
	C620.893799,59.629444 621.448242,59.812233 622.002686,59.995022 
	C623.410828,60.942547 624.818970,61.890076 626.483948,63.021278 
M606.256531,132.281921 
	C609.417786,132.735107 614.483521,134.217163 614.526428,130.182343 
	C614.596375,123.601761 612.255066,116.995544 610.931152,110.400146 
	C610.142395,110.450226 609.353577,110.500305 608.564758,110.550385 
	C607.591248,117.608688 606.617676,124.666992 606.256531,132.281921 
z"/>
<path fill="#DEDAE3" opacity="1.000000" stroke="none" 
	d="
M68.998947,587.010803 
	C73.771370,584.845947 78.575546,582.748047 83.310135,580.503357 
	C96.033852,574.470886 108.727821,568.375671 121.774605,562.181152 
	C122.408272,563.979736 122.952950,565.902222 122.956093,567.825562 
	C123.008667,599.968445 123.085625,632.111938 122.890694,664.253723 
	C122.862587,668.888428 124.211594,670.109680 128.779205,670.105774 
	C268.009674,669.986267 407.240265,670.000671 546.875854,669.970337 
	C547.404846,670.157166 547.528687,670.367859 547.772217,670.926270 
	C546.120667,671.540100 544.349426,672.039001 542.578125,672.039124 
	C401.987244,672.047852 261.396301,671.978333 120.805466,672.038635 
	C102.613785,672.046448 85.782730,677.598511 69.467438,685.737549 
	C69.037209,653.176880 69.014381,621.042908 68.989090,588.592896 
	C68.990730,587.854858 68.994843,587.432861 68.998947,587.010803 
z"/>
<path fill="#FD95D2" opacity="1.000000" stroke="none" 
	d="
M337.994019,475.574158 
	C339.570251,468.592773 340.692322,461.729370 343.022491,455.304108 
	C350.044708,435.940826 362.867065,421.808014 382.996399,413.943909 
	C407.897736,415.463379 423.995758,428.824188 435.073517,449.072144 
	C442.617859,462.861633 441.904755,477.880646 440.059631,492.890198 
	C416.219025,497.418304 392.532684,497.000031 369.449310,489.189758 
	C358.724945,485.561096 348.528107,480.373413 337.994019,475.574158 
z"/>
<path fill="#5A5159" opacity="1.000000" stroke="none" 
	d="
M207.897797,312.994507 
	C210.854218,310.189362 213.325638,307.051636 216.556229,305.388824 
	C235.169342,295.808685 253.964096,286.581573 272.690247,277.220734 
	C274.276581,276.427765 275.811249,275.531342 278.377747,274.134430 
	C275.950684,272.618225 274.441833,271.496277 272.785919,270.668610 
	C253.773392,261.165863 234.743393,251.697998 215.706436,242.244232 
	C210.427353,239.622650 206.759537,235.707413 206.550064,229.617325 
	C206.364532,224.222824 208.874680,219.964325 213.678284,217.367065 
	C217.903107,215.082733 222.350952,215.119125 226.617035,217.234283 
	C256.066772,231.835876 285.496674,246.477646 314.909027,261.154388 
	C320.201752,263.795441 323.573425,267.978943 323.455841,274.120850 
	C323.343445,279.991516 320.132446,284.023010 314.965790,286.597229 
	C285.661285,301.197937 256.376953,315.839264 227.038757,330.371918 
	C221.225723,333.251373 214.617844,332.462372 210.794861,328.402252 
	C206.766815,324.124329 205.009064,319.118469 207.897797,312.994507 
z"/>
<path fill="#5A5159" opacity="1.000000" stroke="none" 
	d="
M601.113403,302.054016 
	C604.252380,303.673401 607.123535,305.020203 609.823425,306.650604 
	C617.220398,311.117584 619.303467,318.289825 615.408569,325.420898 
	C612.077148,331.520172 604.192139,333.896515 597.092896,330.487823 
	C585.102173,324.730530 573.246216,318.692230 561.340942,312.757294 
	C543.782410,304.004211 526.223572,295.251892 508.679840,286.469269 
	C503.511169,283.881714 500.351807,279.784821 500.374176,273.866882 
	C500.396484,267.959900 503.563019,263.876678 508.735474,261.296844 
	C537.876709,246.762253 567.005920,232.203079 596.188416,217.751724 
	C604.250732,213.759216 611.886475,215.910675 615.576965,222.846313 
	C619.463440,230.150253 616.998230,237.666428 608.614319,241.944138 
	C589.515198,251.689026 570.252441,261.113129 551.065247,270.685760 
	C549.491394,271.470947 547.986633,272.394531 545.012573,274.057373 
	C564.412537,283.749023 582.590027,292.829956 601.113403,302.054016 
z"/>
<path fill="#9A5FBC" opacity="1.000000" stroke="none" 
	d="
M250.000000,601.006714 
	C268.981873,601.013916 287.471863,601.341492 305.941681,600.872864 
	C313.468231,600.681885 320.630707,607.800598 320.176453,614.327148 
	C319.615051,622.393188 314.632477,627.895325 306.176605,627.906982 
	C265.716309,627.962830 225.255920,627.955933 184.795639,627.912903 
	C178.030350,627.905762 172.573441,623.907715 171.235992,618.331238 
	C169.611099,611.556396 172.122879,605.478577 178.395035,602.423462 
	C180.645538,601.327209 183.487381,601.084595 186.062393,601.071899 
	C207.207855,600.967468 228.354034,601.009277 250.000000,601.006714 
z"/>
<path fill="#FD76C4" opacity="1.000000" stroke="none" 
	d="
M440.462402,492.909760 
	C441.904755,477.880646 442.617859,462.861633 435.073517,449.072144 
	C423.995758,428.824188 407.897736,415.463379 383.372742,413.920532 
	C384.677612,412.848663 386.338776,411.556458 388.218231,410.825531 
	C399.434296,406.463776 411.395813,405.444153 422.882507,407.326172 
	C443.745239,410.744507 460.850128,421.510986 473.187561,438.930206 
	C480.672089,449.497559 483.800812,461.927032 486.863708,474.696564 
	C477.212585,479.678894 467.477875,484.453735 457.575043,488.849884 
	C454.627350,490.158478 451.208038,490.404694 447.271515,491.136108 
	C445.994171,491.679474 445.450165,492.224426 444.906128,492.769409 
	C443.559174,492.822723 442.212158,492.876007 440.462402,492.909760 
z"/>
<path fill="#9A5FBC" opacity="1.000000" stroke="none" 
	d="
M195.007050,553.002441 
	C205.999573,553.006714 216.494156,552.941406 226.987289,553.036804 
	C235.740326,553.116333 241.094635,558.253601 241.140472,566.371948 
	C241.187973,574.788330 235.858475,580.015564 226.839600,580.078308 
	C212.848328,580.175720 198.855225,580.192017 184.864243,580.078186 
	C176.178345,580.007568 170.995987,574.779663 171.009354,566.500244 
	C171.022415,558.402466 176.408691,553.193970 185.014206,553.018677 
	C188.177765,552.954224 191.343674,553.004456 195.007050,553.002441 
z"/>
<path fill="#FA5AB8" opacity="1.000000" stroke="none" 
	d="
M253.543472,383.390320 
	C246.498444,391.772949 240.416672,393.069244 233.225418,388.021576 
	C228.047424,384.387115 226.178024,378.228333 228.498764,372.292389 
	C229.827286,368.894348 231.121155,365.476501 232.616623,362.151245 
	C235.933136,354.776764 244.206146,351.581787 251.315247,354.820862 
	C257.869293,357.807037 260.936462,366.565033 257.869080,373.485138 
	C256.458679,376.667053 255.086456,379.865906 253.543472,383.390320 
z"/>
<path fill="#FA59B8" opacity="1.000000" stroke="none" 
	d="
M199.205292,390.864624 
	C187.413269,387.656525 183.907700,380.907959 188.039856,369.848450 
	C189.316544,366.431458 190.760208,363.051636 192.436951,359.815155 
	C194.933990,354.995361 202.664627,352.490631 208.730377,354.290253 
	C213.841736,355.806732 218.862183,362.649261 217.550568,367.864807 
	C216.073975,373.736511 213.820007,379.536346 211.031006,384.914673 
	C208.855789,389.109314 204.367859,390.692474 199.205292,390.864624 
z"/>
<path fill="#FA5AB8" opacity="1.000000" stroke="none" 
	d="
M581.884155,390.119507 
	C576.045593,392.084015 571.588379,389.888550 568.058472,386.131592 
	C564.346313,382.180756 564.099548,377.079865 565.652039,372.091919 
	C566.678589,368.794037 568.215881,365.634186 569.734070,362.514435 
	C573.517944,354.738464 580.114502,351.695831 587.116089,354.353790 
	C594.494568,357.154785 597.781128,363.964783 594.962402,372.267822 
	C592.562561,379.336884 590.949768,387.300659 581.884155,390.119507 
z"/>
<path fill="#FA57B7" opacity="1.000000" stroke="none" 
	d="
M627.628296,354.074585 
	C637.644653,358.978119 639.939514,364.779480 635.375610,374.928955 
	C633.145264,379.888977 629.749878,384.325134 626.727417,389.288879 
	C625.631775,389.720306 624.690674,389.861328 622.955078,390.023071 
	C620.100769,390.050476 618.040955,390.057190 615.981079,390.063904 
	C611.347168,388.539978 608.120422,385.638428 606.891113,379.988525 
	C606.846252,377.445282 606.802429,375.693756 606.758667,373.942200 
	C607.457092,371.863312 608.155457,369.784393 609.164917,367.185333 
	C609.659058,366.113098 609.842163,365.561035 610.025269,365.008972 
	C612.066772,359.106476 615.651978,354.900024 622.916626,353.954285 
	C624.111938,353.922852 624.580383,353.874664 625.048767,353.826477 
	C625.785095,353.906464 626.521362,353.986450 627.628296,354.074585 
z"/>
<path fill="#FCAFE1" opacity="1.000000" stroke="none" 
	d="
M616.078735,390.424133 
	C618.040955,390.057190 620.100769,390.050476 622.600403,390.095581 
	C621.005310,393.086639 618.646667,392.537109 616.078735,390.424133 
z"/>
<path fill="#FCAFE1" opacity="1.000000" stroke="none" 
	d="
M606.429016,374.060364 
	C606.802429,375.693756 606.846252,377.445282 606.809082,379.629211 
	C606.518616,378.100586 606.309021,376.139557 606.429016,374.060364 
z"/>
<path fill="#FD95D2" opacity="1.000000" stroke="none" 
	d="
M445.223145,492.798340 
	C445.450165,492.224426 445.994171,491.679474 446.860260,491.152649 
	C446.634949,491.722931 446.087555,492.275116 445.223145,492.798340 
z"/>
<path fill="#FCAFE1" opacity="1.000000" stroke="none" 
	d="
M624.990601,353.559906 
	C624.580383,353.874664 624.111938,353.922852 623.296204,353.894806 
	C623.610046,353.643494 624.271301,353.468414 624.990601,353.559906 
z"/>
<path fill="#FCAFE1" opacity="1.000000" stroke="none" 
	d="
M586.959839,179.761627 
	C587.194702,179.153137 587.779907,178.596100 588.684204,178.023590 
	C588.438965,178.609772 587.874573,179.211426 586.959839,179.761627 
z"/>
<path fill="#FCAFE1" opacity="1.000000" stroke="none" 
	d="
M609.739929,365.036987 
	C609.842163,365.561035 609.659058,366.113098 609.224426,366.828735 
	C609.133484,366.349884 609.294067,365.707458 609.739929,365.036987 
z"/>
<path fill="#FCAFE1" opacity="1.000000" stroke="none" 
	d="
M621.972046,59.713753 
	C621.448242,59.812233 620.893799,59.629444 620.178589,59.191589 
	C620.658997,59.101845 621.300232,59.267162 621.972046,59.713753 
z"/>
<path fill="#FCAFE1" opacity="1.000000" stroke="none" 
	d="
M578.034119,178.289780 
	C578.555847,178.149811 579.112183,178.297211 579.844849,178.679901 
	C579.370361,178.802536 578.719543,178.689835 578.034119,178.289780 
z"/>
<path fill="#FCAFE1" opacity="1.000000" stroke="none" 
	d="
M595.351257,172.944382 
	C595.409302,172.317383 595.802917,171.629547 596.479370,170.802521 
	C596.403748,171.403412 596.045288,172.143478 595.351257,172.944382 
z"/>
<path fill="#FCAFE1" opacity="1.000000" stroke="none" 
	d="
M622.795410,169.171509 
	C623.331665,169.469040 623.652588,169.940201 623.973877,170.709869 
	C623.509460,170.453949 623.044739,169.899551 622.795410,169.171509 
z"/>
<path fill="#FCAFE1" opacity="1.000000" stroke="none" 
	d="
M597.382446,166.989777 
	C597.236206,166.471054 597.364990,165.907974 597.734863,165.169647 
	C597.869751,165.644745 597.763550,166.295074 597.382446,166.989777 
z"/>
<path fill="#FCAFE1" opacity="1.000000" stroke="none" 
	d="
M620.840576,161.151154 
	C621.356934,161.469452 621.652222,161.953979 621.919312,162.736023 
	C621.467163,162.461502 621.043274,161.889450 620.840576,161.151154 
z"/>
<path fill="#FD76C4" opacity="1.000000" stroke="none" 
	d="
M496.297119,468.926575 
	C496.478088,468.339020 496.974976,467.724213 497.801086,467.097412 
	C497.624542,467.690063 497.118774,468.294678 496.297119,468.926575 
z"/>
<path fill="#CAC5CC" opacity="1.000000" stroke="none" 
	d="
M678.937988,735.374756 
	C678.155151,735.583984 677.380310,735.936096 676.588257,735.980530 
	C668.003296,736.462585 668.004700,736.449341 668.001953,744.828613 
	C667.997925,757.232666 667.990417,769.636780 667.603027,782.598999 
	C664.567810,783.765015 661.914185,784.903564 659.260010,784.904724 
	C469.255554,784.987854 279.251007,784.977356 89.246490,785.016357 
	C86.969025,785.016846 84.691673,785.559570 82.414268,785.849243 
	C79.917854,764.155273 88.472656,746.516724 106.143288,738.604309 
	C111.147118,736.363708 117.045235,735.115051 122.534676,735.110352 
	C287.064575,734.968018 451.594635,735.039246 616.124695,735.073486 
	C616.789917,735.073608 617.455139,735.024841 619.038208,734.987366 
	C625.333008,734.919800 630.709961,734.863708 636.325562,735.093628 
	C638.678589,735.187927 640.792969,734.996216 643.375488,734.885620 
	C650.257812,734.912720 656.671936,734.858765 663.272339,735.074768 
	C664.611633,735.157166 665.764832,734.969604 667.380676,734.838867 
	C671.541565,735.055420 675.239807,735.215088 678.937988,735.374756 
z"/>
<path fill="#E1DDE1" opacity="1.000000" stroke="none" 
	d="
M82.302322,786.317017 
	C84.691673,785.559570 86.969025,785.016846 89.246490,785.016357 
	C279.251007,784.977356 469.255554,784.987854 659.260010,784.904724 
	C661.914185,784.903564 664.567810,783.765015 667.592102,783.066040 
	C667.972473,797.605164 668.243042,812.242432 667.854736,826.862244 
	C667.713928,832.164673 669.479370,833.483521 674.366089,833.105957 
	C678.637817,832.776001 682.971802,833.251587 687.579102,833.632690 
	C660.568115,833.943359 633.256287,834.032593 605.944397,834.035461 
	C446.202118,834.052429 286.459778,833.975891 126.717720,834.162537 
	C110.166695,834.181885 97.146805,828.456665 88.186035,814.572693 
	C82.778709,806.194519 81.532372,796.623108 82.302322,786.317017 
z"/>
<path fill="#F0EFF2" opacity="1.000000" stroke="none" 
	d="
M68.991547,588.908875 
	C69.014381,621.042908 69.037209,653.176880 69.111778,685.805420 
	C54.449005,696.762146 41.281101,708.679749 32.492023,724.804443 
	C26.893604,735.075562 22.891907,745.885681 20.884182,757.424805 
	C20.719561,758.371033 20.276398,759.268860 19.633011,760.406860 
	C19.203985,758.468262 19.018660,756.312012 19.017855,754.155640 
	C19.000175,706.737427 19.002941,659.319275 19.401049,611.451233 
	C21.678709,610.423340 23.667845,610.074036 25.416456,609.227783 
	C33.188400,605.466248 40.825085,601.420959 48.639549,597.752869 
	C55.332638,594.611206 62.200813,591.842529 68.991547,588.908875 
z"/>
<path fill="#22BED5" opacity="1.000000" stroke="none" 
	d="
M663.086121,734.804810 
	C656.671936,734.858765 650.257812,734.912720 643.102661,734.654785 
	C640.270142,734.497803 638.178589,734.652710 636.086975,734.807617 
	C630.709961,734.863708 625.333008,734.919800 619.499573,734.883667 
	C619.080017,734.629517 619.060303,734.395935 619.161743,734.315979 
	C627.923889,727.409546 630.495544,718.321350 629.097534,707.544800 
	C628.546997,703.300537 628.611877,698.880920 629.088684,694.618591 
	C630.118713,685.410889 626.581604,678.514832 619.245483,672.834778 
	C619.466064,672.493469 619.779175,672.541504 620.755005,672.785889 
	C623.969788,672.521667 626.515808,672.100647 629.061768,671.679565 
	C629.061768,671.679565 629.049255,671.297058 629.487183,671.192627 
	C645.716309,671.113647 661.515564,671.455078 677.295837,671.052734 
	C687.703918,670.787292 695.781128,673.987854 701.047729,683.225708 
	C701.111450,694.510315 701.175171,705.794861 700.869141,717.775391 
	C700.129944,720.184204 699.760498,721.897156 699.391052,723.610046 
	C699.022034,724.588806 698.652954,725.567566 697.720947,726.805786 
	C696.109558,728.377258 695.061218,729.689331 694.012817,731.001343 
	C694.012817,731.001343 694.002441,731.002441 693.689209,731.017578 
	C692.925476,731.414917 692.475037,731.797058 692.024536,732.179199 
	C692.024536,732.179199 691.823975,732.373169 691.336731,732.270996 
	C689.542969,732.835144 688.236389,733.501404 686.929871,734.167725 
	C684.568054,734.507507 682.206238,734.847290 679.391235,735.280884 
	C675.239807,735.215088 671.541565,735.055420 667.158569,734.629395 
	C665.344482,734.510315 664.215332,734.657532 663.086121,734.804810 
z"/>
<path fill="#F0EFF2" opacity="1.000000" stroke="none" 
	d="
M19.236454,765.024292 
	C19.070557,764.928955 19.061413,764.680420 19.097515,764.059204 
	C19.271475,763.941589 19.428905,764.187500 19.515274,764.456177 
	C19.551735,764.569641 19.438442,764.731262 19.236454,765.024292 
z"/>
<path fill="#804D9E" opacity="1.000000" stroke="none" 
	d="
M701.122559,682.739380 
	C695.781128,673.987854 687.703918,670.787292 677.295837,671.052734 
	C661.515564,671.455078 645.716309,671.113647 629.463013,671.002808 
	C629.005554,660.618713 629.172424,650.316223 628.932312,640.023315 
	C628.840637,636.095215 630.024597,634.601196 634.004517,634.911743 
	C636.208557,635.083740 638.477478,634.424072 641.241699,633.650757 
	C649.118225,631.843750 654.318237,625.743347 653.753235,619.099731 
	C653.110352,611.540466 647.913818,607.124390 639.637939,606.941895 
	C636.036133,606.862549 632.439880,606.529114 628.841125,606.311035 
	C628.894409,601.498596 628.947632,596.686096 629.330627,591.291626 
	C638.950500,587.100586 641.638916,583.275208 641.648865,573.509827 
	C641.666687,556.017456 641.660706,538.525146 641.656250,521.032776 
	C641.653198,509.145508 639.788452,506.303467 629.047791,501.748199 
	C629.035522,491.019958 628.984192,480.291443 629.049866,469.563690 
	C629.060669,467.794312 629.584473,466.028137 629.968506,463.901917 
	C633.063049,463.441223 636.060303,463.339081 639.658569,463.656616 
	C640.997681,464.372314 641.734924,464.924744 642.473877,464.927002 
	C659.908081,464.979889 677.342712,465.001801 694.776611,464.910461 
	C695.873108,464.904724 696.964478,463.929688 698.058228,463.405640 
	C698.782410,463.320465 699.506592,463.235321 700.594727,463.113464 
	C701.100952,464.730377 701.368530,466.384033 701.367554,468.037567 
	C701.325745,539.442749 701.260132,610.847900 701.122559,682.739380 
z"/>
<path fill="#985DBB" opacity="1.000000" stroke="none" 
	d="
M697.601807,463.268738 
	C696.964478,463.929688 695.873108,464.904724 694.776611,464.910461 
	C677.342712,465.001801 659.908081,464.979889 642.473877,464.927002 
	C641.734924,464.924744 640.997681,464.372314 640.100464,463.737091 
	C659.009277,463.309235 678.077332,463.220551 697.601807,463.268738 
z"/>
<path fill="#3CD2E0" opacity="1.000000" stroke="none" 
	d="
M694.347778,730.976929 
	C695.061218,729.689331 696.109558,728.377258 697.484009,727.024658 
	C696.767639,728.306946 695.725220,729.629700 694.347778,730.976929 
z"/>
<path fill="#3CD2E0" opacity="1.000000" stroke="none" 
	d="
M699.668213,723.424194 
	C699.760498,721.897156 700.129944,720.184204 700.784363,718.238281 
	C700.694702,719.749695 700.320068,721.494019 699.668213,723.424194 
z"/>
<path fill="#3CD2E0" opacity="1.000000" stroke="none" 
	d="
M687.247070,734.287109 
	C688.236389,733.501404 689.542969,732.835144 691.200073,732.243103 
	C690.221863,733.013733 688.893066,733.710144 687.247070,734.287109 
z"/>
<path fill="#3CD2E0" opacity="1.000000" stroke="none" 
	d="
M696.101196,839.627869 
	C695.473511,839.485840 694.791382,839.026184 694.088623,838.225952 
	C694.727600,838.360352 695.387207,838.835327 696.101196,839.627869 
z"/>
<path fill="#3CD2E0" opacity="1.000000" stroke="none" 
	d="
M692.342590,732.189819 
	C692.475037,731.797058 692.925476,731.414917 693.687134,731.022705 
	C693.552368,731.408569 693.106506,731.804565 692.342590,732.189819 
z"/>
<path fill="#3CD2E0" opacity="1.000000" stroke="none" 
	d="
M692.129395,836.521973 
	C691.666138,836.660828 691.013977,836.512146 690.180359,836.064453 
	C690.646118,835.921814 691.293274,836.078125 692.129395,836.521973 
z"/>
<path fill="#F1EFF2" opacity="1.000000" stroke="none" 
	d="
M68.622879,17.027290 
	C68.995247,43.426567 69.017052,69.872559 68.736603,96.914322 
	C61.383823,100.130569 57.259117,104.592293 57.279331,112.711868 
	C57.409023,164.812225 57.373135,216.913071 57.322159,269.013672 
	C57.315269,276.055267 60.560966,280.608612 66.983704,283.115021 
	C67.658951,285.744415 68.892601,288.368256 68.919029,291.004150 
	C69.093819,308.433716 68.965942,325.866150 69.051422,343.297058 
	C69.065887,346.246948 69.635231,349.194122 69.973732,352.572266 
	C69.999252,353.002014 69.983810,352.999847 69.782951,353.088623 
	C69.331673,353.345856 69.151520,353.570618 68.770355,354.062744 
	C67.124603,355.914551 65.897224,357.710968 64.352013,359.171051 
	C53.623894,369.308472 42.868286,379.417633 32.037079,389.444672 
	C27.915705,393.260040 23.572023,396.835327 19.329655,400.520020 
	C19.220152,398.029297 19.015308,395.538574 19.014906,393.047821 
	C18.999271,296.302002 18.856398,199.555603 19.224638,102.811172 
	C19.262177,92.949501 21.765579,82.941406 24.235647,73.285439 
	C27.128380,61.977188 32.499153,51.474659 39.920723,42.486267 
	C48.032303,32.662189 56.509094,22.955042 68.622879,17.027290 
z"/>
<path fill="#D7B3ED" opacity="1.000000" stroke="none" 
	d="
M68.989090,588.592896 
	C62.200813,591.842529 55.332638,594.611206 48.639549,597.752869 
	C40.825085,601.420959 33.188400,605.466248 25.416456,609.227783 
	C23.667845,610.074036 21.678709,610.423340 19.410273,610.980042 
	C19.031242,563.910461 19.042234,516.862244 19.485188,469.362793 
	C21.485798,468.470886 23.157482,468.246002 24.606390,467.554413 
	C34.139919,463.003845 43.604183,458.308228 53.135124,453.752167 
	C58.341236,451.263550 63.633751,448.955627 68.887299,446.566223 
	C68.926727,493.067841 68.966164,539.569458 69.002274,586.540955 
	C68.994843,587.432861 68.990730,587.854858 68.989090,588.592896 
z"/>
<path fill="#3ED1E0" opacity="1.000000" stroke="none" 
	d="
M69.015366,446.322754 
	C63.633751,448.955627 58.341236,451.263550 53.135124,453.752167 
	C43.604183,458.308228 34.139919,463.003845 24.606390,467.554413 
	C23.157482,468.246002 21.485798,468.470886 19.537764,468.888428 
	C19.183958,446.365112 19.209539,423.864929 19.282389,400.942383 
	C23.572023,396.835327 27.915705,393.260040 32.037079,389.444672 
	C42.868286,379.417633 53.623894,369.308472 64.352013,359.171051 
	C65.897224,357.710968 67.124603,355.914551 69.023788,354.170563 
	C69.721794,354.128571 69.895073,354.189789 69.880592,354.608795 
	C69.463577,356.254150 69.036247,357.541443 69.034279,358.829346 
	C68.992950,385.865387 68.983353,412.901489 69.043938,439.937439 
	C69.047050,441.326416 69.732559,442.713928 70.100357,444.102112 
	C69.781387,444.761169 69.462410,445.420258 69.015366,446.322754 
z"/>
<path fill="#24BFD5" opacity="1.000000" stroke="none" 
	d="
M70.474594,444.076324 
	C69.732559,442.713928 69.047050,441.326416 69.043938,439.937439 
	C68.983353,412.901489 68.992950,385.865387 69.034279,358.829346 
	C69.036247,357.541443 69.463577,356.254150 69.879272,354.294067 
	C70.038414,353.414307 70.011116,353.207092 69.983810,352.999847 
	C69.983810,352.999847 69.999252,353.002014 69.997658,352.992828 
	C80.526230,343.358673 91.074898,333.753815 101.579796,324.101349 
	C108.149414,318.064789 114.653107,311.956512 121.964035,305.157196 
	C122.377029,307.418060 122.783165,308.604614 122.783028,309.791138 
	C122.778687,346.068726 122.734459,382.346344 122.654053,419.040466 
	C106.916626,427.083282 91.227463,434.721710 75.517029,442.316162 
	C74.029175,443.035400 72.408066,443.478973 70.474594,444.076324 
z"/>
<path fill="#8351A0" opacity="1.000000" stroke="none" 
	d="
M67.365448,283.086670 
	C60.560966,280.608612 57.315269,276.055267 57.322159,269.013672 
	C57.373135,216.913071 57.409023,164.812225 57.279331,112.711868 
	C57.259117,104.592293 61.383823,100.130569 68.758743,97.400780 
	C79.760597,98.034218 84.709076,103.162514 84.718765,113.892418 
	C84.764763,164.837631 84.774414,215.782928 84.725342,266.728119 
	C84.713707,278.808502 77.997795,285.137451 67.365448,283.086670 
z"/>
<path fill="#EFEAF1" opacity="1.000000" stroke="none" 
	d="
M628.660095,501.876892 
	C639.788452,506.303467 641.653198,509.145508 641.656250,521.032776 
	C641.660706,538.525146 641.666687,556.017456 641.648865,573.509827 
	C641.638916,583.275208 638.950500,587.100586 629.319946,590.819580 
	C618.901733,590.036255 614.113281,584.841858 614.082520,574.689026 
	C614.052673,564.857605 614.020081,555.025635 614.109009,545.194946 
	C614.132751,542.573792 613.440186,541.083252 610.764282,539.916504 
	C601.568115,535.906616 599.546753,525.459717 606.385925,518.128784 
	C609.680054,514.597900 613.363037,511.422913 616.572937,507.822052 
	C619.758301,504.248657 623.571777,502.334412 628.660095,501.876892 
z"/>
<path fill="#EFEAF1" opacity="1.000000" stroke="none" 
	d="
M628.385010,606.297913 
	C632.439880,606.529114 636.036133,606.862549 639.637939,606.941895 
	C647.913818,607.124390 653.110352,611.540466 653.753235,619.099731 
	C654.318237,625.743347 649.118225,631.843750 641.389404,633.301453 
	C630.424072,633.541992 619.835693,633.691895 609.247070,633.710449 
	C606.613281,633.715088 603.950745,633.464844 601.349731,633.037781 
	C594.253357,631.872498 589.583435,625.979675 590.053833,619.004517 
	C590.513489,612.188721 596.127625,606.503479 603.043701,606.335022 
	C611.334290,606.132996 619.633423,606.285645 628.385010,606.297913 
z"/>
<path fill="#3CD2E0" opacity="1.000000" stroke="none" 
	d="
M628.680664,671.506104 
	C626.515808,672.100647 623.969788,672.521667 620.952026,672.920288 
	C623.086609,672.376038 625.693054,671.854309 628.680664,671.506104 
z"/>
<path fill="#FFB6E4" opacity="1.000000" stroke="none" 
	d="
M337.127350,112.282455 
	C338.260956,117.320427 339.003540,122.085930 340.381378,126.660088 
	C341.731110,131.140854 340.150208,132.488235 335.926727,132.076996 
	C334.171539,131.906113 332.402161,131.880981 330.263153,131.770050 
	C331.712708,124.781746 333.022491,118.355133 334.482391,111.962807 
	C334.526855,111.768021 336.135193,111.930374 337.127350,112.282455 
z"/>
<path fill="#FFB7E5" opacity="1.000000" stroke="none" 
	d="
M605.950317,132.003601 
	C606.617676,124.666992 607.591248,117.608688 608.564758,110.550385 
	C609.353577,110.500305 610.142395,110.450226 610.931152,110.400146 
	C612.255066,116.995544 614.596375,123.601761 614.526428,130.182343 
	C614.483521,134.217163 609.417786,132.735107 605.950317,132.003601 
z"/>
<path fill="#3CD2E0" opacity="1.000000" stroke="none" 
	d="
M636.325562,735.093567 
	C638.178589,734.652710 640.270142,734.497803 642.634521,734.573730 
	C640.792969,734.996216 638.678589,735.187927 636.325562,735.093567 
z"/>
<path fill="#3CD2E0" opacity="1.000000" stroke="none" 
	d="
M663.272339,735.074707 
	C664.215332,734.657532 665.344482,734.510315 666.695801,734.572510 
	C665.764832,734.969604 664.611633,735.157166 663.272339,735.074707 
z"/>
<path fill="#E1DCE1" opacity="1.000000" stroke="none" 
	d="
M69.782951,353.088623 
	C70.011116,353.207092 70.038414,353.414307 70.067039,353.936279 
	C69.895073,354.189789 69.721794,354.128571 69.295074,353.959534 
	C69.151520,353.570618 69.331673,353.345856 69.782951,353.088623 
z"/>
</svg>