<svg version="1.1" id="Layer_1" xmlns="http://www.w3.org/2000/svg" xmlns:xlink="http://www.w3.org/1999/xlink" x="0px" y="0px"
	 width="100%" viewBox="0 0 720 896" enable-background="new 0 0 720 896" xml:space="preserve">
<path fill="#FFFFFF" opacity="1.000000" stroke="none" 
	d="
M1.000000,329.000000 
	C1.000000,219.350189 1.000000,110.200386 1.000000,1.025289 
	C240.946091,1.025289 480.892181,1.025289 720.919128,1.025289 
	C720.919128,299.566589 720.919128,598.133240 720.919128,896.849915 
	C481.000061,896.849915 241.000046,896.849915 1.000000,896.849915 
	C1.000000,707.774292 1.000000,518.637146 1.000000,329.000000 
M625.656006,677.963440 
	C631.613586,675.540100 635.137817,671.231995 635.205078,664.702820 
	C635.302673,655.227783 635.117371,645.749817 635.176819,635.307861 
	C635.224915,578.428223 635.276550,521.548584 635.301392,464.668945 
	C635.302002,463.187653 635.008789,461.706268 634.983398,459.267090 
	C635.006958,458.267700 635.051025,457.268280 635.051086,456.268890 
	C635.054382,339.111206 635.054565,221.953537 635.052979,104.795860 
	C635.052979,103.629425 635.118408,102.453705 634.999695,101.298088 
	C634.320251,94.683075 628.193665,89.035332 621.537598,89.023552 
	C604.039185,88.992584 586.540710,89.035645 568.109436,88.999763 
	C541.801636,89.000458 515.493774,88.998474 489.185944,89.002312 
	C383.122253,89.017769 277.058533,89.035004 170.067902,89.017525 
	C160.591171,87.958755 151.614761,90.610374 142.833298,93.401756 
	C137.604218,95.063927 132.905197,98.393639 127.271690,101.057449 
	C120.684715,106.700249 113.542404,111.819206 107.624451,118.093071 
	C94.632896,131.865952 87.410133,148.967133 87.264969,167.532700 
	C86.647781,246.462906 87.000595,325.400726 87.009666,404.335754 
	C87.009895,406.331055 87.131264,408.326324 87.168922,411.201752 
	C87.173195,429.077179 87.177467,446.952576 87.067589,465.780426 
	C87.050896,503.508881 87.034210,541.237305 86.999390,579.909729 
	C87.000908,617.062561 86.987106,654.215393 87.048584,691.368164 
	C87.051704,693.253296 87.703606,695.137390 88.109779,697.864380 
	C87.851517,709.991699 86.257942,722.265869 87.572495,734.220215 
	C92.535774,779.355713 130.309082,809.273926 171.782181,809.155884 
	C300.550385,808.789246 429.320282,809.020508 558.089539,809.008606 
	C561.082214,809.008362 564.074829,808.876587 567.985352,808.954651 
	C585.290833,808.973999 602.606567,808.650574 619.896973,809.170410 
	C627.502869,809.398987 635.269836,803.542603 635.493713,794.491455 
	C635.674683,787.174927 635.743042,779.841248 635.450073,772.531616 
	C635.156921,765.216858 630.702515,760.162170 623.305054,758.948608 
	C618.596375,758.176147 613.733643,758.342834 608.653625,757.295837 
	C608.440613,755.500305 608.055054,753.705994 608.042908,751.909119 
	C607.969177,740.930725 607.980286,729.951721 608.026550,718.079590 
	C608.344482,705.141846 608.662415,692.204041 609.907471,679.061340 
	C614.328979,678.804382 618.750427,678.547363 623.597961,678.601624 
	C624.045288,678.394653 624.492554,678.187744 625.656006,677.963440 
z"/>
<path fill="#FECDEB" opacity="1.000000" stroke="none" 
	d="
M170.994827,89.051582 
	C277.058533,89.035004 383.122253,89.017769 489.185944,89.002312 
	C515.493774,88.998474 541.801636,89.000458 568.711670,89.322083 
	C571.917175,93.682549 576.286682,97.516853 576.780762,101.798416 
	C578.078796,113.044785 577.771851,124.485466 577.835449,135.850266 
	C577.841370,136.910614 575.937622,137.981644 574.628113,138.860291 
	C570.655762,133.862610 565.352417,135.206223 560.497986,135.145630 
	C550.856018,135.025284 548.072021,137.207489 545.951294,146.521042 
	C542.305725,162.531387 538.693604,178.550156 535.214294,194.597229 
	C533.318726,203.340012 531.349487,212.096725 530.135498,220.946198 
	C529.402161,226.291611 533.903564,231.181885 538.905579,231.962357 
	C544.437866,232.825592 549.117798,229.974304 550.997681,224.595200 
	C554.016541,215.956924 554.016541,215.956711 563.396240,215.960815 
	C564.561829,215.961334 565.954285,215.558182 566.845337,216.054092 
	C568.644287,217.055283 571.466919,218.444077 571.577698,219.852982 
	C571.982422,225.002029 574.896667,228.393951 578.095825,232.250977 
	C578.030212,279.481812 578.011597,326.231659 577.624573,372.985962 
	C576.524963,372.908966 575.793823,372.827545 574.970947,372.430969 
	C573.567993,372.340515 572.256653,372.565216 570.583618,372.862274 
	C564.196106,373.977570 563.266357,379.312164 560.948547,383.642090 
	C555.470459,393.875671 561.598633,404.574432 575.039978,401.721680 
	C576.308350,403.506287 577.859680,405.168793 577.878174,406.848114 
	C578.073303,424.613647 578.024353,442.381836 577.899292,460.334595 
	C577.516235,460.721161 577.276428,460.922272 576.573120,461.039398 
	C570.814514,461.264496 565.477173,461.252167 560.230896,461.937103 
	C535.353577,465.184906 512.375610,489.930939 512.063599,514.950317 
	C511.595001,552.529541 511.951294,590.119019 511.501770,627.809875 
	C509.883545,627.959290 508.720367,628.041138 507.557159,628.041260 
	C397.537262,628.050415 287.517365,628.054321 177.497452,628.046082 
	C176.005722,628.045959 174.513977,627.886230 172.938232,627.447021 
	C171.904434,625.056213 170.142334,623.025085 170.127762,620.981506 
	C169.935532,593.989807 169.989212,566.996460 169.997665,539.534790 
	C170.347534,513.653931 170.727676,488.242340 170.993851,462.829529 
	C171.115784,451.186188 171.032806,439.540466 170.990921,427.895996 
	C170.985046,426.264221 170.682053,424.633514 170.439850,422.537933 
	C170.336044,401.123566 170.277039,380.173553 170.298370,359.223633 
	C170.306320,351.418945 170.502182,343.614471 170.745758,335.624634 
	C170.923080,334.977142 170.966995,334.514893 171.011688,333.658203 
	C170.677017,326.713531 170.031296,320.162262 170.053589,313.613251 
	C170.308548,238.759171 170.665253,163.905426 170.994827,89.051582 
M425.852142,484.039734 
	C439.142883,481.749359 451.821381,477.842743 463.683441,469.877960 
	C465.600433,468.577148 467.586212,467.366333 469.424011,465.961884 
	C491.691925,448.944397 502.671906,425.469299 494.777344,398.919281 
	C493.010437,392.977081 491.550507,386.242035 484.985809,382.210632 
	C484.409454,380.729828 484.187714,378.937897 483.203003,377.815308 
	C470.470886,363.300964 454.291351,354.395599 436.013763,348.798218 
	C422.428680,344.637970 408.489838,344.309082 394.583649,345.161896 
	C385.410828,345.724426 376.175903,347.292786 367.259186,349.555267 
	C352.715271,353.245636 340.233826,361.285828 328.942474,370.909180 
	C325.236115,374.067993 322.950195,378.893433 319.422821,383.300140 
	C311.383606,391.316742 308.857147,401.704376 308.189606,412.349792 
	C306.954712,432.042969 316.010223,447.729309 329.682861,460.889618 
	C333.707764,464.763641 339.201447,467.111725 344.320068,470.750275 
	C366.731689,485.276184 391.681091,487.436066 417.406433,485.646484 
	C419.964050,485.468536 422.472565,484.584991 425.852142,484.039734 
M272.454437,206.967392 
	C274.113434,203.609421 275.772430,200.251450 277.431427,196.893478 
	C278.188385,204.683594 278.064636,212.296555 278.224243,219.903564 
	C278.374542,227.066544 283.119354,232.014191 289.485870,232.027069 
	C295.837006,232.039917 300.739288,227.070816 300.774658,219.934067 
	C300.893585,195.941559 300.878967,171.947891 300.785339,147.955170 
	C300.761597,141.871628 296.760468,136.445297 292.003937,135.288544 
	C286.871796,134.040466 282.327881,136.328476 279.158325,142.492447 
	C274.900024,150.773743 271.027039,159.253281 266.993713,167.650146 
	C265.073090,171.648636 263.164185,175.652725 260.796814,180.601456 
	C259.455444,177.990601 258.614349,176.429581 257.840881,174.835739 
	C252.535080,163.902466 247.357040,152.905212 241.899338,142.048462 
	C239.172256,136.623596 234.427078,134.233063 229.821014,135.301300 
	C224.475327,136.541061 221.019638,140.677658 221.002411,146.499847 
	C220.928467,171.492401 220.931198,196.485428 221.009750,221.477951 
	C221.025833,226.594055 225.261230,231.287430 229.988388,231.977631 
	C235.593948,232.796097 240.636078,230.102982 241.845856,224.471344 
	C242.911316,219.511581 242.702805,214.263031 242.895752,209.135956 
	C243.038895,205.332138 242.923920,201.518600 242.923920,197.709396 
	C243.375412,197.663498 243.826920,197.617599 244.278412,197.571701 
	C245.250793,199.649490 246.179733,201.749023 247.207260,203.799179 
	C248.323151,206.025620 249.502625,208.221558 250.703568,210.403732 
	C254.590851,217.467087 262.090454,219.295380 267.821228,214.240891 
	C269.719788,212.566391 270.708771,209.860596 272.454437,206.967392 
M447.026672,200.500000 
	C447.023560,182.843979 447.038513,165.187912 447.008789,147.531937 
	C446.996460,140.204300 442.681641,135.275162 436.268555,135.127686 
	C429.916718,134.981644 425.266052,139.884888 425.117157,147.276917 
	C424.956177,155.268890 425.076843,163.266510 425.074860,171.261673 
	C425.074432,172.983856 425.074799,174.706039 425.074799,176.428207 
	C424.652252,176.516922 424.229736,176.605637 423.807190,176.694351 
	C423.062378,175.527969 422.268433,174.389786 421.580475,173.190781 
	C415.215057,162.097366 408.954315,150.942657 402.471527,139.918472 
	C400.003204,135.721008 395.944489,134.310928 391.278748,135.492905 
	C386.270721,136.761566 383.151031,140.615433 382.976532,145.489853 
	C382.655457,154.459091 382.222473,163.433594 382.256958,172.404266 
	C382.318329,188.372635 382.685364,204.339920 382.940491,220.307404 
	C383.060791,227.836929 386.875153,232.022919 393.563721,232.021729 
	C400.179565,232.020554 404.781128,227.251205 404.853546,220.092392 
	C404.941162,211.431824 404.861542,202.769653 404.899506,194.108398 
	C404.904602,192.944199 405.173431,191.781158 405.493652,189.240936 
	C407.120270,192.254517 408.017059,194.011124 408.998688,195.718979 
	C414.962372,206.094330 420.832916,216.525803 426.973633,226.795593 
	C429.675690,231.314529 434.892548,233.062469 439.456757,231.628555 
	C443.805023,230.262482 446.936768,225.954086 446.995544,220.987946 
	C447.072388,214.492737 447.022217,207.996033 447.026672,200.500000 
M477.236908,229.493500 
	C478.179016,229.822739 479.115814,230.168137 480.063995,230.478790 
	C493.512878,234.884949 509.583099,230.383957 517.812683,216.869904 
	C523.475708,207.570435 523.604675,197.564056 522.413391,187.440689 
	C521.859863,182.736420 518.566772,179.205475 513.424011,178.769180 
	C508.313812,178.335602 503.113251,177.956619 498.034668,178.432434 
	C492.407898,178.959610 489.089935,183.520752 488.929443,189.155228 
	C488.714142,196.711029 493.459473,199.565887 500.072815,200.711761 
	C499.981232,201.820267 500.078522,202.680893 499.821747,203.418182 
	C498.244354,207.947571 494.103180,210.509842 489.284088,210.030273 
	C484.342102,209.538483 480.374237,205.376022 480.173065,199.253357 
	C479.839600,189.103455 479.840576,178.926315 480.191101,168.777603 
	C480.345673,164.301849 481.513031,159.724930 486.687744,157.971848 
	C493.000641,155.833145 497.595490,158.397766 500.436829,165.570435 
	C502.990387,172.016510 508.885254,175.372223 514.517090,173.585739 
	C520.099487,171.814941 523.279968,165.308411 521.688232,158.915314 
	C518.177124,144.813522 504.073669,134.639114 488.695343,135.113968 
	C474.946198,135.538498 460.894104,146.829956 459.261200,160.536057 
	C457.851807,172.366180 458.440430,184.433029 458.120361,196.394547 
	C457.729675,210.997269 463.405579,222.171341 477.236908,229.493500 
M309.320831,219.771500 
	C309.315277,226.526718 312.762756,231.038391 318.630890,231.955490 
	C324.720856,232.907242 330.497620,229.471710 331.216461,222.771973 
	C331.924133,216.176239 335.168823,215.348511 340.433380,215.940094 
	C343.545044,216.289764 347.260345,215.415268 349.631317,216.856415 
	C351.426849,217.947784 351.417358,221.871429 352.401764,224.462250 
	C354.711548,230.541412 360.003998,233.264053 365.905457,231.535248 
	C371.645111,229.853851 374.833038,224.355194 373.506042,218.263641 
	C371.705353,209.997833 369.830597,201.748169 367.996033,193.489716 
	C364.324707,176.962692 360.710052,160.422806 356.961334,143.913361 
	C355.776825,138.696701 351.600983,135.212784 346.190125,135.173492 
	C338.873535,135.120316 330.762207,133.308960 326.573425,142.168625 
	C326.295380,142.756714 326.207581,143.439819 326.065094,144.086197 
	C320.560730,169.054031 315.060364,194.022736 309.320831,219.771500 
M485.474213,320.905975 
	C493.662140,324.998352 501.846924,329.097107 510.038788,333.181641 
	C523.741577,340.014008 537.420593,346.894989 551.168823,353.634705 
	C556.303101,356.151611 561.545044,355.173218 564.916199,351.469360 
	C568.215332,347.844635 569.086853,342.393311 566.025269,338.606140 
	C563.927063,336.010620 560.806519,333.991547 557.770508,332.446686 
	C543.248108,325.056824 528.591248,317.931580 514.007751,310.660889 
	C512.813416,310.065399 511.811066,309.084747 510.251587,307.939362 
	C512.219238,306.939362 513.381714,306.339508 514.551941,305.755188 
	C530.037231,298.022705 545.527893,290.300873 561.007141,282.556274 
	C565.426575,280.345154 567.929138,276.778534 567.702271,271.783356 
	C567.505615,267.452515 565.368835,263.451477 561.212646,262.650696 
	C557.451233,261.925934 552.791565,262.292908 549.373657,263.936798 
	C527.632507,274.393524 506.149353,285.385193 484.525146,296.087341 
	C479.131744,298.756592 473.782288,301.455170 473.816010,308.457092 
	C473.850128,315.534637 479.402130,318.109589 485.474213,320.905975 
M281.802673,315.437134 
	C269.596436,321.533844 257.364227,327.579254 245.194031,333.747101 
	C238.278809,337.251709 236.003479,342.879242 238.850647,348.836792 
	C241.725357,354.851959 248.157532,356.756165 255.069168,353.333649 
	C278.161285,341.898773 301.201385,330.359009 324.264893,318.866394 
	C328.766479,316.623260 331.812805,313.312103 331.676361,308.012299 
	C331.546326,302.961243 328.505463,299.789276 324.214447,297.647217 
	C301.456299,286.286621 278.703827,274.914459 255.908096,263.629669 
	C253.855515,262.613586 251.548752,261.806183 249.290466,261.571655 
	C244.053375,261.027740 239.410950,264.721039 237.935852,270.158905 
	C236.688370,274.757629 239.118439,279.718323 244.387070,282.389557 
	C259.670837,290.138519 275.032837,297.733002 290.352722,305.410919 
	C291.768829,306.120636 293.103546,306.992645 295.554718,308.415375 
	C290.592133,310.975098 286.541840,313.064301 281.802673,315.437134 
M286.500000,592.914246 
	C296.666412,592.912476 306.834167,592.997864 316.998199,592.841003 
	C319.239655,592.806458 321.725708,592.381653 323.650757,591.322021 
	C328.242645,588.794373 330.060913,583.777161 328.714478,578.871582 
	C327.433838,574.205872 323.292725,571.110474 317.777222,571.093567 
	C296.277985,571.027588 274.778442,571.054077 253.279022,571.055481 
	C242.112747,571.056213 230.945007,570.972229 219.780731,571.127319 
	C213.238129,571.218201 208.891647,575.947815 209.064255,582.303772 
	C209.234787,588.582642 213.705597,592.857178 220.501770,592.878784 
	C242.167664,592.947815 263.833893,592.910400 286.500000,592.914246 
M238.499573,532.220398 
	C232.190018,532.294373 225.838165,531.939758 219.582199,532.557007 
	C212.638809,533.242126 208.969238,537.541992 209.073074,543.523682 
	C209.176849,549.502441 213.023987,554.158203 219.780502,554.423096 
	C231.546509,554.884155 243.367950,554.834717 255.126694,554.230774 
	C261.977234,553.878906 266.102783,548.688599 265.798035,542.798279 
	C265.498016,536.998352 260.196594,532.400208 253.458054,532.249146 
	C248.806992,532.144836 244.151825,532.223877 238.499573,532.220398 
M221.556046,392.859985 
	C222.687469,398.156708 225.777969,401.457489 231.294724,401.949097 
	C235.757782,402.346741 239.683426,400.838776 241.828812,396.814362 
	C243.678986,393.343750 245.035812,389.546417 246.136719,385.755859 
	C247.572830,380.811096 245.176239,375.645508 240.970932,373.606049 
	C235.837753,371.116516 229.964355,371.873169 227.292099,376.590790 
	C224.588196,381.364319 223.248550,386.910645 221.556046,392.859985 
M526.193237,387.716400 
	C524.613708,394.011047 526.462402,398.397247 531.756958,400.916870 
	C536.603760,403.223480 542.972107,401.942688 545.461548,397.483612 
	C547.699036,393.475861 549.652344,389.119293 550.687866,384.673615 
	C552.396667,377.337006 544.680969,370.886322 537.313293,372.757843 
	C529.788940,374.669128 528.718750,381.207916 526.193237,387.716400 
M257.635590,398.802094 
	C264.505249,403.535736 271.049805,403.157898 274.585815,397.400635 
	C276.649384,394.040802 278.234924,390.302429 279.488251,386.551483 
	C281.042480,381.900024 279.016724,376.683746 275.290558,374.254242 
	C271.450928,371.750793 265.748322,371.897430 262.200470,374.590912 
	C256.650818,378.804077 253.871353,391.875244 257.635590,398.802094 
z"/>
<path fill="#3DD1E0" opacity="1.000000" stroke="none" 
	d="
M173.022247,627.800964 
	C174.513977,627.886230 176.005722,628.045959 177.497452,628.046082 
	C287.517365,628.054321 397.537262,628.050415 507.557159,628.041260 
	C508.720367,628.041138 509.883545,627.959290 511.968292,627.911011 
	C530.508240,627.917114 548.126831,627.961914 565.745056,627.911560 
	C569.542969,627.900696 573.340027,627.546753 577.118896,627.528564 
	C577.100403,627.706299 577.014221,628.053101 576.743896,628.324707 
	C574.307129,628.826355 572.140564,629.056335 570.699402,629.209290 
	C572.757935,632.472717 576.155762,635.553345 576.646484,639.042786 
	C578.607117,652.983337 581.574829,667.427673 568.597168,678.815918 
	C567.470947,678.950256 566.805481,678.998535 566.140015,678.998413 
	C434.697235,678.978149 303.254089,679.107849 171.812119,678.770752 
	C151.400803,678.718384 135.095291,696.643921 138.149048,716.305298 
	C138.095612,716.500854 138.197983,716.893127 138.111359,717.235840 
	C138.055237,718.046265 138.085739,718.513977 138.037827,719.442993 
	C135.555878,745.462280 153.716400,759.030762 176.054977,758.969055 
	C303.029175,758.618652 430.004822,758.803528 556.979980,758.799561 
	C560.936951,758.799438 564.893921,758.726135 568.760193,758.899902 
	C574.518616,762.768921 577.625488,768.251160 577.842407,774.934692 
	C578.062134,781.703064 577.366089,788.499023 577.132812,795.284973 
	C576.897156,802.139893 572.538025,805.874512 567.067505,808.806091 
	C564.074829,808.876587 561.082214,809.008362 558.089539,809.008606 
	C429.320282,809.020508 300.550385,808.789246 171.782181,809.155884 
	C130.309082,809.273926 92.535774,779.355713 87.572495,734.220215 
	C86.257942,722.265869 87.851517,709.991699 88.341278,697.176392 
	C91.798981,680.131836 98.601814,665.538391 110.617653,653.811218 
	C116.045570,648.513733 122.198753,643.959351 128.385223,639.036560 
	C142.601257,631.696045 157.359222,627.960327 173.022247,627.800964 
z"/>
<path fill="#FDAFE1" opacity="1.000000" stroke="none" 
	d="
M574.920532,139.047699 
	C575.937622,137.981644 577.841370,136.910614 577.835449,135.850266 
	C577.771851,124.485466 578.078796,113.044785 576.780762,101.798416 
	C576.286682,97.516853 571.917175,93.682549 569.178040,89.346802 
	C586.540710,89.035645 604.039185,88.992584 621.537598,89.023552 
	C628.193665,89.035332 634.320251,94.683075 634.999695,101.298088 
	C635.118408,102.453705 635.052979,103.629425 635.052979,104.795860 
	C635.054565,221.953537 635.054382,339.111206 635.051086,456.268890 
	C635.051025,457.268280 635.006958,458.267700 634.461304,459.763550 
	C615.307068,460.223083 596.674866,460.186188 578.042603,460.149292 
	C578.024353,442.381836 578.073303,424.613647 577.878174,406.848114 
	C577.859680,405.168793 576.308350,403.506287 575.209839,401.443665 
	C575.572144,400.521454 576.272766,400.060608 576.802124,399.451019 
	C583.028687,392.281097 588.820740,379.283936 577.992981,372.981506 
	C578.011597,326.231659 578.030212,279.481812 578.525024,232.290512 
	C591.271973,232.494431 595.598511,227.673447 593.081299,215.661636 
	C589.316406,197.696198 585.453918,179.748352 581.343384,161.859543 
	C579.576355,154.169678 577.083618,146.646561 574.920532,139.047699 
z"/>
<path fill="#CAC4CC" opacity="1.000000" stroke="none" 
	d="
M138.202499,716.109802 
	C135.095291,696.643921 151.400803,678.718384 171.812119,678.770752 
	C303.254089,679.107849 434.697235,678.978149 566.140015,678.998413 
	C566.805481,678.998535 567.470947,678.950256 569.051514,678.917969 
	C582.971130,679.029663 595.975769,679.148010 608.980347,679.266296 
	C608.662415,692.204041 608.344482,705.141846 607.530212,718.527222 
	C450.727997,718.977112 294.422119,718.979431 138.116257,718.981750 
	C138.085739,718.513977 138.055237,718.046265 138.225891,717.162354 
	C138.590363,716.473022 138.515503,716.260864 138.202499,716.109802 
z"/>
<path fill="#DFDDE1" opacity="1.000000" stroke="none" 
	d="
M138.037827,719.442993 
	C294.422119,718.979431 450.727997,718.977112 607.498474,718.973877 
	C607.980286,729.951721 607.969177,740.930725 608.042908,751.909119 
	C608.055054,753.705994 608.440613,755.500305 608.338867,757.768616 
	C594.966431,758.389893 581.908630,758.538391 568.850891,758.686951 
	C564.893921,758.726135 560.936951,758.799438 556.979980,758.799561 
	C430.004822,758.803528 303.029175,758.618652 176.054977,758.969055 
	C153.716400,759.030762 135.555878,745.462280 138.037827,719.442993 
z"/>
<path fill="#F1EEF2" opacity="1.000000" stroke="none" 
	d="
M87.196136,410.321625 
	C87.131264,408.326324 87.009895,406.331055 87.009666,404.335754 
	C87.000595,325.400726 86.647781,246.462906 87.264969,167.532700 
	C87.410133,148.967133 94.632896,131.865952 107.624451,118.093071 
	C113.542404,111.819206 120.684715,106.700249 127.578232,101.434402 
	C127.592575,105.248894 127.010590,108.690331 127.056686,112.123329 
	C127.298721,130.148727 127.699677,148.171997 127.715363,166.298630 
	C120.206573,168.456833 117.791794,173.229446 117.833649,180.607132 
	C118.065948,221.549362 117.934624,262.493591 117.955788,303.437134 
	C117.959816,311.224060 120.618378,314.602478 127.972137,316.864929 
	C127.649551,321.528412 127.087898,325.790222 127.052948,330.056396 
	C126.936180,344.307617 127.007980,358.560333 126.807777,373.098511 
	C113.470711,385.696899 100.333427,398.009277 87.196136,410.321625 
z"/>
<path fill="#E1DCE1" opacity="1.000000" stroke="none" 
	d="
M128.045410,166.195999 
	C127.699677,148.171997 127.298721,130.148727 127.056686,112.123329 
	C127.010590,108.690331 127.592575,105.248894 127.926331,101.392517 
	C132.905197,98.393639 137.604218,95.063927 142.833298,93.401756 
	C151.614761,90.610374 160.591171,87.958755 170.531372,89.034554 
	C170.665253,163.905426 170.308548,238.759171 170.053589,313.613251 
	C170.031296,320.162262 170.677017,326.713531 170.748337,333.662262 
	C170.310120,334.082947 170.136047,334.105164 169.651276,334.239319 
	C155.553925,347.227783 141.767273,360.104279 127.735489,372.949524 
	C127.490364,372.918213 127.007553,372.812500 127.007553,372.812500 
	C127.007980,358.560333 126.936180,344.307617 127.052948,330.056396 
	C127.087898,325.790222 127.649551,321.528412 128.346115,316.701843 
	C136.671082,315.019745 139.814423,311.388916 139.820663,302.963745 
	C139.851044,261.974609 139.850174,220.985474 139.821686,179.996368 
	C139.815598,171.221970 136.819473,167.801239 128.045410,166.195999 
z"/>
<path fill="#804E9E" opacity="1.000000" stroke="none" 
	d="
M577.899292,460.334595 
	C596.674866,460.186188 615.307068,460.223083 634.395935,460.242462 
	C635.008789,461.706268 635.302002,463.187653 635.301392,464.668945 
	C635.276550,521.548584 635.224915,578.428223 634.814331,635.599487 
	C630.734497,632.159180 627.447021,627.865417 621.331116,627.917236 
	C606.559448,628.042297 591.786621,628.017517 577.014221,628.053101 
	C577.014221,628.053101 577.100403,627.706299 577.066345,627.126831 
	C577.363281,616.842407 577.694275,607.137390 578.473938,597.314575 
	C581.087891,597.164307 583.254028,597.157776 585.418518,597.094604 
	C592.288330,596.894043 596.846863,592.747986 596.973572,586.611267 
	C597.095032,580.731079 592.479736,575.983521 585.934204,575.426880 
	C582.953735,575.173401 579.950378,575.188843 576.982300,574.673645 
	C577.008789,570.527832 577.010315,566.790527 577.361206,562.952759 
	C585.195435,560.283630 587.431152,556.943298 587.488586,547.568115 
	C587.575195,533.420044 587.544006,519.271057 587.507629,505.122559 
	C587.488037,497.515015 584.470154,493.663025 577.026062,491.079956 
	C577.028992,480.817444 577.032715,470.970367 577.036438,461.123260 
	C577.276428,460.922272 577.516235,460.721161 577.899292,460.334595 
z"/>
<path fill="#D7B2ED" opacity="1.000000" stroke="none" 
	d="
M87.017525,578.965759 
	C87.034210,541.237305 87.050896,503.508881 87.498207,465.333740 
	C89.936806,464.214722 92.037132,463.737518 93.937553,462.837982 
	C104.984070,457.609375 115.983582,452.281494 126.999359,447.455200 
	C127.329834,462.336700 127.815720,476.748718 127.950378,491.164062 
	C128.116440,508.940308 128.034286,526.719482 127.950439,544.496887 
	C127.934952,547.779846 127.126770,551.067749 127.213028,554.339417 
	C127.263176,556.241333 128.365204,558.115662 128.844025,560.239014 
	C128.132843,560.945068 127.571556,561.414551 126.616043,561.899414 
	C124.360474,562.514709 122.397476,562.905090 120.655212,563.750366 
	C112.770714,567.575806 105.002083,571.643127 97.077919,575.382141 
	C93.874107,576.893799 90.379684,577.789673 87.017525,578.965759 
z"/>
<path fill="#F0EFF2" opacity="1.000000" stroke="none" 
	d="
M87.008453,579.437744 
	C90.379684,577.789673 93.874107,576.893799 97.077919,575.382141 
	C105.002083,571.643127 112.770714,567.575806 120.655212,563.750366 
	C122.397476,562.905090 124.360474,562.514709 126.615845,562.380737 
	C127.347534,588.253784 127.685211,613.660828 128.022888,639.067871 
	C122.198753,643.959351 116.045570,648.513733 110.617653,653.811218 
	C98.601814,665.538391 91.798981,680.131836 88.313110,696.755127 
	C87.703606,695.137390 87.051704,693.253296 87.048584,691.368164 
	C86.987106,654.215393 87.000908,617.062561 87.008453,579.437744 
z"/>
<path fill="#23BFD4" opacity="1.000000" stroke="none" 
	d="
M568.760193,758.899902 
	C581.908630,758.538391 594.966431,758.389893 608.482056,758.164917 
	C613.733643,758.342834 618.596375,758.176147 623.305054,758.948608 
	C630.702515,760.162170 635.156921,765.216858 635.450073,772.531616 
	C635.743042,779.841248 635.674683,787.174927 635.493713,794.491455 
	C635.269836,803.542603 627.502869,809.398987 619.896973,809.170410 
	C602.606567,808.650574 585.290833,808.973999 567.526428,808.880371 
	C572.538025,805.874512 576.897156,802.139893 577.132812,795.284973 
	C577.366089,788.499023 578.062134,781.703064 577.842407,774.934692 
	C577.625488,768.251160 574.518616,762.768921 568.760193,758.899902 
z"/>
<path fill="#23BED5" opacity="1.000000" stroke="none" 
	d="
M576.743896,628.324707 
	C591.786621,628.017517 606.559448,628.042297 621.331116,627.917236 
	C627.447021,627.865417 630.734497,632.159180 634.752258,636.082153 
	C635.117371,645.749817 635.302673,655.227783 635.205078,664.702820 
	C635.137817,671.231995 631.613586,675.540100 625.067322,677.950439 
	C624.043030,678.055115 623.607483,678.172729 623.171936,678.290344 
	C618.750427,678.547363 614.328979,678.804382 609.443909,679.163818 
	C595.975769,679.148010 582.971130,679.029663 569.512207,678.809326 
	C581.574829,667.427673 578.607117,652.983337 576.646484,639.042786 
	C576.155762,635.553345 572.757935,632.472717 570.699402,629.209290 
	C572.140564,629.056335 574.307129,628.826355 576.743896,628.324707 
z"/>
<path fill="#3ED1E0" opacity="1.000000" stroke="none" 
	d="
M126.998993,446.987183 
	C115.983582,452.281494 104.984070,457.609375 93.937553,462.837982 
	C92.037132,463.737518 89.936806,464.214722 87.555283,464.857513 
	C87.177467,446.952576 87.173195,429.077179 87.182533,410.761688 
	C100.333427,398.009277 113.470711,385.696899 126.807777,373.098511 
	C127.007553,372.812500 127.490364,372.918213 127.738968,373.374207 
	C127.660629,375.774567 127.053337,377.718475 127.049675,379.663483 
	C127.008484,401.549866 127.060051,423.436432 127.093567,445.601501 
	C127.066620,446.249115 127.032806,446.618134 126.998993,446.987183 
z"/>
<path fill="#3DD1E0" opacity="1.000000" stroke="none" 
	d="
M623.384949,678.445984 
	C623.607483,678.172729 624.043030,678.055115 624.709229,677.959167 
	C624.492554,678.187744 624.045288,678.394653 623.384949,678.445984 
z"/>
<path fill="#FB55B6" opacity="1.000000" stroke="none" 
	d="
M484.989960,382.968750 
	C491.550507,386.242035 493.010437,392.977081 494.777344,398.919281 
	C502.671906,425.469299 491.691925,448.944397 469.424011,465.961884 
	C467.586212,467.366333 465.600433,468.577148 463.190063,469.571777 
	C462.459167,468.479065 462.137634,467.707336 461.996490,466.903870 
	C459.312592,451.627777 452.960449,438.586975 440.399353,428.747986 
	C422.727234,414.905670 403.539215,411.302948 382.354340,418.821289 
	C381.415405,419.154510 380.717804,420.167786 379.536621,420.892212 
	C360.788971,426.789795 343.945740,450.388550 344.021973,470.159149 
	C339.201447,467.111725 333.707764,464.763641 329.682861,460.889618 
	C316.010223,447.729309 306.954712,432.042969 308.189606,412.349792 
	C308.857147,401.704376 311.383606,391.316742 320.184204,383.174225 
	C375.627075,383.021790 430.308502,382.995270 484.989960,382.968750 
z"/>
<path fill="#985DBB" opacity="1.000000" stroke="none" 
	d="
M577.011841,563.053284 
	C577.010315,566.790527 577.008789,570.527832 576.522583,574.747192 
	C569.578369,575.261414 563.105469,575.047546 556.662842,575.394897 
	C550.259705,575.740234 545.914490,580.480347 546.001953,586.310486 
	C546.093750,592.426575 550.680420,596.883362 557.194214,597.052490 
	C564.136536,597.232849 571.081482,597.310181 578.025330,597.432495 
	C577.694275,607.137390 577.363281,616.842407 577.084839,626.949097 
	C573.340027,627.546753 569.542969,627.900696 565.745056,627.911560 
	C548.126831,627.961914 530.508240,627.917114 512.423340,627.805298 
	C511.951294,590.119019 511.595001,552.529541 512.063599,514.950317 
	C512.375610,489.930939 535.353577,465.184906 560.230896,461.937103 
	C565.477173,461.252167 570.814514,461.264496 576.573120,461.039398 
	C577.032715,470.970367 577.028992,480.817444 576.647156,491.228668 
	C573.364807,493.177521 570.174561,494.174377 567.631714,496.049225 
	C564.722412,498.194244 562.355103,501.087311 559.811340,503.712433 
	C553.735229,509.982727 554.812439,517.446472 562.122192,522.126404 
	C563.573364,523.055481 564.960083,525.281006 565.030579,526.964966 
	C565.342834,534.429932 565.148682,541.915588 565.168091,549.393616 
	C565.189880,557.807556 568.745911,561.890930 577.011841,563.053284 
z"/>
<path fill="#FB57B7" opacity="1.000000" stroke="none" 
	d="
M272.283997,207.296860 
	C270.708771,209.860596 269.719788,212.566391 267.821228,214.240891 
	C262.090454,219.295380 254.590851,217.467087 250.703568,210.403732 
	C249.502625,208.221558 248.323151,206.025620 247.207260,203.799179 
	C246.179733,201.749023 245.250793,199.649490 244.278412,197.571701 
	C243.826920,197.617599 243.375412,197.663498 242.923920,197.709396 
	C242.923920,201.518600 243.038895,205.332138 242.895752,209.135956 
	C242.702805,214.263031 242.911316,219.511581 241.845856,224.471344 
	C240.636078,230.102982 235.593948,232.796097 229.988388,231.977631 
	C225.261230,231.287430 221.025833,226.594055 221.009750,221.477951 
	C220.931198,196.485428 220.928467,171.492401 221.002411,146.499847 
	C221.019638,140.677658 224.475327,136.541061 229.821014,135.301300 
	C234.427078,134.233063 239.172256,136.623596 241.899338,142.048462 
	C247.357040,152.905212 252.535080,163.902466 257.840881,174.835739 
	C258.614349,176.429581 259.455444,177.990601 260.796814,180.601456 
	C263.164185,175.652725 265.073090,171.648636 266.993713,167.650146 
	C271.027039,159.253281 274.900024,150.773743 279.158325,142.492447 
	C282.327881,136.328476 286.871796,134.040466 292.003937,135.288544 
	C296.760468,136.445297 300.761597,141.871628 300.785339,147.955170 
	C300.878967,171.947891 300.893585,195.941559 300.774658,219.934067 
	C300.739288,227.070816 295.837006,232.039917 289.485870,232.027069 
	C283.119354,232.014191 278.374542,227.066544 278.224243,219.903564 
	C278.064636,212.296555 278.188385,204.683594 277.431427,196.893478 
	C275.772430,200.251450 274.113434,203.609421 272.283997,207.296860 
z"/>
<path fill="#FB57B7" opacity="1.000000" stroke="none" 
	d="
M447.026672,200.999985 
	C447.022217,207.996033 447.072388,214.492737 446.995544,220.987946 
	C446.936768,225.954086 443.805023,230.262482 439.456757,231.628555 
	C434.892548,233.062469 429.675690,231.314529 426.973633,226.795593 
	C420.832916,216.525803 414.962372,206.094330 408.998688,195.718979 
	C408.017059,194.011124 407.120270,192.254517 405.493652,189.240936 
	C405.173431,191.781158 404.904602,192.944199 404.899506,194.108398 
	C404.861542,202.769653 404.941162,211.431824 404.853546,220.092392 
	C404.781128,227.251205 400.179565,232.020554 393.563721,232.021729 
	C386.875153,232.022919 383.060791,227.836929 382.940491,220.307404 
	C382.685364,204.339920 382.318329,188.372635 382.256958,172.404266 
	C382.222473,163.433594 382.655457,154.459091 382.976532,145.489853 
	C383.151031,140.615433 386.270721,136.761566 391.278748,135.492905 
	C395.944489,134.310928 400.003204,135.721008 402.471527,139.918472 
	C408.954315,150.942657 415.215057,162.097366 421.580475,173.190781 
	C422.268433,174.389786 423.062378,175.527969 423.807190,176.694351 
	C424.229736,176.605637 424.652252,176.516922 425.074799,176.428207 
	C425.074799,174.706039 425.074432,172.983856 425.074860,171.261673 
	C425.076843,163.266510 424.956177,155.268890 425.117157,147.276917 
	C425.266052,139.884888 429.916718,134.981644 436.268555,135.127686 
	C442.681641,135.275162 446.996460,140.204300 447.008789,147.531937 
	C447.038513,165.187912 447.023560,182.843979 447.026672,200.999985 
z"/>
<path fill="#C89CE4" opacity="1.000000" stroke="none" 
	d="
M126.999359,447.455200 
	C127.032806,446.618134 127.066620,446.249115 127.473503,445.549896 
	C141.240875,438.806946 154.651184,432.427002 167.998886,425.918671 
	C169.059875,425.401337 169.687546,423.995331 170.516571,423.002319 
	C170.682053,424.633514 170.985046,426.264221 170.990921,427.895996 
	C171.032806,439.540466 171.115784,451.186188 170.993851,462.829529 
	C170.727676,488.242340 170.347534,513.653931 169.643463,539.577271 
	C155.846603,546.726440 142.420273,553.364441 128.993927,560.002380 
	C128.365204,558.115662 127.263176,556.241333 127.213028,554.339417 
	C127.126770,551.067749 127.934952,547.779846 127.950439,544.496887 
	C128.034286,526.719482 128.116440,508.940308 127.950378,491.164062 
	C127.815720,476.748718 127.329834,462.336700 126.999359,447.455200 
z"/>
<path fill="#F2EEF2" opacity="1.000000" stroke="none" 
	d="
M484.987885,382.589691 
	C430.308502,382.995270 375.627075,383.021790 320.480164,383.002502 
	C322.950195,378.893433 325.236115,374.067993 328.942474,370.909180 
	C340.233826,361.285828 352.715271,353.245636 367.259186,349.555267 
	C376.175903,347.292786 385.410828,345.724426 394.583649,345.161896 
	C408.489838,344.309082 422.428680,344.637970 436.013763,348.798218 
	C454.291351,354.395599 470.470886,363.300964 483.203003,377.815308 
	C484.187714,378.937897 484.409454,380.729828 484.987885,382.589691 
z"/>
<path fill="#FA58B7" opacity="1.000000" stroke="none" 
	d="
M476.894257,229.321518 
	C463.405579,222.171341 457.729675,210.997269 458.120361,196.394547 
	C458.440430,184.433029 457.851807,172.366180 459.261200,160.536057 
	C460.894104,146.829956 474.946198,135.538498 488.695343,135.113968 
	C504.073669,134.639114 518.177124,144.813522 521.688232,158.915314 
	C523.279968,165.308411 520.099487,171.814941 514.517090,173.585739 
	C508.885254,175.372223 502.990387,172.016510 500.436829,165.570435 
	C497.595490,158.397766 493.000641,155.833145 486.687744,157.971848 
	C481.513031,159.724930 480.345673,164.301849 480.191101,168.777603 
	C479.840576,178.926315 479.839600,189.103455 480.173065,199.253357 
	C480.374237,205.376022 484.342102,209.538483 489.284088,210.030273 
	C494.103180,210.509842 498.244354,207.947571 499.821747,203.418182 
	C500.078522,202.680893 499.981232,201.820267 500.072815,200.711761 
	C493.459473,199.565887 488.714142,196.711029 488.929443,189.155228 
	C489.089935,183.520752 492.407898,178.959610 498.034668,178.432434 
	C503.113251,177.956619 508.313812,178.335602 513.424011,178.769180 
	C518.566772,179.205475 521.859863,182.736420 522.413391,187.440689 
	C523.604675,197.564056 523.475708,207.570435 517.812683,216.869904 
	C509.583099,230.383957 493.512878,234.884949 480.063995,230.478790 
	C479.115814,230.168137 478.179016,229.822739 476.894257,229.321518 
z"/>
<path fill="#FB57B7" opacity="1.000000" stroke="none" 
	d="
M574.628113,138.860275 
	C577.083618,146.646561 579.576355,154.169678 581.343384,161.859543 
	C585.453918,179.748352 589.316406,197.696198 593.081299,215.661636 
	C595.598511,227.673447 591.271973,232.494431 578.572144,231.809509 
	C574.896667,228.393951 571.982422,225.002029 571.577698,219.852982 
	C571.466919,218.444077 568.644287,217.055283 566.845337,216.054092 
	C565.954285,215.558182 564.561829,215.961334 563.396240,215.960815 
	C554.016541,215.956711 554.016541,215.956924 550.997681,224.595200 
	C549.117798,229.974304 544.437866,232.825592 538.905579,231.962357 
	C533.903564,231.181885 529.402161,226.291611 530.135498,220.946198 
	C531.349487,212.096725 533.318726,203.340012 535.214294,194.597229 
	C538.693604,178.550156 542.305725,162.531387 545.951294,146.521042 
	C548.072021,137.207489 550.856018,135.025284 560.497986,135.145630 
	C565.352417,135.206223 570.655762,133.862610 574.628113,138.860275 
M563.867737,181.844818 
	C563.290833,180.125198 562.713989,178.405579 562.137085,176.685959 
	C561.817261,176.768326 561.497375,176.850693 561.177551,176.933060 
	C560.024109,182.725922 558.870605,188.518799 557.700867,194.393631 
	C566.099182,195.275970 566.346069,195.016678 565.023743,187.964630 
	C564.690552,186.187546 564.297180,184.421753 563.867737,181.844818 
z"/>
<path fill="#FB57B7" opacity="1.000000" stroke="none" 
	d="
M309.440125,219.381409 
	C315.060364,194.022736 320.560730,169.054031 326.065094,144.086197 
	C326.207581,143.439819 326.295380,142.756714 326.573425,142.168625 
	C330.762207,133.308960 338.873535,135.120316 346.190125,135.173492 
	C351.600983,135.212784 355.776825,138.696701 356.961334,143.913361 
	C360.710052,160.422806 364.324707,176.962692 367.996033,193.489716 
	C369.830597,201.748169 371.705353,209.997833 373.506042,218.263641 
	C374.833038,224.355194 371.645111,229.853851 365.905457,231.535248 
	C360.003998,233.264053 354.711548,230.541412 352.401764,224.462250 
	C351.417358,221.871429 351.426849,217.947784 349.631317,216.856415 
	C347.260345,215.415268 343.545044,216.289764 340.433380,215.940094 
	C335.168823,215.348511 331.924133,216.176239 331.216461,222.771973 
	C330.497620,229.471710 324.720856,232.907242 318.630890,231.955490 
	C312.762756,231.038391 309.315277,226.526718 309.440125,219.381409 
M340.720276,194.867584 
	C342.916931,194.710831 346.222687,195.503159 345.697693,191.884811 
	C344.985352,186.975082 343.400940,182.191879 342.190521,177.354416 
	C339.740723,182.368546 338.395050,187.391907 337.389038,192.482407 
	C337.270905,193.080154 339.021942,194.047302 340.720276,194.867584 
z"/>
<path fill="#FD95D2" opacity="1.000000" stroke="none" 
	d="
M344.171021,470.454712 
	C343.945740,450.388550 360.788971,426.789795 379.980347,420.937805 
	C387.487061,423.109802 394.755371,424.235168 400.767548,427.602997 
	C422.648926,439.860413 429.419556,460.802612 425.003845,484.028931 
	C422.472565,484.584991 419.964050,485.468536 417.406433,485.646484 
	C391.681091,487.436066 366.731689,485.276184 344.171021,470.454712 
z"/>
<path fill="#5B515A" opacity="1.000000" stroke="none" 
	d="
M485.139221,320.748047 
	C479.402130,318.109589 473.850128,315.534637 473.816010,308.457092 
	C473.782288,301.455170 479.131744,298.756592 484.525146,296.087341 
	C506.149353,285.385193 527.632507,274.393524 549.373657,263.936798 
	C552.791565,262.292908 557.451233,261.925934 561.212646,262.650696 
	C565.368835,263.451477 567.505615,267.452515 567.702271,271.783356 
	C567.929138,276.778534 565.426575,280.345154 561.007141,282.556274 
	C545.527893,290.300873 530.037231,298.022705 514.551941,305.755188 
	C513.381714,306.339508 512.219238,306.939362 510.251587,307.939362 
	C511.811066,309.084747 512.813416,310.065399 514.007751,310.660889 
	C528.591248,317.931580 543.248108,325.056824 557.770508,332.446686 
	C560.806519,333.991547 563.927063,336.010620 566.025269,338.606140 
	C569.086853,342.393311 568.215332,347.844635 564.916199,351.469360 
	C561.545044,355.173218 556.303101,356.151611 551.168823,353.634705 
	C537.420593,346.894989 523.741577,340.014008 510.038788,333.181641 
	C501.846924,329.097107 493.662140,324.998352 485.139221,320.748047 
z"/>
<path fill="#5A5159" opacity="1.000000" stroke="none" 
	d="
M282.147095,315.295288 
	C286.541840,313.064301 290.592133,310.975098 295.554718,308.415375 
	C293.103546,306.992645 291.768829,306.120636 290.352722,305.410919 
	C275.032837,297.733002 259.670837,290.138519 244.387070,282.389557 
	C239.118439,279.718323 236.688370,274.757629 237.935852,270.158905 
	C239.410950,264.721039 244.053375,261.027740 249.290466,261.571655 
	C251.548752,261.806183 253.855515,262.613586 255.908096,263.629669 
	C278.703827,274.914459 301.456299,286.286621 324.214447,297.647217 
	C328.505463,299.789276 331.546326,302.961243 331.676361,308.012299 
	C331.812805,313.312103 328.766479,316.623260 324.264893,318.866394 
	C301.201385,330.359009 278.161285,341.898773 255.069168,353.333649 
	C248.157532,356.756165 241.725357,354.851959 238.850647,348.836792 
	C236.003479,342.879242 238.278809,337.251709 245.194031,333.747101 
	C257.364227,327.579254 269.596436,321.533844 282.147095,315.295288 
z"/>
<path fill="#24BED5" opacity="1.000000" stroke="none" 
	d="
M170.439850,422.537933 
	C169.687546,423.995331 169.059875,425.401337 167.998886,425.918671 
	C154.651184,432.427002 141.240875,438.806946 127.466629,445.271362 
	C127.060051,423.436432 127.008484,401.549866 127.049675,379.663483 
	C127.053337,377.718475 127.660629,375.774567 127.984093,373.405487 
	C141.767273,360.104279 155.553925,347.227783 169.660553,334.553711 
	C170.191147,335.107422 170.401749,335.458679 170.612335,335.809906 
	C170.502182,343.614471 170.306320,351.418945 170.298370,359.223633 
	C170.277039,380.173553 170.336044,401.123566 170.439850,422.537933 
z"/>
<path fill="#DFDCE3" opacity="1.000000" stroke="none" 
	d="
M128.844025,560.239014 
	C142.420273,553.364441 155.846603,546.726440 169.627167,540.046021 
	C169.989212,566.996460 169.935532,593.989807 170.127762,620.981506 
	C170.142334,623.025085 171.904434,625.056213 172.938232,627.447021 
	C157.359222,627.960327 142.601257,631.696045 128.385239,639.036560 
	C127.685211,613.660828 127.347534,588.253784 127.010056,562.365356 
	C127.571556,561.414551 128.132843,560.945068 128.844025,560.239014 
z"/>
<path fill="#9B5FBC" opacity="1.000000" stroke="none" 
	d="
M286.000000,592.914185 
	C263.833893,592.910400 242.167664,592.947815 220.501770,592.878784 
	C213.705597,592.857178 209.234787,588.582642 209.064255,582.303772 
	C208.891647,575.947815 213.238129,571.218201 219.780731,571.127319 
	C230.945007,570.972229 242.112747,571.056213 253.279022,571.055481 
	C274.778442,571.054077 296.277985,571.027588 317.777222,571.093567 
	C323.292725,571.110474 327.433838,574.205872 328.714478,578.871582 
	C330.060913,583.777161 328.242645,588.794373 323.650757,591.322021 
	C321.725708,592.381653 319.239655,592.806458 316.998199,592.841003 
	C306.834167,592.997864 296.666412,592.912476 286.000000,592.914185 
z"/>
<path fill="#FC76C3" opacity="1.000000" stroke="none" 
	d="
M425.427979,484.034302 
	C429.419556,460.802612 422.648926,439.860413 400.767548,427.602997 
	C394.755371,424.235168 387.487061,423.109802 380.351471,420.909851 
	C380.717804,420.167786 381.415405,419.154510 382.354340,418.821289 
	C403.539215,411.302948 422.727234,414.905670 440.399353,428.747986 
	C452.960449,438.586975 459.312592,451.627777 461.996490,466.903870 
	C462.137634,467.707336 462.459167,468.479065 462.846863,469.617188 
	C451.821381,477.842743 439.142883,481.749359 425.427979,484.034302 
z"/>
<path fill="#9A5EBB" opacity="1.000000" stroke="none" 
	d="
M238.999023,532.220703 
	C244.151825,532.223877 248.806992,532.144836 253.458054,532.249146 
	C260.196594,532.400208 265.498016,536.998352 265.798035,542.798279 
	C266.102783,548.688599 261.977234,553.878906 255.126694,554.230774 
	C243.367950,554.834717 231.546509,554.884155 219.780502,554.423096 
	C213.023987,554.158203 209.176849,549.502441 209.073074,543.523682 
	C208.969238,537.541992 212.638809,533.242126 219.582199,532.557007 
	C225.838165,531.939758 232.190018,532.294373 238.999023,532.220703 
z"/>
<path fill="#F95AB7" opacity="1.000000" stroke="none" 
	d="
M221.433685,392.489197 
	C223.248550,386.910645 224.588196,381.364319 227.292099,376.590790 
	C229.964355,371.873169 235.837753,371.116516 240.970932,373.606049 
	C245.176239,375.645508 247.572830,380.811096 246.136719,385.755859 
	C245.035812,389.546417 243.678986,393.343750 241.828812,396.814362 
	C239.683426,400.838776 235.757782,402.346741 231.294724,401.949097 
	C225.777969,401.457489 222.687469,398.156708 221.433685,392.489197 
z"/>
<path fill="#FA5AB7" opacity="1.000000" stroke="none" 
	d="
M526.350281,387.360107 
	C528.718750,381.207916 529.788940,374.669128 537.313293,372.757843 
	C544.680969,370.886322 552.396667,377.337006 550.687866,384.673615 
	C549.652344,389.119293 547.699036,393.475861 545.461548,397.483612 
	C542.972107,401.942688 536.603760,403.223480 531.756958,400.916870 
	C526.462402,398.397247 524.613708,394.011047 526.350281,387.360107 
z"/>
<path fill="#FA59B7" opacity="1.000000" stroke="none" 
	d="
M577.624573,372.985962 
	C588.820740,379.283936 583.028687,392.281097 576.802124,399.451019 
	C576.272766,400.060608 575.572144,400.521454 574.781189,401.329376 
	C561.598633,404.574432 555.470459,393.875671 560.948547,383.642090 
	C563.266357,379.312164 564.196106,373.977570 570.993042,372.928711 
	C572.863708,372.863922 573.963196,372.804993 575.062622,372.746094 
	C575.793823,372.827545 576.524963,372.908966 577.624573,372.985962 
z"/>
<path fill="#F95AB7" opacity="1.000000" stroke="none" 
	d="
M257.410950,398.486633 
	C253.871353,391.875244 256.650818,378.804077 262.200470,374.590912 
	C265.748322,371.897430 271.450928,371.750793 275.290558,374.254242 
	C279.016724,376.683746 281.042480,381.900024 279.488251,386.551483 
	C278.234924,390.302429 276.649384,394.040802 274.585815,397.400635 
	C271.049805,403.157898 264.505249,403.535736 257.410950,398.486633 
z"/>
<path fill="#FDAFE1" opacity="1.000000" stroke="none" 
	d="
M574.970947,372.430939 
	C573.963196,372.804993 572.863708,372.863922 571.354797,372.856384 
	C572.256653,372.565216 573.567993,372.340515 574.970947,372.430939 
z"/>
<path fill="#C89CE4" opacity="1.000000" stroke="none" 
	d="
M170.745758,335.624634 
	C170.401749,335.458679 170.191147,335.107422 169.971268,334.441772 
	C170.136047,334.105164 170.310120,334.082947 170.747559,334.056702 
	C170.966995,334.514893 170.923080,334.977142 170.745758,335.624634 
z"/>
<path fill="#DFDDE1" opacity="1.000000" stroke="none" 
	d="
M138.149048,716.305298 
	C138.515503,716.260864 138.590363,716.473022 138.312531,716.819702 
	C138.197983,716.893127 138.095612,716.500854 138.149048,716.305298 
z"/>
<path fill="#83529F" opacity="1.000000" stroke="none" 
	d="
M127.715363,166.298630 
	C136.819473,167.801239 139.815598,171.221970 139.821686,179.996368 
	C139.850174,220.985474 139.851044,261.974609 139.820663,302.963745 
	C139.814423,311.388916 136.671082,315.019745 128.348358,316.302185 
	C120.618378,314.602478 117.959816,311.224060 117.955788,303.437134 
	C117.934624,262.493591 118.065948,221.549362 117.833649,180.607132 
	C117.791794,173.229446 120.206573,168.456833 127.715363,166.298630 
z"/>
<path fill="#EFE9F1" opacity="1.000000" stroke="none" 
	d="
M577.361206,562.952759 
	C568.745911,561.890930 565.189880,557.807556 565.168091,549.393616 
	C565.148682,541.915588 565.342834,534.429932 565.030579,526.964966 
	C564.960083,525.281006 563.573364,523.055481 562.122192,522.126404 
	C554.812439,517.446472 553.735229,509.982727 559.811340,503.712433 
	C562.355103,501.087311 564.722412,498.194244 567.631714,496.049225 
	C570.174561,494.174377 573.364807,493.177521 576.647949,491.644043 
	C584.470154,493.663025 587.488037,497.515015 587.507629,505.122559 
	C587.544006,519.271057 587.575195,533.420044 587.488586,547.568115 
	C587.431152,556.943298 585.195435,560.283630 577.361206,562.952759 
z"/>
<path fill="#F0EBF2" opacity="1.000000" stroke="none" 
	d="
M578.473938,597.314636 
	C571.081482,597.310181 564.136536,597.232849 557.194214,597.052490 
	C550.680420,596.883362 546.093750,592.426575 546.001953,586.310486 
	C545.914490,580.480347 550.259705,575.740234 556.662842,575.394897 
	C563.105469,575.047546 569.578369,575.261414 576.497681,575.155762 
	C579.950378,575.188843 582.953735,575.173401 585.934204,575.426880 
	C592.479736,575.983521 597.095032,580.731079 596.973572,586.611267 
	C596.846863,592.747986 592.288330,596.894043 585.418518,597.094604 
	C583.254028,597.157776 581.087891,597.164307 578.473938,597.314636 
z"/>
<path fill="#FFB6E7" opacity="1.000000" stroke="none" 
	d="
M563.899536,182.247803 
	C564.297180,184.421753 564.690552,186.187546 565.023743,187.964630 
	C566.346069,195.016678 566.099182,195.275970 557.700867,194.393631 
	C558.870605,188.518799 560.024109,182.725922 561.177551,176.933060 
	C561.497375,176.850693 561.817261,176.768326 562.137085,176.685959 
	C562.713989,178.405579 563.290833,180.125198 563.899536,182.247803 
z"/>
<path fill="#FFB5E5" opacity="1.000000" stroke="none" 
	d="
M340.313354,194.855392 
	C339.021942,194.047302 337.270905,193.080154 337.389038,192.482407 
	C338.395050,187.391907 339.740723,182.368546 342.190521,177.354416 
	C343.400940,182.191879 344.985352,186.975082 345.697693,191.884811 
	C346.222687,195.503159 342.916931,194.710831 340.313354,194.855392 
z"/>
</svg>