<svg version="1.1" id="Layer_1" xmlns="http://www.w3.org/2000/svg" xmlns:xlink="http://www.w3.org/1999/xlink" x="0px" y="0px"
	 width="100%" viewBox="0 0 720 896" enable-background="new 0 0 720 896" xml:space="preserve">
<path fill="#FFFFFF" opacity="1.000000" stroke="none" 
	d="
M385.000000,897.000000 
	C256.666656,897.000000 128.833328,897.000000 1.000000,897.000000 
	C1.000000,598.333313 1.000000,299.666656 1.000000,1.000000 
	C241.000000,1.000000 481.000000,1.000000 721.000000,1.000000 
	C721.000000,299.666656 721.000000,598.333313 721.000000,897.000000 
	C609.166687,897.000000 497.333344,897.000000 385.000000,897.000000 
M30.621902,380.887024 
	C29.964716,384.116943 29.066780,387.319122 28.690729,390.581451 
	C26.739077,407.512543 24.103621,424.420929 23.313063,441.412018 
	C22.675680,455.110992 23.609995,468.995972 25.139036,482.653778 
	C26.976595,499.067322 29.135292,515.586365 33.085484,531.583008 
	C37.200535,548.247253 43.181492,564.503418 49.124512,580.651672 
	C58.653011,606.542419 72.789055,630.053955 89.008682,652.203186 
	C103.162521,671.531372 119.399696,689.072754 137.375137,705.046143 
	C156.041458,721.633484 176.257416,735.845459 197.990051,748.086792 
	C226.110855,763.926270 255.824463,775.541077 287.305969,782.511963 
	C298.762268,785.048584 310.400909,786.761902 322.855988,788.918579 
	C330.786194,789.590271 338.704834,790.603699 346.648682,790.873413 
	C377.627960,791.925232 408.340302,789.863037 438.692047,783.043274 
	C462.285065,777.742188 484.998901,769.892273 506.889252,759.821228 
	C530.183960,749.104004 551.927124,735.684021 572.201660,719.907043 
	C593.564087,703.283447 612.687378,684.355896 629.645386,663.340637 
	C649.665649,638.530273 665.802979,611.287415 677.973816,581.789062 
	C680.740723,575.083008 682.672852,568.032471 685.555847,560.670898 
	C685.994141,559.776245 686.597351,558.924988 686.845947,557.980408 
	C690.468811,544.210693 694.926331,530.585022 697.406433,516.609375 
	C700.465393,499.371796 702.857361,481.891632 703.760803,464.424408 
	C705.169128,437.195923 703.487732,410.003204 697.040344,383.355774 
	C693.422852,368.404205 689.955627,353.353790 685.150024,338.766510 
	C677.602417,315.855713 666.941528,294.304230 654.419312,273.627319 
	C641.631653,252.512192 626.561829,233.192612 609.653381,215.333832 
	C593.983459,198.783310 576.956177,183.603943 557.712158,171.317780 
	C541.814880,161.168274 525.717712,151.114197 508.846558,142.759689 
	C484.722321,130.813477 459.062805,122.794411 432.633301,117.290970 
	C411.137390,112.814857 389.387238,110.627693 367.526123,110.182930 
	C347.462860,109.774742 327.474060,111.684380 307.627716,114.950264 
	C280.812927,119.362869 254.748718,126.591866 230.043808,137.753510 
	C212.862961,145.515778 196.421005,154.977310 179.950897,164.217911 
	C173.223679,167.992264 167.293701,173.187546 160.315506,177.957703 
	C159.742813,178.290024 159.129715,178.568344 158.603256,178.962433 
	C138.967407,193.660767 121.349258,210.495499 105.362892,229.080048 
	C89.043503,248.051788 74.377625,268.245270 63.338612,290.695312 
	C54.858009,307.942352 47.252167,325.699036 40.537186,343.706360 
	C36.161167,355.441376 34.078445,368.031555 30.621902,380.887024 
z"/>
<path fill="#FEBCE2" opacity="1.000000" stroke="none" 
	d="
M161.001007,177.736374 
	C167.293701,173.187546 173.223679,167.992264 179.950897,164.217911 
	C196.421005,154.977310 212.862961,145.515778 230.043808,137.753510 
	C254.748718,126.591866 280.812927,119.362869 307.627716,114.950264 
	C327.474060,111.684380 347.462860,109.774742 367.526123,110.182930 
	C389.387238,110.627693 411.137390,112.814857 432.633301,117.290970 
	C459.062805,122.794411 484.722321,130.813477 508.846558,142.759689 
	C525.717712,151.114197 541.814880,161.168274 557.712158,171.317780 
	C576.956177,183.603943 593.983459,198.783310 609.653381,215.333832 
	C626.561829,233.192612 641.631653,252.512192 654.419312,273.627319 
	C666.941528,294.304230 677.602417,315.855713 685.150024,338.766510 
	C689.955627,353.353790 693.422852,368.404205 697.040344,383.355774 
	C703.487732,410.003204 705.169128,437.195923 703.760803,464.424408 
	C702.857361,481.891632 700.465393,499.371796 697.406433,516.609375 
	C694.926331,530.585022 690.468811,544.210693 686.845947,557.980408 
	C686.597351,558.924988 685.994141,559.776245 684.916504,560.838379 
	C683.376953,560.591370 682.435791,560.247437 681.582581,559.751953 
	C665.896545,550.642883 649.342163,543.737976 631.622253,539.643677 
	C626.566772,538.475525 621.653137,536.693298 617.114746,535.068237 
	C619.359253,534.684143 621.169128,534.174011 622.966797,534.213806 
	C627.505554,534.314148 629.684937,532.117615 630.287476,527.612915 
	C631.082336,526.352600 631.517212,525.205444 632.216675,523.832275 
	C633.013672,521.573486 633.546082,519.540710 634.498474,517.414185 
	C635.133850,516.551941 635.349243,515.783569 635.897339,514.975464 
	C636.877563,512.952881 637.525146,510.970001 638.405334,508.719299 
	C638.428772,507.003296 638.203003,505.557312 638.013000,504.106659 
	C636.390381,491.718872 634.731628,479.335632 633.170288,466.940094 
	C632.039795,457.964325 631.040894,448.972015 630.263733,440.191071 
	C631.986511,443.563141 633.240295,446.836670 634.934082,449.863983 
	C636.159363,452.053955 637.968811,453.917053 639.517700,455.925934 
	C641.480835,454.373871 644.148560,453.218048 645.283325,451.200134 
	C649.854614,443.071716 655.898071,436.889679 664.962158,434.015533 
	C666.224487,433.615265 667.465454,433.127045 668.676392,432.589417 
	C672.949341,430.692169 673.320435,427.547119 669.619446,424.786346 
	C668.953430,424.289459 668.309631,423.746796 667.591370,423.338287 
	C659.451416,418.708557 652.688660,412.920074 650.112244,403.376953 
	C649.644653,401.645020 648.660461,400.003784 647.682251,398.468872 
	C645.774414,395.475250 643.577576,395.276001 641.430664,398.254852 
	C639.978577,400.269653 638.733887,402.436737 637.241699,404.419189 
	C634.108704,408.581451 632.001343,413.866974 625.952393,414.598450 
	C625.244324,408.780334 624.662170,403.359711 623.929688,397.959473 
	C620.619141,373.553314 617.322266,349.145050 613.913574,324.752472 
	C610.001953,296.761841 606.006531,268.782715 601.929016,240.815872 
	C601.690063,239.176758 600.772827,237.232437 599.530396,236.205475 
	C585.418579,224.540787 569.134583,216.641968 551.852905,211.328018 
	C530.153137,204.655518 507.861145,202.288040 485.036713,204.843857 
	C468.831085,206.658554 453.069580,210.137787 437.895538,215.734879 
	C413.216034,224.838135 390.312653,237.459488 369.350647,253.418427 
	C361.068329,259.723969 353.105042,266.448578 344.674957,273.043335 
	C343.918579,273.110443 343.483795,273.116577 342.839783,272.829498 
	C342.062775,272.195526 341.532074,271.754425 340.921722,271.528564 
	C322.350433,264.655792 304.352631,256.392975 284.947205,251.581589 
	C265.603271,246.785431 246.300018,242.819870 226.327988,243.024765 
	C215.894455,243.131805 205.465393,243.676956 194.877655,243.726105 
	C179.951141,226.744827 169.376160,207.780228 163.556122,186.217850 
	C162.786987,183.368393 161.856674,180.562469 161.001007,177.736374 
M313.516174,163.064713 
	C309.940674,157.812057 307.570007,158.124527 303.348846,164.433655 
	C300.866547,168.143753 298.541626,171.966583 295.918854,175.573593 
	C291.265869,181.972763 283.686432,183.721436 277.158813,187.172501 
	C274.871246,188.381927 271.594299,190.291382 271.393677,192.162552 
	C271.187897,194.081909 273.746460,197.153015 275.866302,198.323578 
	C287.179840,204.570801 294.789093,213.584930 298.658417,225.946381 
	C299.261017,227.871567 301.534393,230.766739 302.811188,230.654968 
	C304.989136,230.464340 307.696960,228.708374 308.944550,226.800629 
	C314.975006,217.579147 320.702148,208.233521 332.431213,205.237305 
	C334.339630,204.749802 336.312805,204.036926 337.907471,202.927231 
	C339.702698,201.677994 342.214874,199.951111 342.350800,198.265533 
	C342.477142,196.698700 340.187927,194.460526 338.442383,193.299347 
	C329.490082,187.343979 319.841797,182.189453 316.770813,170.587738 
	C316.141418,168.209976 314.851807,166.006989 313.516174,163.064713 
z"/>
<path fill="#FDBCE1" opacity="1.000000" stroke="none" 
	d="
M321.956329,788.850891 
	C310.400909,786.761902 298.762268,785.048584 287.305969,782.511963 
	C255.824463,775.541077 226.110855,763.926270 197.990051,748.086792 
	C176.257416,735.845459 156.041458,721.633484 137.375137,705.046143 
	C119.399696,689.072754 103.162521,671.531372 89.008682,652.203186 
	C72.789055,630.053955 58.653011,606.542419 49.124512,580.651672 
	C43.181492,564.503418 37.200535,548.247253 33.085484,531.583008 
	C29.135292,515.586365 26.976595,499.067322 25.139036,482.653778 
	C23.609995,468.995972 22.675680,455.110992 23.313063,441.412018 
	C24.103621,424.420929 26.739077,407.512543 28.690729,390.581451 
	C29.066780,387.319122 29.964716,384.116943 31.236565,380.500977 
	C33.506794,380.009491 35.208160,380.114532 36.810806,379.765808 
	C51.841347,376.495544 66.732758,377.546448 81.549873,381.085480 
	C86.664421,382.307068 91.754234,383.632202 96.899261,385.354370 
	C97.418404,390.076355 97.790016,394.368439 98.387482,398.628906 
	C100.546082,414.021851 102.888802,429.389587 104.958817,444.794159 
	C107.469765,463.480133 109.670815,482.207855 112.196350,500.891785 
	C115.031631,521.867188 118.017670,542.822815 121.079071,563.766479 
	C121.832275,568.919495 123.132744,573.992493 124.169250,579.434570 
	C127.652237,582.922485 131.147598,586.077942 134.680984,589.581299 
	C135.712067,590.696777 136.705124,591.464294 137.805511,592.563293 
	C139.877884,594.673950 141.842911,596.453186 143.857208,598.600098 
	C146.398346,602.708313 150.173019,602.414246 153.753464,601.700684 
	C189.222214,594.632629 224.666672,587.442688 260.123901,580.316589 
	C287.106995,574.893738 314.098602,569.513306 341.237671,564.403076 
	C347.545013,570.911560 354.184998,576.729065 359.755371,583.435120 
	C370.980804,596.949219 377.637878,612.688965 380.058716,630.378296 
	C377.082275,632.389709 374.330017,634.110535 371.513794,635.871338 
	C370.929443,634.661987 370.556824,633.919556 370.208588,633.165955 
	C356.748413,604.035828 327.165375,585.918762 296.516235,588.038208 
	C264.033417,590.284424 237.411255,611.263855 227.858383,642.447632 
	C226.593994,646.575012 225.738327,649.537537 220.310928,649.641907 
	C211.865082,649.804443 207.146729,655.283875 207.586700,662.986877 
	C207.993820,670.115112 213.679077,674.910950 221.738632,674.412415 
	C224.618683,674.234253 225.461899,675.144409 225.983139,677.757690 
	C234.567169,720.794556 273.240326,746.630188 316.603790,738.378357 
	C354.784973,731.112671 382.410309,691.562073 376.055756,653.262268 
	C374.756378,645.430786 374.868744,645.197876 381.923615,641.684570 
	C382.304443,645.626404 383.186584,649.138977 382.868591,652.539307 
	C381.683838,665.207275 381.297577,678.113953 378.449677,690.431213 
	C370.050049,726.760437 353.412659,758.748901 325.453278,784.193970 
	C324.042969,785.477417 323.111023,787.286560 321.956329,788.850891 
M51.329609,510.172424 
	C59.090092,514.406494 65.639442,519.784302 68.725281,528.471313 
	C69.391083,530.345642 70.144028,532.190613 70.905525,534.028992 
	C72.358147,537.535889 75.059006,538.228027 77.819321,535.630005 
	C78.998070,534.520569 79.922638,533.059692 80.697411,531.616150 
	C84.685654,524.185120 90.159859,518.677246 98.424568,515.869202 
	C101.565353,514.802063 104.126137,512.027893 106.951294,510.031769 
	C104.432388,507.591980 102.152847,504.821381 99.340813,502.786713 
	C94.634720,499.381531 89.456177,496.618195 87.350121,490.644836 
	C86.249191,487.522308 85.089043,484.384369 83.548019,481.468842 
	C82.802612,480.058594 81.192841,478.361267 79.835571,478.230042 
	C78.508415,478.101715 76.634109,479.507355 75.649803,480.753082 
	C72.987259,484.122681 71.292274,488.543121 68.071564,491.118866 
	C63.120743,495.078247 57.297974,497.993805 51.693325,501.076172 
	C45.953518,504.232788 45.701759,505.540924 51.329609,510.172424 
z"/>
<path fill="#A0D4F3" opacity="1.000000" stroke="none" 
	d="
M380.282928,630.087585 
	C377.637878,612.688965 370.980804,596.949219 359.755371,583.435120 
	C354.184998,576.729065 347.545013,570.911560 341.623474,564.310364 
	C343.795593,563.513123 345.735626,563.108887 347.670227,562.680115 
	C356.685669,560.682434 365.699554,558.677917 375.063660,556.649048 
	C376.637512,556.518127 377.861755,556.414124 379.466064,556.465454 
	C383.230377,556.084045 386.614563,555.547302 390.368378,555.089722 
	C392.167358,554.777649 393.596710,554.386353 395.408417,554.037476 
	C396.811035,554.000916 397.831329,553.921753 399.312378,553.914185 
	C405.403656,553.575317 411.038696,553.218689 416.663818,552.744446 
	C433.546082,551.320923 450.427612,549.887146 467.303528,548.390930 
	C488.147278,546.542908 508.984589,544.622192 529.825684,542.744385 
	C541.902283,541.656250 553.976318,540.536255 566.059631,539.528015 
	C581.943604,538.202637 597.835510,536.973206 613.999573,535.739990 
	C614.589172,535.596436 614.903198,535.415466 615.461365,535.205322 
	C615.705505,535.176270 616.190674,535.146423 616.190674,535.146423 
	C616.190674,535.146423 616.674500,535.192627 616.674500,535.192627 
	C621.653137,536.693298 626.566772,538.475525 631.622253,539.643677 
	C649.342163,543.737976 665.896545,550.642883 681.582581,559.751953 
	C682.435791,560.247437 683.376953,560.591370 684.633179,561.073120 
	C682.672852,568.032471 680.740723,575.083008 677.973816,581.789062 
	C665.802979,611.287415 649.665649,638.530273 629.645386,663.340637 
	C612.687378,684.355896 593.564087,703.283447 572.201660,719.907043 
	C551.927124,735.684021 530.183960,749.104004 506.889252,759.821228 
	C484.998901,769.892273 462.285065,777.742188 438.692047,783.043274 
	C408.340302,789.863037 377.627960,791.925232 346.648682,790.873413 
	C338.704834,790.603699 330.786194,789.590271 322.406158,788.884766 
	C323.111023,787.286560 324.042969,785.477417 325.453278,784.193970 
	C353.412659,758.748901 370.050049,726.760437 378.449677,690.431213 
	C381.297577,678.113953 381.683838,665.207275 382.868591,652.539307 
	C383.186584,649.138977 382.304443,645.626404 382.075989,641.399170 
	C393.384155,633.573853 405.228821,632.378174 417.492645,637.262817 
	C419.198669,637.942383 421.134491,640.318237 421.359589,642.110413 
	C427.046387,687.383850 467.094971,717.114441 511.649597,708.943787 
	C550.100769,701.892395 577.448242,665.113403 572.756531,626.501160 
	C572.341858,623.088135 572.917175,621.519775 576.277588,620.255981 
	C582.492859,617.918274 585.484497,611.635498 583.811584,605.771790 
	C581.973328,599.328186 576.271545,594.912537 569.865662,596.575134 
	C564.530029,597.959839 562.787598,595.574402 560.174438,591.896790 
	C543.082153,567.842651 519.598633,555.892883 490.183899,558.779541 
	C460.268463,561.715271 438.827118,577.767639 427.000214,605.652222 
	C424.065979,612.570312 422.586060,620.105164 420.309387,627.789429 
	C406.729492,622.520569 393.357269,624.084229 380.282928,630.087585 
M423.790924,717.613464 
	C421.983307,713.693054 420.342285,709.683167 418.301971,705.887817 
	C417.182007,703.804504 415.388824,702.082947 413.899200,700.198303 
	C412.100098,701.718445 410.113098,703.067017 408.538177,704.791870 
	C404.338531,709.391052 400.731323,714.629761 396.074249,718.677307 
	C393.077515,721.281921 388.643127,722.234436 384.849823,723.919983 
	C380.060883,726.047852 379.563049,728.778748 384.028168,731.555176 
	C393.295105,737.317444 401.063812,744.080872 404.254639,755.089783 
	C404.802765,756.980957 407.044800,759.488892 408.688568,759.634644 
	C410.248016,759.772888 412.646118,757.519897 413.642242,755.740173 
	C418.354187,747.321472 424.426208,740.673706 434.040588,737.928833 
	C435.298462,737.569702 436.460663,736.828003 437.619568,736.178467 
	C442.015411,733.714600 442.155273,731.387939 438.152130,728.488525 
	C433.467834,725.095886 428.806396,721.671753 423.790924,717.613464 
z"/>
<path fill="#A1D5F4" opacity="1.000000" stroke="none" 
	d="
M96.855347,384.910004 
	C91.754234,383.632202 86.664421,382.307068 81.549873,381.085480 
	C66.732758,377.546448 51.841347,376.495544 36.810806,379.765808 
	C35.208160,380.114532 33.506794,380.009491 31.409803,380.176819 
	C34.078445,368.031555 36.161167,355.441376 40.537186,343.706360 
	C47.252167,325.699036 54.858009,307.942352 63.338612,290.695312 
	C74.377625,268.245270 89.043503,248.051788 105.362892,229.080048 
	C121.349258,210.495499 138.967407,193.660767 158.603256,178.962433 
	C159.129715,178.568344 159.742813,178.290024 160.658264,177.847046 
	C161.856674,180.562469 162.786987,183.368393 163.556122,186.217850 
	C169.376160,207.780228 179.951141,226.744827 194.583298,243.982849 
	C185.416245,246.603714 176.235092,248.165207 167.385223,250.827835 
	C137.662979,259.770172 113.101074,276.743774 92.621315,299.894653 
	C88.469612,304.587860 85.978828,309.487274 86.971008,316.084930 
	C90.417625,339.003784 93.583000,361.964935 96.855347,384.910004 
z"/>
<path fill="#FDDCBE" opacity="1.000000" stroke="none" 
	d="
M96.899261,385.354370 
	C93.583000,361.964935 90.417625,339.003784 86.971008,316.084930 
	C85.978828,309.487274 88.469612,304.587860 92.621315,299.894653 
	C113.101074,276.743774 137.662979,259.770172 167.385223,250.827835 
	C176.235092,248.165207 185.416245,246.603714 194.739960,244.280945 
	C205.465393,243.676956 215.894455,243.131805 226.327988,243.024765 
	C246.300018,242.819870 265.603271,246.785431 284.947205,251.581589 
	C304.352631,256.392975 322.350433,264.655792 340.921722,271.528564 
	C341.532074,271.754425 342.062775,272.195526 342.757690,273.234924 
	C342.932800,275.291534 342.980835,276.649536 342.907990,278.251587 
	C343.099762,279.508057 343.412415,280.520538 343.694794,281.951721 
	C344.017944,284.888214 344.371338,287.405975 344.599487,290.255615 
	C344.775391,291.686096 345.076538,292.784698 345.321686,294.248047 
	C345.494171,296.070740 345.722687,297.528625 345.814026,299.252686 
	C346.036224,300.843719 346.395599,302.168671 346.716553,303.907471 
	C346.988098,306.523834 347.298065,308.726288 347.498627,311.262512 
	C347.673737,312.707092 347.958252,313.817902 348.195221,315.291748 
	C348.379181,317.088684 348.610718,318.522583 348.701355,320.229309 
	C348.928162,321.872528 349.295929,323.242920 349.612854,324.979858 
	C349.716583,326.566467 349.871185,327.786530 349.910217,329.223267 
	C350.041290,330.191986 350.287872,330.944061 350.509766,332.102905 
	C350.831085,334.991821 351.177063,337.474030 351.439423,340.327698 
	C351.775360,342.372528 352.194916,344.045837 352.520386,346.070526 
	C352.608734,347.611908 352.791168,348.801941 352.842438,350.240295 
	C353.038879,351.543762 353.366455,352.598877 353.636505,354.071655 
	C354.695038,364.063538 355.673828,373.656189 356.957336,383.207886 
	C359.233948,400.149902 361.695526,417.067017 364.078369,434.418457 
	C364.670288,438.605469 365.328064,442.359741 365.846252,446.133148 
	C368.872375,468.170685 371.810852,490.220459 374.896484,512.249634 
	C376.192078,521.499268 377.775787,530.708557 379.174011,540.339294 
	C379.287079,541.806091 379.454681,542.869812 379.507202,544.297363 
	C379.811584,546.323608 380.231018,547.985962 380.572968,549.969360 
	C380.112610,554.959229 376.470947,551.500977 374.377228,552.380005 
	C372.034790,551.970581 369.982727,551.808411 367.524048,551.501038 
	C365.391907,551.312988 363.666382,551.270081 361.621033,551.059509 
	C359.603668,550.814270 357.906067,550.736694 355.788147,550.466675 
	C353.243530,550.235535 351.119324,550.196960 348.584747,550.063965 
	C346.776398,549.874023 345.378418,549.778503 343.904633,549.519775 
	C343.547668,549.459229 343.266510,549.561951 342.667023,549.719849 
	C341.922333,549.728210 341.495941,549.681458 340.770050,549.400635 
	C338.346497,548.838318 336.225159,548.243652 334.098053,548.222229 
	C307.538300,547.954651 280.931915,547.078613 254.549484,551.081055 
	C232.316360,554.453918 209.976959,557.475647 188.016296,562.195984 
	C166.519913,566.816406 145.442764,573.387390 124.181618,579.102234 
	C123.132744,573.992493 121.832275,568.919495 121.079071,563.766479 
	C118.017670,542.822815 115.031631,521.867188 112.196350,500.891785 
	C109.670815,482.207855 107.469765,463.480133 104.958817,444.794159 
	C102.888802,429.389587 100.546082,414.021851 98.387482,398.628906 
	C97.790016,394.368439 97.418404,390.076355 96.899261,385.354370 
M247.509171,297.461243 
	C227.431961,297.554443 207.648972,299.979156 188.253098,305.204834 
	C161.361649,312.450012 136.251358,323.603760 113.640198,340.002136 
	C112.171837,341.066986 110.588829,344.331696 111.180412,345.420441 
	C112.725197,348.263367 115.138069,346.406891 117.044365,345.038177 
	C134.610153,332.426178 153.781265,322.939514 174.208679,316.004852 
	C216.434357,301.670258 259.256317,299.742401 302.596405,310.309387 
	C308.891113,311.844177 315.069519,313.867279 321.385193,315.295441 
	C322.675964,315.587311 324.341125,314.223450 325.833710,313.622833 
	C324.921692,312.258057 324.093323,310.823822 323.050201,309.567902 
	C322.705719,309.153168 321.795685,309.234009 321.163574,309.028748 
	C297.545563,301.358551 273.321350,297.510651 247.509171,297.461243 
M311.591797,363.064392 
	C302.736023,361.553558 293.926941,359.641632 285.016052,358.603973 
	C252.839264,354.857025 221.211121,357.881134 190.128662,366.961578 
	C166.682678,373.811096 144.410355,383.267609 123.974419,396.745850 
	C122.564728,397.675629 120.961685,400.578308 121.448441,401.679504 
	C122.749428,404.622681 125.171326,403.263885 127.264061,401.911926 
	C151.992935,385.935913 178.939560,375.236633 207.589310,368.904541 
	C234.314529,362.997803 261.349640,361.131653 288.504120,365.450134 
	C300.301971,367.326355 311.906677,370.395782 323.653595,372.637878 
	C325.319427,372.955872 327.295105,371.650452 329.127380,371.096405 
	C327.876221,369.687744 326.884552,367.593689 325.323761,367.002808 
	C321.143738,365.420349 316.719818,364.482147 311.591797,363.064392 
M256.544312,421.703125 
	C280.792908,419.378998 304.743103,420.968048 328.424957,426.840607 
	C330.125916,427.262390 332.303986,425.760162 334.260254,425.152527 
	C332.796234,423.701965 331.537445,421.338196 329.833496,420.955231 
	C321.403290,419.060455 312.907043,417.271576 304.339294,416.212219 
	C279.360535,413.123932 254.498688,414.369385 229.752823,418.903625 
	C197.463638,424.819977 166.740280,435.285889 137.621384,450.398438 
	C136.004303,451.237701 133.889206,454.207581 134.308746,455.306854 
	C135.617783,458.736633 138.305984,456.760162 140.537598,455.770020 
	C151.622604,450.851776 162.528427,445.464783 173.836746,441.127808 
	C200.192368,431.019928 227.380890,424.130341 256.544312,421.703125 
M158.545105,512.921082 
	C190.284073,497.203217 223.722870,487.061432 258.867645,482.737885 
	C283.699402,479.683044 308.406952,480.525940 332.864349,486.180023 
	C334.156738,486.478790 335.590607,486.982574 336.779907,486.682587 
	C337.987610,486.377930 339.726746,485.298889 339.855011,484.368896 
	C339.996338,483.343964 338.765747,481.868134 337.763947,481.029175 
	C336.947083,480.345062 335.601044,480.244751 334.465424,479.996490 
	C310.827820,474.828796 286.953400,473.830688 262.914307,476.073120 
	C238.263367,478.372589 214.210724,483.701630 191.110718,492.453979 
	C175.606613,498.328308 160.677734,505.739807 145.619827,512.739685 
	C144.317169,513.345215 143.976929,516.021118 143.189621,517.735291 
	C144.973633,517.827576 146.965866,518.473633 148.498581,517.897400 
	C151.746292,516.676392 154.754379,514.818115 158.545105,512.921082 
z"/>
<path fill="#FDDCBD" opacity="1.000000" stroke="none" 
	d="
M629.983276,439.987061 
	C631.040894,448.972015 632.039795,457.964325 633.170288,466.940094 
	C634.731628,479.335632 636.390381,491.718872 638.013000,504.106659 
	C638.203003,505.557312 638.428772,507.003296 637.924927,508.723602 
	C621.277100,508.983582 605.330200,508.580872 589.410645,509.069092 
	C573.499756,509.557037 557.604858,510.782776 541.723145,511.958771 
	C513.693665,514.034363 486.084290,518.975769 459.052277,526.443848 
	C440.536255,531.559326 422.485107,538.374451 404.293060,544.624451 
	C401.963531,545.424744 400.037994,547.401001 397.522186,548.846069 
	C392.898621,550.100952 388.678162,551.342346 384.329742,552.621399 
	C383.136658,547.514954 382.027893,542.769348 381.006409,537.681519 
	C380.770813,535.286621 380.368927,533.242798 380.138062,531.179871 
	C378.805450,519.272217 377.683441,507.338287 376.166718,495.454559 
	C374.001038,478.486176 371.643707,461.540619 369.176331,444.613281 
	C368.457672,439.682983 367.084808,434.848022 366.058899,429.579346 
	C365.805328,426.284393 365.564575,423.371735 365.192902,420.475922 
	C364.023285,411.362762 362.842438,402.250732 361.593323,393.148254 
	C360.515472,385.293640 359.268341,377.461975 358.220734,369.603577 
	C356.509735,356.768646 354.900177,343.920227 353.374817,330.778259 
	C353.258209,329.675171 353.014648,328.871307 352.818024,327.688293 
	C352.589996,325.543152 352.315094,323.777161 352.192017,321.775665 
	C352.018127,320.482819 351.692383,319.425507 351.400665,317.960388 
	C350.680084,312.060150 349.925415,306.567719 349.300201,300.743073 
	C349.072662,299.063873 348.715698,297.716919 348.419373,296.004883 
	C348.309540,294.423767 348.139069,293.207703 348.096954,291.751587 
	C347.907776,290.497955 347.590210,289.484344 347.308533,288.051880 
	C346.985596,285.113556 346.626831,282.594086 346.392944,279.738098 
	C346.171875,278.034363 345.825897,276.667145 345.519348,274.999786 
	C345.371307,274.127228 345.183929,273.554810 344.996521,272.982391 
	C353.105042,266.448578 361.068329,259.723969 369.350647,253.418427 
	C390.312653,237.459488 413.216034,224.838135 437.895538,215.734879 
	C453.069580,210.137787 468.831085,206.658554 485.036713,204.843857 
	C507.861145,202.288040 530.153137,204.655518 551.852905,211.328018 
	C569.134583,216.641968 585.418579,224.540787 599.530396,236.205475 
	C600.772827,237.232437 601.690063,239.176758 601.929016,240.815872 
	C606.006531,268.782715 610.001953,296.761841 613.913574,324.752472 
	C617.322266,349.145050 620.619141,373.553314 623.929688,397.959473 
	C624.662170,403.359711 625.244324,408.780334 625.747803,414.875610 
	C623.045776,416.753784 620.363220,417.739532 617.978760,419.209015 
	C616.125122,420.351349 613.246216,422.183655 613.331360,423.553436 
	C613.451904,425.492798 615.661133,427.527405 617.367126,429.098328 
	C621.451477,432.859344 625.763306,436.373352 629.983276,439.987061 
M438.633759,278.797455 
	C455.697906,273.470337 473.107178,269.908051 490.958923,268.667206 
	C521.203918,266.564880 550.781738,269.952698 579.684937,279.265442 
	C581.441345,279.831329 585.077271,279.227081 585.589478,278.123352 
	C587.174561,274.708282 583.753357,274.048889 581.492065,273.448944 
	C571.374084,270.764496 561.297729,267.794525 551.036438,265.802704 
	C515.775513,258.958221 480.744415,260.613281 446.157745,270.122803 
	C420.136444,277.277283 395.829315,288.275085 373.827667,304.080627 
	C371.788910,305.545227 369.120178,307.281586 371.391663,309.931366 
	C372.116760,310.777252 375.795715,310.166962 377.319916,309.088196 
	C395.949402,295.902924 416.303284,286.269623 438.633759,278.797455 
M551.234985,323.559814 
	C524.431824,320.134033 497.758545,320.735962 471.237671,326.126740 
	C440.304932,332.414276 411.302063,343.555664 384.635010,360.564728 
	C383.662659,361.184906 382.552612,361.810638 381.951294,362.725861 
	C381.401550,363.562592 380.936127,365.168488 381.365387,365.766571 
	C382.000549,366.651459 383.518829,367.474945 384.553619,367.359680 
	C385.934723,367.205841 387.258392,366.202637 388.528717,365.435150 
	C444.419159,331.670563 504.169281,319.442230 568.555481,333.212036 
	C573.587341,334.288147 578.485046,336.019196 583.534790,336.968933 
	C585.238464,337.289337 588.324341,336.663513 588.862183,335.546997 
	C590.322266,332.515869 587.418396,331.781403 585.196228,331.035278 
	C584.408936,330.770905 583.603577,330.546753 582.792297,330.368988 
	C572.564514,328.127960 562.334106,325.898834 551.234985,323.559814 
M452.697845,398.989563 
	C471.335327,394.907837 489.821930,389.827301 508.646454,386.983887 
	C535.357422,382.949249 562.079895,384.690735 588.448853,391.010437 
	C590.187378,391.427063 593.763062,390.460632 594.067566,389.426117 
	C595.069458,386.022705 591.907837,385.774139 589.480835,385.135468 
	C572.476440,380.661041 555.131836,378.679077 537.610901,378.800171 
	C488.268280,379.141052 442.108765,392.216217 398.286102,414.324982 
	C397.107330,414.919708 395.721527,415.471649 394.980835,416.456238 
	C394.333069,417.317291 393.932953,419.054626 394.386780,419.866028 
	C394.868896,420.727966 396.507263,421.397644 397.600067,421.342682 
	C398.824768,421.281128 399.977448,420.247894 401.206879,419.749481 
	C418.110748,412.896332 435.022461,406.062500 452.697845,398.989563 
M535.566284,445.765472 
	C555.458618,444.957672 575.165894,446.183655 594.626465,450.721222 
	C596.230164,451.095184 599.372375,450.173920 599.855286,449.032074 
	C601.172546,445.917725 598.207703,445.000916 595.958130,444.727356 
	C579.957764,442.781555 563.966309,439.836609 547.915588,439.428558 
	C516.684387,438.634644 486.171967,444.281097 456.856537,454.920319 
	C439.569092,461.194305 422.951385,469.317749 406.057068,476.665924 
	C403.798004,477.648499 401.560669,479.370789 403.496155,481.904572 
	C404.210205,482.839325 407.400391,482.721466 408.979950,482.012054 
	C416.101440,478.813751 422.929291,474.953552 430.082062,471.834259 
	C463.442291,457.285950 498.096985,447.815094 535.566284,445.765472 
z"/>
<path fill="#FFFDFE" opacity="1.000000" stroke="none" 
	d="
M313.691345,163.394073 
	C314.851807,166.006989 316.141418,168.209976 316.770813,170.587738 
	C319.841797,182.189453 329.490082,187.343979 338.442383,193.299347 
	C340.187927,194.460526 342.477142,196.698700 342.350800,198.265533 
	C342.214874,199.951111 339.702698,201.677994 337.907471,202.927231 
	C336.312805,204.036926 334.339630,204.749802 332.431213,205.237305 
	C320.702148,208.233521 314.975006,217.579147 308.944550,226.800629 
	C307.696960,228.708374 304.989136,230.464340 302.811188,230.654968 
	C301.534393,230.766739 299.261017,227.871567 298.658417,225.946381 
	C294.789093,213.584930 287.179840,204.570801 275.866302,198.323578 
	C273.746460,197.153015 271.187897,194.081909 271.393677,192.162552 
	C271.594299,190.291382 274.871246,188.381927 277.158813,187.172501 
	C283.686432,183.721436 291.265869,181.972763 295.918854,175.573593 
	C298.541626,171.966583 300.866547,168.143753 303.348846,164.433655 
	C307.570007,158.124527 309.940674,157.812057 313.691345,163.394073 
z"/>
<path fill="#F39C59" opacity="1.000000" stroke="none" 
	d="
M617.114746,535.068237 
	C616.674500,535.192627 616.190674,535.146423 616.190674,535.146423 
	C616.190674,535.146423 615.705505,535.176270 615.184082,535.162476 
	C614.349731,535.333252 614.036865,535.517822 613.723999,535.702454 
	C597.835510,536.973206 581.943604,538.202637 566.059631,539.528015 
	C553.976318,540.536255 541.902283,541.656250 529.825684,542.744385 
	C508.984589,544.622192 488.147278,546.542908 467.303528,548.390930 
	C450.427612,549.887146 433.546082,551.320923 416.663818,552.744446 
	C411.038696,553.218689 405.403656,553.575317 399.611450,553.660522 
	C403.618469,552.478760 407.787170,551.622070 412.362152,550.825439 
	C416.857666,549.985840 420.946899,549.086060 425.364258,548.275757 
	C426.130707,548.266724 426.569000,548.168152 427.286560,548.129517 
	C428.078308,547.992371 428.590851,547.795349 429.549683,547.577515 
	C439.538208,545.740479 449.064209,543.832764 458.627747,542.136841 
	C466.428009,540.753601 474.273132,539.623474 482.550049,538.296509 
	C487.322205,538.101868 491.642700,537.991943 496.381042,537.947815 
	C503.694214,536.882812 510.583160,535.711243 517.486694,534.633179 
	C523.958801,533.622559 530.446350,532.710754 537.326172,531.795410 
	C544.803589,531.143433 551.881836,530.451538 559.378784,529.855713 
	C566.828552,529.380310 573.859680,528.808960 581.223389,528.398743 
	C582.697205,528.347046 583.838318,528.134277 585.409546,527.968994 
	C600.535645,527.919678 615.231567,527.822876 629.927490,527.726074 
	C629.684937,532.117615 627.505554,534.314148 622.966797,534.213806 
	C621.169128,534.174011 619.359253,534.684143 617.114746,535.068237 
z"/>
<path fill="#FFFDFE" opacity="1.000000" stroke="none" 
	d="
M630.263733,440.191071 
	C625.763306,436.373352 621.451477,432.859344 617.367126,429.098328 
	C615.661133,427.527405 613.451904,425.492798 613.331360,423.553436 
	C613.246216,422.183655 616.125122,420.351349 617.978760,419.209015 
	C620.363220,417.739532 623.045776,416.753784 625.804565,415.282501 
	C632.001343,413.866974 634.108704,408.581451 637.241699,404.419189 
	C638.733887,402.436737 639.978577,400.269653 641.430664,398.254852 
	C643.577576,395.276001 645.774414,395.475250 647.682251,398.468872 
	C648.660461,400.003784 649.644653,401.645020 650.112244,403.376953 
	C652.688660,412.920074 659.451416,418.708557 667.591370,423.338287 
	C668.309631,423.746796 668.953430,424.289459 669.619446,424.786346 
	C673.320435,427.547119 672.949341,430.692169 668.676392,432.589417 
	C667.465454,433.127045 666.224487,433.615265 664.962158,434.015533 
	C655.898071,436.889679 649.854614,443.071716 645.283325,451.200134 
	C644.148560,453.218048 641.480835,454.373871 639.517700,455.925934 
	C637.968811,453.917053 636.159363,452.053955 634.934082,449.863983 
	C633.240295,446.836670 631.986511,443.563141 630.263733,440.191071 
z"/>
<path fill="#F59C58" opacity="1.000000" stroke="none" 
	d="
M397.925323,548.832520 
	C400.037994,547.401001 401.963531,545.424744 404.293060,544.624451 
	C422.485107,538.374451 440.536255,531.559326 459.052277,526.443848 
	C486.084290,518.975769 513.693665,514.034363 541.723145,511.958771 
	C557.604858,510.782776 573.499756,509.557037 589.410645,509.069092 
	C605.330200,508.580872 621.277100,508.983582 637.692383,508.991455 
	C637.525146,510.970001 636.877563,512.952881 635.484131,514.818604 
	C632.469116,514.534790 630.199829,514.368164 627.638550,513.952209 
	C625.215515,513.699585 623.084656,513.696289 620.509644,513.552307 
	C609.058960,513.524353 598.052429,513.637146 586.658325,513.593445 
	C584.205933,513.693665 582.141113,513.950317 579.661560,514.129272 
	C564.834717,515.379944 550.422607,516.708252 535.886719,517.803101 
	C535.145874,517.873413 534.528870,518.177063 533.549683,518.589355 
	C531.707825,518.947510 530.228149,519.197144 528.442627,519.421509 
	C527.762329,519.548950 527.387939,519.701538 526.619019,519.828003 
	C524.167419,520.144226 522.110352,520.486511 519.836975,520.680542 
	C518.851318,520.872192 518.081970,521.212036 516.910156,521.503540 
	C512.025513,522.182678 507.543365,522.910217 502.790161,523.532349 
	C502.029327,523.669983 501.539642,523.913025 500.654053,524.140869 
	C472.563202,530.521606 444.868225,536.917480 416.750885,543.382080 
	C415.238434,543.778259 414.148376,544.105774 412.745544,544.371826 
	C411.722748,544.712036 411.012756,545.113708 409.936523,545.498413 
	C405.688660,546.598450 401.806976,547.715454 397.925323,548.832520 
z"/>
<path fill="#F39C59" opacity="1.000000" stroke="none" 
	d="
M634.078491,517.507935 
	C633.546082,519.540710 633.013672,521.573486 631.750488,523.866455 
	C612.363831,524.461365 593.707825,524.796204 574.888062,524.864624 
	C573.809082,524.922729 572.893799,525.247314 571.528809,525.672424 
	C567.117432,525.967346 563.155945,526.161621 559.014038,526.055908 
	C557.886719,526.131104 556.939636,526.506348 555.605225,527.012085 
	C553.871948,527.300537 552.526001,527.458618 550.862305,527.463989 
	C549.696167,527.540466 548.847839,527.769653 547.583618,527.991821 
	C543.139771,528.417419 539.111816,528.850037 534.694214,529.173584 
	C533.226929,529.104492 532.149231,529.144531 530.936890,528.935425 
	C530.194824,529.011963 529.587280,529.337585 528.541138,529.772339 
	C521.091553,530.648376 514.080444,531.415344 506.937531,531.935303 
	C506.196198,531.998718 505.586731,532.309143 504.572327,532.714478 
	C502.116638,533.243347 500.065857,533.677368 497.603271,534.086670 
	C495.837311,534.256653 494.483154,534.451355 492.855225,534.511963 
	C492.054840,534.588257 491.528229,534.798706 490.592255,534.996460 
	C487.459045,535.343079 484.735229,535.702393 481.674500,535.978699 
	C480.875244,535.882812 480.412842,535.869934 479.718140,535.612061 
	C477.986023,536.180542 476.486206,536.993958 474.584381,537.877869 
	C473.098724,537.902222 472.015106,537.856079 470.709534,537.571167 
	C469.320374,537.814636 468.153137,538.296997 466.563995,538.805420 
	C464.735931,538.811951 463.329742,538.792542 461.706116,538.547974 
	C460.660767,537.560120 459.832886,536.797302 459.367615,535.919373 
	C462.798035,535.144531 465.865814,534.484863 469.070190,534.074402 
	C469.810089,533.975952 470.413391,533.628357 471.383972,533.201538 
	C472.501740,533.085754 473.252197,533.049011 474.147827,533.230835 
	C474.869354,533.103088 475.445679,532.756836 476.396912,532.302734 
	C478.540283,531.875488 480.308685,531.556030 482.232056,531.423401 
	C482.933563,531.251038 483.480133,530.891846 484.279816,530.402283 
	C486.954254,529.791199 489.369171,529.275208 491.797974,528.835815 
	C504.296234,526.574829 516.798035,524.333313 529.406738,522.246094 
	C529.514893,522.407043 529.843628,522.611389 529.979492,522.882324 
	C530.746460,522.816833 531.377625,522.480347 532.411133,522.023315 
	C534.181335,521.686951 535.549316,521.471130 537.179810,521.393433 
	C537.950867,521.317383 538.459290,521.103210 539.397827,520.925659 
	C543.542236,520.618835 547.256531,520.275330 551.171143,520.204651 
	C552.586060,520.081909 553.800659,519.686401 555.453979,519.179321 
	C568.922180,518.255066 581.951721,517.442383 595.149048,516.960876 
	C599.324707,517.527161 603.333984,517.946899 607.339844,517.916504 
	C609.237000,517.902161 611.127747,517.026978 613.471069,516.454834 
	C618.951050,516.565735 623.981323,516.763611 629.159424,517.141113 
	C629.882202,517.247070 630.457092,517.173401 631.403442,517.203674 
	C632.542786,517.374329 633.310608,517.441162 634.078491,517.507935 
z"/>
<path fill="#221D19" opacity="1.000000" stroke="none" 
	d="
M344.674957,273.043335 
	C345.183929,273.554810 345.371307,274.127228 345.379517,275.375366 
	C345.556244,277.392273 345.912170,278.733459 346.268066,280.074615 
	C346.626831,282.594086 346.985596,285.113556 347.207275,288.431885 
	C347.369690,290.151062 347.669128,291.071350 347.968597,291.991638 
	C348.139069,293.207703 348.309540,294.423767 348.306427,296.376099 
	C348.478821,298.433380 348.824799,299.754333 349.170776,301.075317 
	C349.925415,306.567719 350.680084,312.060150 351.283356,318.352600 
	C351.434723,320.105469 351.737457,321.058319 352.040161,322.011200 
	C352.315094,323.777161 352.589996,325.543152 352.606018,327.862732 
	C352.647339,329.303406 352.947571,330.190460 353.247803,331.077484 
	C354.900177,343.920227 356.509735,356.768646 358.220734,369.603577 
	C359.268341,377.461975 360.515472,385.293640 361.593323,393.148254 
	C362.842438,402.250732 364.023285,411.362762 365.192902,420.475922 
	C365.564575,423.371735 365.805328,426.284393 366.031830,429.951355 
	C365.331696,431.807098 364.705688,432.900848 364.079712,433.994568 
	C361.695526,417.067017 359.233948,400.149902 356.957336,383.207886 
	C355.673828,373.656189 354.695038,364.063538 353.734741,353.673157 
	C353.584869,351.901978 353.279236,350.946991 352.973602,349.991974 
	C352.791168,348.801941 352.608734,347.611908 352.637817,345.653564 
	C352.407227,343.242249 351.965149,341.599243 351.523041,339.956207 
	C351.177063,337.474030 350.831085,334.991821 350.646179,331.744659 
	C350.546753,330.321991 350.286255,329.664307 350.025757,329.006622 
	C349.871185,327.786530 349.716583,326.566467 349.723328,324.559631 
	C349.537140,322.500793 349.189697,321.228638 348.842255,319.956512 
	C348.610718,318.522583 348.379181,317.088684 348.413940,315.075684 
	C348.322784,313.307343 347.965393,312.118042 347.608032,310.928741 
	C347.298065,308.726288 346.988098,306.523834 346.811462,303.502502 
	C346.613586,301.451263 346.282379,300.218903 345.951233,298.986542 
	C345.722687,297.528625 345.494171,296.070740 345.519409,294.026367 
	C345.423706,292.267853 345.074219,291.095795 344.724731,289.923737 
	C344.371338,287.405975 344.017944,284.888214 343.796570,281.571716 
	C343.628723,279.851135 343.328796,278.929352 343.028870,278.007538 
	C342.980835,276.649536 342.932800,275.291534 342.966858,273.528137 
	C343.483795,273.116577 343.918579,273.110443 344.674957,273.043335 
z"/>
<path fill="#1B1109" opacity="1.000000" stroke="none" 
	d="
M536.917236,521.255310 
	C535.549316,521.471130 534.181335,521.686951 532.076782,521.948853 
	C530.887817,521.943542 530.435425,521.892151 529.871216,521.648376 
	C529.556213,521.225586 529.305542,521.073608 528.957153,520.609253 
	C528.854187,519.961304 528.801331,519.704041 528.748474,519.446716 
	C530.228149,519.197144 531.707825,518.947510 533.830078,518.687988 
	C534.985291,518.464111 535.497925,518.250305 536.010498,518.036499 
	C550.422607,516.708252 564.834717,515.379944 579.924316,514.373291 
	C582.749878,514.379944 584.897888,514.064941 587.045898,513.749878 
	C598.052429,513.637146 609.058960,513.524353 620.667419,513.849854 
	C623.489746,514.259216 625.710205,514.230408 627.930603,514.201538 
	C630.199829,514.368164 632.469116,514.534790 635.151489,514.858276 
	C635.349243,515.783569 635.133850,516.551941 634.498474,517.414185 
	C633.310608,517.441162 632.542786,517.374329 631.269653,516.964111 
	C630.180115,516.734314 629.595886,516.847900 629.011597,516.961487 
	C623.981323,516.763611 618.951050,516.565735 613.017944,516.323975 
	C606.403870,516.396667 600.692505,516.513184 594.981201,516.629639 
	C581.951721,517.442383 568.922180,518.255066 555.103882,519.101807 
	C553.200378,519.401123 552.085632,519.666443 550.970886,519.931824 
	C547.256531,520.275330 543.542236,520.618835 539.272461,520.719849 
	C538.117126,520.736755 537.517212,520.996033 536.917236,521.255310 
z"/>
<path fill="#2B1B0F" opacity="1.000000" stroke="none" 
	d="
M575.051880,525.131042 
	C593.707825,524.796204 612.363831,524.461365 631.485901,524.092407 
	C631.517212,525.205444 631.082336,526.352600 630.287476,527.612915 
	C615.231567,527.822876 600.535645,527.919678 585.213379,527.729004 
	C583.354980,527.706848 582.122864,527.972229 580.890747,528.237610 
	C573.859680,528.808960 566.828552,529.380310 559.377319,529.533447 
	C558.981445,528.471558 559.005737,527.827881 559.065857,526.976074 
	C559.101746,526.767944 559.194397,526.355896 559.194397,526.355896 
	C563.155945,526.161621 567.117432,525.967346 571.847168,525.745056 
	C573.427551,525.521729 574.239685,525.326355 575.051880,525.131042 
z"/>
<path fill="#0C0B0D" opacity="1.000000" stroke="none" 
	d="
M380.058716,630.378296 
	C393.357269,624.084229 406.729492,622.520569 420.309387,627.789429 
	C422.586060,620.105164 424.065979,612.570312 427.000214,605.652222 
	C438.827118,577.767639 460.268463,561.715271 490.183899,558.779541 
	C519.598633,555.892883 543.082153,567.842651 560.174438,591.896790 
	C562.787598,595.574402 564.530029,597.959839 569.865662,596.575134 
	C576.271545,594.912537 581.973328,599.328186 583.811584,605.771790 
	C585.484497,611.635498 582.492859,617.918274 576.277588,620.255981 
	C572.917175,621.519775 572.341858,623.088135 572.756531,626.501160 
	C577.448242,665.113403 550.100769,701.892395 511.649597,708.943787 
	C467.094971,717.114441 427.046387,687.383850 421.359589,642.110413 
	C421.134491,640.318237 419.198669,637.942383 417.492645,637.262817 
	C405.228821,632.378174 393.384155,633.573853 382.026367,640.918335 
	C374.868744,645.197876 374.756378,645.430786 376.055756,653.262268 
	C382.410309,691.562073 354.784973,731.112671 316.603790,738.378357 
	C273.240326,746.630188 234.567169,720.794556 225.983139,677.757690 
	C225.461899,675.144409 224.618683,674.234253 221.738632,674.412415 
	C213.679077,674.910950 207.993820,670.115112 207.586700,662.986877 
	C207.146729,655.283875 211.865082,649.804443 220.310928,649.641907 
	C225.738327,649.537537 226.593994,646.575012 227.858383,642.447632 
	C237.411255,611.263855 264.033417,590.284424 296.516235,588.038208 
	C327.165375,585.918762 356.748413,604.035828 370.208588,633.165955 
	C370.556824,633.919556 370.929443,634.661987 371.513794,635.871338 
	C374.330017,634.110535 377.082275,632.389709 380.058716,630.378296 
M364.976013,681.031616 
	C367.292755,670.670593 367.599213,660.354370 365.469452,649.845825 
	C358.096161,613.464661 319.144043,589.669128 283.533691,600.006958 
	C248.847748,610.076355 229.558182,641.330322 235.746338,677.434387 
	C241.686859,712.093689 279.370880,737.119446 313.601990,729.215088 
	C339.731049,723.181641 356.579407,707.216248 364.976013,681.031616 
M491.037354,568.219360 
	C488.579315,568.643494 486.114807,569.033630 483.664185,569.496887 
	C446.437897,576.533997 422.302429,616.546814 433.417480,652.785400 
	C443.920410,687.028442 476.180206,706.076111 511.754059,699.038818 
	C547.664978,691.934814 571.331604,652.526367 561.441772,617.359070 
	C553.147461,587.865295 525.498047,565.814148 491.037354,568.219360 
z"/>
<path fill="#F69B58" opacity="1.000000" stroke="none" 
	d="
M374.714020,556.675842 
	C365.699554,558.677917 356.685669,560.682434 347.670227,562.680115 
	C345.735626,563.108887 343.795593,563.513123 341.472229,564.021362 
	C314.098602,569.513306 287.106995,574.893738 260.123901,580.316589 
	C224.666672,587.442688 189.222214,594.632629 153.753464,601.700684 
	C150.173019,602.414246 146.398346,602.708313 144.197540,598.527588 
	C144.951660,598.066650 145.414673,598.045959 146.213898,598.085571 
	C148.015701,598.026062 149.548965,598.143066 150.935684,597.746948 
	C158.346283,595.630310 165.686600,593.263672 173.114151,591.211243 
	C187.049652,587.360596 201.020264,583.635925 214.992188,579.918640 
	C222.644653,577.882629 230.329666,575.968872 238.399780,574.062988 
	C248.927338,571.868713 259.055084,569.611572 269.607300,567.377808 
	C284.146301,565.097290 298.248383,562.712952 312.380127,560.519531 
	C320.897461,559.197510 329.460938,558.172607 338.456146,557.052734 
	C341.913818,556.896423 344.919037,556.701599 348.351105,556.624146 
	C351.502075,556.440491 354.226135,556.139465 357.415741,555.915405 
	C363.288300,555.894897 368.695343,555.797607 374.218597,555.967163 
	C374.461212,556.381348 374.587616,556.528564 374.714020,556.675842 
z"/>
<path fill="#FFFDFE" opacity="1.000000" stroke="none" 
	d="
M51.007843,510.003540 
	C45.701759,505.540924 45.953518,504.232788 51.693325,501.076172 
	C57.297974,497.993805 63.120743,495.078247 68.071564,491.118866 
	C71.292274,488.543121 72.987259,484.122681 75.649803,480.753082 
	C76.634109,479.507355 78.508415,478.101715 79.835571,478.230042 
	C81.192841,478.361267 82.802612,480.058594 83.548019,481.468842 
	C85.089043,484.384369 86.249191,487.522308 87.350121,490.644836 
	C89.456177,496.618195 94.634720,499.381531 99.340813,502.786713 
	C102.152847,504.821381 104.432388,507.591980 106.951286,510.031769 
	C104.126137,512.027893 101.565353,514.802063 98.424568,515.869202 
	C90.159859,518.677246 84.685654,524.185120 80.697411,531.616150 
	C79.922638,533.059692 78.998070,534.520569 77.819321,535.630005 
	C75.059006,538.228027 72.358147,537.535889 70.905525,534.028992 
	C70.144028,532.190613 69.391083,530.345642 68.725281,528.471313 
	C65.639442,519.784302 59.090092,514.406494 51.007843,510.003540 
z"/>
<path fill="#FAA05B" opacity="1.000000" stroke="none" 
	d="
M124.169250,579.434570 
	C145.442764,573.387390 166.519913,566.816406 188.016296,562.195984 
	C209.976959,557.475647 232.316360,554.453918 254.549484,551.081055 
	C280.931915,547.078613 307.538300,547.954651 334.098053,548.222229 
	C336.225159,548.243652 338.346497,548.838318 340.309265,549.516235 
	C333.101959,549.981445 326.055878,550.097046 318.604492,550.108582 
	C315.155365,550.238525 312.111542,550.472595 308.720337,550.546021 
	C306.924469,550.618530 305.475983,550.851624 303.572266,551.032043 
	C300.101318,551.219360 297.085571,551.459351 293.709320,551.558716 
	C291.681854,551.805420 290.014893,552.192688 287.936432,552.502686 
	C284.346527,552.602722 281.168121,552.780029 277.740967,552.674438 
	C272.979401,553.522095 268.466583,554.652527 263.536530,555.840027 
	C262.015045,555.758423 260.910797,555.619812 259.547607,555.304077 
	C257.831482,555.585327 256.374298,556.043579 254.517670,556.601868 
	C252.750122,556.816406 251.382019,556.930908 249.871613,556.812195 
	C249.132065,556.950806 248.534821,557.322754 247.527496,557.823486 
	C235.057266,560.580200 222.997131,563.208069 210.525482,565.829529 
	C206.891678,566.586975 203.617340,567.179932 200.455994,568.143616 
	C185.609406,572.669312 170.793884,577.296936 155.577393,581.906494 
	C148.339325,584.361023 141.491150,586.797180 134.642975,589.233398 
	C131.147598,586.077942 127.652237,582.922485 124.169250,579.434570 
z"/>
<path fill="#EC9450" opacity="1.000000" stroke="none" 
	d="
M145.877716,598.025269 
	C145.414673,598.045959 144.951660,598.066650 144.148285,598.159851 
	C141.842911,596.453186 139.877884,594.673950 138.112762,592.314087 
	C144.299576,589.401733 150.286453,587.070068 156.659637,584.673218 
	C169.411972,580.881104 181.785904,577.180237 194.140472,573.415771 
	C199.791367,571.693909 205.404160,569.846985 211.370331,568.229126 
	C224.824921,565.826721 237.940933,563.239319 251.062866,560.682129 
	C257.792297,559.370789 264.532257,558.113220 271.726624,556.845581 
	C273.452484,556.571045 274.706207,556.122009 275.987854,556.018555 
	C287.631226,555.079102 299.279480,554.199951 311.255859,553.458740 
	C312.721008,553.401917 313.856598,553.189514 315.395630,553.032593 
	C316.869995,552.968750 317.940857,552.849426 319.468658,552.832031 
	C325.636841,552.915588 331.348083,552.897156 336.868317,553.240234 
	C326.160706,555.107849 315.613800,556.431152 305.135437,558.168091 
	C293.040588,560.172974 281.006226,562.542664 268.541443,564.782043 
	C266.813080,565.056396 265.488831,565.302612 263.874969,565.446777 
	C262.885559,565.675171 262.185730,566.005432 261.087341,566.390930 
	C253.130432,567.993469 245.572037,569.540710 237.635300,571.109253 
	C236.104645,571.709961 235.011719,572.546509 233.790710,572.828613 
	C222.565308,575.422119 211.234177,577.600769 200.096237,580.519897 
	C183.619263,584.838318 167.254562,589.593140 150.901993,594.367371 
	C149.030746,594.913696 147.543182,596.774170 145.877716,598.025269 
z"/>
<path fill="#3B2515" opacity="1.000000" stroke="none" 
	d="
M156.273331,584.738403 
	C150.286453,587.070068 144.299576,589.401733 138.005432,591.982605 
	C136.705124,591.464294 135.712067,590.696777 134.681000,589.581299 
	C141.491150,586.797180 148.339325,584.361023 155.602875,582.383179 
	C156.103256,583.473755 156.188293,584.106079 156.273331,584.738403 
z"/>
<path fill="#FCFEFF" opacity="1.000000" stroke="none" 
	d="
M423.963013,717.937378 
	C428.806396,721.671753 433.467834,725.095886 438.152130,728.488525 
	C442.155273,731.387939 442.015411,733.714600 437.619568,736.178467 
	C436.460663,736.828003 435.298462,737.569702 434.040588,737.928833 
	C424.426208,740.673706 418.354187,747.321472 413.642242,755.740173 
	C412.646118,757.519897 410.248016,759.772888 408.688568,759.634644 
	C407.044800,759.488892 404.802765,756.980957 404.254639,755.089783 
	C401.063812,744.080872 393.295105,737.317444 384.028168,731.555176 
	C379.563049,728.778748 380.060883,726.047852 384.849823,723.919983 
	C388.643127,722.234436 393.077515,721.281921 396.074249,718.677307 
	C400.731323,714.629761 404.338531,709.391052 408.538177,704.791870 
	C410.113098,703.067017 412.100098,701.718445 413.899200,700.198303 
	C415.388824,702.082947 417.182007,703.804504 418.301971,705.887817 
	C420.342285,709.683167 421.983307,713.693054 423.963013,717.937378 
z"/>
<path fill="#110D0A" opacity="1.000000" stroke="none" 
	d="
M337.059326,552.878784 
	C331.348083,552.897156 325.636841,552.915588 319.468231,552.517578 
	C319.010529,551.471680 319.010193,550.842163 319.009827,550.212646 
	C326.055878,550.097046 333.101959,549.981445 340.608795,549.750305 
	C341.495941,549.681458 341.922333,549.728210 342.913818,549.824707 
	C343.646088,549.810486 343.813263,549.746704 343.980408,549.682983 
	C345.378418,549.778503 346.776398,549.874023 348.842987,550.325928 
	C352.000458,551.097412 354.489380,551.512512 357.354736,551.946228 
	C359.134430,551.718933 360.537659,551.473022 361.940857,551.227173 
	C363.666382,551.270081 365.391907,551.312988 367.697021,551.835693 
	C370.406921,552.419373 372.537231,552.523254 374.667572,552.627197 
	C376.470947,551.500977 380.112610,554.959229 380.696777,549.564575 
	C380.472809,547.203674 380.047546,545.568542 379.622284,543.933472 
	C379.454681,542.869812 379.287079,541.806091 379.394165,540.195374 
	C380.085602,539.106812 380.502380,538.565247 380.919128,538.023743 
	C382.027893,542.769348 383.136658,547.514954 384.329742,552.621399 
	C388.678162,551.342346 392.898621,550.100952 397.522186,548.846008 
	C401.806976,547.715454 405.688660,546.598450 410.273407,545.628357 
	C411.670410,545.328003 412.364349,544.880615 413.058289,544.433289 
	C414.148376,544.105774 415.238434,543.778259 416.689941,543.802856 
	C417.034210,544.436584 417.017120,544.718323 416.789978,545.271851 
	C414.985962,546.211914 413.391968,546.880066 411.763763,547.562561 
	C411.823700,548.562012 411.889801,549.663696 411.955872,550.765381 
	C407.787170,551.622070 403.618469,552.478760 399.150665,553.588989 
	C397.831329,553.921753 396.811035,554.000916 395.017700,553.989624 
	C392.829376,554.269714 391.414062,554.640137 389.998749,555.010498 
	C386.614563,555.547302 383.230377,556.084045 379.333466,556.179199 
	C377.247955,555.725159 375.675171,555.712708 374.102386,555.700256 
	C368.695343,555.797607 363.288300,555.894897 357.133942,555.651367 
	C353.565826,555.709167 350.745026,556.107971 347.924225,556.506836 
	C344.919037,556.701599 341.913818,556.896423 338.353546,556.742920 
	C338.401733,555.922241 338.961304,555.116577 339.615234,555.030884 
	C344.346619,554.410889 349.097046,553.936462 353.841461,553.415955 
	C353.844116,553.236877 353.846771,553.057861 353.849396,552.878784 
	C348.252716,552.878784 342.656006,552.878784 337.059326,552.878784 
z"/>
<path fill="#382516" opacity="1.000000" stroke="none" 
	d="
M374.218597,555.967163 
	C375.675171,555.712708 377.247955,555.725159 378.953369,556.023804 
	C377.861755,556.414124 376.637512,556.518127 375.063660,556.649048 
	C374.587616,556.528564 374.461212,556.381348 374.218597,555.967163 
z"/>
<path fill="#382516" opacity="1.000000" stroke="none" 
	d="
M390.368378,555.089722 
	C391.414062,554.640137 392.829376,554.269714 394.635376,553.947144 
	C393.596710,554.386353 392.167358,554.777649 390.368378,555.089722 
z"/>
<path fill="#FEBCE2" opacity="1.000000" stroke="none" 
	d="
M613.999573,535.739990 
	C614.036865,535.517822 614.349731,535.333252 614.939941,535.191528 
	C614.903198,535.415466 614.589172,535.596436 613.999573,535.739990 
z"/>
<path fill="#181512" opacity="1.000000" stroke="none" 
	d="
M247.999298,297.473816 
	C273.321350,297.510651 297.545563,301.358551 321.163574,309.028748 
	C321.795685,309.234009 322.705719,309.153168 323.050201,309.567902 
	C324.093323,310.823822 324.921692,312.258057 325.833710,313.622833 
	C324.341125,314.223450 322.675964,315.587311 321.385193,315.295441 
	C315.069519,313.867279 308.891113,311.844177 302.596405,310.309387 
	C259.256317,299.742401 216.434357,301.670258 174.208679,316.004852 
	C153.781265,322.939514 134.610153,332.426178 117.044365,345.038177 
	C115.138069,346.406891 112.725197,348.263367 111.180412,345.420441 
	C110.588829,344.331696 112.171837,341.066986 113.640198,340.002136 
	C136.251358,323.603760 161.361649,312.450012 188.253098,305.204834 
	C207.648972,299.979156 227.431961,297.554443 247.999298,297.473816 
z"/>
<path fill="#191613" opacity="1.000000" stroke="none" 
	d="
M311.992310,363.176208 
	C316.719818,364.482147 321.143738,365.420349 325.323761,367.002808 
	C326.884552,367.593689 327.876221,369.687744 329.127380,371.096405 
	C327.295105,371.650452 325.319427,372.955872 323.653595,372.637878 
	C311.906677,370.395782 300.301971,367.326355 288.504120,365.450134 
	C261.349640,361.131653 234.314529,362.997803 207.589310,368.904541 
	C178.939560,375.236633 151.992935,385.935913 127.264061,401.911926 
	C125.171326,403.263885 122.749428,404.622681 121.448441,401.679504 
	C120.961685,400.578308 122.564728,397.675629 123.974419,396.745850 
	C144.410355,383.267609 166.682678,373.811096 190.128662,366.961578 
	C221.211121,357.881134 252.839264,354.857025 285.016052,358.603973 
	C293.926941,359.641632 302.736023,361.553558 311.992310,363.176208 
z"/>
<path fill="#181512" opacity="1.000000" stroke="none" 
	d="
M256.074707,421.735596 
	C227.380890,424.130341 200.192368,431.019928 173.836746,441.127808 
	C162.528427,445.464783 151.622604,450.851776 140.537598,455.770020 
	C138.305984,456.760162 135.617783,458.736633 134.308746,455.306854 
	C133.889206,454.207581 136.004303,451.237701 137.621384,450.398438 
	C166.740280,435.285889 197.463638,424.819977 229.752823,418.903625 
	C254.498688,414.369385 279.360535,413.123932 304.339294,416.212219 
	C312.907043,417.271576 321.403290,419.060455 329.833496,420.955231 
	C331.537445,421.338196 332.796234,423.701965 334.260254,425.152527 
	C332.303986,425.760162 330.125916,427.262390 328.424957,426.840607 
	C304.743103,420.968048 280.792908,419.378998 256.074707,421.735596 
z"/>
<path fill="#181512" opacity="1.000000" stroke="none" 
	d="
M158.202911,513.071106 
	C154.754379,514.818115 151.746292,516.676392 148.498581,517.897400 
	C146.965866,518.473633 144.973633,517.827576 143.189606,517.735291 
	C143.976929,516.021118 144.317169,513.345215 145.619827,512.739685 
	C160.677734,505.739807 175.606613,498.328308 191.110718,492.453979 
	C214.210724,483.701630 238.263367,478.372589 262.914307,476.073120 
	C286.953400,473.830688 310.827820,474.828796 334.465424,479.996490 
	C335.601044,480.244751 336.947083,480.345062 337.763947,481.029175 
	C338.765747,481.868134 339.996338,483.343964 339.855011,484.368896 
	C339.726746,485.298889 337.987610,486.377930 336.779907,486.682587 
	C335.590607,486.982574 334.156738,486.478790 332.864349,486.180023 
	C308.406952,480.525940 283.699402,479.683044 258.867645,482.737885 
	C223.722870,487.061432 190.284073,497.203217 158.202911,513.071106 
z"/>
<path fill="#2C2621" opacity="1.000000" stroke="none" 
	d="
M381.006409,537.681519 
	C380.502380,538.565247 380.085602,539.106812 379.448669,539.792236 
	C377.775787,530.708557 376.192078,521.499268 374.896484,512.249634 
	C371.810852,490.220459 368.872375,468.170685 365.846252,446.133148 
	C365.328064,442.359741 364.670288,438.605469 364.078339,434.418457 
	C364.705688,432.900848 365.331696,431.807098 365.984741,430.341370 
	C367.084808,434.848022 368.457672,439.682983 369.176331,444.613281 
	C371.643707,461.540619 374.001038,478.486176 376.166718,495.454559 
	C377.683441,507.338287 378.805450,519.272217 380.138062,531.179871 
	C380.368927,533.242798 380.770813,535.286621 381.006409,537.681519 
z"/>
<path fill="#2C2621" opacity="1.000000" stroke="none" 
	d="
M374.377228,552.380005 
	C372.537231,552.523254 370.406921,552.419373 368.103607,551.980835 
	C369.982727,551.808411 372.034790,551.970581 374.377228,552.380005 
z"/>
<path fill="#2C2621" opacity="1.000000" stroke="none" 
	d="
M361.621033,551.059509 
	C360.537659,551.473022 359.134430,551.718933 357.295349,551.769897 
	C356.642456,551.269775 356.425476,550.964417 356.208496,550.659119 
	C357.906067,550.736694 359.603668,550.814270 361.621033,551.059509 
z"/>
<path fill="#382516" opacity="1.000000" stroke="none" 
	d="
M355.788147,550.466675 
	C356.425476,550.964417 356.642456,551.269775 356.918854,551.751343 
	C354.489380,551.512512 352.000458,551.097412 349.253326,550.420288 
	C351.119324,550.196960 353.243530,550.235535 355.788147,550.466675 
z"/>
<path fill="#2C2621" opacity="1.000000" stroke="none" 
	d="
M379.507202,544.297363 
	C380.047546,545.568542 380.472809,547.203674 380.774261,549.243530 
	C380.231018,547.985962 379.811584,546.323608 379.507202,544.297363 
z"/>
<path fill="#352E28" opacity="1.000000" stroke="none" 
	d="
M351.439423,340.327698 
	C351.965149,341.599243 352.407227,343.242249 352.731903,345.302246 
	C352.194916,344.045837 351.775360,342.372528 351.439423,340.327698 
z"/>
<path fill="#3F362F" opacity="1.000000" stroke="none" 
	d="
M344.599487,290.255615 
	C345.074219,291.095795 345.423706,292.267853 345.575439,293.661621 
	C345.076538,292.784698 344.775391,291.686096 344.599487,290.255615 
z"/>
<path fill="#3F362F" opacity="1.000000" stroke="none" 
	d="
M347.498596,311.262512 
	C347.965393,312.118042 348.322784,313.307343 348.461487,314.712677 
	C347.958252,313.817902 347.673737,312.707092 347.498596,311.262512 
z"/>
<path fill="#3F362F" opacity="1.000000" stroke="none" 
	d="
M345.814026,299.252686 
	C346.282379,300.218903 346.613586,301.451263 346.849854,303.088623 
	C346.395599,302.168671 346.036224,300.843719 345.814026,299.252686 
z"/>
<path fill="#3F362F" opacity="1.000000" stroke="none" 
	d="
M348.701355,320.229309 
	C349.189697,321.228638 349.537140,322.500793 349.774170,324.193115 
	C349.295929,323.242920 348.928162,321.872528 348.701355,320.229309 
z"/>
<path fill="#3F362F" opacity="1.000000" stroke="none" 
	d="
M342.907990,278.251587 
	C343.328796,278.929352 343.628723,279.851135 343.826843,281.152954 
	C343.412415,280.520538 343.099762,279.508057 342.907990,278.251587 
z"/>
<path fill="#352E28" opacity="1.000000" stroke="none" 
	d="
M352.842438,350.240295 
	C353.279236,350.946991 353.584869,351.901978 353.792267,353.255493 
	C353.366455,352.598877 353.038879,351.543762 352.842438,350.240295 
z"/>
<path fill="#3F362F" opacity="1.000000" stroke="none" 
	d="
M349.910217,329.223267 
	C350.286255,329.664307 350.546753,330.321991 350.670868,331.337921 
	C350.287872,330.944061 350.041290,330.191986 349.910217,329.223267 
z"/>
<path fill="#FAA05B" opacity="1.000000" stroke="none" 
	d="
M343.904633,549.519775 
	C343.813263,549.746704 343.646088,549.810486 343.232117,549.769531 
	C343.266510,549.561951 343.547668,549.459229 343.904633,549.519775 
z"/>
<path fill="#191613" opacity="1.000000" stroke="none" 
	d="
M438.256775,278.932892 
	C416.303284,286.269623 395.949402,295.902924 377.319916,309.088196 
	C375.795715,310.166962 372.116760,310.777252 371.391663,309.931366 
	C369.120178,307.281586 371.788910,305.545227 373.827667,304.080627 
	C395.829315,288.275085 420.136444,277.277283 446.157745,270.122803 
	C480.744415,260.613281 515.775513,258.958221 551.036438,265.802704 
	C561.297729,267.794525 571.374084,270.764496 581.492065,273.448944 
	C583.753357,274.048889 587.174561,274.708282 585.589478,278.123352 
	C585.077271,279.227081 581.441345,279.831329 579.684937,279.265442 
	C550.781738,269.952698 521.203918,266.564880 490.958923,268.667206 
	C473.107178,269.908051 455.697906,273.470337 438.256775,278.932892 
z"/>
<path fill="#191613" opacity="1.000000" stroke="none" 
	d="
M551.669678,323.613251 
	C562.334106,325.898834 572.564514,328.127960 582.792297,330.368988 
	C583.603577,330.546753 584.408936,330.770905 585.196228,331.035278 
	C587.418396,331.781403 590.322266,332.515869 588.862183,335.546997 
	C588.324341,336.663513 585.238464,337.289337 583.534790,336.968933 
	C578.485046,336.019196 573.587341,334.288147 568.555481,333.212036 
	C504.169281,319.442230 444.419159,331.670563 388.528717,365.435150 
	C387.258392,366.202637 385.934723,367.205841 384.553619,367.359680 
	C383.518829,367.474945 382.000549,366.651459 381.365387,365.766571 
	C380.936127,365.168488 381.401550,363.562592 381.951294,362.725861 
	C382.552612,361.810638 383.662659,361.184906 384.635010,360.564728 
	C411.302063,343.555664 440.304932,332.414276 471.237671,326.126740 
	C497.758545,320.735962 524.431824,320.134033 551.669678,323.613251 
z"/>
<path fill="#181512" opacity="1.000000" stroke="none" 
	d="
M452.315063,399.106750 
	C435.022461,406.062500 418.110748,412.896332 401.206879,419.749481 
	C399.977448,420.247894 398.824768,421.281128 397.600067,421.342682 
	C396.507263,421.397644 394.868896,420.727966 394.386780,419.866028 
	C393.932953,419.054626 394.333069,417.317291 394.980835,416.456238 
	C395.721527,415.471649 397.107330,414.919708 398.286102,414.324982 
	C442.108765,392.216217 488.268280,379.141052 537.610901,378.800171 
	C555.131836,378.679077 572.476440,380.661041 589.480835,385.135468 
	C591.907837,385.774139 595.069458,386.022705 594.067566,389.426117 
	C593.763062,390.460632 590.187378,391.427063 588.448853,391.010437 
	C562.079895,384.690735 535.357422,382.949249 508.646454,386.983887 
	C489.821930,389.827301 471.335327,394.907837 452.315063,399.106750 
z"/>
<path fill="#1A1713" opacity="1.000000" stroke="none" 
	d="
M535.078369,445.772461 
	C498.096985,447.815094 463.442291,457.285950 430.082062,471.834259 
	C422.929291,474.953552 416.101440,478.813751 408.979950,482.012054 
	C407.400391,482.721466 404.210205,482.839325 403.496155,481.904572 
	C401.560669,479.370789 403.798004,477.648499 406.057068,476.665924 
	C422.951385,469.317749 439.569092,461.194305 456.856537,454.920319 
	C486.171967,444.281097 516.684387,438.634644 547.915588,439.428558 
	C563.966309,439.836609 579.957764,442.781555 595.958130,444.727356 
	C598.207703,445.000916 601.172546,445.917725 599.855286,449.032074 
	C599.372375,450.173920 596.230164,451.095184 594.626465,450.721222 
	C575.165894,446.183655 555.458618,444.957672 535.078369,445.772461 
z"/>
<path fill="#3F362F" opacity="1.000000" stroke="none" 
	d="
M346.392944,279.738098 
	C345.912170,278.733459 345.556244,277.392273 345.340118,275.675537 
	C345.825897,276.667145 346.171875,278.034363 346.392944,279.738098 
z"/>
<path fill="#3F362F" opacity="1.000000" stroke="none" 
	d="
M349.300201,300.743073 
	C348.824799,299.754333 348.478821,298.433380 348.245789,296.741180 
	C348.715698,297.716919 349.072662,299.063873 349.300201,300.743073 
z"/>
<path fill="#3F362F" opacity="1.000000" stroke="none" 
	d="
M352.192017,321.775665 
	C351.737457,321.058319 351.434723,320.105469 351.249298,318.760406 
	C351.692383,319.425507 352.018127,320.482819 352.192017,321.775665 
z"/>
<path fill="#3F362F" opacity="1.000000" stroke="none" 
	d="
M348.096954,291.751587 
	C347.669128,291.071350 347.369690,290.151062 347.171448,288.850769 
	C347.590210,289.484344 347.907776,290.497955 348.096954,291.751587 
z"/>
<path fill="#3F362F" opacity="1.000000" stroke="none" 
	d="
M353.374786,330.778259 
	C352.947571,330.190460 352.647339,329.303406 352.559113,328.241943 
	C353.014648,328.871307 353.258209,329.675171 353.374786,330.778259 
z"/>
<path fill="#24160C" opacity="1.000000" stroke="none" 
	d="
M417.000000,545.000000 
	C417.017120,544.718323 417.034210,544.436584 417.112305,543.734131 
	C444.868225,536.917480 472.563202,530.521606 500.793274,524.339111 
	C501.906036,524.247620 502.483643,523.942688 503.061279,523.637817 
	C507.543365,522.910217 512.025513,522.182678 517.294067,521.621826 
	C518.738037,521.468567 519.395630,521.148682 520.053223,520.828796 
	C522.110352,520.486511 524.167419,520.144226 526.624512,520.104614 
	C527.685425,520.604858 528.346375,520.802429 529.007324,521.000000 
	C529.305542,521.073608 529.556213,521.225586 529.861450,521.709229 
	C529.963562,521.962402 529.842957,521.937683 529.749268,521.952271 
	C529.655518,521.966919 529.298584,522.085083 529.298584,522.085083 
	C516.798035,524.333313 504.296234,526.574829 491.797974,528.835815 
	C489.369171,529.275208 486.954254,529.791199 483.992126,530.331604 
	C482.993256,530.673035 482.535156,530.954773 482.077087,531.236572 
	C480.308685,531.556030 478.540283,531.875488 476.110321,532.244873 
	C474.966766,532.533997 474.484711,532.773132 474.002686,533.012329 
	C473.252197,533.049011 472.501740,533.085754 471.099762,533.139282 
	C469.943390,533.379211 469.438507,533.602234 468.933594,533.825195 
	C465.865814,534.484863 462.798035,535.144531 458.951447,535.883972 
	C451.736816,537.570679 445.300995,539.177612 438.459961,540.782898 
	C436.301636,541.177673 434.464539,541.364380 432.816833,542.023987 
	C430.785614,542.837158 428.912018,544.044067 426.974121,545.454346 
	C426.987732,546.575073 426.997528,547.322388 427.007294,548.069641 
	C426.569000,548.168152 426.130707,548.266724 425.329407,547.922485 
	C423.288086,543.513855 419.878540,545.109924 417.000000,545.000000 
z"/>
<path fill="#3F2715" opacity="1.000000" stroke="none" 
	d="
M531.071533,529.184631 
	C532.149231,529.144531 533.226929,529.104492 534.736267,529.444214 
	C535.754333,530.467773 536.340698,531.111633 536.927063,531.755493 
	C530.446350,532.710754 523.958801,533.622559 517.486694,534.633179 
	C510.583160,535.711243 503.694214,536.882812 496.468750,537.643494 
	C496.764099,536.219360 497.389618,535.165344 498.015137,534.111328 
	C500.065857,533.677368 502.116638,533.243347 504.850525,532.769165 
	C506.045593,532.546753 506.557495,532.364502 507.069397,532.182251 
	C514.080444,531.415344 521.091553,530.648376 528.821167,529.829468 
	C530.050354,529.579956 530.560974,529.382263 531.071533,529.184631 
z"/>
<path fill="#24160C" opacity="1.000000" stroke="none" 
	d="
M479.950470,535.857056 
	C480.412842,535.869934 480.875244,535.882812 481.674988,536.365601 
	C482.041016,537.350769 482.069702,537.865906 482.098389,538.381104 
	C474.273132,539.623474 466.428009,540.753601 458.627747,542.136841 
	C449.064209,543.832764 439.538208,545.740479 429.531708,547.188843 
	C429.052246,546.306030 429.037079,545.791016 429.415039,545.202026 
	C432.894562,544.346924 435.980927,543.565674 439.418884,542.789917 
	C447.154877,541.454712 454.539246,540.113953 461.923584,538.773193 
	C463.329742,538.792542 464.735931,538.811951 466.928589,538.851746 
	C468.787201,538.518066 469.859314,538.164001 470.931458,537.809937 
	C472.015106,537.856079 473.098724,537.902222 474.939697,537.922180 
	C477.114807,537.216370 478.532654,536.536743 479.950470,535.857056 
z"/>
<path fill="#090603" opacity="1.000000" stroke="none" 
	d="
M537.326172,531.795410 
	C536.340698,531.111633 535.754333,530.467773 535.125854,529.553345 
	C539.111816,528.850037 543.139771,528.417419 547.739624,528.237976 
	C549.267700,528.199707 550.223816,527.908203 551.179993,527.616638 
	C552.526001,527.458618 553.871948,527.300537 555.978088,527.103516 
	C557.502136,527.104370 558.266052,527.144226 559.029968,527.184143 
	C559.005737,527.827881 558.981445,528.471558 558.958618,529.437500 
	C551.881836,530.451538 544.803589,531.143433 537.326172,531.795410 
z"/>
<path fill="#321F11" opacity="1.000000" stroke="none" 
	d="
M416.789978,545.271851 
	C419.878540,545.109924 423.288086,543.513855 425.001282,547.833008 
	C420.946899,549.086060 416.857666,549.985840 412.362152,550.825439 
	C411.889801,549.663696 411.823700,548.562012 411.763763,547.562561 
	C413.391968,546.880066 414.985962,546.211914 416.789978,545.271851 
z"/>
<path fill="#070402" opacity="1.000000" stroke="none" 
	d="
M482.550049,538.296509 
	C482.069702,537.865906 482.041016,537.350769 482.011841,536.448608 
	C484.735229,535.702393 487.459045,535.343079 490.709412,535.220520 
	C491.866943,535.186829 492.497955,534.916443 493.128998,534.645996 
	C494.483154,534.451355 495.837311,534.256653 497.603302,534.086670 
	C497.389618,535.165344 496.764099,536.219360 496.050873,537.577698 
	C491.642700,537.991943 487.322205,538.101868 482.550049,538.296509 
z"/>
<path fill="#55351D" opacity="1.000000" stroke="none" 
	d="
M581.223389,528.398743 
	C582.122864,527.972229 583.354980,527.706848 584.783264,527.681458 
	C583.838318,528.134277 582.697205,528.347046 581.223389,528.398743 
z"/>
<path fill="#321F11" opacity="1.000000" stroke="none" 
	d="
M429.021912,545.275940 
	C429.037079,545.791016 429.052246,546.306030 429.085388,547.209717 
	C428.590851,547.795349 428.078308,547.992371 427.286560,548.129517 
	C426.997528,547.322388 426.987732,546.575073 427.320374,545.437317 
	C428.115814,545.123230 428.568878,545.199585 429.021912,545.275940 
z"/>
<path fill="#321F11" opacity="1.000000" stroke="none" 
	d="
M586.658325,513.593506 
	C584.897888,514.064941 582.749878,514.379944 580.339111,514.450928 
	C582.141113,513.950317 584.205933,513.693665 586.658325,513.593506 
z"/>
<path fill="#321F11" opacity="1.000000" stroke="none" 
	d="
M627.638550,513.952209 
	C625.710205,514.230408 623.489746,514.259216 621.111572,513.990601 
	C623.084656,513.696289 625.215515,513.699585 627.638550,513.952209 
z"/>
<path fill="#D08146" opacity="1.000000" stroke="none" 
	d="
M535.886719,517.803101 
	C535.497925,518.250305 534.985291,518.464111 534.192261,518.579346 
	C534.528870,518.177063 535.145874,517.873413 535.886719,517.803101 
z"/>
<path fill="#3D2615" opacity="1.000000" stroke="none" 
	d="
M519.836975,520.680542 
	C519.395630,521.148682 518.738037,521.468567 517.696533,521.670166 
	C518.081970,521.212036 518.851318,520.872192 519.836975,520.680542 
z"/>
<path fill="#3D2615" opacity="1.000000" stroke="none" 
	d="
M502.790161,523.532349 
	C502.483643,523.942688 501.906036,524.247620 501.189209,524.354309 
	C501.539642,523.913025 502.029327,523.669983 502.790161,523.532349 
z"/>
<path fill="#321F11" opacity="1.000000" stroke="none" 
	d="
M412.745544,544.371826 
	C412.364349,544.880615 411.670410,545.328003 410.639587,545.645386 
	C411.012756,545.113708 411.722748,544.712036 412.745544,544.371826 
z"/>
<path fill="#321F11" opacity="1.000000" stroke="none" 
	d="
M528.957153,520.609253 
	C528.346375,520.802429 527.685425,520.604858 527.018982,520.130676 
	C527.387939,519.701538 527.762329,519.548950 528.442627,519.421509 
	C528.801331,519.704041 528.854187,519.961304 528.957153,520.609253 
z"/>
<path fill="#EC934F" opacity="1.000000" stroke="none" 
	d="
M461.706116,538.548035 
	C454.539246,540.113953 447.154877,541.454712 439.399139,542.455566 
	C438.973572,541.671997 438.919373,541.228333 438.865173,540.784607 
	C445.300995,539.177612 451.736816,537.570679 458.588806,535.999146 
	C459.832886,536.797302 460.660767,537.560120 461.706116,538.548035 
z"/>
<path fill="#EC934F" opacity="1.000000" stroke="none" 
	d="
M595.149048,516.960876 
	C600.692505,516.513184 606.403870,516.396667 612.568237,516.411011 
	C611.127747,517.026978 609.237000,517.902161 607.339844,517.916504 
	C603.333984,517.946899 599.324707,517.527161 595.149048,516.960876 
z"/>
<path fill="#EC934F" opacity="1.000000" stroke="none" 
	d="
M479.718140,535.612061 
	C478.532654,536.536743 477.114807,537.216370 475.341675,537.851746 
	C476.486206,536.993958 477.986023,536.180542 479.718140,535.612061 
z"/>
<path fill="#EC934F" opacity="1.000000" stroke="none" 
	d="
M551.171143,520.204651 
	C552.085632,519.666443 553.200378,519.401123 554.665222,519.213318 
	C553.800659,519.686401 552.586060,520.081909 551.171143,520.204651 
z"/>
<path fill="#EC934F" opacity="1.000000" stroke="none" 
	d="
M470.709534,537.571106 
	C469.859314,538.164001 468.787201,538.518066 467.350494,538.825745 
	C468.153137,538.296997 469.320374,537.814636 470.709534,537.571106 
z"/>
<path fill="#EC934F" opacity="1.000000" stroke="none" 
	d="
M574.888062,524.864624 
	C574.239685,525.326355 573.427551,525.521729 572.296997,525.644470 
	C572.893799,525.247314 573.809082,524.922729 574.888062,524.864624 
z"/>
<path fill="#EC934F" opacity="1.000000" stroke="none" 
	d="
M559.065857,526.976074 
	C558.266052,527.144226 557.502136,527.104370 556.365356,526.973022 
	C556.939636,526.506348 557.886719,526.131104 559.014038,526.055908 
	C559.194397,526.355896 559.101746,526.767944 559.065857,526.976074 
z"/>
<path fill="#55351D" opacity="1.000000" stroke="none" 
	d="
M550.862305,527.463989 
	C550.223816,527.908203 549.267700,528.199707 548.155518,528.244995 
	C548.847839,527.769653 549.696167,527.540466 550.862305,527.463989 
z"/>
<path fill="#321F11" opacity="1.000000" stroke="none" 
	d="
M629.159424,517.141113 
	C629.595886,516.847900 630.180115,516.734314 630.898193,516.860229 
	C630.457092,517.173401 629.882202,517.247070 629.159424,517.141113 
z"/>
<path fill="#EC934F" opacity="1.000000" stroke="none" 
	d="
M529.973328,521.901611 
	C530.435425,521.892151 530.887817,521.943542 531.674438,522.069397 
	C531.377625,522.480347 530.746460,522.816833 529.976318,522.714233 
	C529.837341,522.275085 529.842957,521.937683 529.842957,521.937683 
	C529.842957,521.937683 529.963562,521.962402 529.973328,521.901611 
z"/>
<path fill="#3D2615" opacity="1.000000" stroke="none" 
	d="
M537.179810,521.393433 
	C537.517212,520.996033 538.117126,520.736755 538.842407,520.683289 
	C538.459290,521.103210 537.950867,521.317383 537.179810,521.393433 
z"/>
<path fill="#EC934F" opacity="1.000000" stroke="none" 
	d="
M530.936890,528.935425 
	C530.560974,529.382263 530.050354,529.579956 529.259766,529.720398 
	C529.587280,529.337585 530.194824,529.011963 530.936890,528.935425 
z"/>
<path fill="#EC934F" opacity="1.000000" stroke="none" 
	d="
M482.232056,531.423340 
	C482.535156,530.954773 482.993256,530.673035 483.739014,530.461975 
	C483.480133,530.891846 482.933563,531.251038 482.232056,531.423340 
z"/>
<path fill="#EC934F" opacity="1.000000" stroke="none" 
	d="
M506.937500,531.935303 
	C506.557495,532.364502 506.045593,532.546753 505.255493,532.674316 
	C505.586731,532.309143 506.196198,531.998718 506.937500,531.935303 
z"/>
<path fill="#EC934F" opacity="1.000000" stroke="none" 
	d="
M474.147827,533.230835 
	C474.484711,532.773132 474.966766,532.533997 475.735413,532.352661 
	C475.445679,532.756836 474.869354,533.103088 474.147827,533.230835 
z"/>
<path fill="#EC934F" opacity="1.000000" stroke="none" 
	d="
M469.070190,534.074402 
	C469.438507,533.602234 469.943390,533.379211 470.732483,533.218445 
	C470.413391,533.628357 469.810089,533.975952 469.070190,534.074402 
z"/>
<path fill="#3F2715" opacity="1.000000" stroke="none" 
	d="
M492.855225,534.511902 
	C492.497955,534.916443 491.866943,535.186829 491.118774,535.233215 
	C491.528229,534.798706 492.054840,534.588257 492.855225,534.511902 
z"/>
<path fill="#321F11" opacity="1.000000" stroke="none" 
	d="
M529.749268,521.952271 
	C529.842957,521.937683 529.837341,522.275085 529.840454,522.443237 
	C529.843628,522.611389 529.514893,522.407043 529.406738,522.246094 
	C529.298584,522.085083 529.655518,521.966919 529.749268,521.952271 
z"/>
<path fill="#FCBAE0" opacity="1.000000" stroke="none" 
	d="
M364.852844,681.428894 
	C356.579407,707.216248 339.731049,723.181641 313.601990,729.215088 
	C279.370880,737.119446 241.686859,712.093689 235.746338,677.434387 
	C229.558182,641.330322 248.847748,610.076355 283.533691,600.006958 
	C319.144043,589.669128 358.096161,613.464661 365.469452,649.845825 
	C367.599213,660.354370 367.292755,670.670593 364.852844,681.428894 
M344.825531,653.995361 
	C352.737335,653.877319 357.050354,649.550049 354.712555,642.468750 
	C352.680573,636.314026 349.137451,630.487061 345.386688,625.127930 
	C342.643097,621.207947 337.510712,621.210693 333.766571,623.867920 
	C330.055115,626.502014 328.820221,631.681091 331.009491,635.905029 
	C333.224365,640.178406 335.277924,644.575867 337.936401,648.562744 
	C339.392120,650.745850 341.952148,652.192627 344.825531,653.995361 
z"/>
<path fill="#9FD3F2" opacity="1.000000" stroke="none" 
	d="
M491.489532,568.191162 
	C525.498047,565.814148 553.147461,587.865295 561.441772,617.359070 
	C571.331604,652.526367 547.664978,691.934814 511.754059,699.038818 
	C476.180206,706.076111 443.920410,687.028442 433.417480,652.785400 
	C422.302429,616.546814 446.437897,576.533997 483.664185,569.496887 
	C486.114807,569.033630 488.579315,568.643494 491.489532,568.191162 
M547.025208,617.532104 
	C547.690247,614.637695 549.591003,611.318909 548.772095,608.934021 
	C546.859436,603.363647 543.881653,598.100037 540.873413,592.983704 
	C538.508423,588.961609 532.730286,587.648621 529.040588,589.687256 
	C524.544739,592.171326 522.838379,597.344482 525.099670,602.138733 
	C527.085754,606.349548 529.219482,610.492554 531.356628,614.629944 
	C534.846802,621.386780 540.214844,622.584473 547.025208,617.532104 
z"/>
<path fill="#2B1B0E" opacity="1.000000" stroke="none" 
	d="
M146.213898,598.085632 
	C147.543182,596.774170 149.030746,594.913696 150.901993,594.367371 
	C167.254562,589.593140 183.619263,584.838318 200.096237,580.519897 
	C211.234177,577.600769 222.565308,575.422119 233.790710,572.828613 
	C235.011719,572.546509 236.104645,571.709961 237.623138,571.473145 
	C237.992889,572.543823 237.996445,573.271912 238.000000,574.000000 
	C230.329666,575.968872 222.644653,577.882629 214.992188,579.918640 
	C201.020264,583.635925 187.049652,587.360596 173.114151,591.211243 
	C165.686600,593.263672 158.346283,595.630310 150.935684,597.746948 
	C149.548965,598.143066 148.015701,598.026062 146.213898,598.085632 
z"/>
<path fill="#382516" opacity="1.000000" stroke="none" 
	d="
M336.868317,553.240234 
	C342.656006,552.878784 348.252716,552.878784 353.849396,552.878784 
	C353.846771,553.057861 353.844116,553.236877 353.841461,553.415955 
	C349.097046,553.936462 344.346619,554.410889 339.615234,555.030884 
	C338.961304,555.116577 338.401733,555.922241 337.901062,556.704346 
	C329.460938,558.172607 320.897461,559.197510 312.380127,560.519531 
	C298.248383,562.712952 284.146301,565.097290 269.549805,566.945312 
	C269.027130,565.910950 268.986359,565.332397 268.945557,564.753906 
	C281.006226,562.542664 293.040588,560.172974 305.135437,558.168091 
	C315.613800,556.431152 326.160706,555.107849 336.868317,553.240234 
z"/>
<path fill="#110B06" opacity="1.000000" stroke="none" 
	d="
M268.541443,564.781982 
	C268.986359,565.332397 269.027130,565.910950 269.125366,566.921997 
	C259.055084,569.611572 248.927338,571.868713 238.399780,574.062927 
	C237.996445,573.271912 237.992889,572.543823 238.001495,571.451843 
	C245.572037,569.540710 253.130432,567.993469 261.379761,566.559326 
	C262.768677,566.297913 263.466614,565.923340 264.164551,565.548767 
	C265.488831,565.302612 266.813080,565.056396 268.541443,564.781982 
z"/>
<path fill="#382516" opacity="1.000000" stroke="none" 
	d="
M348.351105,556.624146 
	C350.745026,556.107971 353.565826,555.709167 356.668427,555.574463 
	C354.226135,556.139465 351.502075,556.440491 348.351105,556.624146 
z"/>
<path fill="#301E10" opacity="1.000000" stroke="none" 
	d="
M271.267456,556.831299 
	C264.532257,558.113220 257.792297,559.370789 251.062866,560.682129 
	C237.940933,563.239319 224.824921,565.826721 211.358215,567.952637 
	C210.985641,566.947815 210.961319,566.391846 210.936996,565.835876 
	C222.997131,563.208069 235.057266,560.580200 247.816559,557.887939 
	C249.015106,557.564148 249.514496,557.304810 250.013901,557.045471 
	C251.382019,556.930908 252.750122,556.816406 254.913208,556.716003 
	C257.074310,556.313843 258.440460,555.897522 259.806580,555.481201 
	C260.910797,555.619812 262.015045,555.758423 263.934692,555.885559 
	C266.840179,555.628296 268.930267,555.382507 271.058380,555.563843 
	C271.153412,556.270996 271.210419,556.551086 271.267456,556.831299 
z"/>
<path fill="#382313" opacity="1.000000" stroke="none" 
	d="
M210.525482,565.829529 
	C210.961319,566.391846 210.985641,566.947815 211.022095,567.780273 
	C205.404160,569.846985 199.791367,571.693909 194.140472,573.415771 
	C181.785904,577.180237 169.411972,580.881104 156.659637,584.673218 
	C156.188293,584.106079 156.103256,583.473755 155.992752,582.364807 
	C170.793884,577.296936 185.609406,572.669312 200.455994,568.143616 
	C203.617340,567.179932 206.891678,566.586975 210.525482,565.829529 
z"/>
<path fill="#191008" opacity="1.000000" stroke="none" 
	d="
M271.726624,556.845520 
	C271.210419,556.551086 271.153412,556.270996 271.438354,555.502197 
	C273.850098,554.328064 275.919891,553.642639 277.989716,552.957275 
	C281.168121,552.780029 284.346527,552.602722 288.341858,552.631836 
	C290.795837,552.458618 292.432831,552.078979 294.069824,551.699341 
	C297.085571,551.459351 300.101318,551.219360 303.793945,551.282898 
	C306.003143,551.293213 307.535461,550.999939 309.067749,550.706665 
	C312.111542,550.472595 315.155365,550.238525 318.604492,550.108582 
	C319.010193,550.842163 319.010529,551.471680 319.011292,552.415649 
	C317.940857,552.849426 316.869995,552.968750 315.203400,552.779175 
	C313.380554,552.747925 312.153412,553.025513 310.926300,553.303101 
	C299.279480,554.199951 287.631226,555.079102 275.987854,556.018555 
	C274.706207,556.122009 273.452484,556.571045 271.726624,556.845520 
z"/>
<path fill="#D88749" opacity="1.000000" stroke="none" 
	d="
M277.740967,552.674438 
	C275.919891,553.642639 273.850098,554.328064 271.400330,555.075073 
	C268.930267,555.382507 266.840179,555.628296 264.351929,555.828491 
	C268.466583,554.652527 272.979401,553.522095 277.740967,552.674438 
z"/>
<path fill="#382516" opacity="1.000000" stroke="none" 
	d="
M293.709320,551.558777 
	C292.432831,552.078979 290.795837,552.458618 288.753357,552.709106 
	C290.014893,552.192688 291.681854,551.805420 293.709320,551.558777 
z"/>
<path fill="#382516" opacity="1.000000" stroke="none" 
	d="
M308.720337,550.546021 
	C307.535461,550.999939 306.003143,551.293213 304.249176,551.335632 
	C305.475983,550.851624 306.924469,550.618530 308.720337,550.546021 
z"/>
<path fill="#D88749" opacity="1.000000" stroke="none" 
	d="
M259.547607,555.304077 
	C258.440460,555.897522 257.074310,556.313843 255.312653,556.616028 
	C256.374298,556.043579 257.831482,555.585327 259.547607,555.304077 
z"/>
<path fill="#D88749" opacity="1.000000" stroke="none" 
	d="
M249.871613,556.812195 
	C249.514496,557.304810 249.015106,557.564148 248.226639,557.759033 
	C248.534821,557.322754 249.132065,556.950806 249.871613,556.812195 
z"/>
<path fill="#382516" opacity="1.000000" stroke="none" 
	d="
M311.255859,553.458740 
	C312.153412,553.025513 313.380554,552.747925 314.799927,552.723755 
	C313.856598,553.189514 312.721008,553.401917 311.255859,553.458740 
z"/>
<path fill="#57361D" opacity="1.000000" stroke="none" 
	d="
M263.874969,565.446777 
	C263.466614,565.923340 262.768677,566.297913 261.778320,566.504089 
	C262.185730,566.005432 262.885559,565.675171 263.874969,565.446777 
z"/>
<path fill="#BA743F" opacity="1.000000" stroke="none" 
	d="
M438.459961,540.782898 
	C438.919373,541.228333 438.973572,541.671997 439.047546,542.450073 
	C435.980927,543.565674 432.894562,544.346924 429.415039,545.202026 
	C428.568878,545.199585 428.115814,545.123230 427.316559,545.063843 
	C428.912018,544.044067 430.785614,542.837158 432.816833,542.023987 
	C434.464539,541.364380 436.301636,541.177673 438.459961,540.782898 
z"/>
<path fill="#FFFCFE" opacity="1.000000" stroke="none" 
	d="
M344.419861,653.983398 
	C341.952148,652.192627 339.392120,650.745850 337.936401,648.562744 
	C335.277924,644.575867 333.224365,640.178406 331.009491,635.905029 
	C328.820221,631.681091 330.055115,626.502014 333.766571,623.867920 
	C337.510712,621.210693 342.643097,621.207947 345.386688,625.127930 
	C349.137451,630.487061 352.680573,636.314026 354.712555,642.468750 
	C357.050354,649.550049 352.737335,653.877319 344.419861,653.983398 
z"/>
<path fill="#FBFDFE" opacity="1.000000" stroke="none" 
	d="
M546.759338,617.797607 
	C540.214844,622.584473 534.846802,621.386780 531.356628,614.629944 
	C529.219482,610.492554 527.085754,606.349548 525.099670,602.138733 
	C522.838379,597.344482 524.544739,592.171326 529.040588,589.687256 
	C532.730286,587.648621 538.508423,588.961609 540.873413,592.983704 
	C543.881653,598.100037 546.859436,603.363647 548.772095,608.934021 
	C549.591003,611.318909 547.690247,614.637695 546.759338,617.797607 
z"/>
</svg>