<svg version="1.1" id="Layer_1" xmlns="http://www.w3.org/2000/svg" xmlns:xlink="http://www.w3.org/1999/xlink" x="0px" y="0px"
	 width="100%" viewBox="0 0 720 896" enable-background="new 0 0 720 896" xml:space="preserve">
<path fill="none" opacity="1.000000" stroke="#000000" stroke-linecap="round" stroke-linejoin="round" stroke-width="9.000000"
	d="
M368.000000,636.000000 
	C369.265839,629.036926 375.424194,627.524841 380.520935,625.043030 
	C400.230194,615.445923 421.171661,610.350342 443.004181,609.626526 
	C456.990601,609.162842 470.837250,611.578613 484.489563,614.547974 
	C503.795990,618.747009 522.499146,625.170837 541.487427,630.544495 
	C558.108704,635.248413 574.867737,639.399109 592.015869,641.361511 
	C604.100586,642.744446 616.329895,642.907410 628.501343,643.471497 
	C635.494019,643.795532 642.502014,643.776672 649.499207,644.022095 
	C653.442322,644.160400 655.559143,642.581055 656.046814,638.505615 
	C656.743774,632.681519 657.179565,626.850708 656.975708,621.000854 
	C656.371338,603.657410 654.043701,586.372131 654.572693,569.002197 
	C655.278564,545.826599 656.502197,522.666809 657.493591,499.499725 
	C657.543396,498.335205 657.500000,497.166656 657.500000,496.000000 
	C657.500000,458.833344 657.740295,421.664368 657.385986,384.501099 
	C657.236511,368.827911 655.415466,353.174652 655.115967,337.497772 
	C654.808044,321.387268 657.554077,305.457825 659.510254,289.501251 
	C659.940369,285.992706 660.342407,282.468262 661.039856,279.008057 
	C661.911560,274.682861 659.433289,273.655273 655.999390,273.514435 
	C646.834473,273.138641 637.668579,272.627167 628.499573,272.543427 
	C610.094727,272.375244 591.688782,272.200134 573.506226,268.964996 
	C552.812622,265.283081 532.153198,261.404175 511.504059,257.478729 
	C493.323273,254.022507 474.984894,252.146255 456.501434,252.563110 
	C424.852997,253.276871 396.266998,262.800415 371.427887,282.910950 
	C368.102112,285.603638 365.270599,289.401428 360.500000,290.000000 
"/>
<path fill="none" opacity="1.000000" stroke="#000000" stroke-linecap="round" stroke-linejoin="round" stroke-width="9.000000"
	d="
M57.750000,288.500000 
	C59.374454,291.220032 57.517815,293.902924 57.270042,296.477875 
	C56.756779,301.811859 57.773869,307.228912 56.132645,312.540985 
	C55.489075,314.623993 56.492237,317.167877 56.474178,319.499786 
	C56.358032,334.500183 56.043697,349.499939 56.036507,364.500031 
	C56.030033,377.999939 56.227833,391.502319 56.526062,404.999420 
	C56.920158,422.835114 57.285606,440.675781 58.045277,458.498077 
	C59.558037,493.988159 59.897327,529.496887 59.372356,564.998108 
	C59.073849,585.184570 58.485676,605.404480 56.038898,625.504761 
	C55.027336,633.814758 54.446194,642.177185 53.628857,650.949768 
	C60.583672,655.080322 68.361107,653.613220 75.998276,652.979187 
	C100.180244,650.971985 122.248833,641.569641 144.467422,632.916321 
	C163.253036,625.599976 181.999207,618.539368 201.974762,614.862854 
	C222.534561,611.078735 243.184128,609.395752 263.997498,610.076477 
	C289.454285,610.909119 314.348053,615.163818 337.958099,625.099548 
	C344.731445,627.950012 350.929779,632.140747 357.532410,635.435059 
	C360.430145,636.880798 363.405334,638.283386 367.061371,636.636230 
	C369.311127,635.622681 371.846649,638.279602 374.500702,637.502380 
	C380.253326,635.818054 386.293274,635.947266 392.092041,633.742065 
	C397.666229,631.622314 403.973358,631.282959 410.005219,630.542419 
	C425.503998,628.639465 440.888702,629.817749 455.976471,633.593994 
	C465.270081,635.920044 474.342651,639.137329 483.490173,642.031006 
	C484.893921,642.475098 486.697113,642.981445 487.411713,644.058594 
	C491.298492,649.917603 497.633270,650.018372 503.486267,651.552429 
	C519.054321,655.632751 534.215515,661.232788 550.010376,664.449158 
	C565.378052,667.578552 580.820923,670.198303 596.488708,671.623840 
	C609.482605,672.806091 622.452393,674.328735 635.496887,673.904541 
	C644.536316,673.610535 653.626648,673.062805 662.486023,670.941589 
	C664.185364,670.534790 666.208557,669.922852 667.437134,670.612061 
	C674.622620,674.642822 681.252686,670.978027 687.983459,669.428284 
	C691.245850,668.677124 694.541809,667.543213 697.459900,665.927612 
	C705.396362,661.533630 708.296875,654.336426 708.571350,645.502197 
	C708.926147,634.082458 707.430054,622.798828 706.332397,611.516296 
	C705.553955,603.514709 706.973083,595.801941 707.616638,588.009644 
	C709.103394,570.008789 710.797607,552.028564 712.058777,534.004089 
	C714.610352,497.538239 715.419189,461.029938 714.915222,424.501160 
	C714.632141,403.982666 714.178650,383.439178 711.975098,363.002686 
	C710.949097,353.486969 711.644348,343.979431 712.109253,334.505371 
	C712.653137,323.421417 709.243835,316.816193 697.987183,313.038147 
	C693.638306,311.578583 689.251831,309.973328 684.500000,310.500000 
"/>
<path fill="none" opacity="1.000000" stroke="#000000" stroke-linecap="round" stroke-linejoin="round" stroke-width="9.000000"
	d="
M29.500000,317.500000 
	C23.940613,318.146576 18.485434,318.198120 12.967778,316.612091 
	C9.631963,315.653259 7.714151,317.762634 7.500246,321.500000 
	C7.067441,329.062103 8.470362,336.511200 9.112716,343.990326 
	C10.071395,355.152527 11.514558,366.246582 11.560111,377.499756 
	C11.719356,416.839233 10.840766,456.174683 10.207260,495.495270 
	C9.573426,534.836243 10.074410,574.170044 9.423203,613.498718 
	C9.147242,630.164978 8.374988,646.824158 8.499529,663.500000 
	C8.503263,664.000000 8.553926,664.506775 8.491939,664.998962 
	C7.498569,672.887451 8.250474,674.514282 16.007124,674.818298 
	C22.511969,675.073364 28.958248,675.015259 35.205616,670.805115 
	C40.225220,667.422241 47.602226,667.201904 53.424667,668.778259 
	C63.864826,671.604858 74.142723,670.222229 84.498283,669.937439 
	C89.508240,669.799683 94.498932,668.988831 99.501060,668.511108 
	C100.326866,668.432251 101.421654,668.154175 101.961494,668.552246 
	C109.289978,673.955505 116.968399,670.506531 124.496002,669.470886 
	C146.306763,666.470276 167.813385,661.721558 189.497696,657.986633 
	C203.972763,655.493408 218.404144,652.718994 233.002075,651.017761 
	C249.642807,649.078430 266.414703,648.040588 282.961823,650.734558 
	C292.825928,652.340454 301.611694,657.609985 309.515747,663.980469 
	C315.536682,668.833252 321.549713,673.682434 327.961212,678.056885 
	C339.645020,686.028748 352.309174,687.673279 366.013184,685.586609 
	C378.310394,683.714111 388.921143,678.149597 398.944366,671.417175 
	C411.115540,663.241943 423.772583,656.624390 438.475952,654.344910 
	C440.466949,654.036255 442.677216,653.717102 444.501099,653.707458 
	C453.165436,653.661438 461.138062,648.689270 470.011627,650.441162 
	C472.770355,650.985779 475.760925,650.439270 478.478577,651.089539 
	C482.900665,652.147583 486.684570,650.774109 490.500000,649.000000 
"/>
<path fill="none" opacity="1.000000" stroke="#000000" stroke-linecap="round" stroke-linejoin="round" stroke-width="10.000000"
	d="
M667.500000,293.500000 
	C669.166687,293.500000 670.889343,293.222961 672.490540,293.546722 
	C680.560364,295.178589 680.481628,295.575378 682.133728,303.973694 
	C682.971680,308.233307 682.815735,312.274475 682.597778,316.505035 
	C682.238098,323.486511 682.502380,330.500000 682.499573,337.500000 
	C682.493713,352.007477 682.024719,366.502686 681.658752,381.003998 
	C680.901001,411.031769 682.758789,441.018463 684.411499,471.004883 
	C685.796692,496.139587 685.752930,521.326416 685.486450,546.499878 
	C685.319641,562.260376 684.109192,577.940674 681.528442,593.504700 
	C681.313232,594.802368 681.500000,596.166687 681.500000,597.500000 
	C681.500000,612.500000 681.566223,627.500488 681.454285,642.499634 
	C681.425659,646.335266 681.173340,650.238037 680.388794,653.976685 
	C679.797424,656.794495 678.773438,659.361206 675.621033,661.206726 
	C672.071411,663.284729 668.269653,665.769653 666.500000,670.000000 
"/>
<path fill="none" opacity="1.000000" stroke="#000000" stroke-linecap="round" stroke-linejoin="round" stroke-width="10.000000"
	d="
M55.000000,313.500000 
	C52.500000,312.798859 50.037273,313.117462 47.490108,313.415466 
	C44.616920,313.751587 41.828827,313.150970 38.952518,312.134338 
	C33.544041,310.222748 30.082607,314.296082 30.892464,320.015228 
	C32.135094,328.790619 32.801777,337.656372 33.474926,346.501923 
	C35.578403,374.142853 33.580704,401.852997 34.659016,429.493805 
	C35.420162,449.004486 34.827259,468.517853 35.628941,487.994690 
	C36.596458,511.500366 36.333305,534.997437 36.515892,558.499878 
	C36.584522,567.333923 37.068825,576.169861 36.950066,584.999329 
	C36.716209,602.386292 35.173367,619.696472 33.574505,637.006897 
	C32.808491,645.300232 32.902466,653.670288 32.465240,661.998169 
	C32.295444,665.232300 34.218269,667.287048 36.000000,669.500000 
"/>
<path fill="none" opacity="1.000000" stroke="#000000" stroke-linecap="round" stroke-linejoin="round" stroke-width="9.000000"
	d="
M59.000000,290.000000 
	C66.719490,287.716400 74.664902,289.522583 82.518394,288.669312 
	C97.152679,287.079315 110.861687,282.543640 124.499046,277.497437 
	C140.324142,271.641663 155.706009,264.686157 171.953552,259.844147 
	C187.383972,255.245636 203.045303,253.034637 218.998367,251.975357 
	C239.521851,250.612595 259.847595,252.196518 279.992859,256.037476 
	C306.412506,261.074768 331.368744,270.060394 354.558929,283.901276 
	C359.918335,287.100006 359.794098,291.558105 359.495514,296.499725 
	C359.012085,304.500732 358.360748,312.494141 358.023163,320.500977 
	C356.196899,363.817505 356.350464,407.160828 356.540924,450.499817 
	C356.645630,474.334167 356.947906,498.172333 357.565063,521.998291 
	C358.117706,543.331421 358.423065,564.661194 358.547333,585.999695 
	C358.644379,602.667786 359.166687,619.333313 359.500031,636.000000 
"/>
<path fill="none" opacity="1.000000" stroke="#000000" stroke-linecap="round" stroke-linejoin="round" stroke-width="9.000000"
	d="
M357.500000,638.000000 
	C352.966125,644.553467 345.969635,643.018921 340.022125,642.313477 
	C320.296906,639.973938 300.643860,636.981018 281.007507,633.951294 
	C266.405029,631.698120 251.689590,629.803711 236.999588,629.782043 
	C222.783691,629.761047 208.808426,633.238403 194.974060,636.902039 
	C177.293777,641.584106 160.299927,648.231018 142.999130,653.997375 
	C132.538605,657.483826 121.789047,659.869385 110.978714,661.885864 
	C107.823982,662.474243 105.601646,663.919739 103.500000,666.000000 
"/>
<path fill="none" opacity="1.000000" stroke="#000000" stroke-linecap="round" stroke-linejoin="round" stroke-width="6.000000"
	d="
M611.000000,462.750000 
	C606.672119,460.108551 601.924561,459.928101 597.000488,459.903442 
	C592.368408,459.880249 587.921204,458.195648 585.590149,453.950500 
	C582.331909,448.016815 576.547485,446.877289 570.982544,445.574432 
	C554.416626,441.696014 537.771912,438.166748 521.007324,435.208435 
	C513.039307,433.802460 505.762817,433.649292 498.840485,439.304779 
	C495.426331,442.094116 490.144440,442.320251 486.041901,439.440308 
	C478.947662,434.460144 472.395905,434.841217 466.001709,440.501953 
	C461.846924,444.180115 456.956573,443.252899 452.543274,441.862671 
	C446.630310,440.000061 442.045441,441.351959 438.548584,446.036285 
	C432.313873,454.388153 423.427032,455.248962 414.535553,453.784210 
	C405.826416,452.349518 398.844666,453.187866 393.958313,461.224670 
	C393.786377,461.507477 393.000000,461.416656 392.500000,461.500000 
"/>
<path fill="none" opacity="1.000000" stroke="#000000" stroke-linecap="round" stroke-linejoin="round" stroke-width="6.000000"
	d="
M605.000000,364.750000 
	C589.293396,357.861938 573.884033,350.275024 557.510254,344.968262 
	C549.671082,342.427551 541.630249,340.986389 533.494019,340.052094 
	C529.479065,339.591064 525.503357,340.862030 522.059204,342.616241 
	C515.858032,345.774780 509.717224,346.097961 503.522705,343.446960 
	C494.492432,339.582367 486.440948,340.934021 478.428558,346.395203 
	C473.688080,349.626312 468.066132,350.152496 462.503204,347.991760 
	C455.406860,345.235443 448.803406,345.479553 443.000580,351.000610 
	C440.243164,353.624084 436.506134,353.802979 433.558716,352.823364 
	C427.018585,350.649750 422.256165,353.123138 417.470917,356.963776 
	C414.121826,359.651764 410.632324,362.218842 406.962463,364.437897 
	C403.358734,366.616943 399.228149,367.328918 395.000000,367.250000 
"/>
<path fill="none" opacity="1.000000" stroke="#000000" stroke-linecap="round" stroke-linejoin="round" stroke-width="6.000000"
	d="
M318.000000,363.250000 
	C307.037262,358.413696 296.383240,352.882111 285.008057,348.976562 
	C269.571075,343.676453 253.884491,343.795197 237.995087,346.217743 
	C226.241852,348.009674 214.349548,348.405182 202.495010,348.873993 
	C198.407410,349.035645 195.313843,350.111359 192.464996,352.965057 
	C186.225693,359.214874 185.226654,359.334045 177.011612,355.475281 
	C173.519287,353.834869 170.035919,353.832245 166.504517,355.013489 
	C155.610764,358.657288 146.016083,364.803955 136.563950,371.096069 
	C133.184036,373.346039 130.353745,374.578156 126.470642,372.556396 
	C122.632881,370.558228 118.781715,371.174133 115.529907,374.033997 
	C113.560066,375.766388 111.803391,377.701355 109.000000,378.000000 
"/>
<path fill="none" opacity="1.000000" stroke="#000000" stroke-linecap="round" stroke-linejoin="round" stroke-width="6.000000"
	d="
M286.500000,533.500000 
	C278.897705,532.579163 273.036407,527.766174 266.543610,524.415466 
	C264.218445,523.215576 261.819641,522.113464 259.577393,520.861450 
	C254.335144,517.934143 249.366226,518.155212 244.539413,521.065369 
	C240.127838,523.725159 235.625092,523.130981 231.000671,522.495178 
	C230.662277,522.448608 230.317230,522.372803 230.002304,522.244324 
	C215.082077,516.158264 201.074951,519.946411 187.528519,526.558472 
	C174.840515,532.751526 161.863419,537.200073 147.499344,537.122742 
	C142.670181,537.096802 137.820419,538.426086 133.003281,539.268738 
	C127.028091,540.314026 121.985725,542.503784 118.851669,548.421448 
	C117.123764,551.684021 113.139397,552.205688 109.501350,551.978455 
	C105.901024,551.753540 103.281448,552.969055 102.000000,556.500000 
"/>
<path fill="none" opacity="1.000000" stroke="#000000" stroke-linecap="round" stroke-linejoin="round" stroke-width="6.000000"
	d="
M314.500000,403.500000 
	C304.532501,395.963898 292.784637,392.687866 280.999786,389.500824 
	C280.668152,389.411133 280.303864,389.391998 280.004303,389.241425 
	C272.021576,385.228790 264.723267,386.883118 257.450562,391.420746 
	C253.133392,394.114349 247.917587,393.784058 242.998718,393.965088 
	C233.504227,394.314423 223.983063,393.464233 214.500778,394.507080 
	C209.047653,395.106812 203.521652,395.933014 198.565414,398.146484 
	C193.926407,400.218292 189.881805,399.805267 185.488525,398.028381 
	C179.040070,395.420227 176.975128,395.722076 173.614822,401.566010 
	C169.881577,408.058533 165.403030,410.764038 157.959778,408.112915 
	C155.193527,407.127625 152.627411,408.598816 150.425507,410.929626 
	C147.505493,414.020660 145.424255,418.321991 140.500000,419.000000 
"/>
<path fill="none" opacity="1.000000" stroke="#000000" stroke-linecap="round" stroke-linejoin="round" stroke-width="6.000000"
	d="
M621.500000,516.500000 
	C617.804565,511.390900 612.447021,509.137695 606.499817,509.128357 
	C600.190063,509.118439 595.088867,507.280762 590.990845,502.507843 
	C587.709656,498.686310 583.117188,497.017548 578.482483,496.087311 
	C565.140503,493.409363 551.628662,492.137909 538.000488,491.961731 
	C526.664795,491.815247 515.334045,491.304504 503.999573,491.016876 
	C500.399811,490.925507 497.280945,489.322845 494.555542,487.420410 
	C485.330872,480.981201 476.876953,482.960571 468.480408,488.972626 
	C465.929657,490.799042 463.318420,492.533936 460.550171,494.089294 
	C455.229706,497.078461 449.906403,497.285858 444.519470,494.954987 
	C437.329773,491.844055 430.234619,491.916534 424.089447,496.616943 
	C417.394592,501.737854 410.474915,502.748230 402.483429,501.079376 
	C392.963440,499.091309 391.152863,500.172211 387.622955,509.048889 
	C387.049255,510.491577 386.557739,510.521423 385.500000,510.500000 
"/>
<path fill="none" opacity="1.000000" stroke="#000000" stroke-linecap="round" stroke-linejoin="round" stroke-width="6.000000"
	d="
M293.000000,581.500000 
	C291.372070,574.397949 281.942200,566.717712 274.499573,566.515320 
	C271.168701,566.424744 267.827789,566.379822 264.501556,566.533752 
	C261.177460,566.687622 257.956909,565.944275 255.567444,563.920410 
	C249.180283,558.510437 242.877167,559.221558 236.520386,563.530090 
	C230.534546,567.587219 224.083862,568.041565 217.521622,565.932739 
	C208.112579,562.909058 199.700653,563.444458 192.448471,570.950195 
	C191.144043,572.300232 189.052032,572.851257 187.522919,574.029724 
	C183.887711,576.831299 179.985611,577.313782 176.022339,575.207947 
	C169.708084,571.852966 164.187683,573.013245 158.994598,577.493713 
	C154.247299,581.589600 148.751740,583.504578 142.506744,582.459717 
	C137.832428,581.677673 133.752213,582.646606 131.063705,586.543945 
	C127.121964,592.258179 122.420639,593.337891 116.500000,590.000000 
"/>
<path fill="none" opacity="1.000000" stroke="#000000" stroke-linecap="round" stroke-linejoin="round" stroke-width="6.000000"
	d="
M600.000000,321.250000 
	C587.247437,319.639099 575.600464,314.538330 564.030151,309.431702 
	C546.804443,301.829010 528.845093,301.218048 510.496216,302.443268 
	C493.151550,303.601440 476.091705,306.613739 458.997070,309.482513 
	C458.186554,309.618530 457.333344,309.500000 456.500000,309.500000 
"/>
<path fill="none" opacity="1.000000" stroke="#000000" stroke-linecap="round" stroke-linejoin="round" stroke-width="6.000000"
	d="
M605.500000,413.000000 
	C596.642761,413.436279 588.899963,409.476898 581.044189,406.387604 
	C573.011292,403.228577 565.298340,399.238708 557.518005,395.462891 
	C554.597839,394.045654 551.371826,393.212067 548.544739,394.136810 
	C541.507202,396.438843 535.379089,394.283478 530.101074,390.363922 
	C523.745972,385.644440 517.404663,385.767731 510.496399,387.988831 
	C507.183960,389.053864 503.891296,390.360382 500.485199,390.907990 
	C496.314484,391.578491 492.080994,391.041534 488.525635,388.464630 
	C485.166107,386.029633 482.007996,385.883209 477.965576,387.139221 
	C450.197784,395.766846 422.333344,404.083313 394.500000,412.499969 
"/>
<path fill="none" opacity="1.000000" stroke="#000000" stroke-linecap="round" stroke-linejoin="round" stroke-width="6.000000"
	d="
M297.500000,464.500000 
	C294.614258,465.279907 291.741486,463.894409 290.140137,462.354279 
	C284.345032,456.780731 277.031952,456.794556 269.992340,456.075012 
	C255.124405,454.555298 240.289169,456.168213 225.508072,457.584229 
	C214.183685,458.669128 202.874191,459.527832 191.500000,459.500000 
"/>
<path fill="none" opacity="1.000000" stroke="#000000" stroke-linecap="round" stroke-linejoin="round" stroke-width="6.000000"
	d="
M298.500000,503.500000 
	C296.648346,503.624542 295.084290,502.640289 294.055176,501.452209 
	C288.201416,494.694092 280.351440,492.927368 272.003967,491.965668 
	C255.657166,490.082458 239.345932,487.888123 222.994766,486.046417 
	C214.602814,485.101196 206.535690,485.294708 199.379028,491.357178 
	C195.313538,494.801117 189.973328,495.446167 184.478409,493.562988 
	C176.698990,490.896973 169.596573,491.525055 162.872894,497.353363 
	C158.133499,501.461639 152.295288,503.327148 145.437500,501.201630 
	C141.579193,500.005737 137.512634,501.417267 135.461945,505.982910 
	C131.590302,514.602661 125.427292,517.093506 115.937843,514.751892 
	C107.876419,512.762634 101.229202,517.305664 96.000000,523.500000 
"/>
<path fill="none" opacity="1.000000" stroke="#000000" stroke-linecap="round" stroke-linejoin="round" stroke-width="9.000000"
	d="
M388.000000,636.500000 
	C388.666656,639.000000 389.346100,641.496704 389.997467,644.000671 
	C391.627228,650.265686 389.314087,654.930115 384.542267,659.048950 
	C374.201447,667.974670 351.890228,668.710693 341.524872,663.450989 
	C331.490295,658.359253 329.499329,654.020935 331.000000,642.500000 
"/>
<path fill="none" opacity="1.000000" stroke="#000000" stroke-linecap="round" stroke-linejoin="round" stroke-width="6.000000"
	d="
M158.500000,322.500000 
	C158.500000,322.000000 158.471558,321.063782 158.504013,321.061676 
	C165.114822,320.630676 167.893936,315.165192 171.435760,310.946075 
	C175.592148,305.994812 178.717224,304.683319 184.486725,307.032593 
	C191.183640,309.759491 196.859970,310.031647 202.133286,303.609436 
	C206.987167,297.698029 210.015106,297.847778 216.501862,301.997070 
	C219.896606,304.168518 223.286026,304.838959 227.033920,302.555664 
	C229.179962,301.248260 231.784500,300.706024 233.973648,299.453918 
	C237.686493,297.330383 241.340897,297.713623 244.438675,300.080261 
	C248.838898,303.441956 253.210419,304.103241 258.532227,302.615295 
	C263.851837,301.127991 268.937256,301.687347 273.069977,306.439148 
	C277.205963,311.194641 283.522369,310.471344 289.016235,311.404449 
	C296.240173,312.631348 303.162445,314.289001 309.000000,319.000000 
"/>
<path fill="none" opacity="1.000000" stroke="#000000" stroke-linecap="round" stroke-linejoin="round" stroke-width="6.000000"
	d="
M158.000000,320.750000 
	C148.978973,317.415344 140.899460,320.386353 133.001602,324.503082 
	C124.037361,329.175659 115.451241,334.766418 105.003250,335.783386 
	C103.990471,335.881989 104.707237,336.928253 104.500000,337.500000 
"/>
<path fill="none" opacity="1.000000" stroke="#000000" stroke-linecap="round" stroke-linejoin="round" stroke-width="6.000000"
	d="
M140.500000,420.500000 
	C137.668915,416.919250 133.397980,415.706970 129.458664,414.101440 
	C127.730225,413.396973 125.867157,414.433594 124.479660,415.981781 
	C121.883644,418.878418 119.284859,421.790619 116.472954,424.471649 
	C111.992104,428.743927 107.408318,427.538727 104.500000,421.500000 
"/>
<path fill="none" opacity="1.000000" stroke="#000000" stroke-linecap="round" stroke-linejoin="round" stroke-width="6.000000"
	d="
M116.499992,588.500000 
	C112.166664,592.166687 108.006462,596.072021 103.424355,599.395752 
	C101.248238,600.974182 98.164650,599.801025 95.500000,600.000000 
"/>
</svg>